%TF.GenerationSoftware,KiCad,Pcbnew,9.0.4*%
%TF.CreationDate,2026-02-25T16:03:30-05:00*%
%TF.ProjectId,FlashCardBanked2M,466c6173-6843-4617-9264-42616e6b6564,rev?*%
%TF.SameCoordinates,Original*%
%TF.FileFunction,Copper,L1,Top*%
%TF.FilePolarity,Positive*%
%FSLAX46Y46*%
G04 Gerber Fmt 4.6, Leading zero omitted, Abs format (unit mm)*
G04 Created by KiCad (PCBNEW 9.0.4) date 2026-02-25 16:03:30*
%MOMM*%
%LPD*%
G01*
G04 APERTURE LIST*
G04 Aperture macros list*
%AMRoundRect*
0 Rectangle with rounded corners*
0 $1 Rounding radius*
0 $2 $3 $4 $5 $6 $7 $8 $9 X,Y pos of 4 corners*
0 Add a 4 corners polygon primitive as box body*
4,1,4,$2,$3,$4,$5,$6,$7,$8,$9,$2,$3,0*
0 Add four circle primitives for the rounded corners*
1,1,$1+$1,$2,$3*
1,1,$1+$1,$4,$5*
1,1,$1+$1,$6,$7*
1,1,$1+$1,$8,$9*
0 Add four rect primitives between the rounded corners*
20,1,$1+$1,$2,$3,$4,$5,0*
20,1,$1+$1,$4,$5,$6,$7,0*
20,1,$1+$1,$6,$7,$8,$9,0*
20,1,$1+$1,$8,$9,$2,$3,0*%
G04 Aperture macros list end*
%TA.AperFunction,SMDPad,CuDef*%
%ADD10R,1.300000X1.500000*%
%TD*%
%TA.AperFunction,SMDPad,CuDef*%
%ADD11R,1.500000X1.300000*%
%TD*%
%TA.AperFunction,SMDPad,CuDef*%
%ADD12R,2.032000X0.660400*%
%TD*%
%TA.AperFunction,SMDPad,CuDef*%
%ADD13R,0.300000X1.300000*%
%TD*%
%TA.AperFunction,SMDPad,CuDef*%
%ADD14R,1.651000X3.454400*%
%TD*%
%TA.AperFunction,SMDPad,CuDef*%
%ADD15RoundRect,0.100000X0.250000X0.100000X-0.250000X0.100000X-0.250000X-0.100000X0.250000X-0.100000X0*%
%TD*%
%TA.AperFunction,ViaPad*%
%ADD16C,0.600000*%
%TD*%
%TA.AperFunction,Conductor*%
%ADD17C,0.152400*%
%TD*%
G04 APERTURE END LIST*
D10*
%TO.P,C3,1,1*%
%TO.N,VCC*%
X148050000Y-94000000D03*
%TO.P,C3,2,2*%
%TO.N,GND*%
X149950000Y-94000000D03*
%TD*%
%TO.P,C2,1,1*%
%TO.N,VCC*%
X142050000Y-88000000D03*
%TO.P,C2,2,2*%
%TO.N,GND*%
X143950000Y-88000000D03*
%TD*%
D11*
%TO.P,C1,1,1*%
%TO.N,VCC*%
X164000000Y-93450000D03*
%TO.P,C1,2,2*%
%TO.N,GND*%
X164000000Y-91550000D03*
%TD*%
D12*
%TO.P,IC3,1,G*%
%TO.N,Net-(IC3A-G)*%
X129470800Y-88785000D03*
%TO.P,IC3,2,A1*%
%TO.N,VCC*%
X129470800Y-90055000D03*
%TO.P,IC3,3,Y4*%
%TO.N,unconnected-(IC3B-Y4-Pad3)*%
X129470800Y-91325000D03*
%TO.P,IC3,4,A2*%
%TO.N,VCC*%
X129470800Y-92595000D03*
%TO.P,IC3,5,Y3*%
%TO.N,/A13*%
X129470800Y-93865000D03*
%TO.P,IC3,6,A3*%
%TO.N,VCC*%
X129470800Y-95135000D03*
%TO.P,IC3,7,Y2*%
%TO.N,/A14*%
X129470800Y-96405000D03*
%TO.P,IC3,8,A4*%
%TO.N,VCC*%
X129470800Y-97675000D03*
%TO.P,IC3,9,Y1*%
%TO.N,/A15*%
X129470800Y-98945000D03*
%TO.P,IC3,10,GND*%
%TO.N,GND*%
X129470800Y-100215000D03*
%TO.P,IC3,11,A1*%
%TO.N,VCC*%
X139529200Y-100215000D03*
%TO.P,IC3,12,Y4*%
%TO.N,/A16*%
X139529200Y-98945000D03*
%TO.P,IC3,13,A2*%
%TO.N,VCC*%
X139529200Y-97675000D03*
%TO.P,IC3,14,Y3*%
%TO.N,/A17*%
X139529200Y-96405000D03*
%TO.P,IC3,15,A3*%
%TO.N,VCC*%
X139529200Y-95135000D03*
%TO.P,IC3,16,Y2*%
%TO.N,/A18*%
X139529200Y-93865000D03*
%TO.P,IC3,17,A4*%
%TO.N,VCC*%
X139529200Y-92595000D03*
%TO.P,IC3,18,Y1*%
%TO.N,/A19*%
X139529200Y-91325000D03*
%TO.P,IC3,19,G*%
%TO.N,Net-(IC3A-G)*%
X139529200Y-90055000D03*
%TO.P,IC3,20,VCC*%
%TO.N,VCC*%
X139529200Y-88785000D03*
%TD*%
D13*
%TO.P,IC1,1,A15*%
%TO.N,/A15*%
X158250000Y-115850000D03*
%TO.P,IC1,2,A14*%
%TO.N,/A14*%
X158750000Y-115850000D03*
%TO.P,IC1,3,A13*%
%TO.N,/A13*%
X159250000Y-115850000D03*
%TO.P,IC1,4,A12*%
%TO.N,/A12*%
X159750000Y-115850000D03*
%TO.P,IC1,5,A11*%
%TO.N,/A11*%
X160250000Y-115850000D03*
%TO.P,IC1,6,A10*%
%TO.N,/A10*%
X160750000Y-115850000D03*
%TO.P,IC1,7,A9*%
%TO.N,/A9*%
X161250000Y-115850000D03*
%TO.P,IC1,8,A8*%
%TO.N,/A8*%
X161750000Y-115850000D03*
%TO.P,IC1,9,A19*%
%TO.N,/A19*%
X162250000Y-115850000D03*
%TO.P,IC1,10,NC_1*%
%TO.N,unconnected-(IC1-NC_1-Pad10)*%
X162750000Y-115850000D03*
%TO.P,IC1,11,~{WE}*%
%TO.N,/~{WE}*%
X163250000Y-115850000D03*
%TO.P,IC1,12,~{RESET}*%
%TO.N,/~{RESET}*%
X163750000Y-115850000D03*
%TO.P,IC1,13,NC_2*%
%TO.N,unconnected-(IC1-NC_2-Pad13)*%
X164250000Y-115850000D03*
%TO.P,IC1,14,~{WP}*%
%TO.N,VCC*%
X164750000Y-115850000D03*
%TO.P,IC1,15,RY/~{BY}*%
%TO.N,/FLASHBUSY*%
X165250000Y-115850000D03*
%TO.P,IC1,16,A18*%
%TO.N,/A18*%
X165750000Y-115850000D03*
%TO.P,IC1,17,A17*%
%TO.N,/A17*%
X166250000Y-115850000D03*
%TO.P,IC1,18,A7*%
%TO.N,/A7*%
X166750000Y-115850000D03*
%TO.P,IC1,19,A6*%
%TO.N,/A6*%
X167250000Y-115850000D03*
%TO.P,IC1,20,A5*%
%TO.N,/A5*%
X167750000Y-115850000D03*
%TO.P,IC1,21,A4*%
%TO.N,/A4*%
X168250000Y-115850000D03*
%TO.P,IC1,22,A3*%
%TO.N,/A3*%
X168750000Y-115850000D03*
%TO.P,IC1,23,A2*%
%TO.N,/A2*%
X169250000Y-115850000D03*
%TO.P,IC1,24,A1*%
%TO.N,/A1*%
X169750000Y-115850000D03*
%TO.P,IC1,25,A0*%
%TO.N,/A0*%
X169750000Y-96150000D03*
%TO.P,IC1,26,~{CE}*%
%TO.N,/~{CS}*%
X169250000Y-96150000D03*
%TO.P,IC1,27,VSS_1*%
%TO.N,GND*%
X168750000Y-96150000D03*
%TO.P,IC1,28,~{OE}*%
%TO.N,/~{OE}*%
X168250000Y-96150000D03*
%TO.P,IC1,29,I/O0*%
%TO.N,/D0*%
X167750000Y-96150000D03*
%TO.P,IC1,30,I/O8*%
%TO.N,unconnected-(IC1-I{slash}O8-Pad30)*%
X167250000Y-96150000D03*
%TO.P,IC1,31,I/O1*%
%TO.N,/D1*%
X166750000Y-96150000D03*
%TO.P,IC1,32,I/O9*%
%TO.N,unconnected-(IC1-I{slash}O9-Pad32)*%
X166250000Y-96150000D03*
%TO.P,IC1,33,I/O2*%
%TO.N,/D2*%
X165750000Y-96150000D03*
%TO.P,IC1,34,I/O10*%
%TO.N,unconnected-(IC1-I{slash}O10-Pad34)*%
X165250000Y-96150000D03*
%TO.P,IC1,35,I/O3*%
%TO.N,/D3*%
X164750000Y-96150000D03*
%TO.P,IC1,36,I/O11*%
%TO.N,unconnected-(IC1-I{slash}O11-Pad36)*%
X164250000Y-96150000D03*
%TO.P,IC1,37,VCC*%
%TO.N,VCC*%
X163750000Y-96150000D03*
%TO.P,IC1,38,I/O4*%
%TO.N,/D4*%
X163250000Y-96150000D03*
%TO.P,IC1,39,I/O12*%
%TO.N,unconnected-(IC1-I{slash}O12-Pad39)*%
X162750000Y-96150000D03*
%TO.P,IC1,40,I/O5*%
%TO.N,/D5*%
X162250000Y-96150000D03*
%TO.P,IC1,41,I/O13*%
%TO.N,unconnected-(IC1-I{slash}O13-Pad41)*%
X161750000Y-96150000D03*
%TO.P,IC1,42,I/O6*%
%TO.N,/D6*%
X161250000Y-96150000D03*
%TO.P,IC1,43,I/O14*%
%TO.N,unconnected-(IC1-I{slash}O14-Pad43)*%
X160750000Y-96150000D03*
%TO.P,IC1,44,I/O7*%
%TO.N,/D7*%
X160250000Y-96150000D03*
%TO.P,IC1,45,I/O15_(A-1)*%
%TO.N,/A-1*%
X159750000Y-96150000D03*
%TO.P,IC1,46,VSS_2*%
%TO.N,GND*%
X159250000Y-96150000D03*
%TO.P,IC1,47,~{BYTE}*%
X158750000Y-96150000D03*
%TO.P,IC1,48,A16*%
%TO.N,/A16*%
X158250000Y-96150000D03*
%TD*%
D14*
%TO.P,U$1,P$1,VCC*%
%TO.N,VCC*%
X126911100Y-125603000D03*
%TO.P,U$1,P$2,~{SPI_CS}*%
%TO.N,/BANK_DONE*%
X129451100Y-125603000D03*
%TO.P,U$1,P$3,SPI_MISO*%
%TO.N,/FLASHBUSY*%
X131991100Y-125603000D03*
%TO.P,U$1,P$4,SPI_MOSI*%
%TO.N,/BANK_SER*%
X134531100Y-125603000D03*
%TO.P,U$1,P$5,SPI_CLK*%
%TO.N,/BANK_CLK*%
X137071100Y-125603000D03*
%TO.P,U$1,P$6,A12*%
%TO.N,/A11*%
X139611100Y-125603000D03*
%TO.P,U$1,P$7,A7*%
%TO.N,/A6*%
X142151100Y-125603000D03*
%TO.P,U$1,P$8,A6*%
%TO.N,/A5*%
X144691100Y-125603000D03*
%TO.P,U$1,P$9,A5*%
%TO.N,/A4*%
X147231100Y-125603000D03*
%TO.P,U$1,P$10,A4*%
%TO.N,/A3*%
X149771100Y-125603000D03*
%TO.P,U$1,P$11,A3*%
%TO.N,/A2*%
X152311100Y-125603000D03*
%TO.P,U$1,P$12,A2*%
%TO.N,/A1*%
X154851100Y-125603000D03*
%TO.P,U$1,P$13,A1*%
%TO.N,/A0*%
X157391100Y-125603000D03*
%TO.P,U$1,P$14,A0*%
%TO.N,/A-1*%
X159931100Y-125603000D03*
%TO.P,U$1,P$15,D0*%
%TO.N,/D0*%
X162471100Y-125603000D03*
%TO.P,U$1,P$16,D1*%
%TO.N,/D1*%
X165011100Y-125603000D03*
%TO.P,U$1,P$17,D2*%
%TO.N,/D2*%
X167551100Y-125603000D03*
%TO.P,U$1,P$18,CLK*%
%TO.N,unconnected-(U$1B-CLK-PadP$18)*%
X170091100Y-125603000D03*
%TD*%
D15*
%TO.P,IC4,1*%
%TO.N,N/C*%
X149500000Y-91650000D03*
%TO.P,IC4,2,I*%
%TO.N,/~{BANKING}*%
X149500000Y-91000000D03*
%TO.P,IC4,3,GND*%
%TO.N,GND*%
X149500000Y-90350000D03*
%TO.P,IC4,4,O*%
%TO.N,Net-(IC3A-G)*%
X147500000Y-90350000D03*
%TO.P,IC4,5,VCC*%
%TO.N,VCC*%
X147500000Y-91650000D03*
%TD*%
D11*
%TO.P,C4,1,1*%
%TO.N,VCC*%
X130000000Y-116550000D03*
%TO.P,C4,2,2*%
%TO.N,GND*%
X130000000Y-118450000D03*
%TD*%
D12*
%TO.P,IC2,1,QB*%
%TO.N,/A14*%
X136573400Y-114445000D03*
%TO.P,IC2,2,QC*%
%TO.N,/A15*%
X136573400Y-113175000D03*
%TO.P,IC2,3,QD*%
%TO.N,/A16*%
X136573400Y-111905000D03*
%TO.P,IC2,4,QE*%
%TO.N,/A17*%
X136573400Y-110635000D03*
%TO.P,IC2,5,QF*%
%TO.N,/A18*%
X136573400Y-109365000D03*
%TO.P,IC2,6,QG*%
%TO.N,/A19*%
X136573400Y-108095000D03*
%TO.P,IC2,7,QH*%
%TO.N,unconnected-(IC2A-QH-Pad7)*%
X136573400Y-106825000D03*
%TO.P,IC2,8,GND*%
%TO.N,GND*%
X136573400Y-105555000D03*
%TO.P,IC2,9,QH\u002A*%
%TO.N,unconnected-(IC2A-QH\u002A-Pad9)*%
X130426600Y-105555000D03*
%TO.P,IC2,10,SCL*%
%TO.N,VCC*%
X130426600Y-106825000D03*
%TO.P,IC2,11,SCK*%
%TO.N,/BANK_CLK*%
X130426600Y-108095000D03*
%TO.P,IC2,12,RCK*%
%TO.N,/BANK_DONE*%
X130426600Y-109365000D03*
%TO.P,IC2,13,G*%
%TO.N,/~{BANKING}*%
X130426600Y-110635000D03*
%TO.P,IC2,14,SER*%
%TO.N,/BANK_SER*%
X130426600Y-111905000D03*
%TO.P,IC2,15,QA*%
%TO.N,/A13*%
X130426600Y-113175000D03*
%TO.P,IC2,16,VCC*%
%TO.N,VCC*%
X130426600Y-114445000D03*
%TD*%
D16*
%TO.N,VCC*%
X165778600Y-93500000D03*
X141250000Y-100500000D03*
X127000000Y-120500000D03*
X146250000Y-94000000D03*
X127750000Y-97500000D03*
X146500000Y-91750000D03*
X139750000Y-87500000D03*
X141500000Y-97500000D03*
X127750000Y-90000000D03*
X164721400Y-114500000D03*
X127750000Y-92500000D03*
X128500000Y-107000000D03*
X141250000Y-92500000D03*
X141250000Y-95250000D03*
X127750000Y-95000000D03*
X128500000Y-116500000D03*
%TO.N,GND*%
X138250000Y-105500000D03*
X150500000Y-89750000D03*
X170000000Y-120500000D03*
X127750000Y-100500000D03*
X151500000Y-94000000D03*
X145500000Y-87250000D03*
X128967971Y-119467971D03*
X159000000Y-94500000D03*
X164000000Y-90000000D03*
X168750000Y-94500000D03*
%TO.N,/A16*%
X141250000Y-99000000D03*
X157250000Y-99000000D03*
X139000000Y-112000000D03*
X157250000Y-94750000D03*
%TO.N,/A-1*%
X160750000Y-121028600D03*
X159750000Y-98250000D03*
%TO.N,/D7*%
X156750000Y-116000000D03*
X159750000Y-99500000D03*
X150000000Y-116248200D03*
%TO.N,/D6*%
X154000000Y-107000000D03*
X161250000Y-98250000D03*
X161000000Y-107000000D03*
%TO.N,/D5*%
X162250000Y-99250000D03*
%TO.N,/D4*%
X163250000Y-99250000D03*
%TO.N,/D3*%
X164500000Y-99250000D03*
%TO.N,/D2*%
X166000000Y-99250000D03*
X168750000Y-121000000D03*
%TO.N,/D1*%
X168500000Y-120000000D03*
X166750000Y-98250000D03*
%TO.N,/D0*%
X168250000Y-119250000D03*
X167721400Y-98250000D03*
%TO.N,/~{OE}*%
X143250000Y-109750000D03*
X168250000Y-110028600D03*
X168250000Y-97500000D03*
%TO.N,/~{CS}*%
X169250000Y-109500000D03*
X148763077Y-115513077D03*
X152500000Y-109500000D03*
X169250000Y-97500000D03*
X152500000Y-115500000D03*
%TO.N,/A0*%
X159500000Y-121028600D03*
X170000000Y-107750000D03*
X159500000Y-107750000D03*
X170000000Y-97250000D03*
%TO.N,/A7*%
X135000000Y-118000000D03*
%TO.N,/A17*%
X133692800Y-96250000D03*
X134000000Y-110750000D03*
%TO.N,/A18*%
X134221400Y-94000000D03*
X134500000Y-109250000D03*
%TO.N,/FLASHBUSY*%
X146250000Y-110750000D03*
X144250000Y-121000000D03*
%TO.N,/~{RESET}*%
X163778600Y-114500000D03*
%TO.N,/~{WE}*%
X129500000Y-120000000D03*
X145000000Y-120250000D03*
X147250000Y-111278600D03*
%TO.N,/A19*%
X134750000Y-91750000D03*
X134750000Y-108250000D03*
%TO.N,/A8*%
X137250000Y-119000000D03*
X146000000Y-120000000D03*
X148375598Y-111778600D03*
%TO.N,/A9*%
X149003232Y-112278600D03*
%TO.N,/A10*%
X150000000Y-112778600D03*
X139500000Y-119000000D03*
X147130867Y-118973980D03*
%TO.N,/A11*%
X148000000Y-120250000D03*
X150750000Y-113278600D03*
%TO.N,/A12*%
X131500000Y-117250000D03*
X144500000Y-111250000D03*
X143500000Y-117250000D03*
%TO.N,/A13*%
X140500000Y-116500000D03*
X132000000Y-116500000D03*
X133028600Y-94000000D03*
X128500000Y-113250000D03*
X133000000Y-113250000D03*
X140500000Y-108750000D03*
%TO.N,/A14*%
X135500000Y-97000000D03*
X142000000Y-111250000D03*
X142000000Y-114750000D03*
X134750000Y-114500000D03*
%TO.N,/A15*%
X141250000Y-113500000D03*
X141250000Y-109750000D03*
X134750000Y-113000000D03*
X136250000Y-99000000D03*
%TO.N,/BANK_CLK*%
X128250000Y-108000000D03*
X135750000Y-115750000D03*
X136000000Y-121528600D03*
X131500000Y-115500000D03*
%TO.N,/~{BANKING}*%
X165250000Y-88750000D03*
X132000000Y-110750000D03*
X151000000Y-91000000D03*
%TO.N,/BANK_SER*%
X133557200Y-111750000D03*
X133500000Y-121750000D03*
%TD*%
D17*
%TO.N,VCC*%
X130000000Y-116550000D02*
X128550000Y-116550000D01*
X129470800Y-92595000D02*
X127845000Y-92595000D01*
X129470800Y-90055000D02*
X127805000Y-90055000D01*
X128675000Y-106825000D02*
X128500000Y-107000000D01*
X127925000Y-97675000D02*
X127750000Y-97500000D01*
X140500000Y-87500000D02*
X139750000Y-87500000D01*
X130000000Y-116000000D02*
X130426600Y-115573400D01*
X126911100Y-120588900D02*
X127000000Y-120500000D01*
X139529200Y-92595000D02*
X141155000Y-92595000D01*
X129470800Y-95135000D02*
X127885000Y-95135000D01*
X142050000Y-88000000D02*
X141000000Y-88000000D01*
X130426600Y-106825000D02*
X128675000Y-106825000D01*
X129470800Y-97675000D02*
X127925000Y-97675000D01*
X139529200Y-87720800D02*
X139750000Y-87500000D01*
X128550000Y-116550000D02*
X128500000Y-116500000D01*
X164050000Y-93500000D02*
X165778600Y-93500000D01*
X130000000Y-116550000D02*
X130000000Y-116000000D01*
X164000000Y-93450000D02*
X163750000Y-93700000D01*
X141000000Y-88000000D02*
X140500000Y-87500000D01*
X126911100Y-125603000D02*
X126911100Y-120588900D01*
X164000000Y-93450000D02*
X164050000Y-93500000D01*
X164750000Y-114528600D02*
X164750000Y-115850000D01*
X127805000Y-90055000D02*
X127750000Y-90000000D01*
X127845000Y-92595000D02*
X127750000Y-92500000D01*
X163750000Y-93700000D02*
X163750000Y-96150000D01*
X147500000Y-91650000D02*
X146600000Y-91650000D01*
X146600000Y-91650000D02*
X146500000Y-91750000D01*
X164721400Y-114500000D02*
X164750000Y-114528600D01*
X139529200Y-97675000D02*
X141325000Y-97675000D01*
X141135000Y-95135000D02*
X141250000Y-95250000D01*
X139529200Y-95135000D02*
X141135000Y-95135000D01*
X127885000Y-95135000D02*
X127750000Y-95000000D01*
X140965000Y-100215000D02*
X141250000Y-100500000D01*
X139529200Y-88785000D02*
X139529200Y-87720800D01*
X141325000Y-97675000D02*
X141500000Y-97500000D01*
X141155000Y-92595000D02*
X141250000Y-92500000D01*
X130426600Y-115573400D02*
X130426600Y-114445000D01*
X139529200Y-100215000D02*
X140965000Y-100215000D01*
X148050000Y-94000000D02*
X146250000Y-94000000D01*
%TO.N,GND*%
X136628400Y-105500000D02*
X136573400Y-105555000D01*
X149500000Y-90350000D02*
X149900000Y-90350000D01*
X159250000Y-96150000D02*
X159250000Y-94750000D01*
X144750000Y-88000000D02*
X145500000Y-87250000D01*
X149900000Y-90350000D02*
X150500000Y-89750000D01*
X168750000Y-96150000D02*
X168750000Y-94500000D01*
X164000000Y-91550000D02*
X164000000Y-90000000D01*
X158750000Y-96150000D02*
X158750000Y-94750000D01*
X149950000Y-94000000D02*
X151500000Y-94000000D01*
X130000000Y-118450000D02*
X129985942Y-118450000D01*
X129985942Y-118450000D02*
X128967971Y-119467971D01*
X138250000Y-105500000D02*
X136628400Y-105500000D01*
X158750000Y-94750000D02*
X159000000Y-94500000D01*
X143950000Y-88000000D02*
X144750000Y-88000000D01*
X128035000Y-100215000D02*
X127750000Y-100500000D01*
X159250000Y-94750000D02*
X159000000Y-94500000D01*
X129470800Y-100215000D02*
X128035000Y-100215000D01*
%TO.N,/A16*%
X138750000Y-111750000D02*
X139000000Y-112000000D01*
X158000000Y-94750000D02*
X158250000Y-95000000D01*
X158250000Y-95000000D02*
X158250000Y-96150000D01*
X141250000Y-99000000D02*
X141195000Y-98945000D01*
X136728400Y-111750000D02*
X138750000Y-111750000D01*
X141195000Y-98945000D02*
X139529200Y-98945000D01*
X141250000Y-99000000D02*
X157250000Y-99000000D01*
X157250000Y-94750000D02*
X158000000Y-94750000D01*
X136573400Y-111905000D02*
X136728400Y-111750000D01*
%TO.N,/A-1*%
X159750000Y-98250000D02*
X159750000Y-96150000D01*
X159931100Y-121847500D02*
X160750000Y-121028600D01*
X159931100Y-125603000D02*
X159931100Y-121847500D01*
%TO.N,/D7*%
X150000000Y-116248200D02*
X156501800Y-116248200D01*
X160279600Y-98970400D02*
X159750000Y-99500000D01*
X160279600Y-96179600D02*
X160279600Y-98970400D01*
X160250000Y-96150000D02*
X160279600Y-96179600D01*
X156501800Y-116248200D02*
X156750000Y-116000000D01*
%TO.N,/D6*%
X161250000Y-96150000D02*
X161250000Y-98250000D01*
X161000000Y-107000000D02*
X154000000Y-107000000D01*
%TO.N,/D5*%
X162250000Y-96150000D02*
X162250000Y-99250000D01*
%TO.N,/D4*%
X163250000Y-96150000D02*
X163250000Y-99250000D01*
%TO.N,/D3*%
X164750000Y-99000000D02*
X164500000Y-99250000D01*
X164750000Y-96150000D02*
X164750000Y-99000000D01*
%TO.N,/D2*%
X165750000Y-96150000D02*
X165750000Y-99000000D01*
X167551100Y-125603000D02*
X167551100Y-122198900D01*
X165750000Y-99000000D02*
X166000000Y-99250000D01*
X167551100Y-122198900D02*
X168750000Y-121000000D01*
%TO.N,/D1*%
X165011100Y-123488900D02*
X165011100Y-125603000D01*
X168500000Y-120000000D02*
X165011100Y-123488900D01*
X166750000Y-98250000D02*
X166750000Y-96150000D01*
%TO.N,/D0*%
X167750000Y-96150000D02*
X167720400Y-96179600D01*
X167720400Y-98249000D02*
X167721400Y-98250000D01*
X166500000Y-121000000D02*
X163000000Y-121000000D01*
X162471100Y-121528900D02*
X162471100Y-125603000D01*
X163000000Y-121000000D02*
X162471100Y-121528900D01*
X167720400Y-96179600D02*
X167720400Y-98249000D01*
X168250000Y-119250000D02*
X166500000Y-121000000D01*
%TO.N,/~{OE}*%
X143634050Y-110134050D02*
X143250000Y-109750000D01*
X168250000Y-110028600D02*
X168144550Y-110134050D01*
X168250000Y-96150000D02*
X168250000Y-97500000D01*
X168144550Y-110134050D02*
X143634050Y-110134050D01*
%TO.N,/~{CS}*%
X152500000Y-115500000D02*
X148776154Y-115500000D01*
X169250000Y-96150000D02*
X169250000Y-97500000D01*
X169250000Y-109500000D02*
X152500000Y-109500000D01*
X148776154Y-115500000D02*
X148763077Y-115513077D01*
%TO.N,/A0*%
X157391100Y-123137500D02*
X157391100Y-125603000D01*
X170000000Y-107750000D02*
X159500000Y-107750000D01*
X159500000Y-121028600D02*
X157391100Y-123137500D01*
X169750000Y-97000000D02*
X170000000Y-97250000D01*
X169750000Y-96150000D02*
X169750000Y-97000000D01*
%TO.N,/A1*%
X169750000Y-116750000D02*
X166000000Y-120500000D01*
X169750000Y-115850000D02*
X169750000Y-116750000D01*
X166000000Y-120500000D02*
X157500000Y-120500000D01*
X157500000Y-120500000D02*
X154851100Y-123148900D01*
X154851100Y-123148900D02*
X154851100Y-125603000D01*
%TO.N,/A2*%
X152311100Y-123688900D02*
X152311100Y-125603000D01*
X165859200Y-120000000D02*
X156000000Y-120000000D01*
X169250000Y-116609200D02*
X165859200Y-120000000D01*
X156000000Y-120000000D02*
X152311100Y-123688900D01*
X169250000Y-115850000D02*
X169250000Y-116609200D01*
%TO.N,/A3*%
X168750000Y-115850000D02*
X168750000Y-116676734D01*
X149771100Y-123978900D02*
X149771100Y-125603000D01*
X165732534Y-119694200D02*
X154055800Y-119694200D01*
X154055800Y-119694200D02*
X149771100Y-123978900D01*
X168750000Y-116676734D02*
X165732534Y-119694200D01*
%TO.N,/A4*%
X147231100Y-125603000D02*
X147231100Y-123518900D01*
X149112200Y-123250000D02*
X152973800Y-119388400D01*
X147231100Y-123518900D02*
X147500000Y-123250000D01*
X147500000Y-123250000D02*
X149112200Y-123250000D01*
X168250000Y-116609200D02*
X165470800Y-119388400D01*
X168250000Y-115850000D02*
X168250000Y-116609200D01*
X165470800Y-119388400D02*
X152973800Y-119388400D01*
%TO.N,/A5*%
X167750000Y-116609200D02*
X165276600Y-119082600D01*
X144750000Y-125544100D02*
X144750000Y-123500000D01*
X148332600Y-122750000D02*
X152000000Y-119082600D01*
X167750000Y-115850000D02*
X167750000Y-116609200D01*
X144691100Y-125603000D02*
X144750000Y-125544100D01*
X144750000Y-123500000D02*
X145500000Y-122750000D01*
X144691100Y-124058900D02*
X144691100Y-125603000D01*
X145500000Y-122750000D02*
X148332600Y-122750000D01*
X165276600Y-119082600D02*
X152000000Y-119082600D01*
%TO.N,/A6*%
X151500000Y-118776800D02*
X165082400Y-118776800D01*
X143500000Y-122250000D02*
X148026800Y-122250000D01*
X148026800Y-122250000D02*
X151500000Y-118776800D01*
X165082400Y-118776800D02*
X167250000Y-116609200D01*
X142151100Y-125603000D02*
X142151100Y-123598900D01*
X167250000Y-116609200D02*
X167250000Y-115850000D01*
X142151100Y-123598900D02*
X143500000Y-122250000D01*
%TO.N,/A7*%
X165359200Y-118000000D02*
X135000000Y-118000000D01*
X166750000Y-116609200D02*
X165359200Y-118000000D01*
X166750000Y-115850000D02*
X166750000Y-116609200D01*
%TO.N,/A17*%
X136573400Y-110635000D02*
X134115000Y-110635000D01*
X146329267Y-117694200D02*
X139270068Y-110635000D01*
X139270068Y-110635000D02*
X136573400Y-110635000D01*
X134115000Y-110635000D02*
X134000000Y-110750000D01*
X133847800Y-96405000D02*
X139529200Y-96405000D01*
X166250000Y-116609200D02*
X165165000Y-117694200D01*
X133692800Y-96250000D02*
X133847800Y-96405000D01*
X165165000Y-117694200D02*
X146329267Y-117694200D01*
X166250000Y-115850000D02*
X166250000Y-116609200D01*
%TO.N,/A18*%
X134615000Y-109365000D02*
X136573400Y-109365000D01*
X165750000Y-115850000D02*
X165750000Y-116609200D01*
X165750000Y-116609200D02*
X164970800Y-117388400D01*
X138432534Y-109365000D02*
X136573400Y-109365000D01*
X164970800Y-117388400D02*
X146455934Y-117388400D01*
X134356400Y-93865000D02*
X134221400Y-94000000D01*
X134500000Y-109250000D02*
X134615000Y-109365000D01*
X139529200Y-93865000D02*
X134356400Y-93865000D01*
X146455934Y-117388400D02*
X138432534Y-109365000D01*
%TO.N,/FLASHBUSY*%
X146250000Y-110750000D02*
X163750000Y-110750000D01*
X132500000Y-121000000D02*
X131991100Y-121508900D01*
X144250000Y-121000000D02*
X132500000Y-121000000D01*
X131991100Y-121508900D02*
X131991100Y-125603000D01*
X165250000Y-112250000D02*
X165250000Y-115850000D01*
X163750000Y-110750000D02*
X165250000Y-112250000D01*
%TO.N,/~{RESET}*%
X163750000Y-114528600D02*
X163750000Y-115850000D01*
X163778600Y-114500000D02*
X163750000Y-114528600D01*
%TO.N,/~{WE}*%
X129750000Y-120250000D02*
X129500000Y-120000000D01*
X147250000Y-111278600D02*
X147278600Y-111250000D01*
X147278600Y-111250000D02*
X160500000Y-111250000D01*
X145000000Y-120250000D02*
X129750000Y-120250000D01*
X163250000Y-114000000D02*
X163250000Y-115850000D01*
X160500000Y-111250000D02*
X163250000Y-114000000D01*
%TO.N,/A19*%
X135175000Y-91325000D02*
X139529200Y-91325000D01*
X162250000Y-115850000D02*
X162250000Y-116609200D01*
X161776600Y-117082600D02*
X146582600Y-117082600D01*
X136573400Y-108095000D02*
X136418400Y-108250000D01*
X134750000Y-91750000D02*
X135175000Y-91325000D01*
X162250000Y-116609200D02*
X161776600Y-117082600D01*
X136418400Y-108250000D02*
X134750000Y-108250000D01*
X146582600Y-117082600D02*
X137595000Y-108095000D01*
X137595000Y-108095000D02*
X136573400Y-108095000D01*
%TO.N,/A8*%
X137971400Y-119721400D02*
X145721400Y-119721400D01*
X148375598Y-111778600D02*
X148404198Y-111750000D01*
X137250000Y-119000000D02*
X137971400Y-119721400D01*
X160000000Y-111750000D02*
X161750000Y-113500000D01*
X145721400Y-119721400D02*
X146000000Y-120000000D01*
X148404198Y-111750000D02*
X160000000Y-111750000D01*
X161750000Y-113500000D02*
X161750000Y-115850000D01*
%TO.N,/A9*%
X160000000Y-112250000D02*
X161250000Y-113500000D01*
X149003232Y-112253232D02*
X149006464Y-112250000D01*
X149006464Y-112250000D02*
X160000000Y-112250000D01*
X149003232Y-112278600D02*
X149003232Y-112253232D01*
X161250000Y-113500000D02*
X161250000Y-115850000D01*
%TO.N,/A10*%
X160750000Y-113500000D02*
X160750000Y-115850000D01*
X139526020Y-118973980D02*
X139500000Y-119000000D01*
X160000000Y-112750000D02*
X160750000Y-113500000D01*
X150028600Y-112750000D02*
X160000000Y-112750000D01*
X150000000Y-112778600D02*
X150028600Y-112750000D01*
X147130867Y-118973980D02*
X139526020Y-118973980D01*
%TO.N,/A11*%
X146305800Y-121944200D02*
X140805800Y-121944200D01*
X150750000Y-113278600D02*
X150778600Y-113250000D01*
X160250000Y-113750000D02*
X160250000Y-115850000D01*
X159750000Y-113250000D02*
X160250000Y-113750000D01*
X139611100Y-123138900D02*
X139611100Y-125603000D01*
X150778600Y-113250000D02*
X159750000Y-113250000D01*
X140805800Y-121944200D02*
X139611100Y-123138900D01*
X148000000Y-120250000D02*
X146305800Y-121944200D01*
%TO.N,/A12*%
X159500000Y-114000000D02*
X159750000Y-114250000D01*
X144500000Y-111250000D02*
X147250000Y-114000000D01*
X159750000Y-114250000D02*
X159750000Y-115850000D01*
X143500000Y-117250000D02*
X131500000Y-117250000D01*
X147250000Y-114000000D02*
X159500000Y-114000000D01*
%TO.N,/A13*%
X158555800Y-114305800D02*
X146806832Y-114305800D01*
X140500000Y-116500000D02*
X132000000Y-116500000D01*
X128575000Y-113175000D02*
X130426600Y-113175000D01*
X129605800Y-94000000D02*
X133028600Y-94000000D01*
X141251032Y-108750000D02*
X140500000Y-108750000D01*
X159250000Y-115000000D02*
X158555800Y-114305800D01*
X128500000Y-113250000D02*
X128575000Y-113175000D01*
X159250000Y-115850000D02*
X159250000Y-115000000D01*
X129470800Y-93865000D02*
X129605800Y-94000000D01*
X132925000Y-113175000D02*
X130426600Y-113175000D01*
X146806832Y-114305800D02*
X141251032Y-108750000D01*
X133000000Y-113250000D02*
X132925000Y-113175000D01*
%TO.N,/A14*%
X141695000Y-114445000D02*
X136573400Y-114445000D01*
X158452400Y-114750000D02*
X145500000Y-114750000D01*
X134750000Y-114500000D02*
X134805000Y-114445000D01*
X158750000Y-115047600D02*
X158452400Y-114750000D01*
X158750000Y-115850000D02*
X158750000Y-115047600D01*
X129470800Y-96405000D02*
X130065800Y-97000000D01*
X145500000Y-114750000D02*
X142000000Y-111250000D01*
X142000000Y-114750000D02*
X141695000Y-114445000D01*
X130065800Y-97000000D02*
X135500000Y-97000000D01*
X134805000Y-114445000D02*
X136573400Y-114445000D01*
%TO.N,/A15*%
X158250000Y-116526800D02*
X158000000Y-116776800D01*
X136195000Y-98945000D02*
X136250000Y-99000000D01*
X158250000Y-115850000D02*
X158250000Y-116526800D01*
X140425000Y-113175000D02*
X136573400Y-113175000D01*
X141250000Y-113500000D02*
X140750000Y-113500000D01*
X141250000Y-111250000D02*
X141250000Y-109750000D01*
X140750000Y-113500000D02*
X140425000Y-113175000D01*
X136573400Y-113175000D02*
X134925000Y-113175000D01*
X134925000Y-113175000D02*
X134750000Y-113000000D01*
X129470800Y-98945000D02*
X136195000Y-98945000D01*
X158000000Y-116776800D02*
X146776800Y-116776800D01*
X146776800Y-116776800D02*
X141250000Y-111250000D01*
%TO.N,/BANK_CLK*%
X130331600Y-108000000D02*
X128250000Y-108000000D01*
X137071100Y-125603000D02*
X137071100Y-122599700D01*
X130426600Y-108095000D02*
X130331600Y-108000000D01*
X135750000Y-115750000D02*
X131750000Y-115750000D01*
X137071100Y-122599700D02*
X136000000Y-121528600D01*
X131750000Y-115750000D02*
X131500000Y-115500000D01*
%TO.N,/BANK_DONE*%
X128635000Y-109365000D02*
X130426600Y-109365000D01*
X129451100Y-125603000D02*
X129451100Y-121701100D01*
X129451100Y-121701100D02*
X127000000Y-119250000D01*
X127000000Y-111000000D02*
X128635000Y-109365000D01*
X127000000Y-119250000D02*
X127000000Y-111000000D01*
%TO.N,/~{BANKING}*%
X153250000Y-88750000D02*
X151000000Y-91000000D01*
X131885000Y-110635000D02*
X132000000Y-110750000D01*
X165250000Y-88750000D02*
X153250000Y-88750000D01*
X130426600Y-110635000D02*
X131885000Y-110635000D01*
X151000000Y-91000000D02*
X149500000Y-91000000D01*
%TO.N,/BANK_SER*%
X134531100Y-125603000D02*
X134531100Y-122781100D01*
X134531100Y-122781100D02*
X133500000Y-121750000D01*
X133557200Y-111750000D02*
X133402200Y-111905000D01*
X133402200Y-111905000D02*
X130426600Y-111905000D01*
%TO.N,Net-(IC3A-G)*%
X132535000Y-88785000D02*
X133805000Y-90055000D01*
X133805000Y-90055000D02*
X139529200Y-90055000D01*
X142805000Y-90055000D02*
X143100000Y-90350000D01*
X139529200Y-90055000D02*
X142805000Y-90055000D01*
X129470800Y-88785000D02*
X132535000Y-88785000D01*
X143100000Y-90350000D02*
X147500000Y-90350000D01*
%TD*%
M02*
