%TF.GenerationSoftware,KiCad,Pcbnew,9.0.4*%
%TF.CreationDate,2026-02-25T16:03:30-05:00*%
%TF.ProjectId,FlashCardBanked2M,466c6173-6843-4617-9264-42616e6b6564,rev?*%
%TF.SameCoordinates,Original*%
%TF.FileFunction,Legend,Bot*%
%TF.FilePolarity,Positive*%
%FSLAX46Y46*%
G04 Gerber Fmt 4.6, Leading zero omitted, Abs format (unit mm)*
G04 Created by KiCad (PCBNEW 9.0.4) date 2026-02-25 16:03:30*
%MOMM*%
%LPD*%
G01*
G04 APERTURE LIST*
G04 Aperture macros list*
%AMRoundRect*
0 Rectangle with rounded corners*
0 $1 Rounding radius*
0 $2 $3 $4 $5 $6 $7 $8 $9 X,Y pos of 4 corners*
0 Add a 4 corners polygon primitive as box body*
4,1,4,$2,$3,$4,$5,$6,$7,$8,$9,$2,$3,0*
0 Add four circle primitives for the rounded corners*
1,1,$1+$1,$2,$3*
1,1,$1+$1,$4,$5*
1,1,$1+$1,$6,$7*
1,1,$1+$1,$8,$9*
0 Add four rect primitives between the rounded corners*
20,1,$1+$1,$2,$3,$4,$5,0*
20,1,$1+$1,$4,$5,$6,$7,0*
20,1,$1+$1,$6,$7,$8,$9,0*
20,1,$1+$1,$8,$9,$2,$3,0*%
G04 Aperture macros list end*
%ADD10C,0.000000*%
%ADD11C,8.400000*%
%ADD12C,3.399993*%
%ADD13RoundRect,0.101600X0.825500X-1.727200X0.825500X1.727200X-0.825500X1.727200X-0.825500X-1.727200X0*%
G04 APERTURE END LIST*
D10*
%TO.C,G\u002A\u002A\u002A*%
G36*
X145834833Y-90302620D02*
G01*
X145836451Y-90311401D01*
X145836451Y-90343667D01*
X142190518Y-91451407D01*
X142034025Y-91498949D01*
X141760371Y-91582055D01*
X141492488Y-91663373D01*
X141231142Y-91742672D01*
X140977103Y-91819719D01*
X140731139Y-91894282D01*
X140494019Y-91966130D01*
X140266511Y-92035029D01*
X140049383Y-92100747D01*
X139843405Y-92163053D01*
X139649345Y-92221714D01*
X139467970Y-92276498D01*
X139300051Y-92327173D01*
X139146355Y-92373506D01*
X139007651Y-92415266D01*
X138884706Y-92452220D01*
X138778291Y-92484137D01*
X138689174Y-92510783D01*
X138618122Y-92531926D01*
X138565904Y-92547336D01*
X138533290Y-92556778D01*
X138521047Y-92560022D01*
X138511210Y-92555710D01*
X138488595Y-92539240D01*
X138453415Y-92510010D01*
X138405150Y-92467552D01*
X138343279Y-92411400D01*
X138267282Y-92341086D01*
X138176639Y-92256144D01*
X138070829Y-92156107D01*
X138032712Y-92119894D01*
X137953715Y-92044502D01*
X137880454Y-91974132D01*
X137814409Y-91910229D01*
X137757058Y-91854241D01*
X137709878Y-91807616D01*
X137699897Y-91797554D01*
X137841718Y-91797554D01*
X137843972Y-91801457D01*
X137859684Y-91819004D01*
X137888864Y-91849113D01*
X137929914Y-91890204D01*
X137981235Y-91940696D01*
X138041227Y-91999010D01*
X138108292Y-92063563D01*
X138180832Y-92132776D01*
X138226953Y-92176516D01*
X138297123Y-92242740D01*
X138361405Y-92303016D01*
X138418119Y-92355792D01*
X138465584Y-92399513D01*
X138502119Y-92432625D01*
X138526044Y-92453576D01*
X138535677Y-92460810D01*
X138544893Y-92458316D01*
X138574392Y-92449683D01*
X138623206Y-92435157D01*
X138690395Y-92415026D01*
X138775019Y-92389574D01*
X138876136Y-92359088D01*
X138992806Y-92323854D01*
X139124087Y-92284160D01*
X139269038Y-92240290D01*
X139426720Y-92192531D01*
X139596189Y-92141170D01*
X139776507Y-92086493D01*
X139966731Y-92028786D01*
X140165921Y-91968334D01*
X140373136Y-91905426D01*
X140587435Y-91840346D01*
X140807877Y-91773381D01*
X141033521Y-91704817D01*
X141263426Y-91634941D01*
X141496651Y-91564038D01*
X141732255Y-91492396D01*
X141969298Y-91420300D01*
X142206838Y-91348036D01*
X142443934Y-91275891D01*
X142679645Y-91204151D01*
X142913031Y-91133103D01*
X143143151Y-91063032D01*
X143369063Y-90994225D01*
X143589827Y-90926968D01*
X143804501Y-90861547D01*
X144012145Y-90798249D01*
X144211818Y-90737359D01*
X144402579Y-90679165D01*
X144583487Y-90623952D01*
X144753600Y-90572007D01*
X144911979Y-90523615D01*
X145057682Y-90479064D01*
X145189767Y-90438639D01*
X145307295Y-90402626D01*
X145409325Y-90371313D01*
X145494914Y-90344984D01*
X145563123Y-90323927D01*
X145613010Y-90308428D01*
X145643635Y-90298772D01*
X145654056Y-90295247D01*
X145647740Y-90286785D01*
X145626967Y-90264969D01*
X145593684Y-90231920D01*
X145549927Y-90189530D01*
X145497733Y-90139689D01*
X145439137Y-90084289D01*
X145376176Y-90025220D01*
X145310886Y-89964374D01*
X145245303Y-89903642D01*
X145181465Y-89844915D01*
X145121406Y-89790084D01*
X145067164Y-89741039D01*
X145020774Y-89699673D01*
X144984274Y-89667876D01*
X144959698Y-89647539D01*
X144949084Y-89640553D01*
X144941528Y-89642583D01*
X144913756Y-89650684D01*
X144866561Y-89664695D01*
X144800886Y-89684329D01*
X144717677Y-89709301D01*
X144617875Y-89739324D01*
X144502425Y-89774112D01*
X144372270Y-89813378D01*
X144228353Y-89856835D01*
X144071619Y-89904199D01*
X143903010Y-89955182D01*
X143723470Y-90009497D01*
X143533943Y-90066859D01*
X143335372Y-90126982D01*
X143128701Y-90189578D01*
X142914872Y-90254362D01*
X142694831Y-90321047D01*
X142469519Y-90389347D01*
X142239882Y-90458976D01*
X142006861Y-90529646D01*
X141771401Y-90601073D01*
X141534446Y-90672968D01*
X141296938Y-90745047D01*
X141059821Y-90817023D01*
X140824040Y-90888609D01*
X140590536Y-90959520D01*
X140360254Y-91029468D01*
X140134138Y-91098167D01*
X139913130Y-91165332D01*
X139698175Y-91230675D01*
X139490216Y-91293911D01*
X139290196Y-91354752D01*
X139099059Y-91412914D01*
X138917748Y-91468108D01*
X138747207Y-91520050D01*
X138588380Y-91568452D01*
X138442210Y-91613029D01*
X138309640Y-91653493D01*
X138191614Y-91689559D01*
X138089075Y-91720941D01*
X138002968Y-91747351D01*
X137934235Y-91768504D01*
X137883820Y-91784113D01*
X137852667Y-91793892D01*
X137841718Y-91797554D01*
X137699897Y-91797554D01*
X137674348Y-91771799D01*
X137651946Y-91748240D01*
X137644150Y-91738384D01*
X137646338Y-91728678D01*
X137657960Y-91708154D01*
X137660164Y-91707101D01*
X137680044Y-91700160D01*
X137719760Y-91687229D01*
X137778383Y-91668591D01*
X137854980Y-91644529D01*
X137948622Y-91615326D01*
X138058378Y-91581265D01*
X138183316Y-91542629D01*
X138322507Y-91499701D01*
X138475018Y-91452764D01*
X138639920Y-91402101D01*
X138816281Y-91347995D01*
X139003171Y-91290729D01*
X139199660Y-91230586D01*
X139404815Y-91167848D01*
X139617706Y-91102800D01*
X139837403Y-91035724D01*
X140062975Y-90966903D01*
X140293491Y-90896620D01*
X140528020Y-90825158D01*
X140765631Y-90752800D01*
X141005394Y-90679828D01*
X141246377Y-90606527D01*
X141487651Y-90533179D01*
X141728283Y-90460067D01*
X141967344Y-90387474D01*
X142203902Y-90315683D01*
X142437027Y-90244977D01*
X142665787Y-90175639D01*
X142889253Y-90107952D01*
X143106493Y-90042199D01*
X143316577Y-89978663D01*
X143518573Y-89917626D01*
X143711551Y-89859374D01*
X143894580Y-89804187D01*
X144066729Y-89752349D01*
X144227068Y-89704143D01*
X144374665Y-89659852D01*
X144508591Y-89619759D01*
X144627913Y-89584147D01*
X144731701Y-89553299D01*
X144819025Y-89527499D01*
X144888954Y-89507028D01*
X144940556Y-89492170D01*
X144972901Y-89483209D01*
X144985059Y-89480426D01*
X144987296Y-89481741D01*
X145003623Y-89495180D01*
X145033784Y-89521927D01*
X145076229Y-89560547D01*
X145129407Y-89609606D01*
X145191768Y-89667670D01*
X145261763Y-89733304D01*
X145337842Y-89805072D01*
X145418454Y-89881542D01*
X145488883Y-89948598D01*
X145571642Y-90027663D01*
X145640431Y-90093824D01*
X145696489Y-90148354D01*
X145741053Y-90192527D01*
X145775363Y-90227617D01*
X145800658Y-90254898D01*
X145818175Y-90275643D01*
X145829154Y-90291125D01*
X145831190Y-90295247D01*
X145834833Y-90302620D01*
G37*
G36*
X148336334Y-93767711D02*
G01*
X148410700Y-93838854D01*
X148473946Y-93899011D01*
X148552073Y-93975041D01*
X148626519Y-94049313D01*
X148695495Y-94119931D01*
X148757210Y-94185004D01*
X148809875Y-94242636D01*
X148851699Y-94290933D01*
X148880893Y-94328003D01*
X148895666Y-94351950D01*
X148899730Y-94363741D01*
X148905832Y-94401719D01*
X148907205Y-94410267D01*
X148907331Y-94464603D01*
X148900511Y-94517071D01*
X148887144Y-94557991D01*
X148879859Y-94569290D01*
X148861873Y-94588256D01*
X148853381Y-94597210D01*
X148853037Y-94597463D01*
X148831611Y-94613236D01*
X148824726Y-94618304D01*
X148820658Y-94621299D01*
X148819610Y-94621856D01*
X148800469Y-94629361D01*
X148762417Y-94642545D01*
X148707432Y-94660797D01*
X148637487Y-94683508D01*
X148554557Y-94710069D01*
X148460617Y-94739868D01*
X148357643Y-94772297D01*
X148247610Y-94806745D01*
X148132491Y-94842602D01*
X148014263Y-94879259D01*
X147894901Y-94916106D01*
X147776378Y-94952533D01*
X147660671Y-94987930D01*
X147630729Y-94997043D01*
X147594429Y-95008091D01*
X147549754Y-95021688D01*
X147445603Y-95053195D01*
X147350191Y-95081844D01*
X147265495Y-95107022D01*
X147193489Y-95128122D01*
X147136148Y-95144533D01*
X147095447Y-95155645D01*
X147073361Y-95160848D01*
X147049555Y-95163395D01*
X146996229Y-95163671D01*
X146936193Y-95159291D01*
X146878735Y-95151068D01*
X146833142Y-95139815D01*
X146829054Y-95138410D01*
X146816982Y-95133965D01*
X146804950Y-95128565D01*
X146791724Y-95121112D01*
X146776067Y-95110508D01*
X146756746Y-95095656D01*
X146732525Y-95075458D01*
X146702169Y-95048817D01*
X146664443Y-95014634D01*
X146657364Y-95008091D01*
X147256155Y-95008091D01*
X147261679Y-95013615D01*
X147267203Y-95008091D01*
X147261679Y-95002567D01*
X147256155Y-95008091D01*
X146657364Y-95008091D01*
X146645410Y-94997043D01*
X147289300Y-94997043D01*
X147294824Y-95002567D01*
X147300348Y-94997043D01*
X147294824Y-94991519D01*
X147289300Y-94997043D01*
X146645410Y-94997043D01*
X146635010Y-94987431D01*
X147322445Y-94987431D01*
X147322450Y-94987582D01*
X147330731Y-94990252D01*
X147333106Y-94989741D01*
X147353572Y-94984100D01*
X147391616Y-94972938D01*
X147444961Y-94956958D01*
X147511330Y-94936866D01*
X147588445Y-94913365D01*
X147674029Y-94887162D01*
X147765807Y-94858959D01*
X147861499Y-94829461D01*
X147958830Y-94799374D01*
X148055523Y-94769402D01*
X148149299Y-94740249D01*
X148237883Y-94712620D01*
X148318996Y-94687220D01*
X148390363Y-94664752D01*
X148449705Y-94645922D01*
X148494747Y-94631435D01*
X148523209Y-94621994D01*
X148532817Y-94618304D01*
X148530514Y-94617704D01*
X148510711Y-94620330D01*
X148473085Y-94628802D01*
X148419933Y-94642418D01*
X148353555Y-94660479D01*
X148276248Y-94682282D01*
X148190310Y-94707128D01*
X148098041Y-94734314D01*
X148001737Y-94763141D01*
X147903698Y-94792907D01*
X147806221Y-94822912D01*
X147711605Y-94852455D01*
X147622147Y-94880834D01*
X147540148Y-94907349D01*
X147467903Y-94931299D01*
X147407712Y-94951983D01*
X147361874Y-94968700D01*
X147332685Y-94980750D01*
X147322445Y-94987431D01*
X146635010Y-94987431D01*
X146618112Y-94971813D01*
X146561942Y-94919256D01*
X146494696Y-94855865D01*
X146415140Y-94780543D01*
X146322039Y-94692191D01*
X146214158Y-94589714D01*
X146195810Y-94572266D01*
X146116871Y-94496834D01*
X146042861Y-94425534D01*
X145975372Y-94359937D01*
X145915999Y-94301618D01*
X145866338Y-94252152D01*
X145827981Y-94213110D01*
X145802524Y-94186068D01*
X145791561Y-94172599D01*
X145782146Y-94142729D01*
X145776686Y-94096675D01*
X145776568Y-94045723D01*
X145779940Y-94015149D01*
X145875686Y-94015149D01*
X145881190Y-94033622D01*
X145898104Y-94057156D01*
X145927929Y-94087885D01*
X145972168Y-94127945D01*
X146032320Y-94179470D01*
X146032753Y-94179836D01*
X146077149Y-94218584D01*
X146134189Y-94270250D01*
X146200978Y-94332107D01*
X146274620Y-94401428D01*
X146352219Y-94475489D01*
X146430878Y-94551563D01*
X146507703Y-94626925D01*
X146531403Y-94650304D01*
X146600849Y-94718176D01*
X146665998Y-94780939D01*
X146724964Y-94836838D01*
X146775865Y-94884115D01*
X146816815Y-94921014D01*
X146845933Y-94945778D01*
X146861333Y-94956650D01*
X146887767Y-94964400D01*
X146929031Y-94971828D01*
X146974129Y-94976598D01*
X146977358Y-94976806D01*
X147013178Y-94978096D01*
X147044399Y-94976084D01*
X147077303Y-94969552D01*
X147118173Y-94957286D01*
X147173293Y-94938071D01*
X147224124Y-94919871D01*
X147406188Y-94855618D01*
X147573354Y-94798334D01*
X147729929Y-94746689D01*
X147880217Y-94699351D01*
X148028524Y-94654989D01*
X148179155Y-94612272D01*
X148190541Y-94609202D01*
X148551796Y-94609202D01*
X148551967Y-94612973D01*
X148566297Y-94615005D01*
X148577157Y-94613236D01*
X148572972Y-94608330D01*
X148566583Y-94606565D01*
X148551796Y-94609202D01*
X148190541Y-94609202D01*
X148221754Y-94600786D01*
X148594951Y-94600786D01*
X148604045Y-94604829D01*
X148609894Y-94604031D01*
X148611411Y-94597463D01*
X148609791Y-94596141D01*
X148596680Y-94597463D01*
X148594951Y-94600786D01*
X148221754Y-94600786D01*
X148268224Y-94588256D01*
X148637190Y-94588256D01*
X148642714Y-94593780D01*
X148648238Y-94588256D01*
X148642714Y-94582732D01*
X148637190Y-94588256D01*
X148268224Y-94588256D01*
X148336416Y-94569869D01*
X148504611Y-94526448D01*
X148520784Y-94522339D01*
X148610033Y-94499088D01*
X148680024Y-94479422D01*
X148732772Y-94462393D01*
X148770291Y-94447056D01*
X148794596Y-94432462D01*
X148807703Y-94417666D01*
X148811626Y-94401719D01*
X148808379Y-94383676D01*
X148799761Y-94371334D01*
X148777059Y-94345031D01*
X148742170Y-94306975D01*
X148696917Y-94259091D01*
X148643122Y-94203307D01*
X148582606Y-94141549D01*
X148517191Y-94075745D01*
X148233928Y-93792780D01*
X148230455Y-93834950D01*
X148230284Y-93858086D01*
X148236410Y-93879706D01*
X148252025Y-93904353D01*
X148280172Y-93938351D01*
X148330782Y-93997473D01*
X148387822Y-94067254D01*
X148429312Y-94122587D01*
X148455559Y-94163886D01*
X148466867Y-94191566D01*
X148467774Y-94197410D01*
X148465266Y-94220316D01*
X148462828Y-94242585D01*
X148438371Y-94285513D01*
X148396582Y-94322146D01*
X148388388Y-94327165D01*
X148343822Y-94349820D01*
X148281024Y-94376793D01*
X148202534Y-94407235D01*
X148110898Y-94440295D01*
X148008657Y-94475123D01*
X147898356Y-94510870D01*
X147782536Y-94546685D01*
X147663742Y-94581720D01*
X147644032Y-94587242D01*
X147544517Y-94615122D01*
X147427403Y-94646044D01*
X147415520Y-94649070D01*
X147342959Y-94667080D01*
X147285749Y-94680019D01*
X147238720Y-94688722D01*
X147196700Y-94694024D01*
X147154518Y-94696760D01*
X147107003Y-94697764D01*
X147056476Y-94697765D01*
X147015354Y-94696145D01*
X146985509Y-94691997D01*
X146961214Y-94684480D01*
X146936748Y-94672754D01*
X146899440Y-94650716D01*
X146836973Y-94607734D01*
X146765428Y-94553019D01*
X146739599Y-94531739D01*
X146894679Y-94531739D01*
X146901093Y-94537578D01*
X146921916Y-94551694D01*
X146952489Y-94570796D01*
X146967382Y-94579182D01*
X147040571Y-94605448D01*
X147121540Y-94612925D01*
X147206438Y-94601153D01*
X147261679Y-94587242D01*
X147167769Y-94579452D01*
X147167048Y-94579392D01*
X147107759Y-94572538D01*
X147042590Y-94562149D01*
X146985520Y-94550449D01*
X146971549Y-94547133D01*
X146933133Y-94538466D01*
X146905779Y-94532978D01*
X146894679Y-94531739D01*
X146739599Y-94531739D01*
X146688110Y-94489319D01*
X146608327Y-94419385D01*
X146529384Y-94345965D01*
X146454587Y-94271809D01*
X146395184Y-94209876D01*
X146330778Y-94139338D01*
X146281690Y-94080083D01*
X146247093Y-94030348D01*
X146226157Y-93988369D01*
X146218555Y-93954608D01*
X146314384Y-93954608D01*
X146322985Y-93975439D01*
X146343212Y-94005763D01*
X146376551Y-94049130D01*
X146399973Y-94077653D01*
X146419087Y-94098844D01*
X146428968Y-94107133D01*
X146433192Y-94098976D01*
X146438516Y-94074228D01*
X146443376Y-94038604D01*
X146446693Y-94008091D01*
X146450557Y-93973029D01*
X146549065Y-93973029D01*
X146549065Y-94077354D01*
X146549415Y-94121954D01*
X146551447Y-94157584D01*
X146556477Y-94182623D01*
X146565821Y-94203209D01*
X146580795Y-94225480D01*
X146603313Y-94253266D01*
X146669130Y-94312677D01*
X146753376Y-94365857D01*
X146853852Y-94411731D01*
X146968356Y-94449219D01*
X147094688Y-94477244D01*
X147099634Y-94478083D01*
X147171094Y-94486575D01*
X147256374Y-94491544D01*
X147348347Y-94493001D01*
X147439882Y-94490959D01*
X147523852Y-94485428D01*
X147593127Y-94476421D01*
X147644074Y-94466351D01*
X147770281Y-94432823D01*
X147881519Y-94390159D01*
X147976209Y-94339156D01*
X147999163Y-94321605D01*
X148145520Y-94321605D01*
X148148967Y-94325350D01*
X148166150Y-94321192D01*
X148199262Y-94308870D01*
X148250500Y-94288129D01*
X148293338Y-94270182D01*
X148333745Y-94251210D01*
X148357816Y-94235422D01*
X148368074Y-94220316D01*
X148367037Y-94203389D01*
X148357226Y-94182138D01*
X148347488Y-94166297D01*
X148323197Y-94132359D01*
X148295642Y-94098421D01*
X148253787Y-94050517D01*
X148250912Y-94078373D01*
X148247340Y-94112990D01*
X148237715Y-94164102D01*
X148208512Y-94236893D01*
X148164581Y-94298239D01*
X148153613Y-94310213D01*
X148145520Y-94321605D01*
X147999163Y-94321605D01*
X148052774Y-94280612D01*
X148109635Y-94215324D01*
X148114896Y-94207423D01*
X148128236Y-94183556D01*
X148135826Y-94158799D01*
X148139231Y-94126092D01*
X148140017Y-94078373D01*
X148139609Y-94044866D01*
X148136882Y-94008065D01*
X148130853Y-93990305D01*
X148120666Y-93989757D01*
X148105463Y-94004593D01*
X148102204Y-94008365D01*
X148068446Y-94037763D01*
X148018787Y-94070720D01*
X147957836Y-94104815D01*
X147890203Y-94137625D01*
X147820497Y-94166725D01*
X147753328Y-94189693D01*
X147725729Y-94197406D01*
X147600099Y-94222826D01*
X147462642Y-94237156D01*
X147319219Y-94240434D01*
X147175689Y-94232698D01*
X147037912Y-94213984D01*
X146911747Y-94184331D01*
X146881926Y-94174734D01*
X146804468Y-94143872D01*
X146727907Y-94105960D01*
X146659194Y-94064645D01*
X146605281Y-94023572D01*
X146549065Y-93973029D01*
X146450557Y-93973029D01*
X146452180Y-93958302D01*
X146456836Y-93916807D01*
X146462847Y-93864061D01*
X146403759Y-93887297D01*
X146379310Y-93897672D01*
X146346408Y-93914105D01*
X146325693Y-93927623D01*
X146315924Y-93939724D01*
X146314384Y-93954608D01*
X146218555Y-93954608D01*
X146218053Y-93952380D01*
X146221953Y-93920618D01*
X146237028Y-93891319D01*
X146262450Y-93862716D01*
X146307284Y-93820067D01*
X146265212Y-93836166D01*
X146258398Y-93838755D01*
X146226838Y-93850592D01*
X146181315Y-93867537D01*
X146126851Y-93887724D01*
X146068465Y-93909287D01*
X146044709Y-93918161D01*
X145990762Y-93939206D01*
X145944906Y-93958310D01*
X145911388Y-93973662D01*
X145894454Y-93983453D01*
X145892903Y-93984848D01*
X145880091Y-93999603D01*
X145875686Y-94015149D01*
X145779940Y-94015149D01*
X145781764Y-93998604D01*
X145792246Y-93964051D01*
X145795064Y-93959068D01*
X145817500Y-93930174D01*
X145845892Y-93903739D01*
X145852698Y-93899430D01*
X145881321Y-93885317D01*
X145925885Y-93865934D01*
X145982978Y-93842585D01*
X146049189Y-93816578D01*
X146121105Y-93789221D01*
X146159245Y-93775138D01*
X146551974Y-93775138D01*
X146571548Y-93837772D01*
X146587175Y-93864061D01*
X146594760Y-93876820D01*
X146649056Y-93937429D01*
X146721661Y-93992899D01*
X146810376Y-94042080D01*
X146913003Y-94083825D01*
X147027342Y-94116986D01*
X147151196Y-94140416D01*
X147228924Y-94148547D01*
X147365293Y-94151197D01*
X147505501Y-94141100D01*
X147641818Y-94118949D01*
X147766516Y-94085432D01*
X147860271Y-94049474D01*
X147955228Y-94000221D01*
X148030115Y-93944834D01*
X148084552Y-93883668D01*
X148118159Y-93817077D01*
X148130558Y-93745414D01*
X148130568Y-93744963D01*
X148121167Y-93681501D01*
X148091573Y-93620792D01*
X148043604Y-93563763D01*
X147979074Y-93511340D01*
X147899801Y-93464448D01*
X147807601Y-93424013D01*
X147704290Y-93390962D01*
X147591685Y-93366220D01*
X147471601Y-93350714D01*
X147345856Y-93345369D01*
X147252771Y-93348223D01*
X147131073Y-93360776D01*
X147016981Y-93382483D01*
X146911945Y-93412424D01*
X146817415Y-93449676D01*
X146734838Y-93493319D01*
X146665664Y-93542431D01*
X146611341Y-93596090D01*
X146573320Y-93653375D01*
X146553048Y-93713365D01*
X146551974Y-93775138D01*
X146159245Y-93775138D01*
X146195315Y-93761819D01*
X146268407Y-93735680D01*
X146336968Y-93712111D01*
X146397587Y-93692418D01*
X146423170Y-93683914D01*
X146450504Y-93670987D01*
X146467687Y-93654035D01*
X146481730Y-93627663D01*
X146512493Y-93573158D01*
X146572041Y-93502897D01*
X146650174Y-93438558D01*
X146745050Y-93381383D01*
X146854830Y-93332610D01*
X146977674Y-93293479D01*
X147023230Y-93283313D01*
X147109962Y-93270359D01*
X147208504Y-93261626D01*
X147312741Y-93257316D01*
X147416560Y-93257631D01*
X147513844Y-93262773D01*
X147598481Y-93272945D01*
X147628455Y-93278289D01*
X147758063Y-93309587D01*
X147876067Y-93351680D01*
X147980497Y-93403462D01*
X148069382Y-93463830D01*
X148140750Y-93531679D01*
X148192630Y-93605903D01*
X148205722Y-93626399D01*
X148234901Y-93662612D01*
X148278086Y-93709340D01*
X148313634Y-93744963D01*
X148336334Y-93767711D01*
G37*
G36*
X145127629Y-94748632D02*
G01*
X145190361Y-94811983D01*
X145258643Y-94879534D01*
X145289628Y-94909963D01*
X145357093Y-94976739D01*
X145422176Y-95041818D01*
X145482181Y-95102466D01*
X145534407Y-95155946D01*
X145576159Y-95199523D01*
X145604738Y-95230462D01*
X145687299Y-95323257D01*
X145687273Y-95381033D01*
X145687258Y-95414260D01*
X145686981Y-95435422D01*
X145681619Y-95493497D01*
X145667724Y-95536710D01*
X145643079Y-95570058D01*
X145641105Y-95571553D01*
X145628945Y-95580760D01*
X145614353Y-95591809D01*
X145605467Y-95598537D01*
X145604935Y-95598833D01*
X145597099Y-95601850D01*
X145588405Y-95605197D01*
X145552873Y-95617323D01*
X145500283Y-95634606D01*
X145432579Y-95656445D01*
X145351707Y-95682236D01*
X145259612Y-95711376D01*
X145158238Y-95743263D01*
X145049530Y-95777292D01*
X144935433Y-95812861D01*
X144817891Y-95849367D01*
X144698850Y-95886207D01*
X144580255Y-95922778D01*
X144464050Y-95958477D01*
X144428701Y-95969291D01*
X144392583Y-95980340D01*
X144356469Y-95991388D01*
X144352180Y-95992700D01*
X144246589Y-96024846D01*
X144149224Y-96054309D01*
X144062028Y-96080489D01*
X143986946Y-96102780D01*
X143925923Y-96120582D01*
X143880905Y-96133289D01*
X143872114Y-96134681D01*
X143842303Y-96136384D01*
X143799877Y-96136897D01*
X143750941Y-96136090D01*
X143723706Y-96135125D01*
X143678035Y-96132003D01*
X143644102Y-96126231D01*
X143614841Y-96116319D01*
X143583188Y-96100783D01*
X143582824Y-96100587D01*
X143561338Y-96086176D01*
X143528272Y-96059859D01*
X143483042Y-96021109D01*
X143449720Y-95991388D01*
X144019008Y-95991388D01*
X144024532Y-95996912D01*
X144030057Y-95991388D01*
X144024532Y-95985864D01*
X144019008Y-95991388D01*
X143449720Y-95991388D01*
X143437333Y-95980340D01*
X144052153Y-95980340D01*
X144057677Y-95985864D01*
X144063201Y-95980340D01*
X144057677Y-95974816D01*
X144052153Y-95980340D01*
X143437333Y-95980340D01*
X143425066Y-95969399D01*
X143424948Y-95969291D01*
X144085298Y-95969291D01*
X144090822Y-95974816D01*
X144096346Y-95969291D01*
X144090822Y-95963767D01*
X144085298Y-95969291D01*
X143424948Y-95969291D01*
X143416965Y-95961992D01*
X144118443Y-95961992D01*
X144119362Y-95961880D01*
X144136316Y-95957638D01*
X144171242Y-95947786D01*
X144221840Y-95933030D01*
X144285805Y-95914073D01*
X144360838Y-95891619D01*
X144444635Y-95866371D01*
X144534895Y-95839036D01*
X144629316Y-95810315D01*
X144725595Y-95780914D01*
X144821432Y-95751536D01*
X144914522Y-95722886D01*
X145002566Y-95695667D01*
X145083260Y-95670584D01*
X145154303Y-95648342D01*
X145213392Y-95629643D01*
X145258226Y-95615192D01*
X145286502Y-95605693D01*
X145295920Y-95601850D01*
X145294852Y-95601354D01*
X145277606Y-95602802D01*
X145242125Y-95610201D01*
X145190733Y-95622866D01*
X145125755Y-95640111D01*
X145049514Y-95661250D01*
X144964334Y-95685596D01*
X144872540Y-95712465D01*
X144776454Y-95741170D01*
X144678402Y-95771025D01*
X144580706Y-95801344D01*
X144485692Y-95831440D01*
X144395682Y-95860629D01*
X144313002Y-95888225D01*
X144239974Y-95913540D01*
X144225244Y-95918802D01*
X144178605Y-95935926D01*
X144143091Y-95949696D01*
X144121954Y-95958817D01*
X144118443Y-95961992D01*
X143416965Y-95961992D01*
X143353763Y-95904202D01*
X143268549Y-95824993D01*
X143168842Y-95731245D01*
X143054061Y-95622432D01*
X142980683Y-95552458D01*
X142898933Y-95474048D01*
X142823058Y-95400792D01*
X142754513Y-95334120D01*
X142694756Y-95275463D01*
X142645243Y-95226252D01*
X142607430Y-95187917D01*
X142582772Y-95161889D01*
X142572727Y-95149598D01*
X142572717Y-95149574D01*
X142566636Y-95125290D01*
X142562311Y-95087177D01*
X142560676Y-95043478D01*
X142560677Y-95042922D01*
X142563279Y-95006222D01*
X142649021Y-95006222D01*
X142655060Y-95012710D01*
X142675712Y-95032031D01*
X142708913Y-95062138D01*
X142752451Y-95101044D01*
X142804118Y-95146763D01*
X142861701Y-95197308D01*
X142873895Y-95208025D01*
X142940075Y-95267547D01*
X143016531Y-95338133D01*
X143099059Y-95415802D01*
X143183456Y-95496571D01*
X143265517Y-95576456D01*
X143341040Y-95651476D01*
X143388135Y-95698718D01*
X143456005Y-95766154D01*
X143511224Y-95819956D01*
X143555421Y-95861602D01*
X143590224Y-95892570D01*
X143617260Y-95914338D01*
X143638157Y-95928386D01*
X143654543Y-95936192D01*
X143685851Y-95943908D01*
X143732260Y-95950085D01*
X143780097Y-95952292D01*
X143808578Y-95951472D01*
X143844966Y-95947486D01*
X143883556Y-95938897D01*
X143930360Y-95924280D01*
X143991388Y-95902209D01*
X144070777Y-95872983D01*
X144259784Y-95806802D01*
X144462750Y-95739893D01*
X144674229Y-95673930D01*
X144888773Y-95610588D01*
X144944306Y-95595132D01*
X145313612Y-95595132D01*
X145322706Y-95599174D01*
X145328554Y-95598377D01*
X145330071Y-95591809D01*
X145328452Y-95590486D01*
X145315340Y-95591809D01*
X145313612Y-95595132D01*
X144944306Y-95595132D01*
X144984005Y-95584083D01*
X145357805Y-95584083D01*
X145366899Y-95588126D01*
X145372748Y-95587328D01*
X145374264Y-95580760D01*
X145372645Y-95579438D01*
X145359533Y-95580760D01*
X145357805Y-95584083D01*
X144984005Y-95584083D01*
X145029025Y-95571553D01*
X145400044Y-95571553D01*
X145405568Y-95577077D01*
X145411092Y-95571553D01*
X145405568Y-95566029D01*
X145400044Y-95571553D01*
X145029025Y-95571553D01*
X145100934Y-95551539D01*
X145305266Y-95498458D01*
X145322841Y-95494061D01*
X145399507Y-95474429D01*
X145458088Y-95458393D01*
X145501497Y-95444989D01*
X145532651Y-95433251D01*
X145554467Y-95422215D01*
X145569859Y-95410917D01*
X145603304Y-95381033D01*
X145583110Y-95349238D01*
X145574733Y-95338747D01*
X145551440Y-95312981D01*
X145515910Y-95275332D01*
X145470117Y-95227842D01*
X145416035Y-95172555D01*
X145355637Y-95111513D01*
X145290897Y-95046760D01*
X145018878Y-94776077D01*
X145015428Y-94817850D01*
X145014863Y-94834091D01*
X145018296Y-94853275D01*
X145028963Y-94874005D01*
X145049532Y-94901100D01*
X145082667Y-94939381D01*
X145097728Y-94956496D01*
X145119520Y-94981259D01*
X145165417Y-95034988D01*
X145198963Y-95077179D01*
X145221945Y-95110523D01*
X145236148Y-95137708D01*
X145243361Y-95161426D01*
X145245368Y-95184366D01*
X145245341Y-95187211D01*
X145245318Y-95189633D01*
X145242335Y-95219357D01*
X145233203Y-95245262D01*
X145215787Y-95268830D01*
X145187951Y-95291545D01*
X145147559Y-95314889D01*
X145092474Y-95340345D01*
X145020561Y-95369396D01*
X144929684Y-95403525D01*
X144927441Y-95404349D01*
X144822912Y-95441243D01*
X144708741Y-95478961D01*
X144588723Y-95516437D01*
X144466650Y-95552605D01*
X144403762Y-95570266D01*
X144346318Y-95586398D01*
X144231519Y-95616752D01*
X144126049Y-95642599D01*
X144033700Y-95662873D01*
X143958267Y-95676508D01*
X143871130Y-95682428D01*
X143781705Y-95670296D01*
X143701761Y-95638240D01*
X143699718Y-95637090D01*
X143643425Y-95601087D01*
X143576158Y-95551342D01*
X143519917Y-95505941D01*
X143675330Y-95505941D01*
X143686414Y-95515605D01*
X143706797Y-95529916D01*
X143732281Y-95546038D01*
X143758664Y-95561138D01*
X143781748Y-95572381D01*
X143797488Y-95577353D01*
X143840684Y-95584065D01*
X143892986Y-95586491D01*
X143946015Y-95584419D01*
X143991388Y-95577640D01*
X144005377Y-95574051D01*
X144011786Y-95570266D01*
X144000454Y-95566689D01*
X143969291Y-95561825D01*
X143947117Y-95558435D01*
X143898999Y-95550254D01*
X143845108Y-95540337D01*
X143790955Y-95529774D01*
X143742051Y-95519654D01*
X143703907Y-95511064D01*
X143682036Y-95505093D01*
X143677744Y-95503756D01*
X143675330Y-95505941D01*
X143519917Y-95505941D01*
X143501157Y-95490797D01*
X143421663Y-95422392D01*
X143340917Y-95349067D01*
X143262162Y-95273762D01*
X143188637Y-95199417D01*
X143123584Y-95128974D01*
X143070245Y-95065371D01*
X143046747Y-95034915D01*
X143023484Y-95001964D01*
X143010114Y-94976841D01*
X143004016Y-94954257D01*
X143002566Y-94928924D01*
X143003578Y-94914929D01*
X143096014Y-94914929D01*
X143097399Y-94927966D01*
X143109142Y-94953661D01*
X143128850Y-94985587D01*
X143149009Y-95013707D01*
X143172245Y-95043527D01*
X143188921Y-95062005D01*
X143191330Y-95064153D01*
X143201359Y-95070629D01*
X143208257Y-95066087D01*
X143214265Y-95046930D01*
X143221625Y-95009566D01*
X143227018Y-94976054D01*
X143229123Y-94958119D01*
X143334015Y-94958119D01*
X143334015Y-95059849D01*
X143334229Y-95094096D01*
X143335996Y-95132959D01*
X143340654Y-95160126D01*
X143349502Y-95181909D01*
X143363843Y-95204621D01*
X143387644Y-95234228D01*
X143447923Y-95287537D01*
X143526054Y-95336550D01*
X143619355Y-95380098D01*
X143725147Y-95417011D01*
X143840748Y-95446119D01*
X143963477Y-95466253D01*
X143994225Y-95469598D01*
X144152245Y-95475286D01*
X144312714Y-95463070D01*
X144469650Y-95433669D01*
X144617071Y-95387800D01*
X144622881Y-95385533D01*
X144685214Y-95356698D01*
X144748022Y-95320523D01*
X144777135Y-95300490D01*
X144937430Y-95300490D01*
X144938481Y-95300222D01*
X144954037Y-95294642D01*
X144983642Y-95283353D01*
X145022048Y-95268348D01*
X145074264Y-95246585D01*
X145120970Y-95223311D01*
X145148166Y-95203746D01*
X145156981Y-95187211D01*
X145156354Y-95184416D01*
X145146157Y-95165850D01*
X145126066Y-95136854D01*
X145099442Y-95102383D01*
X145041902Y-95031271D01*
X145029674Y-95097019D01*
X145029100Y-95100041D01*
X145000520Y-95190379D01*
X144951212Y-95276012D01*
X144939964Y-95293138D01*
X144937430Y-95300490D01*
X144777135Y-95300490D01*
X144805967Y-95280650D01*
X144853710Y-95240721D01*
X144885911Y-95204380D01*
X144894371Y-95191266D01*
X144904717Y-95169922D01*
X144910627Y-95145017D01*
X144913295Y-95110376D01*
X144913919Y-95059829D01*
X144913919Y-94956496D01*
X144861887Y-95002296D01*
X144821145Y-95034333D01*
X144734517Y-95086062D01*
X144631373Y-95131093D01*
X144514912Y-95168306D01*
X144388333Y-95196581D01*
X144254835Y-95214797D01*
X144253839Y-95214891D01*
X144115545Y-95220839D01*
X143976713Y-95213645D01*
X143840859Y-95194147D01*
X143711499Y-95163186D01*
X143592149Y-95121602D01*
X143486325Y-95070236D01*
X143397542Y-95009928D01*
X143334015Y-94958119D01*
X143229123Y-94958119D01*
X143232469Y-94929609D01*
X143234580Y-94892828D01*
X143234518Y-94881839D01*
X143232533Y-94858761D01*
X143225343Y-94851186D01*
X143209722Y-94854088D01*
X143206665Y-94855062D01*
X143173788Y-94868072D01*
X143139483Y-94885011D01*
X143111106Y-94901942D01*
X143096014Y-94914929D01*
X143003578Y-94914929D01*
X143004944Y-94896025D01*
X143015863Y-94869358D01*
X143040131Y-94841262D01*
X143052814Y-94828421D01*
X143069636Y-94810665D01*
X143075104Y-94803698D01*
X143066482Y-94806153D01*
X143040407Y-94815140D01*
X143001135Y-94829270D01*
X142952775Y-94847007D01*
X142899434Y-94866817D01*
X142845222Y-94887163D01*
X142794247Y-94906510D01*
X142750618Y-94923324D01*
X142718442Y-94936067D01*
X142701828Y-94943205D01*
X142678345Y-94960008D01*
X142657526Y-94984239D01*
X142649021Y-95006222D01*
X142563279Y-95006222D01*
X142565100Y-94980545D01*
X142579909Y-94933718D01*
X142607705Y-94897345D01*
X142651091Y-94866328D01*
X142674216Y-94855236D01*
X142714923Y-94838162D01*
X142769440Y-94816557D01*
X142817435Y-94798174D01*
X143090953Y-94798174D01*
X143096477Y-94803698D01*
X143102001Y-94798174D01*
X143096477Y-94792649D01*
X143090953Y-94798174D01*
X142817435Y-94798174D01*
X142834197Y-94791754D01*
X142905622Y-94765085D01*
X142980145Y-94737884D01*
X143054195Y-94711484D01*
X143062697Y-94708537D01*
X143334856Y-94708537D01*
X143339817Y-94772390D01*
X143350335Y-94798174D01*
X143365427Y-94835171D01*
X143409152Y-94892828D01*
X143411360Y-94895740D01*
X143477290Y-94952955D01*
X143562891Y-95005676D01*
X143625409Y-95034429D01*
X143713785Y-95066175D01*
X143809072Y-95092573D01*
X143903001Y-95111061D01*
X144000098Y-95122514D01*
X144122496Y-95127893D01*
X144240746Y-95123465D01*
X144353571Y-95110030D01*
X144459691Y-95088389D01*
X144557826Y-95059344D01*
X144646699Y-95023694D01*
X144725030Y-94982241D01*
X144791540Y-94935785D01*
X144844951Y-94885126D01*
X144883983Y-94831066D01*
X144907358Y-94774405D01*
X144913796Y-94715944D01*
X144902019Y-94656484D01*
X144870748Y-94596824D01*
X144818704Y-94537767D01*
X144778862Y-94503811D01*
X144679470Y-94439673D01*
X144563626Y-94389435D01*
X144431989Y-94353301D01*
X144285217Y-94331472D01*
X144123967Y-94324150D01*
X144048372Y-94325689D01*
X143893670Y-94339679D01*
X143753747Y-94368084D01*
X143629260Y-94410702D01*
X143520869Y-94467330D01*
X143429230Y-94537767D01*
X143388185Y-94582181D01*
X143350870Y-94644754D01*
X143334856Y-94708537D01*
X143062697Y-94708537D01*
X143124202Y-94687217D01*
X143186596Y-94666416D01*
X143210515Y-94658006D01*
X143235628Y-94644383D01*
X143253669Y-94623784D01*
X143272201Y-94589410D01*
X143272822Y-94588148D01*
X143318889Y-94517878D01*
X143384418Y-94451786D01*
X143466941Y-94391673D01*
X143563993Y-94339340D01*
X143673105Y-94296590D01*
X143743692Y-94275807D01*
X143876022Y-94247941D01*
X144011227Y-94232536D01*
X144146939Y-94229087D01*
X144280788Y-94237092D01*
X144410407Y-94256047D01*
X144533426Y-94285448D01*
X144647477Y-94324792D01*
X144750191Y-94373576D01*
X144839199Y-94431295D01*
X144912133Y-94497448D01*
X144966625Y-94571529D01*
X144970939Y-94578069D01*
X144992103Y-94604199D01*
X145026564Y-94642697D01*
X145072385Y-94691523D01*
X145096008Y-94715944D01*
X145127629Y-94748632D01*
G37*
G36*
X142686713Y-85335497D02*
G01*
X142762034Y-85406118D01*
X142840247Y-85479948D01*
X142919439Y-85555168D01*
X142997697Y-85629958D01*
X143056877Y-85686886D01*
X143073107Y-85702499D01*
X143143758Y-85770972D01*
X143207735Y-85833557D01*
X143263125Y-85888434D01*
X143308016Y-85933784D01*
X143340495Y-85967787D01*
X143358648Y-85988625D01*
X143375400Y-86011909D01*
X143428303Y-86103215D01*
X143471259Y-86205945D01*
X143500877Y-86312383D01*
X143504043Y-86328489D01*
X143507509Y-86349169D01*
X143510490Y-86372122D01*
X143513020Y-86398999D01*
X143515138Y-86431451D01*
X143516880Y-86471132D01*
X143518282Y-86519694D01*
X143519382Y-86578787D01*
X143520216Y-86650065D01*
X143520822Y-86735179D01*
X143521235Y-86835781D01*
X143521493Y-86953524D01*
X143521633Y-87090060D01*
X143521690Y-87247039D01*
X143521836Y-88081551D01*
X143753850Y-88300736D01*
X143806806Y-88351175D01*
X143867849Y-88410590D01*
X143917558Y-88460563D01*
X143954651Y-88499768D01*
X143964108Y-88510822D01*
X143977847Y-88526880D01*
X143985863Y-88540576D01*
X143982215Y-88554667D01*
X143965696Y-88573826D01*
X143962148Y-88575157D01*
X143939627Y-88582488D01*
X143897126Y-88595880D01*
X143835414Y-88615098D01*
X143755261Y-88639908D01*
X143705251Y-88655329D01*
X143657437Y-88670073D01*
X143542711Y-88705359D01*
X143411853Y-88745529D01*
X143265632Y-88790350D01*
X143104820Y-88839585D01*
X142930184Y-88893000D01*
X142742495Y-88950359D01*
X142616551Y-88988820D01*
X142542522Y-89011427D01*
X142331035Y-89075968D01*
X142108804Y-89143748D01*
X141876599Y-89214530D01*
X141635188Y-89288081D01*
X141385342Y-89364164D01*
X141127831Y-89442544D01*
X140863424Y-89522986D01*
X140592891Y-89605255D01*
X140317001Y-89689116D01*
X140175845Y-89732004D01*
X139902499Y-89815009D01*
X139634853Y-89896222D01*
X139373678Y-89975409D01*
X139119748Y-90052340D01*
X138873832Y-90126780D01*
X138636705Y-90198499D01*
X138409136Y-90267264D01*
X138191899Y-90332842D01*
X137985765Y-90395002D01*
X137791505Y-90453511D01*
X137609893Y-90508137D01*
X137441700Y-90558648D01*
X137287697Y-90604811D01*
X137148657Y-90646394D01*
X137025352Y-90683165D01*
X136918553Y-90714891D01*
X136829033Y-90741341D01*
X136757562Y-90762282D01*
X136704914Y-90777482D01*
X136671860Y-90786708D01*
X136659172Y-90789729D01*
X136656342Y-90789022D01*
X136644163Y-90782082D01*
X136624197Y-90767172D01*
X136595635Y-90743551D01*
X136557665Y-90710481D01*
X136509479Y-90667224D01*
X136450267Y-90613040D01*
X136379218Y-90547192D01*
X136295523Y-90468939D01*
X136198372Y-90377544D01*
X136086954Y-90272268D01*
X135960461Y-90152371D01*
X135916939Y-90111031D01*
X135812519Y-90011538D01*
X135714528Y-89917732D01*
X135624041Y-89830662D01*
X135542131Y-89751380D01*
X135469873Y-89680935D01*
X135408340Y-89620377D01*
X135358609Y-89570756D01*
X135321752Y-89533122D01*
X135307590Y-89517917D01*
X135447648Y-89517917D01*
X135454660Y-89531096D01*
X135475160Y-89555930D01*
X135506987Y-89589939D01*
X135547978Y-89630642D01*
X135553794Y-89636243D01*
X135601018Y-89681508D01*
X135647695Y-89725915D01*
X135688720Y-89764624D01*
X135718987Y-89792793D01*
X135776990Y-89846043D01*
X135776990Y-89630336D01*
X135776990Y-89414629D01*
X135619552Y-89463032D01*
X135594040Y-89470888D01*
X135540311Y-89487522D01*
X135495421Y-89501538D01*
X135463466Y-89511655D01*
X135448544Y-89516588D01*
X135447648Y-89517917D01*
X135307590Y-89517917D01*
X135298843Y-89508525D01*
X135290959Y-89498015D01*
X135291284Y-89493177D01*
X135295899Y-89481830D01*
X135307815Y-89470693D01*
X135329367Y-89458765D01*
X135362894Y-89445041D01*
X135410730Y-89428518D01*
X135475214Y-89408193D01*
X135558680Y-89383063D01*
X135776777Y-89318226D01*
X135776838Y-88871719D01*
X135865376Y-88871719D01*
X135865376Y-89414629D01*
X135865376Y-89931703D01*
X135978621Y-90040591D01*
X135988991Y-90050544D01*
X136033025Y-90092427D01*
X136073584Y-90130448D01*
X136106542Y-90160763D01*
X136127773Y-90179528D01*
X136163680Y-90209577D01*
X136163680Y-89171503D01*
X136163682Y-89048869D01*
X136163689Y-89023147D01*
X136263671Y-89023147D01*
X136263708Y-89207743D01*
X136263918Y-90312571D01*
X136406680Y-90448451D01*
X136549443Y-90584331D01*
X136553023Y-89597352D01*
X136638506Y-89597352D01*
X136638657Y-89731045D01*
X136638993Y-89863016D01*
X136639513Y-89991411D01*
X136640213Y-90114378D01*
X136641091Y-90230066D01*
X136642145Y-90336622D01*
X136643372Y-90432194D01*
X136644769Y-90514931D01*
X136646335Y-90582980D01*
X136648066Y-90634489D01*
X136649959Y-90667606D01*
X136652014Y-90680479D01*
X136652836Y-90681300D01*
X136660662Y-90688051D01*
X136670082Y-90691313D01*
X136685001Y-90690484D01*
X136709325Y-90684964D01*
X136746960Y-90674153D01*
X136801810Y-90657451D01*
X136915147Y-90622714D01*
X136915111Y-89884593D01*
X137005244Y-89884593D01*
X137005296Y-90017236D01*
X137005520Y-90139958D01*
X137005910Y-90251235D01*
X137006456Y-90349546D01*
X137007151Y-90433369D01*
X137007987Y-90501183D01*
X137008956Y-90551466D01*
X137010050Y-90582696D01*
X137011261Y-90593351D01*
X137016676Y-90591925D01*
X137041091Y-90584796D01*
X137083023Y-90572277D01*
X137140273Y-90555032D01*
X137210638Y-90533728D01*
X137291919Y-90509030D01*
X137381915Y-90481602D01*
X137478425Y-90452110D01*
X137936929Y-90311821D01*
X137939734Y-88928177D01*
X137940803Y-88400995D01*
X138033111Y-88400995D01*
X138033125Y-88560351D01*
X138033273Y-88727164D01*
X138033559Y-88900103D01*
X138036364Y-90281658D01*
X139522358Y-89830704D01*
X139540236Y-89825279D01*
X139729970Y-89767698D01*
X139922457Y-89709281D01*
X140115704Y-89650630D01*
X140307721Y-89592350D01*
X140496516Y-89535046D01*
X140680097Y-89479323D01*
X140856474Y-89425784D01*
X141023654Y-89375035D01*
X141179647Y-89327680D01*
X141322461Y-89284322D01*
X141450104Y-89245568D01*
X141560585Y-89212021D01*
X141651914Y-89184285D01*
X142295476Y-88988820D01*
X142295476Y-87604001D01*
X142295476Y-87602567D01*
X142295413Y-87429633D01*
X142295230Y-87262941D01*
X142294934Y-87103812D01*
X142294535Y-86953569D01*
X142294038Y-86813531D01*
X142293452Y-86685020D01*
X142292784Y-86569358D01*
X142292042Y-86467865D01*
X142291234Y-86381862D01*
X142290367Y-86312672D01*
X142289449Y-86261614D01*
X142288488Y-86230011D01*
X142287490Y-86219183D01*
X142283082Y-86220274D01*
X142259523Y-86227031D01*
X142216794Y-86239641D01*
X142156118Y-86257732D01*
X142078717Y-86280934D01*
X141985812Y-86308874D01*
X141878624Y-86341181D01*
X141758377Y-86377484D01*
X141626291Y-86417411D01*
X141483588Y-86460591D01*
X141331490Y-86506653D01*
X141171218Y-86555224D01*
X141003995Y-86605934D01*
X140831042Y-86658411D01*
X140653580Y-86712284D01*
X140472832Y-86767181D01*
X140290019Y-86822731D01*
X140106364Y-86878562D01*
X139923086Y-86934303D01*
X139741410Y-86989582D01*
X139562555Y-87044028D01*
X139387744Y-87097271D01*
X139218199Y-87148937D01*
X139055142Y-87198656D01*
X138899793Y-87246056D01*
X138753375Y-87290766D01*
X138617109Y-87332414D01*
X138492218Y-87370629D01*
X138379923Y-87405040D01*
X138281445Y-87435275D01*
X138230534Y-87450949D01*
X138198007Y-87460963D01*
X138130830Y-87481732D01*
X138081136Y-87497210D01*
X138050146Y-87507027D01*
X138039083Y-87510811D01*
X138038077Y-87522282D01*
X138037428Y-87544534D01*
X138037136Y-87554548D01*
X138036279Y-87606267D01*
X138035513Y-87676104D01*
X138034843Y-87762727D01*
X138034273Y-87864804D01*
X138033810Y-87981002D01*
X138033458Y-88109988D01*
X138033223Y-88250430D01*
X138033111Y-88400995D01*
X137940803Y-88400995D01*
X137942539Y-87544534D01*
X137912113Y-87551806D01*
X137892087Y-87557476D01*
X137855620Y-87569363D01*
X137815253Y-87583692D01*
X137768838Y-87602075D01*
X137628129Y-87672970D01*
X137496436Y-87762306D01*
X137375648Y-87868059D01*
X137267657Y-87988203D01*
X137174354Y-88120714D01*
X137097628Y-88263566D01*
X137039371Y-88414735D01*
X137009028Y-88511701D01*
X137005814Y-89553002D01*
X137005690Y-89595625D01*
X137005372Y-89743548D01*
X137005244Y-89884593D01*
X136915111Y-89884593D01*
X136915096Y-89589304D01*
X136915098Y-89461705D01*
X136915147Y-89301434D01*
X136915273Y-89160764D01*
X136915502Y-89038240D01*
X136915861Y-88932410D01*
X136916378Y-88841819D01*
X136917080Y-88765013D01*
X136917993Y-88700537D01*
X136919145Y-88646938D01*
X136920562Y-88602762D01*
X136922271Y-88566554D01*
X136924300Y-88536859D01*
X136926675Y-88512225D01*
X136929423Y-88491197D01*
X136932571Y-88472321D01*
X136936147Y-88454143D01*
X136937984Y-88445485D01*
X136979253Y-88304751D01*
X137040283Y-88166725D01*
X137118874Y-88033796D01*
X137212825Y-87908354D01*
X137319936Y-87792788D01*
X137438006Y-87689487D01*
X137564836Y-87600840D01*
X137698225Y-87529236D01*
X137835973Y-87477064D01*
X137842331Y-87475156D01*
X137879608Y-87463748D01*
X137906655Y-87455097D01*
X137917989Y-87450949D01*
X137917785Y-87449153D01*
X137912645Y-87432139D01*
X137902234Y-87401153D01*
X137888287Y-87361054D01*
X137872540Y-87316703D01*
X137856728Y-87272961D01*
X137842586Y-87234689D01*
X137831850Y-87206746D01*
X137826255Y-87193994D01*
X137818630Y-87195390D01*
X137793932Y-87202736D01*
X137756338Y-87214970D01*
X137710161Y-87230729D01*
X137643566Y-87255261D01*
X137503931Y-87317460D01*
X137375936Y-87391400D01*
X137254244Y-87480388D01*
X137133513Y-87587729D01*
X137113500Y-87607277D01*
X136982819Y-87750053D01*
X136873473Y-87898550D01*
X136785447Y-88052799D01*
X136718723Y-88212831D01*
X136673288Y-88378678D01*
X136649125Y-88550370D01*
X136647759Y-88573077D01*
X136645915Y-88622142D01*
X136644283Y-88688005D01*
X136642858Y-88768812D01*
X136641639Y-88862712D01*
X136640624Y-88967853D01*
X136639809Y-89082383D01*
X136639192Y-89204450D01*
X136638771Y-89332202D01*
X136638543Y-89463787D01*
X136638506Y-89597352D01*
X136553023Y-89597352D01*
X136553322Y-89514871D01*
X136553599Y-89439462D01*
X136554267Y-89268923D01*
X136554937Y-89118522D01*
X136555637Y-88986868D01*
X136556397Y-88872568D01*
X136557244Y-88774231D01*
X136558206Y-88690464D01*
X136559312Y-88619876D01*
X136560590Y-88561074D01*
X136562068Y-88512666D01*
X136563774Y-88473261D01*
X136565737Y-88441466D01*
X136567986Y-88415890D01*
X136570547Y-88395139D01*
X136573451Y-88377823D01*
X136576724Y-88362549D01*
X136585256Y-88327871D01*
X136639191Y-88156124D01*
X136710684Y-87994371D01*
X136800843Y-87840679D01*
X136910771Y-87693115D01*
X137041575Y-87549747D01*
X137114365Y-87479812D01*
X137242580Y-87371893D01*
X137372477Y-87282685D01*
X137507145Y-87210169D01*
X137572800Y-87183524D01*
X137932301Y-87183524D01*
X137933863Y-87203922D01*
X137944273Y-87241011D01*
X137963919Y-87296390D01*
X137977067Y-87329757D01*
X137995269Y-87370431D01*
X138010541Y-87398141D01*
X138020856Y-87408887D01*
X138025984Y-87407936D01*
X138050645Y-87401391D01*
X138094371Y-87388966D01*
X138155944Y-87371032D01*
X138234147Y-87347961D01*
X138327759Y-87320125D01*
X138435562Y-87287897D01*
X138556339Y-87251648D01*
X138688869Y-87211750D01*
X138831934Y-87168575D01*
X138984316Y-87122496D01*
X139144796Y-87073885D01*
X139312155Y-87023112D01*
X139485175Y-86970551D01*
X139662636Y-86916574D01*
X139843320Y-86861552D01*
X140026009Y-86805857D01*
X140209484Y-86749862D01*
X140392525Y-86693939D01*
X140573915Y-86638459D01*
X140752435Y-86583794D01*
X140926865Y-86530317D01*
X141095988Y-86478400D01*
X141258584Y-86428414D01*
X141413436Y-86380732D01*
X141559323Y-86335725D01*
X141695028Y-86293766D01*
X141819332Y-86255226D01*
X141931016Y-86220479D01*
X142028861Y-86189895D01*
X142030294Y-86189444D01*
X142394911Y-86189444D01*
X142394911Y-87574300D01*
X142394911Y-87576004D01*
X142394977Y-87748904D01*
X142395167Y-87915541D01*
X142395474Y-88074597D01*
X142395889Y-88224751D01*
X142396404Y-88364685D01*
X142397012Y-88493078D01*
X142397705Y-88608611D01*
X142398474Y-88709965D01*
X142399313Y-88795820D01*
X142400212Y-88864856D01*
X142401165Y-88915754D01*
X142402162Y-88947195D01*
X142403197Y-88957858D01*
X142408575Y-88956379D01*
X142432928Y-88949164D01*
X142474799Y-88936557D01*
X142531989Y-88919227D01*
X142602301Y-88897840D01*
X142683537Y-88873065D01*
X142773498Y-88845570D01*
X142869987Y-88816022D01*
X143328491Y-88675484D01*
X143331492Y-87682110D01*
X143331756Y-87583320D01*
X143332042Y-87398842D01*
X143332009Y-87232379D01*
X143331659Y-87084442D01*
X143330997Y-86955540D01*
X143330026Y-86846184D01*
X143328752Y-86756883D01*
X143327178Y-86688147D01*
X143325307Y-86640486D01*
X143323144Y-86614409D01*
X143305716Y-86532189D01*
X143266213Y-86426709D01*
X143210155Y-86335409D01*
X143138346Y-86259093D01*
X143051588Y-86198562D01*
X142950686Y-86154622D01*
X142836443Y-86128073D01*
X142829391Y-86127095D01*
X142723477Y-86122622D01*
X142606066Y-86135314D01*
X142479158Y-86164965D01*
X142394911Y-86189444D01*
X142030294Y-86189444D01*
X142111649Y-86163846D01*
X142178162Y-86142706D01*
X142227179Y-86126845D01*
X142257483Y-86116635D01*
X142267856Y-86112450D01*
X142266132Y-86104216D01*
X142258224Y-86078072D01*
X142245369Y-86039599D01*
X142229187Y-85993770D01*
X142224135Y-85979840D01*
X142207890Y-85936557D01*
X142195984Y-85909786D01*
X142186120Y-85896034D01*
X142176001Y-85891807D01*
X142163330Y-85893613D01*
X142160870Y-85894278D01*
X142139557Y-85900495D01*
X142098923Y-85912601D01*
X142040195Y-85930222D01*
X141964598Y-85952986D01*
X141873359Y-85980521D01*
X141767705Y-86012453D01*
X141648861Y-86048411D01*
X141518054Y-86088020D01*
X141376510Y-86130909D01*
X141225455Y-86176705D01*
X141066116Y-86225035D01*
X140899718Y-86275526D01*
X140727489Y-86327806D01*
X140550655Y-86381501D01*
X140370440Y-86436240D01*
X140188073Y-86491649D01*
X140004779Y-86547355D01*
X139821785Y-86602987D01*
X139640316Y-86658171D01*
X139461599Y-86712535D01*
X139286861Y-86765705D01*
X139117327Y-86817309D01*
X138954224Y-86866975D01*
X138798778Y-86914329D01*
X138652215Y-86958999D01*
X138515762Y-87000612D01*
X138390645Y-87038796D01*
X138278089Y-87073177D01*
X138179323Y-87103384D01*
X138150129Y-87112328D01*
X138095570Y-87129043D01*
X138028059Y-87149781D01*
X137978015Y-87165226D01*
X137946665Y-87175005D01*
X137935234Y-87178746D01*
X137932301Y-87183524D01*
X137572800Y-87183524D01*
X137649674Y-87152326D01*
X137664210Y-87147220D01*
X137703590Y-87132714D01*
X137733022Y-87120885D01*
X137747004Y-87113903D01*
X137747096Y-87112328D01*
X137737582Y-87098747D01*
X137715589Y-87074215D01*
X137684114Y-87041608D01*
X137646153Y-87003802D01*
X137604701Y-86963671D01*
X137562754Y-86924090D01*
X137523308Y-86887936D01*
X137489359Y-86858083D01*
X137463902Y-86837407D01*
X137449935Y-86828783D01*
X137442423Y-86828414D01*
X137412991Y-86833612D01*
X137369623Y-86845939D01*
X137316551Y-86863912D01*
X137258010Y-86886048D01*
X137198233Y-86910863D01*
X137141453Y-86936873D01*
X137034788Y-86995036D01*
X136901186Y-87085671D01*
X136772654Y-87192286D01*
X136653164Y-87311522D01*
X136546691Y-87440018D01*
X136512673Y-87488921D01*
X136466737Y-87563530D01*
X136421075Y-87645905D01*
X136378987Y-87729724D01*
X136343774Y-87808671D01*
X136318737Y-87876425D01*
X136317392Y-87880707D01*
X136308712Y-87908358D01*
X136301017Y-87933806D01*
X136294249Y-87958481D01*
X136288348Y-87983811D01*
X136283255Y-88011226D01*
X136278911Y-88042156D01*
X136275257Y-88078030D01*
X136272234Y-88120277D01*
X136269783Y-88170327D01*
X136267845Y-88229608D01*
X136266360Y-88299552D01*
X136265270Y-88381586D01*
X136264516Y-88477140D01*
X136264038Y-88587644D01*
X136263777Y-88714527D01*
X136263674Y-88859218D01*
X136263671Y-89023147D01*
X136163689Y-89023147D01*
X136163725Y-88879793D01*
X136163884Y-88730357D01*
X136164233Y-88599082D01*
X136164847Y-88484485D01*
X136165801Y-88385085D01*
X136167170Y-88299401D01*
X136169028Y-88225953D01*
X136171451Y-88163257D01*
X136174512Y-88109834D01*
X136178287Y-88064202D01*
X136182851Y-88024880D01*
X136188277Y-87990387D01*
X136194643Y-87959241D01*
X136202021Y-87929960D01*
X136210486Y-87901065D01*
X136220114Y-87871074D01*
X136230980Y-87838504D01*
X136250527Y-87783390D01*
X136321751Y-87621417D01*
X136411089Y-87468156D01*
X136519816Y-87321604D01*
X136649201Y-87179758D01*
X136729065Y-87103904D01*
X136869926Y-86989349D01*
X137016912Y-86894136D01*
X137172788Y-86816563D01*
X137191025Y-86809854D01*
X137585169Y-86809854D01*
X137591993Y-86818203D01*
X137612520Y-86839573D01*
X137644180Y-86871202D01*
X137684390Y-86910509D01*
X137730563Y-86954917D01*
X137772898Y-86994662D01*
X137815696Y-87033375D01*
X137851195Y-87063911D01*
X137876566Y-87083845D01*
X137888977Y-87090748D01*
X137892530Y-87089837D01*
X137914774Y-87083389D01*
X137956250Y-87071075D01*
X138015734Y-87053266D01*
X138092004Y-87030334D01*
X138183836Y-87002653D01*
X138290005Y-86970592D01*
X138409289Y-86934526D01*
X138540463Y-86894825D01*
X138682304Y-86851862D01*
X138833589Y-86806009D01*
X138993094Y-86757637D01*
X139159595Y-86707119D01*
X139331869Y-86654826D01*
X139508692Y-86601131D01*
X139688841Y-86546406D01*
X139871091Y-86491022D01*
X140054220Y-86435352D01*
X140237003Y-86379768D01*
X140418218Y-86324641D01*
X140596640Y-86270344D01*
X140771046Y-86217248D01*
X140940212Y-86165727D01*
X141102915Y-86116150D01*
X141257931Y-86068892D01*
X141404037Y-86024323D01*
X141540009Y-85982815D01*
X141664622Y-85944741D01*
X141776655Y-85910473D01*
X141874882Y-85880383D01*
X141958081Y-85854842D01*
X142001976Y-85841322D01*
X142293823Y-85841322D01*
X142294688Y-85854258D01*
X142302259Y-85883456D01*
X142315276Y-85924609D01*
X142332480Y-85973408D01*
X142341998Y-85998880D01*
X142360676Y-86045673D01*
X142374818Y-86074959D01*
X142385779Y-86089295D01*
X142394911Y-86091233D01*
X142410185Y-86085409D01*
X142480344Y-86063635D01*
X142555498Y-86049050D01*
X142641182Y-86040809D01*
X142742932Y-86038064D01*
X142787357Y-86038092D01*
X142843510Y-86038990D01*
X142885824Y-86041404D01*
X142919373Y-86045871D01*
X142949230Y-86052925D01*
X142980470Y-86063099D01*
X142997408Y-86069325D01*
X143086951Y-86112450D01*
X143107187Y-86122196D01*
X143202160Y-86191436D01*
X143282136Y-86276848D01*
X143346924Y-86378232D01*
X143396332Y-86495390D01*
X143398650Y-86502788D01*
X143401803Y-86515157D01*
X143404591Y-86530275D01*
X143407049Y-86549523D01*
X143409208Y-86574284D01*
X143411102Y-86605940D01*
X143412764Y-86645873D01*
X143414225Y-86695464D01*
X143415519Y-86756096D01*
X143416678Y-86829151D01*
X143417736Y-86916010D01*
X143418724Y-87018055D01*
X143419677Y-87136669D01*
X143420626Y-87273234D01*
X143421414Y-87398842D01*
X143421604Y-87429131D01*
X143422644Y-87605742D01*
X143428704Y-88655329D01*
X143428560Y-88417791D01*
X143521836Y-88417791D01*
X143522216Y-88477178D01*
X143523378Y-88532807D01*
X143525180Y-88576722D01*
X143527476Y-88605463D01*
X143530122Y-88615569D01*
X143544706Y-88612538D01*
X143576909Y-88603579D01*
X143619071Y-88590477D01*
X143666759Y-88574768D01*
X143715535Y-88557985D01*
X143760965Y-88541665D01*
X143798614Y-88527341D01*
X143824046Y-88516548D01*
X143832826Y-88510822D01*
X143831026Y-88508224D01*
X143816654Y-88492600D01*
X143790611Y-88466248D01*
X143755943Y-88432081D01*
X143715697Y-88393015D01*
X143672918Y-88351963D01*
X143630655Y-88311840D01*
X143591953Y-88275560D01*
X143559860Y-88246037D01*
X143537420Y-88226186D01*
X143527682Y-88218922D01*
X143525939Y-88228001D01*
X143524298Y-88255881D01*
X143522998Y-88299130D01*
X143522143Y-88354262D01*
X143521836Y-88417791D01*
X143428560Y-88417791D01*
X143428015Y-87517356D01*
X143427985Y-87460960D01*
X143427916Y-87278970D01*
X143427841Y-87117303D01*
X143427674Y-86974581D01*
X143427329Y-86849429D01*
X143426722Y-86740469D01*
X143425766Y-86646324D01*
X143424375Y-86565618D01*
X143422465Y-86496973D01*
X143419949Y-86439013D01*
X143416743Y-86390362D01*
X143412760Y-86349641D01*
X143407915Y-86315474D01*
X143402123Y-86286485D01*
X143395297Y-86261296D01*
X143387352Y-86238530D01*
X143378203Y-86216812D01*
X143367765Y-86194763D01*
X143355950Y-86171007D01*
X143342675Y-86144168D01*
X143294112Y-86061005D01*
X143220819Y-85973278D01*
X143133230Y-85900194D01*
X143033105Y-85842390D01*
X142922203Y-85800504D01*
X142802281Y-85775172D01*
X142675100Y-85767032D01*
X142542419Y-85776721D01*
X142405995Y-85804876D01*
X142403365Y-85805614D01*
X142377480Y-85812877D01*
X142336550Y-85825217D01*
X142307007Y-85835230D01*
X142293848Y-85841295D01*
X142293823Y-85841322D01*
X142001976Y-85841322D01*
X142025028Y-85834222D01*
X142074500Y-85818897D01*
X142105272Y-85809237D01*
X142116121Y-85805614D01*
X142111958Y-85799424D01*
X142094706Y-85780607D01*
X142066997Y-85752199D01*
X142031909Y-85717210D01*
X141992521Y-85678650D01*
X141951913Y-85639530D01*
X141913161Y-85602859D01*
X141879346Y-85571646D01*
X141853545Y-85548902D01*
X141814876Y-85516306D01*
X139699130Y-86159089D01*
X139606775Y-86187155D01*
X139399290Y-86250269D01*
X139197957Y-86311593D01*
X139003778Y-86370819D01*
X138817751Y-86427640D01*
X138640875Y-86481748D01*
X138474151Y-86532835D01*
X138318579Y-86580593D01*
X138175157Y-86624715D01*
X138044886Y-86664892D01*
X137928764Y-86700819D01*
X137827793Y-86732185D01*
X137742971Y-86758684D01*
X137675298Y-86780009D01*
X137625773Y-86795850D01*
X137595397Y-86805901D01*
X137585169Y-86809854D01*
X137191025Y-86809854D01*
X137340322Y-86754931D01*
X137343051Y-86754085D01*
X137369848Y-86745859D01*
X137416330Y-86731663D01*
X137481263Y-86711872D01*
X137563418Y-86686859D01*
X137661563Y-86656997D01*
X137774466Y-86622662D01*
X137900897Y-86584226D01*
X138039624Y-86542063D01*
X138189416Y-86496547D01*
X138349041Y-86448051D01*
X138517269Y-86396950D01*
X138692868Y-86343617D01*
X138874606Y-86288426D01*
X139061253Y-86231751D01*
X139251578Y-86173965D01*
X139444348Y-86115442D01*
X139638333Y-86056556D01*
X139832301Y-85997681D01*
X140025022Y-85939190D01*
X140215264Y-85881457D01*
X140401795Y-85824856D01*
X140583384Y-85769761D01*
X140758801Y-85716545D01*
X140926813Y-85665582D01*
X141086191Y-85617246D01*
X141235701Y-85571911D01*
X141374113Y-85529950D01*
X141500196Y-85491737D01*
X141582086Y-85466927D01*
X141933247Y-85466927D01*
X141941470Y-85475970D01*
X141963260Y-85497804D01*
X141996018Y-85529852D01*
X142037167Y-85569594D01*
X142084131Y-85614511D01*
X142130235Y-85657772D01*
X142172935Y-85696588D01*
X142208011Y-85727165D01*
X142232723Y-85747115D01*
X142244331Y-85754052D01*
X142256752Y-85751346D01*
X142285169Y-85743334D01*
X142321425Y-85732071D01*
X142359644Y-85720235D01*
X142444999Y-85698567D01*
X142528099Y-85685465D01*
X142616829Y-85679916D01*
X142719071Y-85680904D01*
X142736241Y-85681550D01*
X142793918Y-85684344D01*
X142844231Y-85687694D01*
X142882272Y-85691236D01*
X142903132Y-85694604D01*
X142910487Y-85695291D01*
X142910543Y-85686886D01*
X142897561Y-85668765D01*
X142874159Y-85643507D01*
X142842957Y-85613694D01*
X142806572Y-85581906D01*
X142767623Y-85550723D01*
X142728729Y-85522727D01*
X142647533Y-85475251D01*
X142555103Y-85438236D01*
X142453631Y-85415103D01*
X142337992Y-85404299D01*
X142309894Y-85403440D01*
X142242928Y-85403572D01*
X142181405Y-85406475D01*
X142133599Y-85411846D01*
X142104230Y-85417176D01*
X142052378Y-85428054D01*
X142005053Y-85439650D01*
X141966556Y-85450783D01*
X141941187Y-85460269D01*
X141933247Y-85466927D01*
X141582086Y-85466927D01*
X141612719Y-85457646D01*
X141710450Y-85428051D01*
X141792158Y-85403325D01*
X141856611Y-85383842D01*
X141902579Y-85369976D01*
X141928830Y-85362100D01*
X141968207Y-85351031D01*
X142033849Y-85334691D01*
X142097551Y-85320990D01*
X142149796Y-85312084D01*
X142198220Y-85307434D01*
X142265121Y-85304886D01*
X142335607Y-85305444D01*
X142403287Y-85308900D01*
X142461769Y-85315045D01*
X142504662Y-85323670D01*
X142509944Y-85325202D01*
X142534192Y-85331103D01*
X142545626Y-85331915D01*
X142545670Y-85331750D01*
X142537807Y-85322525D01*
X142516706Y-85301805D01*
X142485401Y-85272491D01*
X142446923Y-85237484D01*
X142368115Y-85172615D01*
X142275140Y-85113091D01*
X142178397Y-85070931D01*
X142072729Y-85043969D01*
X141952980Y-85030041D01*
X141853163Y-85028952D01*
X141748066Y-85040867D01*
X141734339Y-85044285D01*
X141699794Y-85053917D01*
X141646287Y-85069315D01*
X141574984Y-85090127D01*
X141487050Y-85116002D01*
X141383651Y-85146588D01*
X141265952Y-85181534D01*
X141135119Y-85220488D01*
X140992317Y-85263099D01*
X140838712Y-85309015D01*
X140675470Y-85357885D01*
X140503756Y-85409357D01*
X140324735Y-85463080D01*
X140139574Y-85518703D01*
X139949437Y-85575873D01*
X139755490Y-85634239D01*
X139558899Y-85693450D01*
X139360830Y-85753155D01*
X139162447Y-85813001D01*
X138964917Y-85872638D01*
X138769405Y-85931714D01*
X138577077Y-85989877D01*
X138389097Y-86046776D01*
X138206632Y-86102059D01*
X138030848Y-86155375D01*
X137862909Y-86206373D01*
X137703981Y-86254700D01*
X137555231Y-86300006D01*
X137417822Y-86341939D01*
X137292922Y-86380147D01*
X137181695Y-86414279D01*
X137085308Y-86443983D01*
X137004924Y-86468909D01*
X136941711Y-86488704D01*
X136896834Y-86503016D01*
X136871458Y-86511496D01*
X136854589Y-86518165D01*
X136815201Y-86535772D01*
X136767447Y-86558762D01*
X136718196Y-86583891D01*
X136642028Y-86626710D01*
X136487832Y-86731676D01*
X136346535Y-86853736D01*
X136219601Y-86991387D01*
X136108493Y-87143123D01*
X136014676Y-87307439D01*
X135989538Y-87359710D01*
X135937274Y-87485845D01*
X135900418Y-87606350D01*
X135877225Y-87726548D01*
X135875808Y-87741048D01*
X135873649Y-87782655D01*
X135871733Y-87845914D01*
X135870064Y-87930547D01*
X135868644Y-88036279D01*
X135867475Y-88162832D01*
X135866561Y-88309929D01*
X135865905Y-88477294D01*
X135865509Y-88664649D01*
X135865376Y-88871719D01*
X135776838Y-88871719D01*
X135776883Y-88544031D01*
X135776885Y-88535694D01*
X135776971Y-88382725D01*
X135777198Y-88250065D01*
X135777600Y-88136011D01*
X135778211Y-88038861D01*
X135779067Y-87956913D01*
X135780203Y-87888466D01*
X135781652Y-87831817D01*
X135783451Y-87785265D01*
X135785633Y-87747107D01*
X135788233Y-87715643D01*
X135791287Y-87689169D01*
X135794829Y-87665984D01*
X135814385Y-87572846D01*
X135865132Y-87410950D01*
X135935318Y-87253024D01*
X136023261Y-87101084D01*
X136127278Y-86957143D01*
X136245685Y-86823215D01*
X136376798Y-86701316D01*
X136518934Y-86593458D01*
X136670410Y-86501657D01*
X136829543Y-86427927D01*
X136846336Y-86422125D01*
X136883816Y-86410040D01*
X136940160Y-86392287D01*
X137014191Y-86369223D01*
X137104734Y-86341205D01*
X137210611Y-86308587D01*
X137330647Y-86271728D01*
X137463665Y-86230983D01*
X137608488Y-86186707D01*
X137763940Y-86139258D01*
X137928845Y-86088992D01*
X138102025Y-86036264D01*
X138282305Y-85981431D01*
X138468508Y-85924850D01*
X138659457Y-85866876D01*
X138853977Y-85807866D01*
X139050890Y-85748175D01*
X139249020Y-85688161D01*
X139447190Y-85628179D01*
X139644225Y-85568585D01*
X139838947Y-85509736D01*
X140030181Y-85451988D01*
X140216749Y-85395697D01*
X140397476Y-85341220D01*
X140571184Y-85288912D01*
X140736698Y-85239130D01*
X140892840Y-85192230D01*
X141038434Y-85148569D01*
X141172305Y-85108501D01*
X141293275Y-85072385D01*
X141400167Y-85040575D01*
X141491806Y-85013429D01*
X141567015Y-84991301D01*
X141624618Y-84974550D01*
X141663437Y-84963530D01*
X141682297Y-84958598D01*
X141800682Y-84940839D01*
X141935838Y-84936870D01*
X142067414Y-84949846D01*
X142192182Y-84979206D01*
X142306910Y-85024389D01*
X142408371Y-85084833D01*
X142420446Y-85094215D01*
X142452611Y-85121497D01*
X142497233Y-85161086D01*
X142552400Y-85211161D01*
X142616198Y-85269905D01*
X142682685Y-85331750D01*
X142686713Y-85335497D01*
G37*
G36*
X151362198Y-86005414D02*
G01*
X151366116Y-86467616D01*
X151371640Y-87119311D01*
X152945212Y-88613744D01*
X154518784Y-90108178D01*
X155197916Y-90108178D01*
X155877047Y-90108178D01*
X155933435Y-90159942D01*
X155939351Y-90165396D01*
X155971601Y-90195527D01*
X156013756Y-90235338D01*
X156061018Y-90280286D01*
X156108591Y-90325827D01*
X156227360Y-90439949D01*
X156227360Y-90466456D01*
X156227360Y-91085321D01*
X156227360Y-91603060D01*
X156227360Y-91730694D01*
X156482058Y-91971785D01*
X156500429Y-91989227D01*
X156567861Y-92054084D01*
X156633467Y-92118399D01*
X156694374Y-92179276D01*
X156747705Y-92233817D01*
X156790584Y-92279128D01*
X156820137Y-92312310D01*
X156829476Y-92323526D01*
X156925243Y-92449694D01*
X156946849Y-92478159D01*
X157059586Y-92651659D01*
X157166498Y-92841271D01*
X157266395Y-93044238D01*
X157358086Y-93257802D01*
X157440381Y-93479207D01*
X157512090Y-93705696D01*
X157572024Y-93934511D01*
X157618991Y-94162897D01*
X157621823Y-94178941D01*
X157630309Y-94227221D01*
X157637894Y-94271575D01*
X157644634Y-94313446D01*
X157650582Y-94354282D01*
X157655794Y-94395529D01*
X157660326Y-94438631D01*
X157664232Y-94485035D01*
X157667567Y-94536186D01*
X157670387Y-94593531D01*
X157672747Y-94658514D01*
X157674252Y-94715579D01*
X157674701Y-94732582D01*
X157676305Y-94817181D01*
X157677614Y-94913755D01*
X157678404Y-94995026D01*
X157678683Y-95023752D01*
X157679568Y-95148616D01*
X157680322Y-95289793D01*
X157681002Y-95448730D01*
X157681662Y-95626872D01*
X157682358Y-95825664D01*
X157683322Y-96101871D01*
X157686756Y-97085168D01*
X157600620Y-97250093D01*
X157579053Y-97290692D01*
X157567847Y-97310944D01*
X157550965Y-97341452D01*
X157526714Y-97382884D01*
X157508348Y-97411527D01*
X157497912Y-97423916D01*
X157492328Y-97425906D01*
X157467341Y-97433921D01*
X157423963Y-97447481D01*
X157363840Y-97466088D01*
X157288619Y-97489241D01*
X157199947Y-97516440D01*
X157099471Y-97547186D01*
X156988838Y-97580978D01*
X156869694Y-97617317D01*
X156743687Y-97655702D01*
X156612463Y-97695634D01*
X156477670Y-97736613D01*
X156340954Y-97778139D01*
X156203962Y-97819712D01*
X156068341Y-97860832D01*
X155935737Y-97900999D01*
X155807799Y-97939713D01*
X155686172Y-97976475D01*
X155572504Y-98010784D01*
X155468441Y-98042140D01*
X155375630Y-98070044D01*
X155295719Y-98093995D01*
X155230353Y-98113495D01*
X155181181Y-98128041D01*
X155149848Y-98137136D01*
X155138002Y-98140279D01*
X155135322Y-98147393D01*
X155134805Y-98171095D01*
X155137011Y-98202079D01*
X155137267Y-98205670D01*
X155138037Y-98213346D01*
X155139905Y-98251100D01*
X155135897Y-98275437D01*
X155125030Y-98293405D01*
X155122828Y-98294665D01*
X155110528Y-98299465D01*
X155087292Y-98307541D01*
X155052800Y-98318992D01*
X155006732Y-98333914D01*
X154948770Y-98352405D01*
X154878594Y-98374562D01*
X154795886Y-98400484D01*
X154700326Y-98430267D01*
X154591595Y-98464010D01*
X154469373Y-98501809D01*
X154333343Y-98543763D01*
X154183183Y-98589969D01*
X154018576Y-98640524D01*
X153839203Y-98695525D01*
X153644743Y-98755072D01*
X153434878Y-98819260D01*
X153209288Y-98888188D01*
X152967656Y-98961954D01*
X152709660Y-99040653D01*
X152434983Y-99124385D01*
X152143304Y-99213247D01*
X151834306Y-99307336D01*
X151507668Y-99406750D01*
X151163072Y-99511587D01*
X150800198Y-99621943D01*
X150418728Y-99737917D01*
X150018341Y-99859605D01*
X149598719Y-99987107D01*
X149159543Y-100120518D01*
X148700494Y-100259937D01*
X148221252Y-100405462D01*
X147721498Y-100557189D01*
X147200913Y-100715216D01*
X146888680Y-100809990D01*
X146484361Y-100932714D01*
X146085611Y-101053747D01*
X145692949Y-101172931D01*
X145306894Y-101290109D01*
X144927966Y-101405123D01*
X144556683Y-101517816D01*
X144193565Y-101628029D01*
X143839131Y-101735606D01*
X143493899Y-101840389D01*
X143158390Y-101942220D01*
X142833123Y-102040942D01*
X142518615Y-102136397D01*
X142215388Y-102228428D01*
X141923959Y-102316876D01*
X141644848Y-102401585D01*
X141378575Y-102482397D01*
X141125658Y-102559154D01*
X140886616Y-102631699D01*
X140661969Y-102699875D01*
X140452236Y-102763523D01*
X140257937Y-102822486D01*
X140079589Y-102876606D01*
X139917713Y-102925727D01*
X139772827Y-102969689D01*
X139645451Y-103008337D01*
X139536104Y-103041512D01*
X139445305Y-103069056D01*
X139373573Y-103090813D01*
X139321428Y-103106624D01*
X139289388Y-103116332D01*
X139277973Y-103119780D01*
X139277608Y-103119873D01*
X139259526Y-103114657D01*
X139229962Y-103095435D01*
X139192284Y-103064386D01*
X139124489Y-103003894D01*
X139016833Y-103036158D01*
X138994057Y-103043032D01*
X138950586Y-103056216D01*
X138888954Y-103074943D01*
X138810701Y-103098744D01*
X138717368Y-103127149D01*
X138610495Y-103159691D01*
X138491624Y-103195898D01*
X138362294Y-103235303D01*
X138224047Y-103277435D01*
X138078422Y-103321826D01*
X137926961Y-103368007D01*
X137771205Y-103415508D01*
X137725378Y-103429481D01*
X137527766Y-103489592D01*
X137350647Y-103543224D01*
X137193543Y-103590515D01*
X137055978Y-103631606D01*
X136937476Y-103666633D01*
X136837559Y-103695738D01*
X136755752Y-103719058D01*
X136691578Y-103736733D01*
X136644560Y-103748902D01*
X136614222Y-103755704D01*
X136600087Y-103757278D01*
X136590901Y-103755854D01*
X136559748Y-103751157D01*
X136512313Y-103744086D01*
X136452136Y-103735165D01*
X136382757Y-103724921D01*
X136307716Y-103713877D01*
X136048489Y-103675794D01*
X135965219Y-103594352D01*
X135952028Y-103581594D01*
X135921675Y-103552493D01*
X135877207Y-103510013D01*
X135819703Y-103455181D01*
X135750241Y-103389020D01*
X135669899Y-103312557D01*
X135579756Y-103226817D01*
X135480889Y-103132826D01*
X135374377Y-103031608D01*
X135261298Y-102924190D01*
X135142730Y-102811596D01*
X135019751Y-102694853D01*
X134893439Y-102574985D01*
X133904930Y-101637060D01*
X133219625Y-101633688D01*
X132534319Y-101630315D01*
X132364946Y-101467963D01*
X132195573Y-101305612D01*
X132195698Y-101239028D01*
X132329811Y-101239028D01*
X132412731Y-101321948D01*
X132495650Y-101404868D01*
X132495650Y-100370096D01*
X132495650Y-99377686D01*
X132628119Y-99377686D01*
X132630936Y-100435559D01*
X132633518Y-101404868D01*
X132633754Y-101493432D01*
X133249696Y-101496287D01*
X133865637Y-101499142D01*
X133865637Y-100445663D01*
X133865637Y-99474825D01*
X133998217Y-99474825D01*
X133998418Y-100506226D01*
X133998612Y-101499142D01*
X133998620Y-101537626D01*
X134999389Y-102487778D01*
X135121725Y-102603884D01*
X135242865Y-102718766D01*
X135358678Y-102828510D01*
X135468194Y-102932199D01*
X135570440Y-103028916D01*
X135664444Y-103117744D01*
X135749236Y-103197765D01*
X135823844Y-103268063D01*
X135887295Y-103327721D01*
X135938618Y-103375822D01*
X135976842Y-103411449D01*
X136000995Y-103433685D01*
X136010105Y-103441613D01*
X136011257Y-103436423D01*
X136012774Y-103411031D01*
X136014180Y-103365555D01*
X136015464Y-103301164D01*
X136016613Y-103219030D01*
X136017616Y-103120324D01*
X136018463Y-103006216D01*
X136019141Y-102877877D01*
X136019640Y-102736478D01*
X136019947Y-102583190D01*
X136020003Y-102495138D01*
X136152632Y-102495138D01*
X136152729Y-102655311D01*
X136153020Y-102809348D01*
X136153495Y-102952423D01*
X136154142Y-103083299D01*
X136154949Y-103200739D01*
X136155905Y-103303506D01*
X136156998Y-103390362D01*
X136158216Y-103460070D01*
X136159549Y-103511394D01*
X136160984Y-103543095D01*
X136162510Y-103553937D01*
X136169681Y-103554690D01*
X136196024Y-103558287D01*
X136237694Y-103564342D01*
X136290812Y-103572288D01*
X136351501Y-103581558D01*
X136393261Y-103587956D01*
X136449244Y-103596391D01*
X136495028Y-103603117D01*
X136526737Y-103607569D01*
X136540491Y-103609178D01*
X136541959Y-103599205D01*
X136543400Y-103568342D01*
X136544739Y-103517811D01*
X136545964Y-103448852D01*
X136547063Y-103362704D01*
X136548025Y-103260608D01*
X136548838Y-103143801D01*
X136549491Y-103013526D01*
X136549971Y-102871020D01*
X136550268Y-102717524D01*
X136550370Y-102554278D01*
X136550370Y-102250157D01*
X136696249Y-102250157D01*
X136696386Y-102394294D01*
X136696703Y-102544730D01*
X136696729Y-102554278D01*
X136699522Y-103594810D01*
X137887212Y-103234307D01*
X139074902Y-102873803D01*
X139077360Y-101956019D01*
X139345776Y-101956019D01*
X139345797Y-102104595D01*
X139345871Y-102246168D01*
X139345996Y-102379230D01*
X139346166Y-102502270D01*
X139346379Y-102613780D01*
X139346631Y-102712249D01*
X139346919Y-102796169D01*
X139347237Y-102864030D01*
X139347584Y-102914322D01*
X139347955Y-102945537D01*
X139348347Y-102956165D01*
X139352346Y-102954940D01*
X139375613Y-102947857D01*
X139419184Y-102934608D01*
X139482541Y-102915350D01*
X139565161Y-102890241D01*
X139666526Y-102859441D01*
X139786114Y-102823106D01*
X139923405Y-102781396D01*
X140077878Y-102734467D01*
X140249013Y-102682478D01*
X140436290Y-102625588D01*
X140639188Y-102563954D01*
X140857186Y-102497734D01*
X141089765Y-102427086D01*
X141336403Y-102352169D01*
X141596580Y-102273141D01*
X141869776Y-102190160D01*
X142155471Y-102103383D01*
X142453143Y-102012969D01*
X142762273Y-101919076D01*
X143082339Y-101821862D01*
X143412822Y-101721485D01*
X143753201Y-101618104D01*
X144102956Y-101511875D01*
X144461565Y-101402959D01*
X144828509Y-101291511D01*
X145203268Y-101177692D01*
X145585320Y-101061657D01*
X145974145Y-100943567D01*
X146369223Y-100823579D01*
X146770033Y-100701850D01*
X147176055Y-100578539D01*
X155001000Y-98202079D01*
X155001000Y-97149213D01*
X155000990Y-97097074D01*
X155000894Y-96995674D01*
X155133831Y-96995674D01*
X155133875Y-97144166D01*
X155134085Y-97285686D01*
X155134451Y-97418723D01*
X155134961Y-97541764D01*
X155135604Y-97653296D01*
X155136369Y-97751808D01*
X155137245Y-97835785D01*
X155138221Y-97903716D01*
X155139286Y-97954088D01*
X155140428Y-97985389D01*
X155141636Y-97996106D01*
X155142159Y-97995988D01*
X155157068Y-97991679D01*
X155191103Y-97981549D01*
X155242560Y-97966116D01*
X155309735Y-97945894D01*
X155390927Y-97921402D01*
X155484430Y-97893156D01*
X155588543Y-97861673D01*
X155701562Y-97827468D01*
X155821783Y-97791060D01*
X155947504Y-97752963D01*
X156077021Y-97713696D01*
X156208630Y-97673775D01*
X156340630Y-97633716D01*
X156471315Y-97594035D01*
X156598984Y-97555251D01*
X156721932Y-97517878D01*
X156838457Y-97482435D01*
X156946855Y-97449436D01*
X157045423Y-97419400D01*
X157132457Y-97392843D01*
X157206256Y-97370281D01*
X157265114Y-97352231D01*
X157307329Y-97339210D01*
X157398478Y-97310944D01*
X157398478Y-96255008D01*
X157398477Y-96237293D01*
X157398466Y-96174876D01*
X157532607Y-96174876D01*
X157532803Y-96327126D01*
X157533209Y-96469990D01*
X157533823Y-96597114D01*
X157534056Y-96632137D01*
X157534467Y-96679058D01*
X157534858Y-96704929D01*
X157535226Y-96710424D01*
X157535565Y-96696219D01*
X157535873Y-96662988D01*
X157536144Y-96611407D01*
X157536375Y-96542151D01*
X157536562Y-96455894D01*
X157536700Y-96353312D01*
X157536786Y-96235079D01*
X157536816Y-96101871D01*
X157536806Y-96025752D01*
X157536745Y-95901051D01*
X157536629Y-95791809D01*
X157536463Y-95698690D01*
X157536251Y-95622358D01*
X157535997Y-95563477D01*
X157535705Y-95522710D01*
X157535380Y-95500720D01*
X157535025Y-95498173D01*
X157534644Y-95515730D01*
X157534241Y-95554057D01*
X157533821Y-95613817D01*
X157533273Y-95725360D01*
X157532842Y-95867638D01*
X157532620Y-96019595D01*
X157532607Y-96174876D01*
X157398466Y-96174876D01*
X157398445Y-96061906D01*
X157398345Y-95907232D01*
X157398155Y-95772003D01*
X157397855Y-95654957D01*
X157397425Y-95554827D01*
X157396843Y-95470348D01*
X157396091Y-95400256D01*
X157395146Y-95343284D01*
X157393989Y-95298169D01*
X157392598Y-95263646D01*
X157390954Y-95238448D01*
X157389035Y-95221311D01*
X157386822Y-95210969D01*
X157384293Y-95206159D01*
X157381429Y-95205614D01*
X157381319Y-95205655D01*
X157367716Y-95209990D01*
X157334874Y-95220149D01*
X157284475Y-95235622D01*
X157218202Y-95255897D01*
X157137738Y-95280464D01*
X157044764Y-95308812D01*
X156940963Y-95340430D01*
X156828018Y-95374808D01*
X156707611Y-95411434D01*
X156581424Y-95449797D01*
X156451140Y-95489388D01*
X156318441Y-95529695D01*
X156185010Y-95570207D01*
X156052529Y-95610413D01*
X155922680Y-95649803D01*
X155797145Y-95687866D01*
X155677608Y-95724091D01*
X155565750Y-95757968D01*
X155463255Y-95788985D01*
X155371803Y-95816631D01*
X155293079Y-95840396D01*
X155228763Y-95859770D01*
X155180539Y-95874240D01*
X155150089Y-95883297D01*
X155139096Y-95886429D01*
X155138864Y-95887807D01*
X155138218Y-95906073D01*
X155137588Y-95944385D01*
X155136980Y-96001231D01*
X155136404Y-96075095D01*
X155135865Y-96164465D01*
X155135373Y-96267827D01*
X155134933Y-96383667D01*
X155134555Y-96510473D01*
X155134244Y-96646729D01*
X155134009Y-96790923D01*
X155133858Y-96941540D01*
X155133831Y-96995674D01*
X155000894Y-96995674D01*
X155000849Y-96948647D01*
X155000549Y-96807163D01*
X155000103Y-96674138D01*
X154999524Y-96551086D01*
X154998822Y-96439524D01*
X154998010Y-96340966D01*
X154997100Y-96256929D01*
X154996103Y-96188926D01*
X154995032Y-96138474D01*
X154993898Y-96107088D01*
X154992714Y-96096283D01*
X154990589Y-96096808D01*
X154970983Y-96102471D01*
X154931851Y-96114069D01*
X154874342Y-96131258D01*
X154799603Y-96153688D01*
X154708784Y-96181015D01*
X154603032Y-96212891D01*
X154483497Y-96248969D01*
X154351326Y-96288903D01*
X154207669Y-96332346D01*
X154053674Y-96378951D01*
X153890488Y-96428372D01*
X153719262Y-96480261D01*
X153541143Y-96534272D01*
X153357279Y-96590058D01*
X151730131Y-97083897D01*
X151730452Y-97342041D01*
X151730878Y-97684526D01*
X151731031Y-97807032D01*
X151731071Y-97856128D01*
X151730990Y-97978222D01*
X151730659Y-98093048D01*
X151730200Y-98179604D01*
X151730098Y-98198753D01*
X151729327Y-98293482D01*
X151728366Y-98375382D01*
X151727236Y-98442601D01*
X151726261Y-98481232D01*
X151725957Y-98493283D01*
X151724550Y-98525576D01*
X151723034Y-98537626D01*
X151721573Y-98538430D01*
X151703328Y-98545174D01*
X151666113Y-98557490D01*
X151611598Y-98574878D01*
X151541455Y-98596836D01*
X151457355Y-98622865D01*
X151360969Y-98652464D01*
X151253968Y-98685134D01*
X151138023Y-98720373D01*
X151014807Y-98757681D01*
X150885989Y-98796558D01*
X150753241Y-98836504D01*
X150618235Y-98877018D01*
X150482641Y-98917599D01*
X150348131Y-98957749D01*
X150216376Y-98996965D01*
X150089047Y-99034748D01*
X149967816Y-99070598D01*
X149854353Y-99104013D01*
X149750330Y-99134495D01*
X149657417Y-99161541D01*
X149577288Y-99184653D01*
X149511611Y-99203329D01*
X149462059Y-99217070D01*
X149430303Y-99225375D01*
X149418014Y-99227743D01*
X149408424Y-99222282D01*
X149398972Y-99208018D01*
X149398951Y-99206976D01*
X149398871Y-99189339D01*
X149398816Y-99151934D01*
X149398787Y-99096665D01*
X149398782Y-99025437D01*
X149398801Y-98940155D01*
X149398824Y-98888858D01*
X149489856Y-98888858D01*
X149490380Y-98948188D01*
X149493432Y-99119136D01*
X150520922Y-98807091D01*
X150583118Y-98788205D01*
X150727020Y-98744527D01*
X150864644Y-98702780D01*
X150994504Y-98663414D01*
X151115114Y-98626878D01*
X151224986Y-98593622D01*
X151322635Y-98564096D01*
X151406574Y-98538748D01*
X151475318Y-98518029D01*
X151527379Y-98502389D01*
X151561271Y-98492275D01*
X151575508Y-98488139D01*
X151602604Y-98481232D01*
X151562933Y-98443804D01*
X151553460Y-98434799D01*
X151536325Y-98416100D01*
X151528109Y-98398139D01*
X151526468Y-98373331D01*
X151529063Y-98334093D01*
X151531136Y-98298134D01*
X151531053Y-98271848D01*
X151528769Y-98261810D01*
X151521874Y-98267486D01*
X151505255Y-98286814D01*
X151483546Y-98315112D01*
X151459529Y-98344125D01*
X151396344Y-98400546D01*
X151319207Y-98449352D01*
X151233536Y-98486823D01*
X151222682Y-98490466D01*
X151186536Y-98502096D01*
X151132676Y-98519053D01*
X151063379Y-98540636D01*
X150980925Y-98566138D01*
X150887592Y-98594858D01*
X150785661Y-98626090D01*
X150677409Y-98659132D01*
X150565115Y-98693279D01*
X149979556Y-98870999D01*
X149885646Y-98866727D01*
X149832209Y-98862254D01*
X149761426Y-98846734D01*
X149700958Y-98818798D01*
X149644693Y-98776147D01*
X149618329Y-98753293D01*
X149599532Y-98742640D01*
X149580270Y-98742075D01*
X149552135Y-98749144D01*
X149539100Y-98753030D01*
X149511064Y-98762719D01*
X149495904Y-98769974D01*
X149494295Y-98774650D01*
X149491937Y-98798115D01*
X149490416Y-98837509D01*
X149489856Y-98888858D01*
X149398824Y-98888858D01*
X149398844Y-98842724D01*
X149398910Y-98735048D01*
X149398973Y-98653372D01*
X149487908Y-98653372D01*
X149489260Y-98661604D01*
X149498956Y-98670596D01*
X149501577Y-98670299D01*
X149510004Y-98660200D01*
X149509583Y-98657100D01*
X149498956Y-98642976D01*
X149493264Y-98641936D01*
X149487908Y-98653372D01*
X149398973Y-98653372D01*
X149399000Y-98619034D01*
X149399112Y-98496586D01*
X149399133Y-98466715D01*
X149399053Y-98346160D01*
X149398717Y-98232823D01*
X149398145Y-98128563D01*
X149397361Y-98035240D01*
X149396384Y-97954715D01*
X149395238Y-97888847D01*
X149393943Y-97839495D01*
X149392521Y-97808520D01*
X149390993Y-97797782D01*
X149383437Y-97799865D01*
X149355752Y-97808014D01*
X149308704Y-97822047D01*
X149243276Y-97841668D01*
X149160451Y-97866579D01*
X149061212Y-97896484D01*
X148946542Y-97931085D01*
X148817424Y-97970084D01*
X148674840Y-98013185D01*
X148519775Y-98060091D01*
X148353210Y-98110504D01*
X148176130Y-98164127D01*
X147989516Y-98220664D01*
X147794351Y-98279816D01*
X147591620Y-98341287D01*
X147382304Y-98404779D01*
X147167387Y-98469997D01*
X144952588Y-99142211D01*
X144950672Y-99394706D01*
X144947932Y-99755793D01*
X144947064Y-99870102D01*
X144944365Y-100225726D01*
X144941969Y-100541435D01*
X144941540Y-100597993D01*
X144913919Y-100607358D01*
X144901331Y-100611305D01*
X144868717Y-100621336D01*
X144817704Y-100636948D01*
X144749711Y-100657709D01*
X144666160Y-100683185D01*
X144568468Y-100712944D01*
X144458057Y-100746555D01*
X144336346Y-100783584D01*
X144204755Y-100823600D01*
X144064703Y-100866171D01*
X143917611Y-100910863D01*
X143764898Y-100957244D01*
X143715305Y-100972300D01*
X143539946Y-101025489D01*
X143384244Y-101072610D01*
X143247042Y-101113995D01*
X143127178Y-101149976D01*
X143023494Y-101180884D01*
X142934830Y-101207049D01*
X142860026Y-101228803D01*
X142797922Y-101246477D01*
X142747360Y-101260402D01*
X142707178Y-101270909D01*
X142676218Y-101278330D01*
X142653320Y-101282995D01*
X142637324Y-101285236D01*
X142627071Y-101285384D01*
X142621401Y-101283770D01*
X142618894Y-101282074D01*
X142614784Y-101278073D01*
X142611279Y-101271549D01*
X142608323Y-101260872D01*
X142605859Y-101244410D01*
X142603830Y-101220532D01*
X142602180Y-101187606D01*
X142600852Y-101144003D01*
X142599788Y-101088090D01*
X142598933Y-101018236D01*
X142598820Y-101004546D01*
X142693235Y-101004546D01*
X142693633Y-101071951D01*
X142695021Y-101122082D01*
X142697589Y-101154822D01*
X142701527Y-101172554D01*
X142707025Y-101177661D01*
X142707861Y-101177503D01*
X142724155Y-101173003D01*
X142759414Y-101162707D01*
X142811894Y-101147143D01*
X142879849Y-101126842D01*
X142961536Y-101102332D01*
X143055211Y-101074144D01*
X143159129Y-101042808D01*
X143271545Y-101008851D01*
X143390716Y-100972805D01*
X143514897Y-100935199D01*
X143642344Y-100896562D01*
X143771312Y-100857424D01*
X143900057Y-100818314D01*
X144026836Y-100779762D01*
X144149903Y-100742298D01*
X144267514Y-100706450D01*
X144377925Y-100672750D01*
X144479392Y-100641725D01*
X144570171Y-100613907D01*
X144648516Y-100589823D01*
X144712684Y-100570005D01*
X144760930Y-100554981D01*
X144791511Y-100545281D01*
X144802681Y-100541435D01*
X144802427Y-100538413D01*
X144792182Y-100523418D01*
X144772298Y-100501158D01*
X144754685Y-100481408D01*
X144743129Y-100460708D01*
X144738057Y-100434139D01*
X144736797Y-100393602D01*
X144736447Y-100322315D01*
X144712641Y-100355459D01*
X144702769Y-100368511D01*
X144654530Y-100421010D01*
X144597617Y-100470049D01*
X144541254Y-100507449D01*
X144522456Y-100515406D01*
X144483993Y-100529352D01*
X144428339Y-100548380D01*
X144357524Y-100571834D01*
X144273580Y-100599054D01*
X144178537Y-100629383D01*
X144074427Y-100662161D01*
X143963280Y-100696732D01*
X143847128Y-100732435D01*
X143745177Y-100763569D01*
X143626973Y-100799569D01*
X143526714Y-100829913D01*
X143442592Y-100855085D01*
X143372796Y-100875570D01*
X143315518Y-100891851D01*
X143268947Y-100904413D01*
X143231274Y-100913739D01*
X143200689Y-100920313D01*
X143175384Y-100924620D01*
X143153549Y-100927142D01*
X143133374Y-100928366D01*
X143113049Y-100928773D01*
X143067355Y-100928264D01*
X143027656Y-100924495D01*
X142994158Y-100915846D01*
X142958373Y-100900782D01*
X142933795Y-100888002D01*
X142890039Y-100860951D01*
X142854279Y-100833981D01*
X142810951Y-100795889D01*
X142752103Y-100813212D01*
X142693256Y-100830536D01*
X142693235Y-101004546D01*
X142598820Y-101004546D01*
X142598229Y-100932811D01*
X142597621Y-100830183D01*
X142597050Y-100708720D01*
X142597044Y-100707292D01*
X142693214Y-100707292D01*
X142693948Y-100726937D01*
X142695977Y-100735849D01*
X142703108Y-100733786D01*
X142725988Y-100724562D01*
X142729592Y-100714144D01*
X142716032Y-100698608D01*
X142701115Y-100685990D01*
X142694258Y-100687165D01*
X142693214Y-100707292D01*
X142597044Y-100707292D01*
X142596460Y-100566793D01*
X142596406Y-100554328D01*
X142693027Y-100554328D01*
X142798079Y-100651764D01*
X142806315Y-100659378D01*
X142844210Y-100693753D01*
X142867588Y-100714144D01*
X142874961Y-100720575D01*
X142895593Y-100737305D01*
X142903132Y-100741405D01*
X142902178Y-100734643D01*
X142897690Y-100709024D01*
X142890156Y-100668111D01*
X142880279Y-100615699D01*
X142868760Y-100555584D01*
X142866249Y-100542305D01*
X142961702Y-100542305D01*
X142961768Y-100545281D01*
X142965054Y-100564964D01*
X142971763Y-100598873D01*
X142980950Y-100642114D01*
X142986459Y-100666409D01*
X143001656Y-100721935D01*
X143017739Y-100760782D01*
X143036646Y-100786903D01*
X143060310Y-100804254D01*
X143083654Y-100814451D01*
X143133214Y-100826466D01*
X143179339Y-100827311D01*
X143190898Y-100824513D01*
X143222386Y-100815770D01*
X143271028Y-100801769D01*
X143334649Y-100783161D01*
X143411077Y-100760596D01*
X143498139Y-100734726D01*
X143593660Y-100706200D01*
X143695467Y-100675670D01*
X143801387Y-100643786D01*
X143909246Y-100611199D01*
X144016872Y-100578559D01*
X144122090Y-100546518D01*
X144222727Y-100515726D01*
X144316610Y-100486833D01*
X144340049Y-100479478D01*
X144397906Y-100460344D01*
X144449091Y-100442098D01*
X144488758Y-100426511D01*
X144512062Y-100415357D01*
X144542442Y-100392715D01*
X144583186Y-100353881D01*
X144622599Y-100308858D01*
X144628436Y-100300827D01*
X144826580Y-100300827D01*
X144827329Y-100353506D01*
X144829062Y-100390735D01*
X144831963Y-100415365D01*
X144836214Y-100430248D01*
X144842001Y-100438235D01*
X144843187Y-100439135D01*
X144847780Y-100439966D01*
X144851345Y-100434000D01*
X144853992Y-100419052D01*
X144855831Y-100392935D01*
X144856970Y-100353466D01*
X144857519Y-100298458D01*
X144857588Y-100225726D01*
X144857287Y-100133084D01*
X144856986Y-100069610D01*
X144856475Y-99992253D01*
X144855793Y-99934189D01*
X144854834Y-99893739D01*
X144853488Y-99869225D01*
X144851647Y-99858969D01*
X144849204Y-99861291D01*
X144846050Y-99874512D01*
X144842077Y-99896956D01*
X144837676Y-99934126D01*
X144833665Y-99988524D01*
X144830342Y-100054756D01*
X144827964Y-100127667D01*
X144826791Y-100202106D01*
X144826631Y-100229844D01*
X144826580Y-100300827D01*
X144628436Y-100300827D01*
X144655169Y-100264042D01*
X144675385Y-100225830D01*
X144677831Y-100218344D01*
X144686200Y-100185366D01*
X144696653Y-100136981D01*
X144708367Y-100077818D01*
X144720518Y-100012508D01*
X144732282Y-99945680D01*
X144742836Y-99881965D01*
X144751356Y-99825992D01*
X144757019Y-99782391D01*
X144759001Y-99755793D01*
X144758486Y-99748409D01*
X144751267Y-99715886D01*
X144738306Y-99680676D01*
X144730230Y-99665305D01*
X144694847Y-99626795D01*
X144645827Y-99604793D01*
X144584365Y-99599662D01*
X144511657Y-99611767D01*
X144505980Y-99613314D01*
X144477391Y-99623685D01*
X144462916Y-99637689D01*
X144455786Y-99661329D01*
X144455736Y-99661598D01*
X144454352Y-99693534D01*
X144460468Y-99719302D01*
X144462195Y-99722682D01*
X144472940Y-99767844D01*
X144470939Y-99779484D01*
X144464989Y-99814104D01*
X144439539Y-99853767D01*
X144433701Y-99859847D01*
X144420464Y-99876324D01*
X144412215Y-99886593D01*
X144399895Y-99908884D01*
X144399392Y-99910329D01*
X144388608Y-99931876D01*
X144369237Y-99964268D01*
X144345102Y-100001076D01*
X144320845Y-100039115D01*
X144307012Y-100068983D01*
X144307238Y-100085975D01*
X144313067Y-100100145D01*
X144316851Y-100135264D01*
X144316026Y-100142503D01*
X144312524Y-100173254D01*
X144300705Y-100203004D01*
X144293528Y-100211926D01*
X144257895Y-100236002D01*
X144213509Y-100243866D01*
X144166733Y-100234044D01*
X144157974Y-100230196D01*
X144131599Y-100216112D01*
X144117346Y-100204532D01*
X144114611Y-100201650D01*
X144096631Y-100199542D01*
X144062408Y-100208414D01*
X144048838Y-100213369D01*
X144019608Y-100230653D01*
X144011430Y-100243848D01*
X144004738Y-100254644D01*
X143999076Y-100277116D01*
X143999472Y-100289889D01*
X144009057Y-100289613D01*
X144034227Y-100283491D01*
X144068642Y-100272626D01*
X144112622Y-100258965D01*
X144153222Y-100251818D01*
X144186292Y-100254683D01*
X144218371Y-100267328D01*
X144224948Y-100271070D01*
X144255741Y-100295588D01*
X144286669Y-100329118D01*
X144313428Y-100365905D01*
X144325893Y-100389282D01*
X144331711Y-100400192D01*
X144337215Y-100426223D01*
X144336624Y-100430343D01*
X144332158Y-100442484D01*
X144321142Y-100453038D01*
X144299931Y-100464023D01*
X144264883Y-100477455D01*
X144212353Y-100495351D01*
X144167697Y-100509789D01*
X144122408Y-100523485D01*
X144087700Y-100532933D01*
X144068726Y-100536649D01*
X144064529Y-100536003D01*
X144043141Y-100524290D01*
X144013217Y-100501100D01*
X143979068Y-100470621D01*
X143945004Y-100437039D01*
X143915336Y-100404542D01*
X143899491Y-100383965D01*
X144052153Y-100383965D01*
X144056987Y-100394513D01*
X144071488Y-100413514D01*
X144082553Y-100424677D01*
X144095211Y-100429756D01*
X144114768Y-100427138D01*
X144148250Y-100417155D01*
X144168912Y-100410484D01*
X144199039Y-100399039D01*
X144211198Y-100389282D01*
X144207660Y-100378331D01*
X144190697Y-100363304D01*
X144176506Y-100352900D01*
X144160613Y-100346805D01*
X144140266Y-100348868D01*
X144107253Y-100358629D01*
X144086296Y-100365914D01*
X144061728Y-100376570D01*
X144052153Y-100383965D01*
X143899491Y-100383965D01*
X143894374Y-100377319D01*
X143886429Y-100359555D01*
X143883846Y-100348025D01*
X143871346Y-100338887D01*
X143870552Y-100338858D01*
X143851314Y-100331703D01*
X143826861Y-100315759D01*
X143816472Y-100307993D01*
X143798267Y-100299185D01*
X143776556Y-100298805D01*
X143742509Y-100305812D01*
X143715786Y-100313349D01*
X143693966Y-100324745D01*
X143691483Y-100330304D01*
X143687560Y-100339085D01*
X143686850Y-100349884D01*
X143680817Y-100376747D01*
X143678952Y-100382394D01*
X143681856Y-100389420D01*
X143700152Y-100384537D01*
X143712967Y-100381743D01*
X143749436Y-100387358D01*
X143790764Y-100407962D01*
X143832283Y-100440830D01*
X143869320Y-100483236D01*
X143872559Y-100487778D01*
X143895415Y-100524414D01*
X143897582Y-100527887D01*
X143905889Y-100557323D01*
X143896173Y-100579400D01*
X143867126Y-100597432D01*
X143817442Y-100614731D01*
X143771554Y-100628493D01*
X143721039Y-100643760D01*
X143680295Y-100656192D01*
X143623312Y-100673727D01*
X143540142Y-100598995D01*
X143516710Y-100577519D01*
X143484547Y-100546480D01*
X143461271Y-100522025D01*
X143452300Y-100510135D01*
X143610259Y-100510135D01*
X143629575Y-100538603D01*
X143648891Y-100567070D01*
X143720494Y-100545742D01*
X143792097Y-100524414D01*
X143766225Y-100503465D01*
X143758555Y-100497723D01*
X143731296Y-100485790D01*
X143697808Y-100485725D01*
X143651671Y-100497174D01*
X143610259Y-100510135D01*
X143452300Y-100510135D01*
X143450774Y-100508112D01*
X143449693Y-100504869D01*
X143452206Y-100478533D01*
X143472294Y-100456330D01*
X143505952Y-100442988D01*
X143545041Y-100435654D01*
X143519628Y-100418294D01*
X143501102Y-100404427D01*
X143488014Y-100391967D01*
X143482601Y-100389955D01*
X143460972Y-100392135D01*
X143430011Y-100400651D01*
X143413887Y-100406632D01*
X143386719Y-100421925D01*
X143382389Y-100430364D01*
X143378208Y-100438512D01*
X143377974Y-100441445D01*
X143369022Y-100464564D01*
X143351115Y-100490921D01*
X143324022Y-100523119D01*
X143359401Y-100540033D01*
X143380496Y-100554791D01*
X143409566Y-100583623D01*
X143437018Y-100618384D01*
X143449915Y-100637662D01*
X143460087Y-100656099D01*
X143466258Y-100667284D01*
X143470522Y-100690088D01*
X143460854Y-100708576D01*
X143435398Y-100725249D01*
X143392300Y-100742610D01*
X143329705Y-100763160D01*
X143280474Y-100778317D01*
X143236778Y-100791096D01*
X143204685Y-100799738D01*
X143188907Y-100802915D01*
X143183476Y-100801171D01*
X143163249Y-100787064D01*
X143134776Y-100762268D01*
X143102197Y-100730985D01*
X143069652Y-100697416D01*
X143041280Y-100665763D01*
X143027002Y-100647586D01*
X143179585Y-100647586D01*
X143184762Y-100657925D01*
X143198919Y-100677291D01*
X143218008Y-100700819D01*
X143283556Y-100678459D01*
X143349105Y-100656099D01*
X143319875Y-100630956D01*
X143303541Y-100617848D01*
X143288083Y-100611609D01*
X143267948Y-100613765D01*
X143234992Y-100623611D01*
X143213463Y-100630986D01*
X143189004Y-100641079D01*
X143179585Y-100647586D01*
X143027002Y-100647586D01*
X143021221Y-100640227D01*
X143013615Y-100625010D01*
X143014370Y-100616626D01*
X143021858Y-100602089D01*
X143040277Y-100589109D01*
X143073173Y-100575579D01*
X143124097Y-100559389D01*
X143152099Y-100551016D01*
X143189966Y-100539043D01*
X143210424Y-100530352D01*
X143215924Y-100522936D01*
X143208919Y-100514785D01*
X143191860Y-100503892D01*
X143188940Y-100502122D01*
X143172931Y-100493522D01*
X143157611Y-100489875D01*
X143137513Y-100491523D01*
X143107173Y-100498806D01*
X143061125Y-100512068D01*
X143038518Y-100518736D01*
X142999752Y-100530322D01*
X142972536Y-100538668D01*
X142961702Y-100542305D01*
X142866249Y-100542305D01*
X142862645Y-100523243D01*
X142848730Y-100440085D01*
X142841167Y-100372718D01*
X142840526Y-100341325D01*
X142928508Y-100341325D01*
X142930722Y-100380144D01*
X142933969Y-100402339D01*
X142939871Y-100429783D01*
X142945336Y-100442309D01*
X142947561Y-100442862D01*
X142966257Y-100440711D01*
X142995789Y-100433755D01*
X143028404Y-100424207D01*
X143056354Y-100414279D01*
X143071888Y-100406183D01*
X143072280Y-100403484D01*
X143063143Y-100387984D01*
X143042063Y-100363163D01*
X143012237Y-100332949D01*
X143011100Y-100331863D01*
X142978443Y-100301054D01*
X142958016Y-100283725D01*
X142946190Y-100278124D01*
X142939336Y-100282501D01*
X142933825Y-100295102D01*
X142930842Y-100307429D01*
X142928508Y-100341325D01*
X142840526Y-100341325D01*
X142840032Y-100317103D01*
X142845403Y-100269198D01*
X142846038Y-100266850D01*
X143093401Y-100266850D01*
X143093588Y-100274918D01*
X143104529Y-100290193D01*
X143128060Y-100315258D01*
X143166019Y-100352697D01*
X143197095Y-100382159D01*
X143220943Y-100403484D01*
X143229628Y-100411250D01*
X143253987Y-100431026D01*
X143266456Y-100438322D01*
X143269925Y-100438126D01*
X143278628Y-100430364D01*
X143270576Y-100410907D01*
X143245453Y-100379243D01*
X143202946Y-100334862D01*
X143177327Y-100310076D01*
X143143986Y-100281231D01*
X143119995Y-100266329D01*
X143102509Y-100263345D01*
X143102132Y-100263403D01*
X143093401Y-100266850D01*
X142846038Y-100266850D01*
X142857358Y-100224964D01*
X142868050Y-100199347D01*
X143216407Y-100199347D01*
X143222288Y-100215588D01*
X143238853Y-100236851D01*
X143268820Y-100268181D01*
X143279872Y-100279247D01*
X143311416Y-100307939D01*
X143335513Y-100322495D01*
X143357296Y-100325191D01*
X143381903Y-100318304D01*
X143387837Y-100314377D01*
X143387943Y-100305527D01*
X143377356Y-100290086D01*
X143354118Y-100265377D01*
X143316269Y-100228726D01*
X143257867Y-100173250D01*
X143401846Y-100173250D01*
X143412524Y-100187476D01*
X143436145Y-100212369D01*
X143474285Y-100250166D01*
X143495884Y-100270927D01*
X143534980Y-100305527D01*
X143539999Y-100309969D01*
X143572396Y-100333186D01*
X143592360Y-100340118D01*
X143599174Y-100330304D01*
X143598913Y-100328618D01*
X143588209Y-100312120D01*
X143565026Y-100286959D01*
X143533792Y-100257062D01*
X143498934Y-100226355D01*
X143464877Y-100198764D01*
X143436049Y-100178214D01*
X143416877Y-100168631D01*
X143413019Y-100167850D01*
X143402536Y-100167454D01*
X143401846Y-100173250D01*
X143257867Y-100173250D01*
X143230369Y-100147129D01*
X143226375Y-100159111D01*
X143220136Y-100177826D01*
X143218491Y-100183084D01*
X143216407Y-100199347D01*
X142868050Y-100199347D01*
X142875975Y-100180360D01*
X142889736Y-100154133D01*
X142919786Y-100111026D01*
X143042569Y-100111026D01*
X143049172Y-100124813D01*
X143072118Y-100144566D01*
X143081634Y-100151651D01*
X143104346Y-100167031D01*
X143116854Y-100173163D01*
X143122182Y-100171642D01*
X143123916Y-100159111D01*
X143113370Y-100138182D01*
X143092662Y-100114035D01*
X143080123Y-100103105D01*
X143530296Y-100103105D01*
X143537600Y-100121787D01*
X143555605Y-100144904D01*
X143587344Y-100177434D01*
X143606901Y-100196459D01*
X143631761Y-100218754D01*
X143648955Y-100229225D01*
X143663433Y-100230397D01*
X143680149Y-100224799D01*
X143711407Y-100211739D01*
X143628847Y-100131685D01*
X143602964Y-100106850D01*
X143572421Y-100078325D01*
X143570715Y-100076807D01*
X143720881Y-100076807D01*
X143721551Y-100084503D01*
X143733381Y-100099796D01*
X143758147Y-100125055D01*
X143797624Y-100162655D01*
X143832947Y-100195258D01*
X143851555Y-100211739D01*
X143865323Y-100223934D01*
X143888787Y-100243355D01*
X143899821Y-100250501D01*
X143899918Y-100250501D01*
X143909209Y-100243848D01*
X143901099Y-100224291D01*
X143875837Y-100192216D01*
X143833672Y-100148008D01*
X143822219Y-100136779D01*
X143782267Y-100100746D01*
X143752760Y-100080444D01*
X143731476Y-100074269D01*
X143729597Y-100074334D01*
X143720881Y-100076807D01*
X143570715Y-100076807D01*
X143550530Y-100058843D01*
X143540840Y-100051632D01*
X143540819Y-100051632D01*
X143535570Y-100061274D01*
X143534770Y-100064980D01*
X143530594Y-100084320D01*
X143530296Y-100103105D01*
X143080123Y-100103105D01*
X143072655Y-100096595D01*
X143058942Y-100091730D01*
X143047926Y-100099943D01*
X143042569Y-100111026D01*
X142919786Y-100111026D01*
X142939980Y-100082057D01*
X142979193Y-100041347D01*
X143152190Y-100041347D01*
X143155083Y-100045585D01*
X143164650Y-100050370D01*
X143168291Y-100034407D01*
X143166670Y-100026523D01*
X143157062Y-100024122D01*
X143153575Y-100027157D01*
X143152190Y-100041347D01*
X142979193Y-100041347D01*
X143002470Y-100017181D01*
X143044106Y-99986401D01*
X143321641Y-99986401D01*
X143334386Y-100002137D01*
X143362230Y-100027750D01*
X143370298Y-100034407D01*
X143386957Y-100048152D01*
X143417377Y-100068138D01*
X143437331Y-100074097D01*
X143444498Y-100064980D01*
X143439070Y-100055647D01*
X143421472Y-100034952D01*
X143395917Y-100008554D01*
X143389393Y-100002219D01*
X143373603Y-99988481D01*
X143842236Y-99988481D01*
X143843004Y-100000410D01*
X143850428Y-100023087D01*
X143868503Y-100048612D01*
X143900587Y-100082392D01*
X143904786Y-100086508D01*
X143933931Y-100113418D01*
X143957115Y-100132105D01*
X143969638Y-100138736D01*
X143985444Y-100136092D01*
X144009313Y-100128549D01*
X144019008Y-100120133D01*
X144015705Y-100114410D01*
X143999904Y-100095822D01*
X143974715Y-100068915D01*
X143944219Y-100037762D01*
X143912498Y-100006440D01*
X143883634Y-99979021D01*
X143881780Y-99977377D01*
X144030227Y-99977377D01*
X144030901Y-99985074D01*
X144042733Y-100000365D01*
X144067499Y-100025623D01*
X144106976Y-100063221D01*
X144129599Y-100084184D01*
X144170994Y-100120133D01*
X144173986Y-100122731D01*
X144204922Y-100145031D01*
X144223028Y-100151487D01*
X144228926Y-100142503D01*
X144225247Y-100136294D01*
X144208772Y-100116829D01*
X144182100Y-100088213D01*
X144148566Y-100054117D01*
X144127710Y-100033800D01*
X144089286Y-99999690D01*
X144061097Y-99980598D01*
X144040845Y-99974835D01*
X144038937Y-99974901D01*
X144030227Y-99977377D01*
X143881780Y-99977377D01*
X143861707Y-99959582D01*
X143850799Y-99952197D01*
X143850088Y-99952322D01*
X143844519Y-99963877D01*
X143844370Y-99965488D01*
X143842236Y-99988481D01*
X143373603Y-99988481D01*
X143361932Y-99978327D01*
X143343134Y-99968828D01*
X143328666Y-99971324D01*
X143321736Y-99976744D01*
X143321641Y-99986401D01*
X143044106Y-99986401D01*
X143070437Y-99966935D01*
X143088306Y-99958112D01*
X143121839Y-99944598D01*
X143151752Y-99933787D01*
X143461406Y-99933787D01*
X143467665Y-99947963D01*
X143477721Y-99958871D01*
X143486448Y-99960410D01*
X143488691Y-99941496D01*
X143485641Y-99927714D01*
X143471836Y-99926213D01*
X143461406Y-99933787D01*
X143151752Y-99933787D01*
X143170357Y-99927063D01*
X143234754Y-99905216D01*
X143292718Y-99886328D01*
X143633973Y-99886328D01*
X143647729Y-99905549D01*
X143680412Y-99934885D01*
X143688715Y-99941496D01*
X143693067Y-99944961D01*
X143725934Y-99967220D01*
X143746646Y-99974250D01*
X143753850Y-99965488D01*
X143753291Y-99962722D01*
X143741591Y-99945604D01*
X143719366Y-99922816D01*
X143692781Y-99899801D01*
X143667999Y-99882002D01*
X143651187Y-99874859D01*
X143638800Y-99876521D01*
X143633973Y-99886328D01*
X143292718Y-99886328D01*
X143315925Y-99878766D01*
X143414766Y-99847422D01*
X143435207Y-99841062D01*
X143775946Y-99841062D01*
X143776368Y-99844162D01*
X143786994Y-99858287D01*
X143792687Y-99859326D01*
X143798043Y-99847890D01*
X143796690Y-99839659D01*
X143786994Y-99830666D01*
X143784373Y-99830964D01*
X143775946Y-99841062D01*
X143435207Y-99841062D01*
X143532171Y-99810892D01*
X143616981Y-99784862D01*
X143948658Y-99784862D01*
X143949148Y-99794034D01*
X143962705Y-99810092D01*
X143991458Y-99836452D01*
X144004888Y-99847890D01*
X144019761Y-99860557D01*
X144042678Y-99878479D01*
X144054263Y-99885483D01*
X144062280Y-99884571D01*
X144066361Y-99873612D01*
X144053675Y-99851590D01*
X144024873Y-99819952D01*
X143997648Y-99795281D01*
X143973879Y-99780594D01*
X143956370Y-99780139D01*
X143948658Y-99784862D01*
X143616981Y-99784862D01*
X143669036Y-99768885D01*
X143759845Y-99741291D01*
X144093690Y-99741291D01*
X144096053Y-99754513D01*
X144116839Y-99777218D01*
X144142649Y-99807438D01*
X144160263Y-99849179D01*
X144159604Y-99873612D01*
X144159006Y-99895771D01*
X144157541Y-99913952D01*
X144165641Y-99935744D01*
X144188615Y-99961654D01*
X144199211Y-99971666D01*
X144219716Y-99989377D01*
X144230711Y-99996390D01*
X144233741Y-99994590D01*
X144246850Y-99979801D01*
X144264789Y-99954959D01*
X144286479Y-99922524D01*
X144300877Y-99896484D01*
X144303684Y-99876324D01*
X144293774Y-99856789D01*
X144270021Y-99832621D01*
X144231301Y-99798568D01*
X144207466Y-99778452D01*
X144172931Y-99752006D01*
X144145798Y-99734508D01*
X144130468Y-99728994D01*
X144110999Y-99733133D01*
X144093690Y-99741291D01*
X143759845Y-99741291D01*
X143826256Y-99721111D01*
X143902729Y-99697992D01*
X144263975Y-99697992D01*
X144277053Y-99713764D01*
X144305684Y-99739616D01*
X144336402Y-99764399D01*
X144365895Y-99783545D01*
X144382044Y-99788337D01*
X144383472Y-99779484D01*
X144368799Y-99757696D01*
X144336646Y-99723682D01*
X144317479Y-99706264D01*
X144289778Y-99687571D01*
X144270489Y-99685573D01*
X144264357Y-99689082D01*
X144263975Y-99697992D01*
X143902729Y-99697992D01*
X143924855Y-99691303D01*
X144053631Y-99652525D01*
X144163994Y-99619536D01*
X144257552Y-99591894D01*
X144335911Y-99569157D01*
X144400680Y-99550884D01*
X144453465Y-99536633D01*
X144495874Y-99525964D01*
X144529513Y-99518434D01*
X144555992Y-99513602D01*
X144576916Y-99511026D01*
X144593893Y-99510266D01*
X144664896Y-99510266D01*
X144560374Y-99405307D01*
X144551525Y-99396481D01*
X144512345Y-99358847D01*
X144478276Y-99328348D01*
X144452716Y-99307920D01*
X144439061Y-99300496D01*
X144437706Y-99300568D01*
X144417200Y-99304654D01*
X144383219Y-99313763D01*
X144342367Y-99326141D01*
X144262464Y-99351637D01*
X144300936Y-99388926D01*
X144321308Y-99411907D01*
X144325247Y-99419712D01*
X144337517Y-99444022D01*
X144335385Y-99470202D01*
X144314550Y-99487827D01*
X144299466Y-99493267D01*
X144265914Y-99504259D01*
X144221073Y-99518315D01*
X144170434Y-99533687D01*
X144051178Y-99569313D01*
X143991648Y-99510523D01*
X143932119Y-99451734D01*
X143881653Y-99465863D01*
X143865306Y-99470920D01*
X143840823Y-99480964D01*
X143831188Y-99488853D01*
X143831471Y-99490222D01*
X143842210Y-99503338D01*
X143863679Y-99520849D01*
X143870250Y-99525786D01*
X143891375Y-99548616D01*
X143896394Y-99554040D01*
X143905459Y-99581835D01*
X143895851Y-99605002D01*
X143895307Y-99605471D01*
X143879369Y-99613271D01*
X143847874Y-99625555D01*
X143805915Y-99640622D01*
X143758586Y-99656768D01*
X143710979Y-99672291D01*
X143668190Y-99685486D01*
X143635310Y-99694653D01*
X143617433Y-99698087D01*
X143612205Y-99695887D01*
X143597201Y-99683746D01*
X143588200Y-99675195D01*
X143565001Y-99653808D01*
X143536621Y-99628100D01*
X143534608Y-99626292D01*
X143508351Y-99603822D01*
X143489392Y-99593567D01*
X143469182Y-99593039D01*
X143439177Y-99599753D01*
X143387713Y-99612712D01*
X143428096Y-99654069D01*
X143436339Y-99662813D01*
X143452271Y-99684870D01*
X143459629Y-99695056D01*
X143464775Y-99721095D01*
X143464184Y-99724305D01*
X143458850Y-99735374D01*
X143446066Y-99745622D01*
X143422381Y-99756759D01*
X143384340Y-99770493D01*
X143328491Y-99788534D01*
X143323540Y-99790092D01*
X143272995Y-99805782D01*
X143230494Y-99818601D01*
X143200372Y-99827263D01*
X143186964Y-99830485D01*
X143186028Y-99830309D01*
X143172150Y-99821208D01*
X143147829Y-99801043D01*
X143117683Y-99773606D01*
X143057350Y-99716545D01*
X142878044Y-99770970D01*
X142698739Y-99825395D01*
X142695883Y-100189862D01*
X142693027Y-100554328D01*
X142596406Y-100554328D01*
X142596316Y-100533490D01*
X142595637Y-100412714D01*
X142594757Y-100299188D01*
X142593704Y-100194769D01*
X142592509Y-100101311D01*
X142591201Y-100020672D01*
X142589807Y-99954706D01*
X142588359Y-99905269D01*
X142586884Y-99874217D01*
X142585412Y-99863406D01*
X142583756Y-99863790D01*
X142565208Y-99869083D01*
X142527077Y-99880318D01*
X142470514Y-99897149D01*
X142396673Y-99919227D01*
X142306708Y-99946206D01*
X142201769Y-99977739D01*
X142083011Y-100013479D01*
X141951586Y-100053079D01*
X141808647Y-100096191D01*
X141655347Y-100142469D01*
X141492839Y-100191565D01*
X141322276Y-100243132D01*
X141144810Y-100296824D01*
X140961594Y-100352292D01*
X139345981Y-100841584D01*
X139345879Y-101386526D01*
X139345783Y-101899457D01*
X139345776Y-101956019D01*
X139077360Y-101956019D01*
X139077720Y-101821787D01*
X139077964Y-101723672D01*
X139078287Y-101544658D01*
X139078390Y-101386526D01*
X139078266Y-101248469D01*
X139077906Y-101129678D01*
X139077303Y-101029346D01*
X139076451Y-100946666D01*
X139075342Y-100880830D01*
X139073968Y-100831030D01*
X139072322Y-100796458D01*
X139070398Y-100776307D01*
X139068187Y-100769770D01*
X139061735Y-100771296D01*
X139035689Y-100778619D01*
X138991345Y-100791543D01*
X138930345Y-100809569D01*
X138854334Y-100832198D01*
X138764956Y-100858932D01*
X138663856Y-100889272D01*
X138552676Y-100922719D01*
X138433062Y-100958774D01*
X138306658Y-100996939D01*
X138175106Y-101036715D01*
X138040053Y-101077603D01*
X137903141Y-101119104D01*
X137766014Y-101160720D01*
X137630318Y-101201952D01*
X137497695Y-101242302D01*
X137369790Y-101281269D01*
X137248247Y-101318356D01*
X137134711Y-101353064D01*
X137030824Y-101384894D01*
X136938232Y-101413348D01*
X136858578Y-101437926D01*
X136793507Y-101458130D01*
X136744662Y-101473462D01*
X136713687Y-101483421D01*
X136702228Y-101487510D01*
X136701845Y-101488958D01*
X136700712Y-101507516D01*
X136699689Y-101546152D01*
X136698782Y-101603333D01*
X136698001Y-101677530D01*
X136697353Y-101767211D01*
X136696845Y-101870845D01*
X136696487Y-101986902D01*
X136696285Y-102113849D01*
X136696249Y-102250157D01*
X136550370Y-102250157D01*
X136550370Y-101499378D01*
X136525511Y-101493636D01*
X136517152Y-101491990D01*
X136487617Y-101486960D01*
X136443086Y-101479840D01*
X136387961Y-101471326D01*
X136326642Y-101462116D01*
X136152632Y-101436339D01*
X136152632Y-102419184D01*
X136152632Y-102495138D01*
X136020003Y-102495138D01*
X136020052Y-102419184D01*
X136020052Y-101393071D01*
X135095577Y-100515268D01*
X135052351Y-100474225D01*
X134931097Y-100359103D01*
X134813472Y-100247439D01*
X134700601Y-100140302D01*
X134593613Y-100038760D01*
X134493633Y-99943883D01*
X134401788Y-99856739D01*
X134319206Y-99778398D01*
X134247012Y-99709928D01*
X134186334Y-99652399D01*
X134138298Y-99606880D01*
X134104031Y-99574438D01*
X134084660Y-99556145D01*
X133998217Y-99474825D01*
X133865637Y-99474825D01*
X133865637Y-99392185D01*
X133698156Y-99384936D01*
X133693626Y-99384746D01*
X133642059Y-99383127D01*
X133572415Y-99381641D01*
X133488303Y-99380330D01*
X133393335Y-99379237D01*
X133291121Y-99378404D01*
X133185271Y-99377873D01*
X133079397Y-99377686D01*
X132628119Y-99377686D01*
X132495650Y-99377686D01*
X132495650Y-99335324D01*
X132415550Y-99262938D01*
X132379647Y-99230493D01*
X132628230Y-99230493D01*
X132967964Y-99237781D01*
X133052399Y-99239436D01*
X133164020Y-99241259D01*
X133279826Y-99242814D01*
X133393249Y-99244022D01*
X133497719Y-99244805D01*
X133586668Y-99245088D01*
X133865637Y-99245107D01*
X133865637Y-98471727D01*
X133865637Y-97795713D01*
X133998217Y-97795713D01*
X133998217Y-98536652D01*
X133998217Y-99277590D01*
X134984572Y-100214263D01*
X135092860Y-100317079D01*
X135213921Y-100431980D01*
X135329867Y-100541981D01*
X135439708Y-100646145D01*
X135542451Y-100743533D01*
X135637106Y-100833207D01*
X135722682Y-100914228D01*
X135798188Y-100985658D01*
X135862632Y-101046559D01*
X135915023Y-101095992D01*
X135954369Y-101133018D01*
X135979681Y-101156700D01*
X135989966Y-101166099D01*
X135997927Y-101172030D01*
X136007091Y-101173041D01*
X136008991Y-101155051D01*
X136008988Y-101153936D01*
X136006363Y-101101298D01*
X135999256Y-101031314D01*
X135988344Y-100948012D01*
X135974306Y-100855420D01*
X135957819Y-100757568D01*
X135939561Y-100658484D01*
X135920211Y-100562197D01*
X135900446Y-100472736D01*
X135880944Y-100394128D01*
X135854941Y-100300238D01*
X135783054Y-100070971D01*
X135701768Y-99849670D01*
X135612187Y-99638659D01*
X135515414Y-99440266D01*
X135412553Y-99256816D01*
X135304707Y-99090635D01*
X135192979Y-98944050D01*
X135178548Y-98928278D01*
X135148467Y-98897450D01*
X135105309Y-98854306D01*
X135050656Y-98800371D01*
X134986088Y-98737168D01*
X134913188Y-98666219D01*
X134833534Y-98589048D01*
X134748710Y-98507177D01*
X134660295Y-98422130D01*
X134569871Y-98335430D01*
X134479019Y-98248599D01*
X134389320Y-98163161D01*
X134302354Y-98080639D01*
X134219704Y-98002556D01*
X134142949Y-97930435D01*
X134073672Y-97865799D01*
X133998217Y-97795713D01*
X133865637Y-97795713D01*
X133865637Y-97698348D01*
X133246933Y-97698348D01*
X132628230Y-97698348D01*
X132628230Y-98464420D01*
X132628230Y-98783249D01*
X132628230Y-99230493D01*
X132379647Y-99230493D01*
X132335450Y-99190553D01*
X132332630Y-100214791D01*
X132329811Y-101239028D01*
X132195698Y-101239028D01*
X132196779Y-100664598D01*
X132196948Y-100527478D01*
X132196875Y-100406199D01*
X132196524Y-100304148D01*
X132195865Y-100219867D01*
X132194870Y-100151900D01*
X132193511Y-100098789D01*
X132191758Y-100059078D01*
X132189584Y-100031310D01*
X132186960Y-100014027D01*
X132183856Y-100005772D01*
X132183300Y-100005160D01*
X132171036Y-99993079D01*
X132143667Y-99966672D01*
X132101970Y-99926682D01*
X132046725Y-99873849D01*
X131978710Y-99808915D01*
X131898704Y-99732621D01*
X131807487Y-99645708D01*
X131705835Y-99548918D01*
X131594530Y-99442993D01*
X131474348Y-99328673D01*
X131346070Y-99206700D01*
X131210473Y-99077815D01*
X131068337Y-98942760D01*
X130920441Y-98802276D01*
X130767563Y-98657105D01*
X130610481Y-98507987D01*
X129051237Y-97028015D01*
X128759894Y-97020707D01*
X128729811Y-97019998D01*
X128637416Y-97018211D01*
X128530613Y-97016595D01*
X128414975Y-97015214D01*
X128296079Y-97014128D01*
X128179500Y-97013399D01*
X128070813Y-97013089D01*
X127673075Y-97012779D01*
X127574062Y-96920079D01*
X129136973Y-96920079D01*
X130601914Y-98311845D01*
X130699817Y-98404851D01*
X130850543Y-98548009D01*
X130997016Y-98687097D01*
X131138397Y-98821318D01*
X131273845Y-98949874D01*
X131402521Y-99071969D01*
X131523583Y-99186807D01*
X131636192Y-99293590D01*
X131739507Y-99391524D01*
X131832689Y-99479810D01*
X131914896Y-99557652D01*
X131985288Y-99624253D01*
X132043026Y-99678818D01*
X132087269Y-99720549D01*
X132117176Y-99748650D01*
X132131908Y-99762325D01*
X132196960Y-99821039D01*
X132197085Y-98984672D01*
X132329768Y-98984672D01*
X132393375Y-99049401D01*
X132409130Y-99065923D01*
X132427111Y-99085507D01*
X132442442Y-99101701D01*
X132455331Y-99113169D01*
X132465987Y-99118574D01*
X132474619Y-99116581D01*
X132481438Y-99105854D01*
X132486651Y-99085056D01*
X132490467Y-99052852D01*
X132493097Y-99007905D01*
X132494748Y-98948879D01*
X132495630Y-98874439D01*
X132495953Y-98783249D01*
X132495924Y-98673971D01*
X132495754Y-98545271D01*
X132495650Y-98395813D01*
X132495650Y-97656223D01*
X132415550Y-97582062D01*
X132335450Y-97507900D01*
X132332609Y-98246286D01*
X132330498Y-98794894D01*
X132329768Y-98984672D01*
X132197085Y-98984672D01*
X132197113Y-98794894D01*
X132197112Y-98699792D01*
X132197013Y-98528870D01*
X132196775Y-98378366D01*
X132196382Y-98247170D01*
X132195820Y-98134168D01*
X132195074Y-98038249D01*
X132194130Y-97958302D01*
X132192974Y-97893214D01*
X132191591Y-97841873D01*
X132189966Y-97803168D01*
X132188084Y-97775986D01*
X132185933Y-97759216D01*
X132183496Y-97751746D01*
X132180751Y-97748934D01*
X132163649Y-97732309D01*
X132131730Y-97701649D01*
X132085809Y-97657728D01*
X132026701Y-97601320D01*
X131955219Y-97533201D01*
X131872177Y-97454143D01*
X131778390Y-97364921D01*
X131674672Y-97266310D01*
X131561838Y-97159083D01*
X131440701Y-97044015D01*
X131312075Y-96921881D01*
X131176775Y-96793453D01*
X131035616Y-96659507D01*
X130889410Y-96520817D01*
X130738973Y-96378156D01*
X130675456Y-96317929D01*
X130525144Y-96175382D01*
X130378701Y-96036476D01*
X130236998Y-95902038D01*
X130100904Y-95772893D01*
X129971287Y-95649866D01*
X129849017Y-95533784D01*
X129734963Y-95425471D01*
X129629993Y-95325754D01*
X129534978Y-95235458D01*
X129450787Y-95155408D01*
X129378287Y-95086430D01*
X129318350Y-95029350D01*
X129271843Y-94984994D01*
X129239635Y-94954186D01*
X129222597Y-94937752D01*
X129136973Y-94853933D01*
X129136973Y-95887006D01*
X129136973Y-96880775D01*
X129136973Y-96920079D01*
X127574062Y-96920079D01*
X127532081Y-96880775D01*
X127766986Y-96880775D01*
X128385689Y-96880775D01*
X129004393Y-96880775D01*
X129004393Y-95827457D01*
X129004393Y-94774140D01*
X128588275Y-94766822D01*
X128511901Y-94765535D01*
X128405275Y-94763902D01*
X128299473Y-94762453D01*
X128198747Y-94761239D01*
X128107353Y-94760309D01*
X128029542Y-94759714D01*
X127969571Y-94759505D01*
X127766986Y-94759505D01*
X127766986Y-95820140D01*
X127766986Y-96782916D01*
X127766986Y-96880775D01*
X127532081Y-96880775D01*
X127511123Y-96861153D01*
X127502915Y-96853452D01*
X127453719Y-96806625D01*
X127410447Y-96764322D01*
X127375685Y-96729152D01*
X127352018Y-96703721D01*
X127342033Y-96690637D01*
X127340956Y-96680856D01*
X127339617Y-96650336D01*
X127338311Y-96601368D01*
X127337064Y-96535973D01*
X127335907Y-96456176D01*
X127334867Y-96364001D01*
X127333973Y-96261470D01*
X127333253Y-96150608D01*
X127332737Y-96033437D01*
X127330579Y-95395126D01*
X126617964Y-94717470D01*
X126534624Y-94638221D01*
X126427922Y-94536769D01*
X126324726Y-94438661D01*
X126226426Y-94345219D01*
X126134410Y-94257762D01*
X126050068Y-94177611D01*
X125974790Y-94106086D01*
X125909966Y-94044508D01*
X125856984Y-93994198D01*
X125817234Y-93956474D01*
X125792105Y-93932659D01*
X125678860Y-93825505D01*
X125678860Y-91835761D01*
X125678860Y-91705115D01*
X125822488Y-91705115D01*
X125822488Y-92738779D01*
X125822488Y-93772443D01*
X126542281Y-94456557D01*
X126644475Y-94553645D01*
X126747513Y-94651453D01*
X126845419Y-94744305D01*
X126936983Y-94831061D01*
X127020998Y-94910577D01*
X127096256Y-94981712D01*
X127161548Y-95043323D01*
X127215666Y-95094270D01*
X127257402Y-95133409D01*
X127285548Y-95159599D01*
X127298895Y-95171698D01*
X127335716Y-95202726D01*
X127335810Y-94570127D01*
X127468682Y-94570127D01*
X127468881Y-95601158D01*
X127469080Y-96632188D01*
X127551743Y-96707552D01*
X127634406Y-96782916D01*
X127634406Y-95750977D01*
X127634406Y-94719038D01*
X127551544Y-94644583D01*
X127515989Y-94612635D01*
X127766986Y-94612635D01*
X127851515Y-94619780D01*
X127877280Y-94621136D01*
X127923793Y-94622492D01*
X127987370Y-94623721D01*
X128065410Y-94624795D01*
X128155315Y-94625682D01*
X128254485Y-94626353D01*
X128360319Y-94626777D01*
X128470219Y-94626925D01*
X129004393Y-94626925D01*
X129004393Y-93860829D01*
X129004393Y-93174715D01*
X129136973Y-93174715D01*
X129137615Y-93920154D01*
X129138224Y-94626925D01*
X129138257Y-94665594D01*
X130657761Y-96107395D01*
X130811085Y-96252846D01*
X130961844Y-96395799D01*
X131107589Y-96533932D01*
X131247533Y-96666504D01*
X131380889Y-96792770D01*
X131506873Y-96911990D01*
X131624697Y-97023419D01*
X131733576Y-97126316D01*
X131832722Y-97219937D01*
X131921351Y-97303540D01*
X131998675Y-97376382D01*
X132063909Y-97437720D01*
X132116266Y-97486812D01*
X132154961Y-97522915D01*
X132179206Y-97545285D01*
X132188215Y-97553182D01*
X132191163Y-97551013D01*
X132194872Y-97530842D01*
X132196445Y-97491084D01*
X132195787Y-97433295D01*
X132193222Y-97339278D01*
X132362533Y-97339278D01*
X132479542Y-97452523D01*
X132596550Y-97565768D01*
X133178307Y-97565768D01*
X133227901Y-97565767D01*
X133348267Y-97565729D01*
X133448847Y-97565590D01*
X133531333Y-97565288D01*
X133597414Y-97564759D01*
X133648780Y-97563939D01*
X133687120Y-97562764D01*
X133714126Y-97561172D01*
X133731486Y-97559098D01*
X133740891Y-97556479D01*
X133744031Y-97553252D01*
X133742596Y-97549353D01*
X133738275Y-97544719D01*
X133727093Y-97534052D01*
X133701223Y-97509478D01*
X133662577Y-97472814D01*
X133612836Y-97425655D01*
X133553685Y-97369597D01*
X133486806Y-97306235D01*
X133413881Y-97237162D01*
X133336594Y-97163975D01*
X132956702Y-96804281D01*
X132920997Y-96834242D01*
X132914915Y-96839474D01*
X132891112Y-96860516D01*
X132854362Y-96893388D01*
X132806967Y-96936018D01*
X132751226Y-96986335D01*
X132689441Y-97042266D01*
X132623912Y-97101740D01*
X132362533Y-97339278D01*
X132193222Y-97339278D01*
X132192408Y-97309423D01*
X132230861Y-97274633D01*
X132286606Y-97224158D01*
X132396038Y-97124803D01*
X132495599Y-97034040D01*
X132584462Y-96952636D01*
X132661801Y-96881357D01*
X132726790Y-96820968D01*
X132778603Y-96772236D01*
X132816415Y-96735925D01*
X132839399Y-96712803D01*
X132846728Y-96703635D01*
X132845757Y-96702564D01*
X132832420Y-96689463D01*
X132804010Y-96662069D01*
X132761248Y-96621070D01*
X132704854Y-96567152D01*
X132635551Y-96501000D01*
X132554058Y-96423300D01*
X132461097Y-96334739D01*
X132357390Y-96236003D01*
X132243656Y-96127778D01*
X132120617Y-96010751D01*
X131988995Y-95885607D01*
X131849509Y-95753032D01*
X131702882Y-95613713D01*
X131549833Y-95468336D01*
X131391085Y-95317587D01*
X131227358Y-95162152D01*
X131059374Y-95002718D01*
X131014916Y-94960528D01*
X130846865Y-94801040D01*
X130682736Y-94645257D01*
X130523286Y-94493899D01*
X130369271Y-94347685D01*
X130221448Y-94207334D01*
X130080575Y-94073565D01*
X129947406Y-93947095D01*
X129822701Y-93828646D01*
X129707214Y-93718934D01*
X129601704Y-93618680D01*
X129506926Y-93528602D01*
X129423637Y-93449418D01*
X129352595Y-93381849D01*
X129294556Y-93326613D01*
X129250277Y-93284428D01*
X129220514Y-93256014D01*
X129206024Y-93242089D01*
X129136973Y-93174715D01*
X129004393Y-93174715D01*
X129004393Y-93094733D01*
X128764093Y-93087476D01*
X128744120Y-93086908D01*
X128665371Y-93085117D01*
X128571283Y-93083513D01*
X128467050Y-93082157D01*
X128357862Y-93081111D01*
X128248911Y-93080436D01*
X128145389Y-93080193D01*
X127766986Y-93080166D01*
X127766986Y-93846400D01*
X127766986Y-94532617D01*
X127766986Y-94612635D01*
X127515989Y-94612635D01*
X127468682Y-94570127D01*
X127335810Y-94570127D01*
X127335869Y-94174957D01*
X127335950Y-93628667D01*
X127468682Y-93628667D01*
X127468682Y-94367844D01*
X127551622Y-94450230D01*
X127634562Y-94532617D01*
X127631722Y-93782959D01*
X127628882Y-93033301D01*
X127548782Y-92961395D01*
X127468682Y-92889489D01*
X127468682Y-93147187D01*
X127468682Y-93628667D01*
X127335950Y-93628667D01*
X127336022Y-93147187D01*
X126675927Y-92520962D01*
X126637329Y-92484339D01*
X126533971Y-92386219D01*
X126433820Y-92291071D01*
X126338302Y-92200255D01*
X126248842Y-92115128D01*
X126166867Y-92037050D01*
X126093802Y-91967378D01*
X126031073Y-91907471D01*
X125980106Y-91858688D01*
X125942327Y-91822387D01*
X125919161Y-91799926D01*
X125822488Y-91705115D01*
X125678860Y-91705115D01*
X125678860Y-90028980D01*
X125822488Y-90028980D01*
X125822892Y-90772907D01*
X125823297Y-91516834D01*
X126475505Y-92135538D01*
X126506025Y-92164489D01*
X126609262Y-92262397D01*
X126709602Y-92357527D01*
X126805585Y-92448498D01*
X126895753Y-92533928D01*
X126978647Y-92612435D01*
X127052808Y-92682638D01*
X127116778Y-92743155D01*
X127169096Y-92792606D01*
X127208306Y-92829608D01*
X127232946Y-92852781D01*
X127338180Y-92951320D01*
X127334379Y-92821449D01*
X127333085Y-92773442D01*
X127332801Y-92733234D01*
X127333606Y-92721097D01*
X127503031Y-92721097D01*
X127616687Y-92834342D01*
X127730342Y-92947586D01*
X128313059Y-92947586D01*
X128895776Y-92947586D01*
X128781598Y-92838943D01*
X128760629Y-92819000D01*
X128716057Y-92776643D01*
X128660157Y-92723549D01*
X128595815Y-92662457D01*
X128525918Y-92596109D01*
X128453351Y-92527245D01*
X128381002Y-92458605D01*
X128094583Y-92186910D01*
X128042258Y-92233038D01*
X128039364Y-92235596D01*
X128014904Y-92257451D01*
X127977205Y-92291358D01*
X127928891Y-92334947D01*
X127872584Y-92385852D01*
X127810907Y-92441702D01*
X127746482Y-92500131D01*
X127503031Y-92721097D01*
X127333606Y-92721097D01*
X127334546Y-92706932D01*
X127339027Y-92690099D01*
X127346953Y-92678299D01*
X127359033Y-92667095D01*
X127383120Y-92646020D01*
X127421791Y-92611508D01*
X127469522Y-92568430D01*
X127524198Y-92518739D01*
X127583702Y-92464387D01*
X127645914Y-92407328D01*
X127708720Y-92349515D01*
X127770001Y-92292900D01*
X127827640Y-92239436D01*
X127879520Y-92191077D01*
X127923524Y-92149776D01*
X127957534Y-92117485D01*
X127979434Y-92096157D01*
X127987106Y-92087746D01*
X127987081Y-92087670D01*
X127979801Y-92079853D01*
X127959471Y-92059734D01*
X127925905Y-92027133D01*
X127878912Y-91981871D01*
X127818305Y-91923769D01*
X127743895Y-91852648D01*
X127655494Y-91768327D01*
X127552913Y-91670628D01*
X127435963Y-91559372D01*
X127304457Y-91434378D01*
X127158205Y-91295469D01*
X126997019Y-91142464D01*
X126820710Y-90975183D01*
X126629091Y-90793449D01*
X126421972Y-90597081D01*
X126199166Y-90385900D01*
X125960482Y-90159727D01*
X125822488Y-90028980D01*
X125678860Y-90028980D01*
X125678860Y-89858490D01*
X125843746Y-89858490D01*
X125896645Y-89910053D01*
X125909056Y-89921979D01*
X125937189Y-89948823D01*
X125979405Y-89989011D01*
X126034673Y-90041564D01*
X126101963Y-90105503D01*
X126180244Y-90179852D01*
X126268486Y-90263630D01*
X126365659Y-90355861D01*
X126470731Y-90455565D01*
X126582673Y-90561765D01*
X126700455Y-90673482D01*
X126823045Y-90789738D01*
X126949413Y-90909554D01*
X127036280Y-90991914D01*
X127165368Y-91114324D01*
X127292166Y-91234584D01*
X127415423Y-91351506D01*
X127533890Y-91463904D01*
X127646316Y-91570593D01*
X127751453Y-91670386D01*
X127848050Y-91762096D01*
X127934858Y-91844538D01*
X128010626Y-91916525D01*
X128074106Y-91976871D01*
X128124047Y-92024389D01*
X128159200Y-92057894D01*
X128166890Y-92065227D01*
X128190546Y-92087746D01*
X128196208Y-92093136D01*
X128240736Y-92135479D01*
X128299899Y-92191714D01*
X128373124Y-92261293D01*
X128459837Y-92343673D01*
X128559463Y-92438308D01*
X128671428Y-92544654D01*
X128795159Y-92662163D01*
X128930081Y-92790293D01*
X129075619Y-92928498D01*
X129095721Y-92947586D01*
X129231201Y-93076232D01*
X129396251Y-93232950D01*
X129570197Y-93398107D01*
X129752462Y-93571159D01*
X129942474Y-93751560D01*
X130139659Y-93938764D01*
X130343442Y-94132227D01*
X130553249Y-94331404D01*
X130768506Y-94535750D01*
X130988639Y-94744718D01*
X131213074Y-94957765D01*
X131441237Y-95174346D01*
X131672553Y-95393914D01*
X131783790Y-95499502D01*
X132012763Y-95716864D01*
X132237982Y-95930684D01*
X132458890Y-96140433D01*
X132674930Y-96345580D01*
X132885542Y-96545595D01*
X133051938Y-96703635D01*
X133090170Y-96739947D01*
X133288254Y-96928106D01*
X133479238Y-97109541D01*
X133662563Y-97283723D01*
X133837671Y-97450120D01*
X133946185Y-97553252D01*
X134004003Y-97608203D01*
X134098837Y-97698348D01*
X134161003Y-97757440D01*
X134308112Y-97897302D01*
X134444773Y-98027259D01*
X134570426Y-98146779D01*
X134684514Y-98255333D01*
X134786479Y-98352389D01*
X134875764Y-98437419D01*
X134951810Y-98509890D01*
X135014058Y-98569274D01*
X135061952Y-98615039D01*
X135094933Y-98646655D01*
X135112443Y-98663592D01*
X135201093Y-98753532D01*
X135296598Y-98859034D01*
X135382650Y-98965453D01*
X135462157Y-99076906D01*
X135538024Y-99197510D01*
X135613157Y-99331384D01*
X135690461Y-99482645D01*
X135775924Y-99666615D01*
X135891608Y-99958327D01*
X135986566Y-100257444D01*
X136060855Y-100564173D01*
X136114531Y-100878724D01*
X136142899Y-101155051D01*
X136147647Y-101201306D01*
X136154264Y-101295869D01*
X136332982Y-101320969D01*
X136372617Y-101326607D01*
X136430726Y-101335148D01*
X136479601Y-101342663D01*
X136515020Y-101348496D01*
X136532766Y-101351993D01*
X136540332Y-101353415D01*
X136546389Y-101350455D01*
X136549646Y-101339201D01*
X136550455Y-101316214D01*
X136549169Y-101278054D01*
X136546138Y-101221281D01*
X136537426Y-101100720D01*
X136511224Y-100873231D01*
X136472624Y-100641408D01*
X136422472Y-100407443D01*
X136361611Y-100173531D01*
X136290888Y-99941862D01*
X136211147Y-99714631D01*
X136123233Y-99494031D01*
X136027992Y-99282254D01*
X135926268Y-99081493D01*
X135818906Y-98893941D01*
X135706752Y-98721792D01*
X135590651Y-98567237D01*
X135471447Y-98432471D01*
X135469742Y-98430770D01*
X135453761Y-98415318D01*
X135422465Y-98385328D01*
X135376401Y-98341318D01*
X135316119Y-98283811D01*
X135242166Y-98213328D01*
X135155091Y-98130388D01*
X135055442Y-98035514D01*
X134943768Y-97929225D01*
X134820617Y-97812044D01*
X134686537Y-97684490D01*
X134542077Y-97547086D01*
X134387785Y-97400351D01*
X134224209Y-97244806D01*
X134051899Y-97080974D01*
X133871401Y-96909373D01*
X133683266Y-96730527D01*
X133488040Y-96544954D01*
X133286272Y-96353177D01*
X133078511Y-96155716D01*
X132865305Y-95953092D01*
X132647203Y-95745827D01*
X132424752Y-95534440D01*
X132198502Y-95319453D01*
X131969000Y-95101387D01*
X131736795Y-94880762D01*
X131502435Y-94658100D01*
X131266469Y-94433922D01*
X131029445Y-94208748D01*
X130791911Y-93983100D01*
X130554416Y-93757498D01*
X130317509Y-93532464D01*
X130081736Y-93308517D01*
X129847648Y-93086180D01*
X129615791Y-92865972D01*
X129386716Y-92648416D01*
X129160969Y-92434032D01*
X128939099Y-92223340D01*
X128721656Y-92016862D01*
X128509186Y-91815118D01*
X128302239Y-91618631D01*
X128101362Y-91427919D01*
X127907105Y-91243506D01*
X127720016Y-91065910D01*
X127540642Y-90895654D01*
X127369532Y-90733258D01*
X127207235Y-90579243D01*
X127054300Y-90434130D01*
X126911273Y-90298440D01*
X126778704Y-90172694D01*
X126657142Y-90057412D01*
X126547134Y-89953117D01*
X126449228Y-89860328D01*
X126363975Y-89779566D01*
X126291920Y-89711353D01*
X126233614Y-89656210D01*
X126189604Y-89614656D01*
X126160438Y-89587215D01*
X126146666Y-89574405D01*
X126100726Y-89532931D01*
X125972236Y-89695711D01*
X125843746Y-89858490D01*
X125678860Y-89858490D01*
X125678860Y-89846017D01*
X125863919Y-89610828D01*
X125864330Y-89610306D01*
X125913886Y-89547763D01*
X125959638Y-89490836D01*
X125984787Y-89460059D01*
X126234911Y-89460059D01*
X126242526Y-89467657D01*
X126265724Y-89490051D01*
X126304061Y-89526816D01*
X126357092Y-89577528D01*
X126424373Y-89641766D01*
X126505458Y-89719104D01*
X126599903Y-89809121D01*
X126707262Y-89911394D01*
X126827091Y-90025499D01*
X126958945Y-90151012D01*
X127102379Y-90287512D01*
X127256948Y-90434575D01*
X127422208Y-90591778D01*
X127597712Y-90758697D01*
X127783017Y-90934910D01*
X127977678Y-91119994D01*
X128181249Y-91313524D01*
X128393286Y-91515080D01*
X128613343Y-91724236D01*
X128840977Y-91940571D01*
X129075741Y-92163660D01*
X129317192Y-92393081D01*
X129564883Y-92628412D01*
X129818371Y-92869227D01*
X130077210Y-93115106D01*
X130340956Y-93365624D01*
X130609164Y-93620358D01*
X130881388Y-93878886D01*
X131139951Y-94124442D01*
X131409109Y-94380086D01*
X131674025Y-94631728D01*
X131934245Y-94878937D01*
X132189318Y-95121281D01*
X132438788Y-95358330D01*
X132682204Y-95589652D01*
X132919112Y-95814816D01*
X133149058Y-96033390D01*
X133371590Y-96244945D01*
X133586254Y-96449047D01*
X133792597Y-96645267D01*
X133990166Y-96833173D01*
X134178507Y-97012334D01*
X134357167Y-97182318D01*
X134525694Y-97342696D01*
X134683633Y-97493034D01*
X134830532Y-97632903D01*
X134965938Y-97761870D01*
X135089397Y-97879506D01*
X135200455Y-97985378D01*
X135298660Y-98079055D01*
X135383559Y-98160107D01*
X135454698Y-98228102D01*
X135511624Y-98282609D01*
X135553884Y-98323197D01*
X135581024Y-98349434D01*
X135592592Y-98360889D01*
X135632689Y-98405728D01*
X135712715Y-98503029D01*
X135794394Y-98611706D01*
X135873205Y-98725878D01*
X135931524Y-98817176D01*
X136062174Y-99044492D01*
X136183538Y-99288104D01*
X136294514Y-99544922D01*
X136394000Y-99811855D01*
X136480894Y-100085812D01*
X136554096Y-100363703D01*
X136612502Y-100642436D01*
X136655011Y-100918922D01*
X136660911Y-100970034D01*
X136668912Y-101050142D01*
X136675853Y-101131324D01*
X136680693Y-101202107D01*
X136687054Y-101316214D01*
X136688473Y-101341665D01*
X137881195Y-100979619D01*
X139073916Y-100617574D01*
X139071030Y-100514137D01*
X139069604Y-100474481D01*
X139057456Y-100305788D01*
X139035541Y-100123214D01*
X139004620Y-99931106D01*
X138965455Y-99733811D01*
X138918808Y-99535679D01*
X138865441Y-99341058D01*
X138824165Y-99207099D01*
X138737287Y-98956710D01*
X138641010Y-98716233D01*
X138536337Y-98487654D01*
X138424270Y-98272963D01*
X138305811Y-98074145D01*
X138181963Y-97893188D01*
X138053730Y-97732080D01*
X138050306Y-97728475D01*
X138031404Y-97709770D01*
X137997149Y-97676497D01*
X137948002Y-97629098D01*
X137884424Y-97568011D01*
X137806879Y-97493676D01*
X137715826Y-97406532D01*
X137611728Y-97307020D01*
X137495046Y-97195578D01*
X137366241Y-97072647D01*
X137225776Y-96938665D01*
X137074112Y-96794073D01*
X136911710Y-96639310D01*
X136739032Y-96474816D01*
X136556540Y-96301030D01*
X136364695Y-96118391D01*
X136163959Y-95927340D01*
X135954793Y-95728316D01*
X135737659Y-95521759D01*
X135513018Y-95308108D01*
X135281332Y-95087802D01*
X135043063Y-94861282D01*
X134798672Y-94628987D01*
X134548621Y-94391356D01*
X134293371Y-94148829D01*
X134033383Y-93901846D01*
X133769121Y-93650846D01*
X133501044Y-93396269D01*
X133401314Y-93301569D01*
X133133244Y-93047017D01*
X132868691Y-92795799D01*
X132608137Y-92548373D01*
X132352062Y-92305196D01*
X132100948Y-92066724D01*
X131855275Y-91833415D01*
X131615525Y-91605726D01*
X131382179Y-91384113D01*
X131155718Y-91169034D01*
X130936622Y-90960945D01*
X130725373Y-90760303D01*
X130522451Y-90567565D01*
X130328339Y-90383188D01*
X130143516Y-90207629D01*
X129968464Y-90041345D01*
X129803664Y-89884793D01*
X129649596Y-89738429D01*
X129506743Y-89602711D01*
X129375585Y-89478095D01*
X129256602Y-89365039D01*
X129150276Y-89263999D01*
X129057089Y-89175432D01*
X128977520Y-89099795D01*
X128912052Y-89037545D01*
X128861164Y-88989139D01*
X128825339Y-88955034D01*
X128805056Y-88935687D01*
X128600195Y-88739691D01*
X127419172Y-89098255D01*
X127375511Y-89111513D01*
X127220839Y-89158502D01*
X127072527Y-89203598D01*
X126931919Y-89246390D01*
X126800359Y-89286467D01*
X126679191Y-89323417D01*
X126569759Y-89356832D01*
X126473408Y-89386300D01*
X126391482Y-89411410D01*
X126325325Y-89431751D01*
X126276281Y-89446914D01*
X126245695Y-89456486D01*
X126234911Y-89460059D01*
X125984787Y-89460059D01*
X125999632Y-89441891D01*
X126031918Y-89403293D01*
X126054541Y-89377407D01*
X126065550Y-89366597D01*
X126069689Y-89365065D01*
X126092964Y-89357517D01*
X126135348Y-89344213D01*
X126195506Y-89325562D01*
X126272105Y-89301971D01*
X126363810Y-89273848D01*
X126469287Y-89241602D01*
X126587200Y-89205638D01*
X126716216Y-89166366D01*
X126855001Y-89124193D01*
X127002219Y-89079527D01*
X127156536Y-89032775D01*
X127316618Y-88984346D01*
X128508291Y-88624082D01*
X128684953Y-88624082D01*
X128684955Y-88624086D01*
X128693235Y-88632437D01*
X128717098Y-88655572D01*
X128756095Y-88693067D01*
X128809783Y-88744497D01*
X128877714Y-88809440D01*
X128959444Y-88887471D01*
X129054526Y-88978166D01*
X129162516Y-89081102D01*
X129282966Y-89195854D01*
X129415432Y-89321998D01*
X129559468Y-89459111D01*
X129714628Y-89606769D01*
X129880467Y-89764548D01*
X130056538Y-89932023D01*
X130242396Y-90108771D01*
X130437595Y-90294369D01*
X130641690Y-90488392D01*
X130854235Y-90690416D01*
X131074784Y-90900017D01*
X131302891Y-91116772D01*
X131538111Y-91340256D01*
X131779998Y-91570046D01*
X132028107Y-91805718D01*
X132281991Y-92046847D01*
X132541204Y-92293011D01*
X132805302Y-92543785D01*
X133073839Y-92798744D01*
X133346368Y-93057466D01*
X133605881Y-93303831D01*
X133875549Y-93559864D01*
X134141049Y-93811969D01*
X134401927Y-94059713D01*
X134657725Y-94302661D01*
X134907988Y-94540380D01*
X135152259Y-94772435D01*
X135390081Y-94998394D01*
X135621000Y-95217821D01*
X135844558Y-95430283D01*
X136060300Y-95635346D01*
X136267768Y-95832576D01*
X136466507Y-96021540D01*
X136656061Y-96201803D01*
X136835973Y-96372931D01*
X137005787Y-96534490D01*
X137165047Y-96686047D01*
X137313297Y-96827168D01*
X137450080Y-96957418D01*
X137574940Y-97076364D01*
X137687421Y-97183572D01*
X137787066Y-97278608D01*
X137873421Y-97361038D01*
X137946027Y-97430427D01*
X138004429Y-97486343D01*
X138048171Y-97528352D01*
X138076796Y-97556018D01*
X138089849Y-97568909D01*
X138121563Y-97603298D01*
X138186806Y-97679615D01*
X138256370Y-97767081D01*
X138326171Y-97860324D01*
X138392122Y-97953973D01*
X138450139Y-98042658D01*
X138522138Y-98163131D01*
X138641034Y-98385920D01*
X138751928Y-98624179D01*
X138853566Y-98874238D01*
X138944694Y-99132430D01*
X139024055Y-99395087D01*
X139090395Y-99658540D01*
X139142460Y-99919121D01*
X139178995Y-100173163D01*
X139181648Y-100196495D01*
X139187186Y-100245082D01*
X139191831Y-100285664D01*
X139194783Y-100311266D01*
X139195062Y-100311816D01*
X139195755Y-100298331D01*
X139196453Y-100265179D01*
X139197142Y-100214085D01*
X139197808Y-100146772D01*
X139198436Y-100064966D01*
X139199014Y-99970390D01*
X139199527Y-99864770D01*
X139199729Y-99811332D01*
X139345713Y-99811332D01*
X139345737Y-99949607D01*
X139345895Y-100098574D01*
X139346215Y-100227636D01*
X139346713Y-100337997D01*
X139347409Y-100430858D01*
X139348322Y-100507422D01*
X139349471Y-100568891D01*
X139350873Y-100616468D01*
X139350926Y-100617574D01*
X139352548Y-100651356D01*
X139354514Y-100674757D01*
X139356790Y-100687874D01*
X139359395Y-100691909D01*
X139365318Y-100690333D01*
X139391157Y-100682798D01*
X139436634Y-100669287D01*
X139500867Y-100650069D01*
X139582969Y-100625410D01*
X139682055Y-100595579D01*
X139797242Y-100560843D01*
X139927644Y-100521470D01*
X140072376Y-100477728D01*
X140230553Y-100429883D01*
X140401290Y-100378205D01*
X140583704Y-100322960D01*
X140776907Y-100264416D01*
X140980017Y-100202842D01*
X141192147Y-100138504D01*
X141412413Y-100071670D01*
X141639931Y-100002608D01*
X141873815Y-99931586D01*
X142113180Y-99858871D01*
X142317562Y-99796773D01*
X142677513Y-99687415D01*
X143168291Y-99687415D01*
X143172459Y-99695532D01*
X143187625Y-99711526D01*
X143193253Y-99716117D01*
X143207255Y-99722401D01*
X143226524Y-99720559D01*
X143258656Y-99710476D01*
X143277661Y-99703665D01*
X143297711Y-99694117D01*
X143302335Y-99684870D01*
X143295234Y-99672035D01*
X143288859Y-99664272D01*
X143276907Y-99657411D01*
X143257667Y-99658134D01*
X143224204Y-99665837D01*
X143202941Y-99671834D01*
X143178008Y-99680854D01*
X143168291Y-99687415D01*
X142677513Y-99687415D01*
X143019078Y-99583643D01*
X143115536Y-99554341D01*
X143604770Y-99554341D01*
X143605812Y-99563178D01*
X143618769Y-99579304D01*
X143623045Y-99582857D01*
X143637505Y-99589932D01*
X143657379Y-99589088D01*
X143690322Y-99580446D01*
X143714277Y-99572622D01*
X143736917Y-99560948D01*
X143740654Y-99548616D01*
X143727332Y-99533278D01*
X143718380Y-99528116D01*
X143696585Y-99526349D01*
X143660855Y-99533284D01*
X143644558Y-99537741D01*
X143617652Y-99547007D01*
X143604770Y-99554341D01*
X143115536Y-99554341D01*
X143550343Y-99422256D01*
X144041105Y-99422256D01*
X144045273Y-99430373D01*
X144060439Y-99446367D01*
X144066068Y-99450958D01*
X144080069Y-99457243D01*
X144099338Y-99455400D01*
X144131470Y-99445317D01*
X144150475Y-99438507D01*
X144170525Y-99428959D01*
X144175149Y-99419712D01*
X144168048Y-99406876D01*
X144161673Y-99399113D01*
X144149721Y-99392252D01*
X144130481Y-99392975D01*
X144097018Y-99400679D01*
X144075756Y-99406675D01*
X144050823Y-99415695D01*
X144041105Y-99422256D01*
X143550343Y-99422256D01*
X143711598Y-99373270D01*
X144068189Y-99264958D01*
X144562249Y-99264958D01*
X144568324Y-99279584D01*
X144591361Y-99303806D01*
X144609219Y-99320434D01*
X144625401Y-99331141D01*
X144635953Y-99327038D01*
X144646716Y-99308635D01*
X144648838Y-99304681D01*
X144832059Y-99304681D01*
X144832226Y-99380627D01*
X144833115Y-99439035D01*
X144835128Y-99501297D01*
X144835610Y-99510266D01*
X144837977Y-99554260D01*
X144841424Y-99593657D01*
X144845233Y-99615225D01*
X144849060Y-99621241D01*
X144852146Y-99613407D01*
X144854460Y-99589783D01*
X144856098Y-99548794D01*
X144857156Y-99488864D01*
X144857728Y-99408416D01*
X144857777Y-99394706D01*
X144857749Y-99316332D01*
X144857024Y-99257515D01*
X144855481Y-99216054D01*
X144852997Y-99189751D01*
X144849451Y-99176406D01*
X144844721Y-99173818D01*
X144842956Y-99174992D01*
X144838215Y-99185970D01*
X144834912Y-99209687D01*
X144834781Y-99212229D01*
X144832907Y-99248479D01*
X144832059Y-99304681D01*
X144648838Y-99304681D01*
X144649051Y-99304284D01*
X144666396Y-99277348D01*
X144688472Y-99248002D01*
X144717676Y-99212229D01*
X144663884Y-99228789D01*
X144646076Y-99234220D01*
X144610485Y-99244799D01*
X144585233Y-99251950D01*
X144572665Y-99255949D01*
X144562249Y-99264958D01*
X144068189Y-99264958D01*
X144397441Y-99164950D01*
X145078926Y-98957980D01*
X145758371Y-98751655D01*
X146438097Y-98545272D01*
X147120421Y-98338126D01*
X147807663Y-98129513D01*
X148502142Y-97918730D01*
X149007094Y-97765489D01*
X149487615Y-97765489D01*
X149490523Y-98136526D01*
X149493432Y-98507564D01*
X149593788Y-98599857D01*
X149659402Y-98660200D01*
X149694144Y-98692151D01*
X149662653Y-98534984D01*
X149661236Y-98527903D01*
X149655185Y-98497113D01*
X149756287Y-98497113D01*
X149758296Y-98526666D01*
X149764940Y-98566270D01*
X149774907Y-98610216D01*
X149786889Y-98652795D01*
X149799575Y-98688298D01*
X149811658Y-98711014D01*
X149838210Y-98735639D01*
X149870574Y-98754797D01*
X149906698Y-98765352D01*
X149943295Y-98769527D01*
X149955803Y-98767104D01*
X149988027Y-98758821D01*
X150037124Y-98745309D01*
X150100813Y-98727250D01*
X150176819Y-98705327D01*
X150262862Y-98680221D01*
X150356664Y-98652613D01*
X150455949Y-98623186D01*
X150558436Y-98592620D01*
X150661850Y-98561598D01*
X150763911Y-98530800D01*
X150862342Y-98500910D01*
X150954864Y-98472608D01*
X151039201Y-98446576D01*
X151113072Y-98423495D01*
X151174202Y-98404049D01*
X151220311Y-98388917D01*
X151249121Y-98378781D01*
X151265077Y-98371810D01*
X151317579Y-98339062D01*
X151369968Y-98294093D01*
X151415686Y-98243054D01*
X151448175Y-98192096D01*
X151455592Y-98174097D01*
X151469929Y-98127735D01*
X151471322Y-98122139D01*
X151620848Y-98122139D01*
X151621182Y-98207955D01*
X151622455Y-98278012D01*
X151624603Y-98330730D01*
X151627563Y-98364525D01*
X151631274Y-98377817D01*
X151632805Y-98377092D01*
X151636122Y-98359977D01*
X151638614Y-98321171D01*
X151640273Y-98260953D01*
X151641089Y-98179604D01*
X151641052Y-98077403D01*
X151640529Y-98000709D01*
X151639433Y-97924477D01*
X151637862Y-97866855D01*
X151635850Y-97828713D01*
X151633431Y-97810922D01*
X151630641Y-97814355D01*
X151629319Y-97823376D01*
X151626759Y-97856456D01*
X151624510Y-97905955D01*
X151622694Y-97968052D01*
X151621437Y-98038929D01*
X151620863Y-98114768D01*
X151620848Y-98122139D01*
X151471322Y-98122139D01*
X151485000Y-98067171D01*
X151499903Y-97997386D01*
X151513733Y-97923364D01*
X151525587Y-97850084D01*
X151534561Y-97782531D01*
X151539751Y-97725684D01*
X151540254Y-97684526D01*
X151540159Y-97683152D01*
X151534944Y-97641867D01*
X151524052Y-97613113D01*
X151504040Y-97587677D01*
X151491578Y-97576265D01*
X151448517Y-97550725D01*
X151400428Y-97536934D01*
X151356346Y-97537934D01*
X151332060Y-97543812D01*
X151291039Y-97554412D01*
X151265592Y-97563223D01*
X151251615Y-97572529D01*
X151245001Y-97584616D01*
X151241647Y-97601767D01*
X151241913Y-97632770D01*
X151252432Y-97669307D01*
X151256690Y-97678978D01*
X151262131Y-97714902D01*
X151263133Y-97721518D01*
X151253346Y-97763023D01*
X151228898Y-97795111D01*
X151217370Y-97806548D01*
X151205951Y-97821838D01*
X151195333Y-97836056D01*
X151174680Y-97871353D01*
X151163375Y-97892367D01*
X151140093Y-97930550D01*
X151118992Y-97959754D01*
X151107116Y-97975112D01*
X151097809Y-97994998D01*
X151095255Y-98020582D01*
X151097743Y-98059938D01*
X151099292Y-98081979D01*
X151100368Y-98097291D01*
X151098498Y-98121482D01*
X151090076Y-98138555D01*
X151073183Y-98156026D01*
X151047314Y-98174363D01*
X151028900Y-98178734D01*
X151002671Y-98184960D01*
X150962853Y-98185449D01*
X151004026Y-98207188D01*
X151028255Y-98224147D01*
X151060949Y-98254693D01*
X151091255Y-98289930D01*
X151098051Y-98299039D01*
X151116146Y-98326415D01*
X151120884Y-98333584D01*
X151130201Y-98359962D01*
X151124387Y-98380745D01*
X151101826Y-98398504D01*
X151060903Y-98415813D01*
X151000002Y-98435243D01*
X150963001Y-98446404D01*
X150918579Y-98460098D01*
X150884729Y-98470877D01*
X150866764Y-98477076D01*
X150864562Y-98477516D01*
X150846024Y-98470785D01*
X150817718Y-98451937D01*
X150783735Y-98424625D01*
X150748163Y-98392502D01*
X150715091Y-98359221D01*
X150688979Y-98328867D01*
X150842560Y-98328867D01*
X150850308Y-98343004D01*
X150864009Y-98358697D01*
X150881311Y-98368597D01*
X150884744Y-98368736D01*
X150907389Y-98365089D01*
X150937663Y-98356480D01*
X150968292Y-98345464D01*
X150992003Y-98334591D01*
X151001522Y-98326415D01*
X150993803Y-98315196D01*
X150974289Y-98299717D01*
X150962528Y-98292625D01*
X150945909Y-98287593D01*
X150924678Y-98290210D01*
X150890806Y-98300556D01*
X150862266Y-98310489D01*
X150845306Y-98319328D01*
X150842560Y-98328867D01*
X150688979Y-98328867D01*
X150688608Y-98328436D01*
X150672804Y-98303799D01*
X150658986Y-98281881D01*
X150645184Y-98272613D01*
X150628347Y-98266807D01*
X150605019Y-98252078D01*
X150602372Y-98250166D01*
X150569985Y-98238955D01*
X150533563Y-98241565D01*
X150501298Y-98256100D01*
X150491107Y-98268672D01*
X150481385Y-98280666D01*
X150478682Y-98287969D01*
X150472102Y-98313527D01*
X150477805Y-98323777D01*
X150497045Y-98322035D01*
X150500946Y-98321242D01*
X150535842Y-98325204D01*
X150576241Y-98344637D01*
X150617038Y-98376420D01*
X150653126Y-98417431D01*
X150665934Y-98436107D01*
X150681522Y-98465547D01*
X150686778Y-98475474D01*
X150690759Y-98504237D01*
X150678360Y-98524442D01*
X150671071Y-98528609D01*
X150644450Y-98539498D01*
X150605128Y-98553340D01*
X150558661Y-98568415D01*
X150510603Y-98583006D01*
X150466512Y-98595394D01*
X150431941Y-98603861D01*
X150412446Y-98606689D01*
X150404991Y-98604036D01*
X150382112Y-98588866D01*
X150350870Y-98563336D01*
X150315774Y-98530979D01*
X150297206Y-98512542D01*
X150261091Y-98472564D01*
X150255085Y-98462945D01*
X150406982Y-98462945D01*
X150420295Y-98485538D01*
X150427278Y-98494334D01*
X150436673Y-98501211D01*
X150450731Y-98501856D01*
X150474940Y-98496189D01*
X150514787Y-98484126D01*
X150574941Y-98465547D01*
X150548245Y-98440676D01*
X150535631Y-98430771D01*
X150509994Y-98421853D01*
X150476511Y-98424849D01*
X150429774Y-98439717D01*
X150411619Y-98448935D01*
X150406982Y-98462945D01*
X150255085Y-98462945D01*
X150242182Y-98442279D01*
X150239958Y-98419354D01*
X150253899Y-98401459D01*
X150283486Y-98386261D01*
X150327780Y-98368861D01*
X150294397Y-98348559D01*
X150291606Y-98346880D01*
X150268089Y-98335817D01*
X150244859Y-98334326D01*
X150211433Y-98341518D01*
X150184106Y-98350290D01*
X150166574Y-98362096D01*
X150164741Y-98368510D01*
X150161853Y-98378618D01*
X150161800Y-98380257D01*
X150154126Y-98405791D01*
X150137400Y-98433545D01*
X150126034Y-98449037D01*
X150120737Y-98463047D01*
X150129114Y-98469696D01*
X150130106Y-98470043D01*
X150149783Y-98483207D01*
X150176899Y-98508114D01*
X150206139Y-98539149D01*
X150232187Y-98570695D01*
X150249604Y-98596947D01*
X150249729Y-98597136D01*
X150259503Y-98624692D01*
X150254059Y-98646457D01*
X150250343Y-98650076D01*
X150228364Y-98662084D01*
X150192344Y-98677096D01*
X150147524Y-98693365D01*
X150099146Y-98709145D01*
X150052452Y-98722689D01*
X150012683Y-98732250D01*
X149985081Y-98736083D01*
X149977167Y-98735154D01*
X149953602Y-98723986D01*
X149921117Y-98698832D01*
X149877360Y-98657987D01*
X149854226Y-98634703D01*
X149824848Y-98603127D01*
X149817691Y-98594509D01*
X149971764Y-98594509D01*
X149981175Y-98610751D01*
X149989245Y-98622385D01*
X150000502Y-98632309D01*
X150016229Y-98634372D01*
X150041922Y-98628862D01*
X150083078Y-98616066D01*
X150142407Y-98596947D01*
X150111971Y-98573006D01*
X150102976Y-98565923D01*
X150085954Y-98554244D01*
X150070689Y-98550794D01*
X150049578Y-98555067D01*
X150015017Y-98566558D01*
X149989238Y-98575682D01*
X149973257Y-98584379D01*
X149971764Y-98594509D01*
X149817691Y-98594509D01*
X149804724Y-98578895D01*
X149797260Y-98565922D01*
X149802521Y-98550469D01*
X149824742Y-98531910D01*
X149865823Y-98513366D01*
X149927349Y-98493961D01*
X150018768Y-98468502D01*
X149985085Y-98448018D01*
X149981623Y-98445950D01*
X149956306Y-98432878D01*
X149939573Y-98427534D01*
X149936701Y-98427732D01*
X149914340Y-98432384D01*
X149880307Y-98441667D01*
X149841206Y-98453515D01*
X149803642Y-98465865D01*
X149774219Y-98476652D01*
X149759542Y-98483810D01*
X149756287Y-98497113D01*
X149655185Y-98497113D01*
X149645638Y-98448532D01*
X149634371Y-98386896D01*
X149627063Y-98339421D01*
X149623347Y-98302538D01*
X149623036Y-98283724D01*
X149718050Y-98283724D01*
X149720424Y-98322145D01*
X149725999Y-98358482D01*
X149728487Y-98367919D01*
X149735582Y-98378462D01*
X149749931Y-98381033D01*
X149776072Y-98375864D01*
X149818540Y-98363185D01*
X149878489Y-98344380D01*
X149807492Y-98281048D01*
X149794343Y-98269443D01*
X149763156Y-98242983D01*
X149739680Y-98224580D01*
X149728208Y-98217667D01*
X149722520Y-98225381D01*
X149718781Y-98249407D01*
X149718050Y-98283724D01*
X149623036Y-98283724D01*
X149622853Y-98272675D01*
X149625210Y-98246261D01*
X149630051Y-98219724D01*
X149633066Y-98207828D01*
X149874887Y-98207828D01*
X149886280Y-98223222D01*
X149911524Y-98249862D01*
X149951960Y-98289454D01*
X149954100Y-98291512D01*
X149991738Y-98327248D01*
X150010279Y-98344380D01*
X150023329Y-98356438D01*
X150045614Y-98376122D01*
X150055334Y-98383341D01*
X150057814Y-98382584D01*
X150068559Y-98371296D01*
X150069468Y-98368510D01*
X150062906Y-98350781D01*
X150043097Y-98325049D01*
X150013997Y-98294924D01*
X149979563Y-98264018D01*
X149943750Y-98235940D01*
X149910516Y-98214300D01*
X149883816Y-98202709D01*
X149876006Y-98201974D01*
X149874887Y-98207828D01*
X149633066Y-98207828D01*
X149637403Y-98190712D01*
X149654698Y-98148565D01*
X150002758Y-98148565D01*
X150002868Y-98149421D01*
X150012122Y-98162279D01*
X150033300Y-98184838D01*
X150062418Y-98212810D01*
X150094617Y-98240207D01*
X150127867Y-98260262D01*
X150154090Y-98263647D01*
X150176210Y-98251352D01*
X150173898Y-98243741D01*
X150158229Y-98224050D01*
X150131300Y-98195989D01*
X150096110Y-98162868D01*
X150078521Y-98147051D01*
X150045269Y-98117817D01*
X150042913Y-98115966D01*
X150195319Y-98115966D01*
X150205989Y-98131386D01*
X150229703Y-98157214D01*
X150268105Y-98195687D01*
X150268563Y-98196138D01*
X150314048Y-98239651D01*
X150327659Y-98251352D01*
X150346584Y-98267622D01*
X150367803Y-98281091D01*
X150379337Y-98281094D01*
X150382819Y-98268672D01*
X150382606Y-98266886D01*
X150372087Y-98248869D01*
X150348980Y-98222484D01*
X150342206Y-98215814D01*
X150788045Y-98215814D01*
X150794154Y-98225366D01*
X150810684Y-98226254D01*
X150841019Y-98218677D01*
X150888543Y-98202837D01*
X150957859Y-98178734D01*
X150920472Y-98158600D01*
X150895480Y-98147162D01*
X150870797Y-98144459D01*
X150838388Y-98151857D01*
X150814089Y-98160646D01*
X150799354Y-98172287D01*
X150796292Y-98174706D01*
X150789038Y-98196957D01*
X150788973Y-98197399D01*
X150788045Y-98215814D01*
X150342206Y-98215814D01*
X150317811Y-98191795D01*
X150283109Y-98160867D01*
X150249401Y-98133766D01*
X150221214Y-98114555D01*
X150203077Y-98107301D01*
X150196046Y-98108719D01*
X150195319Y-98115966D01*
X150042913Y-98115966D01*
X150024217Y-98101274D01*
X150012493Y-98095792D01*
X150007218Y-98099740D01*
X150006670Y-98103532D01*
X150005520Y-98111488D01*
X150004178Y-98132170D01*
X150002758Y-98148565D01*
X149654698Y-98148565D01*
X149673484Y-98102783D01*
X149710411Y-98046843D01*
X149833433Y-98046843D01*
X149836383Y-98060453D01*
X149855879Y-98080282D01*
X149881703Y-98098956D01*
X149902217Y-98107108D01*
X149912693Y-98103532D01*
X149909155Y-98087676D01*
X149896773Y-98069960D01*
X149875360Y-98047058D01*
X149872528Y-98044605D01*
X150315743Y-98044605D01*
X150322842Y-98062479D01*
X150340475Y-98084196D01*
X150371770Y-98115017D01*
X150377054Y-98119984D01*
X150407014Y-98146543D01*
X150430773Y-98165044D01*
X150443584Y-98171739D01*
X150459513Y-98169516D01*
X150483559Y-98161614D01*
X150493301Y-98151521D01*
X150489032Y-98144769D01*
X150471333Y-98125404D01*
X150443066Y-98097481D01*
X150407677Y-98064502D01*
X150355518Y-98017118D01*
X150504633Y-98017118D01*
X150515510Y-98032437D01*
X150539217Y-98058030D01*
X150577456Y-98096252D01*
X150610341Y-98127426D01*
X150638013Y-98151521D01*
X150644301Y-98156996D01*
X150670676Y-98177073D01*
X150685566Y-98184472D01*
X150694872Y-98182513D01*
X150696575Y-98172287D01*
X150683827Y-98152132D01*
X150655719Y-98120728D01*
X150611340Y-98076751D01*
X150572996Y-98042243D01*
X150537485Y-98016557D01*
X150513592Y-98007866D01*
X150504881Y-98009714D01*
X150504633Y-98017118D01*
X150355518Y-98017118D01*
X150322053Y-97986717D01*
X150319826Y-98000968D01*
X150316529Y-98022067D01*
X150316052Y-98025312D01*
X150315743Y-98044605D01*
X149872528Y-98044605D01*
X149869171Y-98041698D01*
X149852017Y-98032675D01*
X149838430Y-98039664D01*
X149833433Y-98046843D01*
X149710411Y-98046843D01*
X149726846Y-98021945D01*
X149772889Y-97974555D01*
X149940887Y-97974555D01*
X149941208Y-97977195D01*
X149951936Y-97985603D01*
X149954576Y-97985282D01*
X149962984Y-97974555D01*
X149962663Y-97971914D01*
X149951936Y-97963506D01*
X149949295Y-97963827D01*
X149940887Y-97974555D01*
X149772889Y-97974555D01*
X149793979Y-97952848D01*
X149847928Y-97916108D01*
X150107910Y-97916108D01*
X150116246Y-97932321D01*
X150142519Y-97959153D01*
X150153691Y-97969406D01*
X150159557Y-97974555D01*
X150184470Y-97996423D01*
X150204005Y-98010382D01*
X150215685Y-98013311D01*
X150222903Y-98007239D01*
X150223471Y-98000968D01*
X150213675Y-97981750D01*
X150193905Y-97957563D01*
X150181668Y-97945687D01*
X150632155Y-97945687D01*
X150637748Y-97962837D01*
X150653995Y-97984517D01*
X150683751Y-98015885D01*
X150712592Y-98043059D01*
X150746592Y-98066604D01*
X150774890Y-98073281D01*
X150800663Y-98064405D01*
X150803130Y-98057038D01*
X150793523Y-98040646D01*
X150769289Y-98014115D01*
X150729031Y-97975718D01*
X150664309Y-97916081D01*
X150815477Y-97916081D01*
X150816376Y-97923089D01*
X150828594Y-97938456D01*
X150853748Y-97964417D01*
X150893454Y-98003204D01*
X150905532Y-98014835D01*
X150948891Y-98055345D01*
X150950899Y-98057038D01*
X150979465Y-98081118D01*
X150999064Y-98093350D01*
X151009496Y-98093238D01*
X151012571Y-98081979D01*
X151012557Y-98081529D01*
X151003778Y-98064223D01*
X150981828Y-98038048D01*
X150951160Y-98007061D01*
X150916229Y-97975317D01*
X150881489Y-97946872D01*
X150851396Y-97925783D01*
X150830403Y-97916105D01*
X150824279Y-97915200D01*
X150815477Y-97916081D01*
X150664309Y-97916081D01*
X150642817Y-97896278D01*
X150640951Y-97903257D01*
X150634593Y-97927029D01*
X150634361Y-97927905D01*
X150632155Y-97945687D01*
X150181668Y-97945687D01*
X150169332Y-97933714D01*
X150145128Y-97915512D01*
X150126466Y-97908265D01*
X150117019Y-97908950D01*
X150107910Y-97916108D01*
X149847928Y-97916108D01*
X149871372Y-97900142D01*
X149886633Y-97893413D01*
X149924513Y-97879257D01*
X149938323Y-97874468D01*
X150250239Y-97874468D01*
X150250661Y-97877568D01*
X150261288Y-97891693D01*
X150266980Y-97892732D01*
X150272336Y-97881296D01*
X150270984Y-97873065D01*
X150261288Y-97864072D01*
X150258666Y-97864369D01*
X150250239Y-97874468D01*
X149938323Y-97874468D01*
X149980789Y-97859742D01*
X150053853Y-97835388D01*
X150066515Y-97831274D01*
X150425922Y-97831274D01*
X150437917Y-97847156D01*
X150464816Y-97873143D01*
X150474144Y-97881296D01*
X150488843Y-97894144D01*
X150512654Y-97912320D01*
X150526199Y-97919313D01*
X150534808Y-97916931D01*
X150536283Y-97903257D01*
X150522438Y-97879632D01*
X150494404Y-97848576D01*
X150468455Y-97825397D01*
X150448371Y-97814460D01*
X150433020Y-97816736D01*
X150426638Y-97821608D01*
X150425922Y-97831274D01*
X150066515Y-97831274D01*
X150142102Y-97806716D01*
X150201133Y-97787892D01*
X150565831Y-97787892D01*
X150567883Y-97791037D01*
X150576900Y-97796610D01*
X150585467Y-97781772D01*
X150586819Y-97772420D01*
X150575664Y-97771882D01*
X150568678Y-97776122D01*
X150565831Y-97787892D01*
X150201133Y-97787892D01*
X150243930Y-97774245D01*
X150357731Y-97738497D01*
X150378014Y-97732207D01*
X150735041Y-97732207D01*
X150746976Y-97747585D01*
X150772813Y-97772420D01*
X150773835Y-97773402D01*
X150802606Y-97797496D01*
X150831220Y-97815491D01*
X150850701Y-97820508D01*
X150857895Y-97811131D01*
X150853149Y-97802732D01*
X150836108Y-97782738D01*
X150810940Y-97757087D01*
X150786634Y-97735340D01*
X150761928Y-97720006D01*
X150743699Y-97719358D01*
X150735968Y-97723571D01*
X150735041Y-97732207D01*
X150378014Y-97732207D01*
X150481900Y-97699990D01*
X150553034Y-97678187D01*
X150868121Y-97678187D01*
X150907981Y-97722307D01*
X150917239Y-97732766D01*
X150936676Y-97759237D01*
X150944608Y-97783650D01*
X150944788Y-97811131D01*
X150944817Y-97815584D01*
X150944426Y-97822795D01*
X150945825Y-97853083D01*
X150956253Y-97876020D01*
X150979944Y-97902025D01*
X151018095Y-97939310D01*
X151041355Y-97909977D01*
X151061987Y-97880708D01*
X151082103Y-97846608D01*
X151082895Y-97845063D01*
X151093022Y-97821838D01*
X151090932Y-97807443D01*
X151075415Y-97792000D01*
X151056018Y-97774803D01*
X151026474Y-97747755D01*
X150993858Y-97717302D01*
X150993847Y-97717291D01*
X150962335Y-97688819D01*
X150940357Y-97673487D01*
X150922236Y-97668404D01*
X150902299Y-97670681D01*
X150868121Y-97678187D01*
X150553034Y-97678187D01*
X150614833Y-97659245D01*
X150708217Y-97630826D01*
X151052390Y-97630826D01*
X151052614Y-97640008D01*
X151065698Y-97656109D01*
X151093740Y-97682691D01*
X151121031Y-97706409D01*
X151144536Y-97724551D01*
X151157267Y-97731492D01*
X151165430Y-97728918D01*
X151165896Y-97714902D01*
X151151592Y-97691144D01*
X151123833Y-97660440D01*
X151102717Y-97641278D01*
X151078544Y-97626188D01*
X151060305Y-97625968D01*
X151052390Y-97630826D01*
X150708217Y-97630826D01*
X150752900Y-97617228D01*
X150872836Y-97580904D01*
X150975023Y-97550208D01*
X151061145Y-97524679D01*
X151132889Y-97503853D01*
X151191937Y-97487269D01*
X151239975Y-97474464D01*
X151278688Y-97464976D01*
X151309760Y-97458344D01*
X151334876Y-97454103D01*
X151355721Y-97451794D01*
X151373979Y-97450952D01*
X151453656Y-97449761D01*
X151390551Y-97385377D01*
X151389338Y-97384141D01*
X151350819Y-97346114D01*
X151323022Y-97319944D01*
X151621003Y-97319944D01*
X151621707Y-97384890D01*
X151623266Y-97445395D01*
X151623460Y-97449761D01*
X151625497Y-97495560D01*
X151628225Y-97531467D01*
X151631274Y-97549196D01*
X151631585Y-97549828D01*
X151634714Y-97544980D01*
X151637363Y-97519991D01*
X151639444Y-97476647D01*
X151640868Y-97416735D01*
X151641546Y-97342041D01*
X151641465Y-97277207D01*
X151640412Y-97206992D01*
X151638328Y-97155420D01*
X151635265Y-97123637D01*
X151631274Y-97112789D01*
X151628909Y-97115994D01*
X151625304Y-97138225D01*
X151624218Y-97156147D01*
X151622741Y-97180504D01*
X151621286Y-97241516D01*
X151621003Y-97319944D01*
X151323022Y-97319944D01*
X151310337Y-97308001D01*
X151276460Y-97277877D01*
X151225472Y-97234761D01*
X151154929Y-97257565D01*
X151118831Y-97269220D01*
X151086858Y-97279518D01*
X151068749Y-97285318D01*
X151063466Y-97289289D01*
X151067554Y-97302473D01*
X151088084Y-97326348D01*
X151092700Y-97331269D01*
X151111742Y-97359144D01*
X151116449Y-97366034D01*
X151122200Y-97396530D01*
X151109243Y-97419622D01*
X151102315Y-97423386D01*
X151076666Y-97433444D01*
X151038372Y-97446587D01*
X150992925Y-97461126D01*
X150945816Y-97475373D01*
X150902539Y-97487639D01*
X150868586Y-97496237D01*
X150849449Y-97499479D01*
X150848486Y-97499395D01*
X150831664Y-97491061D01*
X150804712Y-97471751D01*
X150772990Y-97445266D01*
X150712165Y-97391053D01*
X150662063Y-97408125D01*
X150611960Y-97425196D01*
X150652065Y-97463033D01*
X150656674Y-97467480D01*
X150672956Y-97487829D01*
X150684056Y-97501701D01*
X150691382Y-97530010D01*
X150678360Y-97551419D01*
X150671049Y-97555349D01*
X150644376Y-97565754D01*
X150604937Y-97579107D01*
X150558256Y-97593749D01*
X150509859Y-97608022D01*
X150465270Y-97620270D01*
X150430012Y-97628835D01*
X150409612Y-97632058D01*
X150391468Y-97624810D01*
X150364233Y-97605311D01*
X150334123Y-97577853D01*
X150326109Y-97569750D01*
X150299845Y-97544695D01*
X150281568Y-97532359D01*
X150265572Y-97529939D01*
X150246152Y-97534633D01*
X150246101Y-97534649D01*
X150217299Y-97543767D01*
X150196573Y-97550278D01*
X150192237Y-97554636D01*
X150198456Y-97570690D01*
X150221431Y-97599054D01*
X150243499Y-97624403D01*
X150245703Y-97626935D01*
X150257814Y-97645558D01*
X150259031Y-97659482D01*
X150251628Y-97674382D01*
X150240074Y-97681678D01*
X150211681Y-97693738D01*
X150171722Y-97708493D01*
X150125265Y-97724283D01*
X150077377Y-97739451D01*
X150033126Y-97752338D01*
X149997579Y-97761286D01*
X149975804Y-97764637D01*
X149975327Y-97764619D01*
X149958518Y-97756589D01*
X149932289Y-97736776D01*
X149902104Y-97709283D01*
X149846053Y-97653928D01*
X149796798Y-97669918D01*
X149770286Y-97678362D01*
X149726348Y-97692116D01*
X149673329Y-97708554D01*
X149617579Y-97725698D01*
X149487615Y-97765489D01*
X149007094Y-97765489D01*
X149206177Y-97705072D01*
X149447610Y-97631811D01*
X149959854Y-97631811D01*
X149969462Y-97644160D01*
X149978638Y-97653543D01*
X149994358Y-97662498D01*
X150015093Y-97661296D01*
X150048443Y-97650552D01*
X150050729Y-97649715D01*
X150076425Y-97637653D01*
X150083922Y-97624403D01*
X150076462Y-97604658D01*
X150073204Y-97599888D01*
X150062939Y-97594742D01*
X150043476Y-97596724D01*
X150008995Y-97605945D01*
X149977334Y-97615711D01*
X149961321Y-97623446D01*
X149959854Y-97631811D01*
X149447610Y-97631811D01*
X149882297Y-97499909D01*
X150391463Y-97499909D01*
X150400758Y-97512038D01*
X150413871Y-97524743D01*
X150427954Y-97530128D01*
X150449352Y-97528125D01*
X150485015Y-97519336D01*
X150489354Y-97518122D01*
X150517834Y-97504641D01*
X150525870Y-97487829D01*
X150512636Y-97469183D01*
X150509633Y-97467361D01*
X150484273Y-97465437D01*
X150440477Y-97474865D01*
X150409934Y-97484002D01*
X150393354Y-97491657D01*
X150391463Y-97499909D01*
X149882297Y-97499909D01*
X149922087Y-97487835D01*
X150316758Y-97368089D01*
X150834278Y-97368089D01*
X150843187Y-97380008D01*
X150851708Y-97388705D01*
X150867191Y-97397427D01*
X150887875Y-97396150D01*
X150921257Y-97385393D01*
X150923780Y-97384469D01*
X150949338Y-97372425D01*
X150956717Y-97359144D01*
X150949152Y-97339276D01*
X150945858Y-97334422D01*
X150935698Y-97329293D01*
X150916556Y-97331608D01*
X150882596Y-97341570D01*
X150853726Y-97351238D01*
X150836630Y-97359631D01*
X150834278Y-97368089D01*
X150316758Y-97368089D01*
X150652191Y-97266316D01*
X150848703Y-97206699D01*
X151334196Y-97206699D01*
X151377777Y-97243230D01*
X151394752Y-97256658D01*
X151413904Y-97269052D01*
X151421357Y-97269677D01*
X151425259Y-97260211D01*
X151439596Y-97237303D01*
X151460851Y-97207870D01*
X151500345Y-97156147D01*
X151469137Y-97163843D01*
X151458692Y-97166600D01*
X151424023Y-97176849D01*
X151386063Y-97189119D01*
X151334196Y-97206699D01*
X150848703Y-97206699D01*
X151398809Y-97039810D01*
X152164258Y-96807613D01*
X155000808Y-95947195D01*
X155000904Y-95064806D01*
X155001000Y-94182417D01*
X154976142Y-94188619D01*
X154972192Y-94189779D01*
X154948918Y-94196772D01*
X154905313Y-94209936D01*
X154841900Y-94229111D01*
X154759202Y-94254139D01*
X154657743Y-94284862D01*
X154538045Y-94321120D01*
X154400632Y-94362755D01*
X154246028Y-94409608D01*
X154074754Y-94461522D01*
X153887336Y-94518336D01*
X153684295Y-94579892D01*
X153466155Y-94646032D01*
X153233439Y-94716596D01*
X152986670Y-94791427D01*
X152726373Y-94870366D01*
X152453069Y-94953253D01*
X152167282Y-95039931D01*
X151869536Y-95130240D01*
X151560353Y-95224022D01*
X151240256Y-95321118D01*
X150909770Y-95421369D01*
X150569417Y-95524618D01*
X150219720Y-95630704D01*
X149861203Y-95739470D01*
X149494389Y-95850757D01*
X149119801Y-95964405D01*
X148737962Y-96080257D01*
X148349395Y-96198154D01*
X147954624Y-96317937D01*
X147554172Y-96439447D01*
X147148563Y-96562526D01*
X139411936Y-98910175D01*
X139345842Y-98930231D01*
X139345713Y-99811332D01*
X139199729Y-99811332D01*
X139199961Y-99749829D01*
X139200302Y-99627293D01*
X139201957Y-98910175D01*
X139110809Y-98668004D01*
X139021926Y-98431853D01*
X139171959Y-98431853D01*
X139175520Y-98444012D01*
X139185678Y-98473351D01*
X139201278Y-98516663D01*
X139221168Y-98570741D01*
X139244192Y-98632380D01*
X139259837Y-98673390D01*
X139286770Y-98740648D01*
X139308619Y-98790348D01*
X139324854Y-98821320D01*
X139334945Y-98832396D01*
X139336866Y-98831919D01*
X139356207Y-98826309D01*
X139395802Y-98814546D01*
X139455014Y-98796821D01*
X139533209Y-98773327D01*
X139629749Y-98744259D01*
X139744000Y-98709807D01*
X139875326Y-98670166D01*
X140023090Y-98625529D01*
X140186657Y-98576088D01*
X140365390Y-98522036D01*
X140558655Y-98463566D01*
X140765815Y-98400872D01*
X140986235Y-98334146D01*
X141219278Y-98263581D01*
X141464309Y-98189370D01*
X141720692Y-98111706D01*
X141987791Y-98030782D01*
X142264971Y-97946791D01*
X142551595Y-97859926D01*
X142847027Y-97770379D01*
X143150633Y-97678345D01*
X143461775Y-97584015D01*
X143779818Y-97487583D01*
X144104127Y-97389241D01*
X144434066Y-97289183D01*
X144768997Y-97187602D01*
X145108287Y-97084690D01*
X145451299Y-96980641D01*
X145797397Y-96875647D01*
X146145945Y-96769901D01*
X146496307Y-96663597D01*
X146847849Y-96556927D01*
X147199933Y-96450084D01*
X147551924Y-96343262D01*
X147903186Y-96236652D01*
X148253084Y-96130449D01*
X148600981Y-96024845D01*
X148946242Y-95920032D01*
X149288230Y-95816205D01*
X149626311Y-95713555D01*
X149959847Y-95612276D01*
X150288204Y-95512562D01*
X150610746Y-95414603D01*
X150926836Y-95318595D01*
X151235839Y-95224729D01*
X151537119Y-95133199D01*
X151830040Y-95044197D01*
X152113967Y-94957917D01*
X152388263Y-94874552D01*
X152652293Y-94794293D01*
X152905420Y-94717336D01*
X153147010Y-94643871D01*
X153376425Y-94574093D01*
X153593031Y-94508194D01*
X153796192Y-94446367D01*
X153985271Y-94388805D01*
X154159633Y-94335702D01*
X154318642Y-94287249D01*
X154461663Y-94243641D01*
X154588058Y-94205069D01*
X154697193Y-94171727D01*
X154788432Y-94143808D01*
X154861139Y-94121505D01*
X154914678Y-94105011D01*
X154948412Y-94094518D01*
X154961708Y-94090220D01*
X154987375Y-94080035D01*
X154912140Y-93881166D01*
X154910690Y-93877334D01*
X154883889Y-93807526D01*
X154863120Y-93756036D01*
X154847203Y-93720429D01*
X154834957Y-93698274D01*
X154825202Y-93687137D01*
X154816756Y-93684585D01*
X154812932Y-93685655D01*
X154789983Y-93692462D01*
X154746899Y-93705383D01*
X154684317Y-93724225D01*
X154602871Y-93748797D01*
X154503196Y-93778904D01*
X154385927Y-93814355D01*
X154251700Y-93854956D01*
X154101150Y-93900516D01*
X153934911Y-93950840D01*
X153753619Y-94005737D01*
X153557908Y-94065014D01*
X153348414Y-94128478D01*
X153125772Y-94195937D01*
X152890618Y-94267197D01*
X152643585Y-94342066D01*
X152385309Y-94420352D01*
X152116425Y-94501861D01*
X151837569Y-94586401D01*
X151549375Y-94673779D01*
X151252479Y-94763803D01*
X150947514Y-94856280D01*
X150635118Y-94951016D01*
X150315924Y-95047820D01*
X149990568Y-95146499D01*
X149659685Y-95246860D01*
X149323909Y-95348710D01*
X148983876Y-95451857D01*
X148640222Y-95556108D01*
X148293580Y-95661269D01*
X147944587Y-95767150D01*
X147593877Y-95873556D01*
X147242085Y-95980295D01*
X146889847Y-96087175D01*
X146537797Y-96194002D01*
X146186571Y-96300584D01*
X145836803Y-96406729D01*
X145489129Y-96512243D01*
X145144183Y-96616933D01*
X144802602Y-96720609D01*
X144465019Y-96823075D01*
X144132071Y-96924140D01*
X143804391Y-97023612D01*
X143482616Y-97121297D01*
X143167380Y-97217002D01*
X142859318Y-97310535D01*
X142559065Y-97401704D01*
X142267257Y-97490315D01*
X141984529Y-97576176D01*
X141711515Y-97659094D01*
X141448850Y-97738877D01*
X141197171Y-97815331D01*
X140957111Y-97888264D01*
X140729306Y-97957484D01*
X140514391Y-98022797D01*
X140313001Y-98084011D01*
X140125772Y-98140934D01*
X139953337Y-98193372D01*
X139796333Y-98241132D01*
X139655394Y-98284023D01*
X139531155Y-98321852D01*
X139424252Y-98354425D01*
X139335320Y-98381550D01*
X139264993Y-98403034D01*
X139213907Y-98418685D01*
X139182696Y-98428310D01*
X139171997Y-98431716D01*
X139171959Y-98431853D01*
X139021926Y-98431853D01*
X139019661Y-98425834D01*
X133905016Y-93568202D01*
X133811934Y-93479797D01*
X133527107Y-93209290D01*
X133246246Y-92942557D01*
X132969782Y-92680008D01*
X132698145Y-92422051D01*
X132431766Y-92169094D01*
X132171075Y-91921548D01*
X131916503Y-91679819D01*
X131668481Y-91444318D01*
X131427438Y-91215452D01*
X131193806Y-90993630D01*
X130968014Y-90779261D01*
X130750494Y-90572754D01*
X130541676Y-90374518D01*
X130341991Y-90184960D01*
X130151869Y-90004489D01*
X129971740Y-89833516D01*
X129802036Y-89672447D01*
X129643186Y-89521692D01*
X129495622Y-89381659D01*
X129359773Y-89252757D01*
X129236070Y-89135395D01*
X129124945Y-89029981D01*
X129026826Y-88936925D01*
X128942146Y-88856634D01*
X128871334Y-88789518D01*
X128814821Y-88735985D01*
X128773037Y-88696444D01*
X128746413Y-88671303D01*
X128735380Y-88660971D01*
X128733563Y-88659337D01*
X128707378Y-88636984D01*
X128689944Y-88624332D01*
X128684953Y-88624082D01*
X128508291Y-88624082D01*
X128551113Y-88611136D01*
X128551433Y-88517225D01*
X128551605Y-88502128D01*
X128552301Y-88486046D01*
X128761476Y-88486046D01*
X128763492Y-88488174D01*
X128779331Y-88503637D01*
X128810560Y-88533709D01*
X128856757Y-88577988D01*
X128917500Y-88636073D01*
X128992365Y-88707562D01*
X129080931Y-88792054D01*
X129182775Y-88889145D01*
X129297475Y-88998435D01*
X129424608Y-89119522D01*
X129563751Y-89252003D01*
X129714482Y-89395478D01*
X129876380Y-89549544D01*
X130049020Y-89713799D01*
X130231982Y-89887842D01*
X130424842Y-90071270D01*
X130627178Y-90263683D01*
X130838567Y-90464678D01*
X131058588Y-90673853D01*
X131286817Y-90890807D01*
X131522832Y-91115138D01*
X131766211Y-91346443D01*
X132016531Y-91584322D01*
X132273370Y-91828372D01*
X132536305Y-92078192D01*
X132804914Y-92333379D01*
X133078775Y-92593532D01*
X133357464Y-92858249D01*
X133640560Y-93127129D01*
X133927640Y-93399769D01*
X134072156Y-93537005D01*
X134357344Y-93807796D01*
X134638373Y-94074599D01*
X134914819Y-94337013D01*
X135186261Y-94594637D01*
X135452272Y-94847069D01*
X135712431Y-95093908D01*
X135966314Y-95334753D01*
X136213497Y-95569204D01*
X136453556Y-95796858D01*
X136686068Y-96017314D01*
X136910609Y-96230172D01*
X137126757Y-96435031D01*
X137334086Y-96631488D01*
X137532175Y-96819143D01*
X137720598Y-96997595D01*
X137898933Y-97166443D01*
X138066756Y-97325285D01*
X138223643Y-97473720D01*
X138369172Y-97611348D01*
X138502918Y-97737766D01*
X138624457Y-97852574D01*
X138733367Y-97955370D01*
X138829223Y-98045754D01*
X138911603Y-98123323D01*
X138980082Y-98187678D01*
X139034237Y-98238417D01*
X139073644Y-98275139D01*
X139097881Y-98297442D01*
X139106522Y-98304925D01*
X139110275Y-98303957D01*
X139133158Y-98297317D01*
X139176164Y-98284549D01*
X139238659Y-98265846D01*
X139320007Y-98241400D01*
X139419574Y-98211405D01*
X139536725Y-98176054D01*
X139670825Y-98135539D01*
X139821239Y-98090054D01*
X139987332Y-98039792D01*
X140168469Y-97984946D01*
X140364016Y-97925709D01*
X140573337Y-97862273D01*
X140795798Y-97794833D01*
X141030764Y-97723580D01*
X141277600Y-97648709D01*
X141535671Y-97570411D01*
X141804342Y-97488881D01*
X142082979Y-97404311D01*
X142370946Y-97316894D01*
X142667608Y-97226823D01*
X142972331Y-97134291D01*
X143284480Y-97039492D01*
X143603420Y-96942618D01*
X143928516Y-96843862D01*
X144259133Y-96743418D01*
X144594636Y-96641478D01*
X144934391Y-96538236D01*
X145277762Y-96433884D01*
X145624115Y-96328616D01*
X145972815Y-96222624D01*
X146323227Y-96116102D01*
X146674715Y-96009243D01*
X147026646Y-95902239D01*
X147378384Y-95795284D01*
X147729295Y-95688571D01*
X148078743Y-95582292D01*
X148426094Y-95476642D01*
X148770712Y-95371812D01*
X149111963Y-95267996D01*
X149449213Y-95165387D01*
X149781825Y-95064179D01*
X150109166Y-94964563D01*
X150430600Y-94866733D01*
X150745493Y-94770882D01*
X151053209Y-94677204D01*
X151353114Y-94585890D01*
X151644573Y-94497135D01*
X151926950Y-94411131D01*
X152199612Y-94328072D01*
X152461924Y-94248149D01*
X152713249Y-94171558D01*
X152952954Y-94098489D01*
X153180404Y-94029137D01*
X153394963Y-93963694D01*
X153595997Y-93902354D01*
X153782872Y-93845310D01*
X153954951Y-93792754D01*
X154111600Y-93744879D01*
X154252185Y-93701880D01*
X154376070Y-93663947D01*
X154482621Y-93631276D01*
X154571203Y-93604059D01*
X154641180Y-93582488D01*
X154691919Y-93566757D01*
X154722783Y-93557059D01*
X154733139Y-93553587D01*
X154732928Y-93553285D01*
X154722405Y-93542576D01*
X154696438Y-93517247D01*
X154655542Y-93477786D01*
X154600234Y-93424682D01*
X154531029Y-93358425D01*
X154448443Y-93279504D01*
X154352992Y-93188408D01*
X154245192Y-93085626D01*
X154125559Y-92971648D01*
X153994608Y-92846961D01*
X153852855Y-92712057D01*
X153700817Y-92567423D01*
X153539009Y-92413548D01*
X153367947Y-92250923D01*
X153188146Y-92080036D01*
X153000123Y-91901376D01*
X152804393Y-91715432D01*
X152601473Y-91522694D01*
X152391878Y-91323651D01*
X152176123Y-91118791D01*
X151954726Y-90908605D01*
X151728201Y-90693580D01*
X151497065Y-90474207D01*
X151261832Y-90250974D01*
X151023020Y-90024370D01*
X150781144Y-89794885D01*
X150536720Y-89563008D01*
X150290264Y-89329227D01*
X150042291Y-89094033D01*
X149793317Y-88857914D01*
X149543859Y-88621359D01*
X149294432Y-88384858D01*
X149045551Y-88148899D01*
X148797734Y-87913972D01*
X148551494Y-87680566D01*
X148307350Y-87449169D01*
X148065815Y-87220272D01*
X147827407Y-86994363D01*
X147592640Y-86771932D01*
X147362032Y-86553467D01*
X147136097Y-86339458D01*
X146915351Y-86130394D01*
X146700311Y-85926763D01*
X146491492Y-85729056D01*
X146289410Y-85537761D01*
X146094581Y-85353367D01*
X145907520Y-85176364D01*
X145728744Y-85007240D01*
X145558768Y-84846486D01*
X145398109Y-84694589D01*
X145247281Y-84552039D01*
X145106802Y-84419326D01*
X144977186Y-84296938D01*
X144858950Y-84185364D01*
X144752609Y-84085094D01*
X144658679Y-83996616D01*
X144577677Y-83920421D01*
X144510117Y-83856997D01*
X144499744Y-83847289D01*
X144717861Y-83847289D01*
X144818652Y-83943555D01*
X144832054Y-83956312D01*
X144861115Y-83983941D01*
X144905325Y-84025953D01*
X144964241Y-84081932D01*
X145037424Y-84151458D01*
X145124433Y-84234114D01*
X145224827Y-84329479D01*
X145338166Y-84437137D01*
X145464010Y-84556669D01*
X145601918Y-84687656D01*
X145751448Y-84829680D01*
X145912162Y-84982323D01*
X146083617Y-85145166D01*
X146265374Y-85317791D01*
X146456992Y-85499778D01*
X146658031Y-85690711D01*
X146868050Y-85890171D01*
X147086608Y-86097738D01*
X147313265Y-86312995D01*
X147547580Y-86535524D01*
X147789113Y-86764905D01*
X148037423Y-87000721D01*
X148292070Y-87242553D01*
X148552613Y-87489983D01*
X148818611Y-87742592D01*
X149089625Y-87999961D01*
X149365213Y-88261673D01*
X149644935Y-88527310D01*
X149928350Y-88796451D01*
X154937257Y-93553082D01*
X154937446Y-93553587D01*
X155035900Y-93816559D01*
X155134543Y-94080035D01*
X155134444Y-94182417D01*
X155133742Y-94911419D01*
X155133732Y-94922383D01*
X155133733Y-95055236D01*
X155133950Y-95181310D01*
X155134368Y-95298903D01*
X155134969Y-95406312D01*
X155135738Y-95501836D01*
X155136660Y-95583773D01*
X155137718Y-95650421D01*
X155138895Y-95700078D01*
X155140177Y-95731042D01*
X155141547Y-95741612D01*
X155141548Y-95741612D01*
X155152969Y-95738308D01*
X155183835Y-95729058D01*
X155232461Y-95714376D01*
X155297163Y-95694775D01*
X155376256Y-95670770D01*
X155468054Y-95642874D01*
X155570873Y-95611601D01*
X155683029Y-95577466D01*
X155802835Y-95540982D01*
X155928608Y-95502663D01*
X156058662Y-95463023D01*
X156191314Y-95422576D01*
X156324877Y-95381836D01*
X156457667Y-95341317D01*
X156587999Y-95301532D01*
X156714189Y-95262996D01*
X156834551Y-95226223D01*
X156947401Y-95191726D01*
X157051053Y-95160019D01*
X157143824Y-95131617D01*
X157224028Y-95107033D01*
X157289980Y-95086781D01*
X157339996Y-95071375D01*
X157372390Y-95061329D01*
X157385479Y-95057157D01*
X157388128Y-95054655D01*
X157393004Y-95033955D01*
X157394597Y-94995026D01*
X157393172Y-94940477D01*
X157388991Y-94872921D01*
X157382318Y-94794969D01*
X157373416Y-94709231D01*
X157362547Y-94618319D01*
X157349975Y-94524845D01*
X157335962Y-94431418D01*
X157320773Y-94340651D01*
X157304670Y-94255154D01*
X157276075Y-94121747D01*
X157214809Y-93878446D01*
X157142926Y-93638613D01*
X157061381Y-93404308D01*
X156971130Y-93177591D01*
X156873130Y-92960522D01*
X156768337Y-92755159D01*
X156657708Y-92563562D01*
X156599360Y-92474776D01*
X156773074Y-92474776D01*
X156776829Y-92486505D01*
X156791863Y-92515462D01*
X156818760Y-92562162D01*
X156905076Y-92715488D01*
X157025000Y-92956103D01*
X157135144Y-93210782D01*
X157234158Y-93475524D01*
X157320689Y-93746329D01*
X157393387Y-94019195D01*
X157450901Y-94290123D01*
X157491879Y-94555111D01*
X157499225Y-94614893D01*
X157506713Y-94676609D01*
X157513211Y-94730915D01*
X157517844Y-94770553D01*
X157522353Y-94801970D01*
X157528089Y-94822332D01*
X157533448Y-94822705D01*
X157537914Y-94804259D01*
X157540971Y-94768160D01*
X157542105Y-94715579D01*
X157541790Y-94684777D01*
X157534391Y-94550103D01*
X157517771Y-94400624D01*
X157492727Y-94240172D01*
X157460061Y-94072578D01*
X157420572Y-93901673D01*
X157375058Y-93731290D01*
X157324320Y-93565259D01*
X157269156Y-93407412D01*
X157196599Y-93224352D01*
X157096494Y-93003280D01*
X156988705Y-92799040D01*
X156871938Y-92609034D01*
X156859167Y-92589851D01*
X156823644Y-92537813D01*
X156797066Y-92500945D01*
X156780014Y-92479761D01*
X156773074Y-92474776D01*
X156599360Y-92474776D01*
X156569301Y-92429036D01*
X156738290Y-92429036D01*
X156741105Y-92439365D01*
X156743375Y-92442636D01*
X156753457Y-92450414D01*
X156754968Y-92449694D01*
X156752153Y-92439365D01*
X156749883Y-92436095D01*
X156739801Y-92428317D01*
X156738290Y-92429036D01*
X156569301Y-92429036D01*
X156542197Y-92387792D01*
X156422762Y-92229907D01*
X156300359Y-92091967D01*
X156299767Y-92091368D01*
X156286384Y-92078394D01*
X156257597Y-92050796D01*
X156213951Y-92009095D01*
X156155995Y-91953810D01*
X156084275Y-91885460D01*
X155999339Y-91804567D01*
X155901734Y-91711650D01*
X155792008Y-91607228D01*
X155670707Y-91491822D01*
X155538379Y-91365951D01*
X155395572Y-91230135D01*
X155260875Y-91102050D01*
X155575511Y-91102050D01*
X155578868Y-91106815D01*
X155595892Y-91125218D01*
X155625338Y-91155124D01*
X155664996Y-91194328D01*
X155712651Y-91240630D01*
X155766094Y-91291826D01*
X155791614Y-91316104D01*
X155850093Y-91371693D01*
X155906135Y-91424905D01*
X155956348Y-91472525D01*
X155997343Y-91511337D01*
X156025729Y-91538124D01*
X156094780Y-91603060D01*
X156094780Y-91113901D01*
X156094749Y-91005249D01*
X156094598Y-90907384D01*
X156094253Y-90828066D01*
X156093639Y-90765450D01*
X156092679Y-90717692D01*
X156091300Y-90682949D01*
X156089426Y-90659376D01*
X156086982Y-90645129D01*
X156083892Y-90638365D01*
X156080083Y-90637238D01*
X156075478Y-90639905D01*
X156060977Y-90652013D01*
X156031918Y-90677516D01*
X155992773Y-90712608D01*
X155945947Y-90755067D01*
X155893844Y-90802670D01*
X155838867Y-90853196D01*
X155783421Y-90904422D01*
X155729910Y-90954127D01*
X155680737Y-91000088D01*
X155638307Y-91040083D01*
X155605023Y-91071889D01*
X155583290Y-91093286D01*
X155575511Y-91102050D01*
X155260875Y-91102050D01*
X155242832Y-91084893D01*
X155080707Y-90930747D01*
X154909743Y-90768215D01*
X154730490Y-90597818D01*
X154543493Y-90420075D01*
X154353313Y-90239320D01*
X154664350Y-90239320D01*
X154691810Y-90268841D01*
X154701550Y-90278667D01*
X154726743Y-90303263D01*
X154764820Y-90340036D01*
X154814035Y-90387311D01*
X154872643Y-90443415D01*
X154938898Y-90506674D01*
X155011052Y-90575415D01*
X155087359Y-90647964D01*
X155152665Y-90709917D01*
X155223907Y-90777327D01*
X155288883Y-90838623D01*
X155345971Y-90892284D01*
X155393550Y-90936790D01*
X155429996Y-90970619D01*
X155453687Y-90992250D01*
X155463001Y-91000162D01*
X155465994Y-90998881D01*
X155483064Y-90986005D01*
X155512902Y-90961029D01*
X155553254Y-90926012D01*
X155601869Y-90883010D01*
X155656497Y-90834081D01*
X155714884Y-90781281D01*
X155774779Y-90726670D01*
X155833931Y-90672303D01*
X155890087Y-90620238D01*
X155940997Y-90572533D01*
X155984407Y-90531245D01*
X156018068Y-90498431D01*
X156039726Y-90476149D01*
X156047130Y-90466456D01*
X156046365Y-90464730D01*
X156034229Y-90449677D01*
X156009752Y-90423517D01*
X155975947Y-90389394D01*
X155935830Y-90350449D01*
X155826596Y-90246281D01*
X155245473Y-90242801D01*
X154664350Y-90239320D01*
X154353313Y-90239320D01*
X154349300Y-90235506D01*
X154148458Y-90044631D01*
X153941514Y-89847970D01*
X153729017Y-89646042D01*
X153511512Y-89439368D01*
X153289548Y-89228467D01*
X153063671Y-89013860D01*
X152834430Y-88796065D01*
X152602370Y-88575603D01*
X152368040Y-88352993D01*
X152131987Y-88128756D01*
X151894758Y-87903412D01*
X151656900Y-87677479D01*
X151418961Y-87451479D01*
X151181488Y-87225930D01*
X150945027Y-87001353D01*
X150710128Y-86778267D01*
X150477336Y-86557192D01*
X150400953Y-86484657D01*
X150704893Y-86484657D01*
X150927784Y-86696579D01*
X150927989Y-86696775D01*
X150988513Y-86754296D01*
X151045855Y-86808752D01*
X151097451Y-86857708D01*
X151140735Y-86898731D01*
X151173142Y-86929390D01*
X151192105Y-86947250D01*
X151233536Y-86985999D01*
X151233536Y-86495706D01*
X151233536Y-86005414D01*
X151208678Y-86027555D01*
X151206887Y-86029156D01*
X151189286Y-86045032D01*
X151158140Y-86073221D01*
X151115761Y-86111626D01*
X151064463Y-86158151D01*
X151006557Y-86210700D01*
X150944356Y-86267177D01*
X150704893Y-86484657D01*
X150400953Y-86484657D01*
X150247199Y-86338649D01*
X150020264Y-86123157D01*
X149797079Y-85911235D01*
X149578191Y-85703404D01*
X149498876Y-85628100D01*
X149801137Y-85628100D01*
X150196908Y-86003732D01*
X150209062Y-86015265D01*
X150286657Y-86088780D01*
X150359212Y-86157326D01*
X150425161Y-86219436D01*
X150482938Y-86273642D01*
X150530975Y-86318480D01*
X150567708Y-86352481D01*
X150591569Y-86374179D01*
X150600993Y-86382108D01*
X150609957Y-86376215D01*
X150633490Y-86357006D01*
X150669629Y-86326079D01*
X150716488Y-86285086D01*
X150772181Y-86235677D01*
X150834822Y-86179503D01*
X150902526Y-86118213D01*
X151195744Y-85851572D01*
X151085275Y-85743846D01*
X150974805Y-85636119D01*
X150554519Y-85628541D01*
X150467859Y-85627109D01*
X150364503Y-85625714D01*
X150264019Y-85624670D01*
X150170251Y-85624003D01*
X150087044Y-85623741D01*
X150018241Y-85623908D01*
X149967685Y-85624531D01*
X149801137Y-85628100D01*
X149498876Y-85628100D01*
X149364147Y-85500184D01*
X149155494Y-85302093D01*
X148952780Y-85109653D01*
X148756553Y-84923383D01*
X148567358Y-84743803D01*
X148385744Y-84571432D01*
X148212258Y-84406791D01*
X148047447Y-84250399D01*
X147891858Y-84102776D01*
X147746039Y-83964442D01*
X147610537Y-83835917D01*
X147485899Y-83717721D01*
X147372673Y-83610373D01*
X147271405Y-83514394D01*
X147182644Y-83430302D01*
X147106936Y-83358619D01*
X147044829Y-83299863D01*
X146996870Y-83254555D01*
X146963605Y-83223214D01*
X146945584Y-83206361D01*
X146916744Y-83179728D01*
X145817302Y-83513508D01*
X144717861Y-83847289D01*
X144499744Y-83847289D01*
X144456516Y-83806833D01*
X144417390Y-83770418D01*
X144393255Y-83748241D01*
X144384625Y-83740792D01*
X144381146Y-83741690D01*
X144358693Y-83748199D01*
X144316097Y-83760836D01*
X144253996Y-83779408D01*
X144173022Y-83803721D01*
X144073813Y-83833582D01*
X143957003Y-83868799D01*
X143823227Y-83909179D01*
X143673121Y-83954528D01*
X143507319Y-84004654D01*
X143326457Y-84059364D01*
X143131170Y-84118465D01*
X142922093Y-84181764D01*
X142699861Y-84249068D01*
X142465110Y-84320185D01*
X142218475Y-84394920D01*
X141960591Y-84473082D01*
X141692093Y-84554477D01*
X141413616Y-84638913D01*
X141125796Y-84726196D01*
X140829268Y-84816134D01*
X140524666Y-84908534D01*
X140212626Y-85003202D01*
X139893784Y-85099946D01*
X139568774Y-85198573D01*
X139238232Y-85298890D01*
X138902792Y-85400704D01*
X138563091Y-85503822D01*
X138219763Y-85608052D01*
X137873443Y-85713199D01*
X137524766Y-85819072D01*
X137174369Y-85925478D01*
X136822885Y-86032222D01*
X136470951Y-86139114D01*
X136119201Y-86245959D01*
X135768270Y-86352565D01*
X135418794Y-86458738D01*
X135128353Y-86546985D01*
X135071408Y-86564287D01*
X134726747Y-86669017D01*
X134385446Y-86772736D01*
X134048141Y-86875252D01*
X133715466Y-86976370D01*
X133388057Y-87075899D01*
X133066549Y-87173645D01*
X132751578Y-87269416D01*
X132443777Y-87363017D01*
X132143784Y-87454258D01*
X131852232Y-87542944D01*
X131569757Y-87628882D01*
X131296994Y-87711881D01*
X131034578Y-87791746D01*
X130783145Y-87868285D01*
X130543329Y-87941305D01*
X130315767Y-88010613D01*
X130101092Y-88076016D01*
X129899941Y-88137321D01*
X129712948Y-88194336D01*
X129540749Y-88246867D01*
X129383979Y-88294721D01*
X129243272Y-88337706D01*
X129119265Y-88375628D01*
X129012593Y-88408295D01*
X128923889Y-88435513D01*
X128853791Y-88457091D01*
X128802932Y-88472834D01*
X128771949Y-88482550D01*
X128761476Y-88486046D01*
X128552301Y-88486046D01*
X128553469Y-88459081D01*
X128556909Y-88425681D01*
X128561358Y-88408150D01*
X128561497Y-88407999D01*
X128574524Y-88402528D01*
X128607349Y-88391110D01*
X128658701Y-88374139D01*
X128727311Y-88352013D01*
X128811909Y-88325128D01*
X128911224Y-88293882D01*
X129023987Y-88258670D01*
X129148928Y-88219890D01*
X129284776Y-88177938D01*
X129430261Y-88133211D01*
X129584114Y-88086106D01*
X129745064Y-88037019D01*
X129911842Y-87986346D01*
X129920263Y-87983792D01*
X130087219Y-87933096D01*
X130248571Y-87883986D01*
X130403021Y-87836864D01*
X130549274Y-87792129D01*
X130686035Y-87750181D01*
X130812009Y-87711421D01*
X130925898Y-87676249D01*
X131026409Y-87645064D01*
X131112244Y-87618266D01*
X131182110Y-87596257D01*
X131234709Y-87579435D01*
X131268746Y-87568202D01*
X131282926Y-87562957D01*
X131283811Y-87562406D01*
X131298936Y-87550791D01*
X131329425Y-87525989D01*
X131374051Y-87489034D01*
X131400414Y-87467007D01*
X131623388Y-87467007D01*
X131633995Y-87464011D01*
X131664401Y-87454977D01*
X131713101Y-87440351D01*
X131778635Y-87420577D01*
X131859544Y-87396101D01*
X131954368Y-87367366D01*
X132061649Y-87334817D01*
X132179927Y-87298900D01*
X132307742Y-87260058D01*
X132443637Y-87218737D01*
X132586150Y-87175380D01*
X132733824Y-87130434D01*
X132885199Y-87084342D01*
X133038815Y-87037549D01*
X133193214Y-86990500D01*
X133346936Y-86943639D01*
X133498521Y-86897412D01*
X133646512Y-86852262D01*
X133789447Y-86808635D01*
X133925869Y-86766974D01*
X134054318Y-86727726D01*
X134173334Y-86691334D01*
X134281459Y-86658244D01*
X134377233Y-86628899D01*
X134459197Y-86603745D01*
X134525892Y-86583226D01*
X134575858Y-86567786D01*
X134607636Y-86557872D01*
X134619767Y-86553926D01*
X134621675Y-86552849D01*
X134624230Y-86546985D01*
X134619682Y-86536361D01*
X134606495Y-86519287D01*
X134583130Y-86494076D01*
X134548052Y-86459040D01*
X134499723Y-86412489D01*
X134436606Y-86352735D01*
X134426678Y-86343390D01*
X134352136Y-86273988D01*
X134290047Y-86218106D01*
X134237675Y-86173768D01*
X134192284Y-86138999D01*
X134151141Y-86111824D01*
X134111509Y-86090267D01*
X134070653Y-86072353D01*
X134025837Y-86056107D01*
X134011599Y-86051369D01*
X133979090Y-86041477D01*
X133949034Y-86034611D01*
X133916522Y-86030239D01*
X133876644Y-86027829D01*
X133824491Y-86026849D01*
X133755154Y-86026767D01*
X133737916Y-86026819D01*
X133671915Y-86027432D01*
X133621653Y-86029088D01*
X133581928Y-86032354D01*
X133547535Y-86037800D01*
X133513271Y-86045995D01*
X133473932Y-86057507D01*
X133465983Y-86059959D01*
X133327103Y-86109398D01*
X133200864Y-86168336D01*
X133078934Y-86240638D01*
X133057594Y-86255524D01*
X133013244Y-86289023D01*
X132953373Y-86336307D01*
X132878589Y-86396873D01*
X132789502Y-86470217D01*
X132686720Y-86555837D01*
X132570854Y-86653230D01*
X132442513Y-86761895D01*
X132302305Y-86881327D01*
X132270411Y-86908570D01*
X132167500Y-86996490D01*
X132069753Y-87080025D01*
X131978465Y-87158066D01*
X131894928Y-87229508D01*
X131820435Y-87293243D01*
X131756281Y-87348164D01*
X131703758Y-87393166D01*
X131664160Y-87427140D01*
X131638781Y-87448981D01*
X131628913Y-87457581D01*
X131624969Y-87461744D01*
X131623388Y-87467007D01*
X131400414Y-87467007D01*
X131431589Y-87440960D01*
X131500813Y-87382800D01*
X131580497Y-87315589D01*
X131669416Y-87240359D01*
X131766343Y-87158145D01*
X131870052Y-87069980D01*
X131979319Y-86976898D01*
X132092916Y-86879932D01*
X132099787Y-86874063D01*
X132214861Y-86775923D01*
X132326710Y-86680850D01*
X132433982Y-86589976D01*
X132535323Y-86504435D01*
X132629378Y-86425359D01*
X132714793Y-86353882D01*
X132790216Y-86291137D01*
X132854291Y-86238257D01*
X132905666Y-86196374D01*
X132942985Y-86166623D01*
X132964897Y-86150136D01*
X133035780Y-86103998D01*
X133194546Y-86018057D01*
X133360197Y-85950617D01*
X133528665Y-85903458D01*
X133538367Y-85901468D01*
X133607031Y-85891635D01*
X133687183Y-85885770D01*
X133772181Y-85883890D01*
X133855383Y-85886011D01*
X133930147Y-85892151D01*
X133989831Y-85902324D01*
X134051964Y-85919073D01*
X134109114Y-85938510D01*
X134163377Y-85962226D01*
X134217310Y-85991923D01*
X134273473Y-86029308D01*
X134334424Y-86076082D01*
X134402720Y-86133951D01*
X134480921Y-86204618D01*
X134571585Y-86289786D01*
X134605771Y-86322275D01*
X134665032Y-86378281D01*
X134711304Y-86421286D01*
X134746543Y-86452863D01*
X134772705Y-86474591D01*
X134791745Y-86488044D01*
X134805620Y-86494798D01*
X134816284Y-86496429D01*
X134825695Y-86494512D01*
X134835862Y-86491242D01*
X134868329Y-86481120D01*
X134920287Y-86465107D01*
X134990924Y-86443450D01*
X135079426Y-86416394D01*
X135184981Y-86384186D01*
X135306776Y-86347071D01*
X135443999Y-86305296D01*
X135595836Y-86259107D01*
X135761475Y-86208751D01*
X135940103Y-86154472D01*
X136130908Y-86096518D01*
X136333077Y-86035134D01*
X136545797Y-85970566D01*
X136768255Y-85903062D01*
X136999638Y-85832866D01*
X137239135Y-85760225D01*
X137485932Y-85685385D01*
X137739216Y-85608592D01*
X137998176Y-85530092D01*
X138261997Y-85450132D01*
X138529868Y-85368957D01*
X138800975Y-85286813D01*
X139074506Y-85203948D01*
X139349648Y-85120606D01*
X139625589Y-85037034D01*
X139901516Y-84953478D01*
X140176616Y-84870185D01*
X140450076Y-84787399D01*
X140721084Y-84705368D01*
X140988826Y-84624338D01*
X141252491Y-84544554D01*
X141511265Y-84466263D01*
X141764336Y-84389711D01*
X142010891Y-84315144D01*
X142250118Y-84242808D01*
X142481203Y-84172949D01*
X142703334Y-84105813D01*
X142915698Y-84041647D01*
X143117482Y-83980697D01*
X143307875Y-83923208D01*
X143486062Y-83869427D01*
X143651231Y-83819600D01*
X143802571Y-83773973D01*
X143939267Y-83732792D01*
X144060507Y-83696303D01*
X144165479Y-83664753D01*
X144253369Y-83638387D01*
X144323366Y-83617452D01*
X144374656Y-83602194D01*
X144406426Y-83592858D01*
X144417864Y-83589692D01*
X144426150Y-83591917D01*
X144451113Y-83606198D01*
X144484978Y-83631021D01*
X144523253Y-83663252D01*
X144605444Y-83736813D01*
X145762313Y-83384947D01*
X145783063Y-83378637D01*
X145937340Y-83331803D01*
X146085738Y-83286891D01*
X146226869Y-83244315D01*
X146359346Y-83204487D01*
X146481784Y-83167819D01*
X146592796Y-83134723D01*
X146690996Y-83105613D01*
X146774996Y-83080900D01*
X146843411Y-83060997D01*
X146894854Y-83046317D01*
X146927939Y-83037271D01*
X146941279Y-83034272D01*
X146942330Y-83034421D01*
X146960110Y-83042190D01*
X146992518Y-83060299D01*
X147036371Y-83086829D01*
X147088484Y-83119860D01*
X147145672Y-83157473D01*
X147327969Y-83279484D01*
X148491852Y-84384740D01*
X149655736Y-85489996D01*
X150334432Y-85489996D01*
X151013128Y-85489996D01*
X151087425Y-85558259D01*
X151115830Y-85584526D01*
X151162752Y-85628329D01*
X151213506Y-85676063D01*
X151261157Y-85721221D01*
X151360592Y-85815920D01*
X151360894Y-85851572D01*
X151362198Y-86005414D01*
G37*
%TD*%
%LPC*%
%TO.C,U$1*%
G36*
X172453300Y-128955800D02*
G01*
X124548900Y-128955800D01*
X124548900Y-123774200D01*
X172453300Y-123774200D01*
X172453300Y-128955800D01*
G37*
%TD*%
D11*
%TO.C,H1*%
X148678900Y-105606850D03*
%TD*%
D12*
%TO.C,U$1*%
X128358900Y-84861400D03*
X168643300Y-84861400D03*
D13*
X170091100Y-125603000D03*
X167551100Y-125603000D03*
X165011100Y-125603000D03*
X162471100Y-125603000D03*
X159931100Y-125603000D03*
X157391100Y-125603000D03*
X154851100Y-125603000D03*
X152311100Y-125603000D03*
X149771100Y-125603000D03*
X147231100Y-125603000D03*
X144691100Y-125603000D03*
X142151100Y-125603000D03*
X139611100Y-125603000D03*
X137071100Y-125603000D03*
X134531100Y-125603000D03*
X131991100Y-125603000D03*
X129451100Y-125603000D03*
X126911100Y-125603000D03*
%TD*%
%LPD*%
M02*
