%TF.GenerationSoftware,KiCad,Pcbnew,9.0.4*%
%TF.CreationDate,2026-02-25T16:03:30-05:00*%
%TF.ProjectId,FlashCardBanked2M,466c6173-6843-4617-9264-42616e6b6564,rev?*%
%TF.SameCoordinates,Original*%
%TF.FileFunction,Legend,Top*%
%TF.FilePolarity,Positive*%
%FSLAX46Y46*%
G04 Gerber Fmt 4.6, Leading zero omitted, Abs format (unit mm)*
G04 Created by KiCad (PCBNEW 9.0.4) date 2026-02-25 16:03:30*
%MOMM*%
%LPD*%
G01*
G04 APERTURE LIST*
G04 Aperture macros list*
%AMRoundRect*
0 Rectangle with rounded corners*
0 $1 Rounding radius*
0 $2 $3 $4 $5 $6 $7 $8 $9 X,Y pos of 4 corners*
0 Add a 4 corners polygon primitive as box body*
4,1,4,$2,$3,$4,$5,$6,$7,$8,$9,$2,$3,0*
0 Add four circle primitives for the rounded corners*
1,1,$1+$1,$2,$3*
1,1,$1+$1,$4,$5*
1,1,$1+$1,$6,$7*
1,1,$1+$1,$8,$9*
0 Add four rect primitives between the rounded corners*
20,1,$1+$1,$2,$3,$4,$5,0*
20,1,$1+$1,$4,$5,$6,$7,0*
20,1,$1+$1,$6,$7,$8,$9,0*
20,1,$1+$1,$8,$9,$2,$3,0*%
G04 Aperture macros list end*
%ADD10C,0.200000*%
%ADD11C,0.142240*%
%ADD12C,0.101600*%
%ADD13C,0.093472*%
%ADD14C,0.114300*%
%ADD15C,0.082500*%
%ADD16C,0.050800*%
%ADD17C,0.152400*%
%ADD18C,0.100000*%
%ADD19C,0.000000*%
%ADD20RoundRect,0.101600X-0.650000X-0.750000X0.650000X-0.750000X0.650000X0.750000X-0.650000X0.750000X0*%
%ADD21RoundRect,0.101600X0.750000X-0.650000X0.750000X0.650000X-0.750000X0.650000X-0.750000X-0.650000X0*%
%ADD22RoundRect,0.101600X-1.016000X0.330200X-1.016000X-0.330200X1.016000X-0.330200X1.016000X0.330200X0*%
%ADD23RoundRect,0.050800X0.150000X-0.650000X0.150000X0.650000X-0.150000X0.650000X-0.150000X-0.650000X0*%
%ADD24C,8.400000*%
%ADD25C,3.399993*%
%ADD26RoundRect,0.101600X0.825500X-1.727200X0.825500X1.727200X-0.825500X1.727200X-0.825500X-1.727200X0*%
%ADD27RoundRect,0.100000X0.250000X0.100000X-0.250000X0.100000X-0.250000X-0.100000X0.250000X-0.100000X0*%
%ADD28RoundRect,0.101600X-0.750000X0.650000X-0.750000X-0.650000X0.750000X-0.650000X0.750000X0.650000X0*%
%ADD29RoundRect,0.101600X1.016000X-0.330200X1.016000X0.330200X-1.016000X0.330200X-1.016000X-0.330200X0*%
G04 APERTURE END LIST*
D10*
X127047780Y-93928571D02*
X126047780Y-94166666D01*
X126047780Y-94166666D02*
X126762066Y-94357142D01*
X126762066Y-94357142D02*
X126047780Y-94547618D01*
X126047780Y-94547618D02*
X127047780Y-94785714D01*
X126047780Y-95595237D02*
X126571590Y-95595237D01*
X126571590Y-95595237D02*
X126666828Y-95547618D01*
X126666828Y-95547618D02*
X126714447Y-95452380D01*
X126714447Y-95452380D02*
X126714447Y-95261904D01*
X126714447Y-95261904D02*
X126666828Y-95166666D01*
X126095400Y-95595237D02*
X126047780Y-95499999D01*
X126047780Y-95499999D02*
X126047780Y-95261904D01*
X126047780Y-95261904D02*
X126095400Y-95166666D01*
X126095400Y-95166666D02*
X126190638Y-95119047D01*
X126190638Y-95119047D02*
X126285876Y-95119047D01*
X126285876Y-95119047D02*
X126381114Y-95166666D01*
X126381114Y-95166666D02*
X126428733Y-95261904D01*
X126428733Y-95261904D02*
X126428733Y-95499999D01*
X126428733Y-95499999D02*
X126476352Y-95595237D01*
X126714447Y-95976190D02*
X126047780Y-96214285D01*
X126714447Y-96452380D02*
X126047780Y-96214285D01*
X126047780Y-96214285D02*
X125809685Y-96119047D01*
X125809685Y-96119047D02*
X125762066Y-96071428D01*
X125762066Y-96071428D02*
X125714447Y-95976190D01*
X127047780Y-96738095D02*
X126047780Y-96976190D01*
X126047780Y-96976190D02*
X126762066Y-97166666D01*
X126762066Y-97166666D02*
X126047780Y-97357142D01*
X126047780Y-97357142D02*
X127047780Y-97595238D01*
X126047780Y-98404761D02*
X126571590Y-98404761D01*
X126571590Y-98404761D02*
X126666828Y-98357142D01*
X126666828Y-98357142D02*
X126714447Y-98261904D01*
X126714447Y-98261904D02*
X126714447Y-98071428D01*
X126714447Y-98071428D02*
X126666828Y-97976190D01*
X126095400Y-98404761D02*
X126047780Y-98309523D01*
X126047780Y-98309523D02*
X126047780Y-98071428D01*
X126047780Y-98071428D02*
X126095400Y-97976190D01*
X126095400Y-97976190D02*
X126190638Y-97928571D01*
X126190638Y-97928571D02*
X126285876Y-97928571D01*
X126285876Y-97928571D02*
X126381114Y-97976190D01*
X126381114Y-97976190D02*
X126428733Y-98071428D01*
X126428733Y-98071428D02*
X126428733Y-98309523D01*
X126428733Y-98309523D02*
X126476352Y-98404761D01*
X126714447Y-98785714D02*
X126047780Y-99023809D01*
X126714447Y-99261904D02*
X126047780Y-99023809D01*
X126047780Y-99023809D02*
X125809685Y-98928571D01*
X125809685Y-98928571D02*
X125762066Y-98880952D01*
X125762066Y-98880952D02*
X125714447Y-98785714D01*
X127047780Y-99547619D02*
X126047780Y-99785714D01*
X126047780Y-99785714D02*
X126762066Y-99976190D01*
X126762066Y-99976190D02*
X126047780Y-100166666D01*
X126047780Y-100166666D02*
X127047780Y-100404762D01*
X126047780Y-101214285D02*
X126571590Y-101214285D01*
X126571590Y-101214285D02*
X126666828Y-101166666D01*
X126666828Y-101166666D02*
X126714447Y-101071428D01*
X126714447Y-101071428D02*
X126714447Y-100880952D01*
X126714447Y-100880952D02*
X126666828Y-100785714D01*
X126095400Y-101214285D02*
X126047780Y-101119047D01*
X126047780Y-101119047D02*
X126047780Y-100880952D01*
X126047780Y-100880952D02*
X126095400Y-100785714D01*
X126095400Y-100785714D02*
X126190638Y-100738095D01*
X126190638Y-100738095D02*
X126285876Y-100738095D01*
X126285876Y-100738095D02*
X126381114Y-100785714D01*
X126381114Y-100785714D02*
X126428733Y-100880952D01*
X126428733Y-100880952D02*
X126428733Y-101119047D01*
X126428733Y-101119047D02*
X126476352Y-101214285D01*
X126714447Y-101595238D02*
X126047780Y-101833333D01*
X126714447Y-102071428D02*
X126047780Y-101833333D01*
X126047780Y-101833333D02*
X125809685Y-101738095D01*
X125809685Y-101738095D02*
X125762066Y-101690476D01*
X125762066Y-101690476D02*
X125714447Y-101595238D01*
D11*
X131405651Y-82903283D02*
X131483544Y-82825389D01*
X131483544Y-82825389D02*
X131639331Y-82747496D01*
X131639331Y-82747496D02*
X132028798Y-82747496D01*
X132028798Y-82747496D02*
X132184584Y-82825389D01*
X132184584Y-82825389D02*
X132262478Y-82903283D01*
X132262478Y-82903283D02*
X132340371Y-83059069D01*
X132340371Y-83059069D02*
X132340371Y-83214856D01*
X132340371Y-83214856D02*
X132262478Y-83448536D01*
X132262478Y-83448536D02*
X131327758Y-84383256D01*
X131327758Y-84383256D02*
X132340371Y-84383256D01*
X133041411Y-84383256D02*
X133041411Y-82747496D01*
X133041411Y-82747496D02*
X133586665Y-83915896D01*
X133586665Y-83915896D02*
X134131918Y-82747496D01*
X134131918Y-82747496D02*
X134131918Y-84383256D01*
X135456105Y-83526429D02*
X135689785Y-83604323D01*
X135689785Y-83604323D02*
X135767678Y-83682216D01*
X135767678Y-83682216D02*
X135845571Y-83838003D01*
X135845571Y-83838003D02*
X135845571Y-84071683D01*
X135845571Y-84071683D02*
X135767678Y-84227469D01*
X135767678Y-84227469D02*
X135689785Y-84305363D01*
X135689785Y-84305363D02*
X135533998Y-84383256D01*
X135533998Y-84383256D02*
X134910851Y-84383256D01*
X134910851Y-84383256D02*
X134910851Y-82747496D01*
X134910851Y-82747496D02*
X135456105Y-82747496D01*
X135456105Y-82747496D02*
X135611891Y-82825389D01*
X135611891Y-82825389D02*
X135689785Y-82903283D01*
X135689785Y-82903283D02*
X135767678Y-83059069D01*
X135767678Y-83059069D02*
X135767678Y-83214856D01*
X135767678Y-83214856D02*
X135689785Y-83370643D01*
X135689785Y-83370643D02*
X135611891Y-83448536D01*
X135611891Y-83448536D02*
X135456105Y-83526429D01*
X135456105Y-83526429D02*
X134910851Y-83526429D01*
X138338158Y-83526429D02*
X137792904Y-83526429D01*
X137792904Y-84383256D02*
X137792904Y-82747496D01*
X137792904Y-82747496D02*
X138571838Y-82747496D01*
X139428664Y-84383256D02*
X139272878Y-84305363D01*
X139272878Y-84305363D02*
X139194984Y-84149576D01*
X139194984Y-84149576D02*
X139194984Y-82747496D01*
X140752851Y-84383256D02*
X140752851Y-83526429D01*
X140752851Y-83526429D02*
X140674958Y-83370643D01*
X140674958Y-83370643D02*
X140519171Y-83292749D01*
X140519171Y-83292749D02*
X140207598Y-83292749D01*
X140207598Y-83292749D02*
X140051811Y-83370643D01*
X140752851Y-84305363D02*
X140597065Y-84383256D01*
X140597065Y-84383256D02*
X140207598Y-84383256D01*
X140207598Y-84383256D02*
X140051811Y-84305363D01*
X140051811Y-84305363D02*
X139973918Y-84149576D01*
X139973918Y-84149576D02*
X139973918Y-83993789D01*
X139973918Y-83993789D02*
X140051811Y-83838003D01*
X140051811Y-83838003D02*
X140207598Y-83760109D01*
X140207598Y-83760109D02*
X140597065Y-83760109D01*
X140597065Y-83760109D02*
X140752851Y-83682216D01*
X141453891Y-84305363D02*
X141609678Y-84383256D01*
X141609678Y-84383256D02*
X141921251Y-84383256D01*
X141921251Y-84383256D02*
X142077038Y-84305363D01*
X142077038Y-84305363D02*
X142154931Y-84149576D01*
X142154931Y-84149576D02*
X142154931Y-84071683D01*
X142154931Y-84071683D02*
X142077038Y-83915896D01*
X142077038Y-83915896D02*
X141921251Y-83838003D01*
X141921251Y-83838003D02*
X141687571Y-83838003D01*
X141687571Y-83838003D02*
X141531784Y-83760109D01*
X141531784Y-83760109D02*
X141453891Y-83604323D01*
X141453891Y-83604323D02*
X141453891Y-83526429D01*
X141453891Y-83526429D02*
X141531784Y-83370643D01*
X141531784Y-83370643D02*
X141687571Y-83292749D01*
X141687571Y-83292749D02*
X141921251Y-83292749D01*
X141921251Y-83292749D02*
X142077038Y-83370643D01*
X142855971Y-84383256D02*
X142855971Y-82747496D01*
X143557011Y-84383256D02*
X143557011Y-83526429D01*
X143557011Y-83526429D02*
X143479118Y-83370643D01*
X143479118Y-83370643D02*
X143323331Y-83292749D01*
X143323331Y-83292749D02*
X143089651Y-83292749D01*
X143089651Y-83292749D02*
X142933865Y-83370643D01*
X142933865Y-83370643D02*
X142855971Y-83448536D01*
X146516957Y-84227469D02*
X146439064Y-84305363D01*
X146439064Y-84305363D02*
X146205384Y-84383256D01*
X146205384Y-84383256D02*
X146049597Y-84383256D01*
X146049597Y-84383256D02*
X145815917Y-84305363D01*
X145815917Y-84305363D02*
X145660131Y-84149576D01*
X145660131Y-84149576D02*
X145582237Y-83993789D01*
X145582237Y-83993789D02*
X145504344Y-83682216D01*
X145504344Y-83682216D02*
X145504344Y-83448536D01*
X145504344Y-83448536D02*
X145582237Y-83136963D01*
X145582237Y-83136963D02*
X145660131Y-82981176D01*
X145660131Y-82981176D02*
X145815917Y-82825389D01*
X145815917Y-82825389D02*
X146049597Y-82747496D01*
X146049597Y-82747496D02*
X146205384Y-82747496D01*
X146205384Y-82747496D02*
X146439064Y-82825389D01*
X146439064Y-82825389D02*
X146516957Y-82903283D01*
X147919037Y-84383256D02*
X147919037Y-83526429D01*
X147919037Y-83526429D02*
X147841144Y-83370643D01*
X147841144Y-83370643D02*
X147685357Y-83292749D01*
X147685357Y-83292749D02*
X147373784Y-83292749D01*
X147373784Y-83292749D02*
X147217997Y-83370643D01*
X147919037Y-84305363D02*
X147763251Y-84383256D01*
X147763251Y-84383256D02*
X147373784Y-84383256D01*
X147373784Y-84383256D02*
X147217997Y-84305363D01*
X147217997Y-84305363D02*
X147140104Y-84149576D01*
X147140104Y-84149576D02*
X147140104Y-83993789D01*
X147140104Y-83993789D02*
X147217997Y-83838003D01*
X147217997Y-83838003D02*
X147373784Y-83760109D01*
X147373784Y-83760109D02*
X147763251Y-83760109D01*
X147763251Y-83760109D02*
X147919037Y-83682216D01*
X148697970Y-84383256D02*
X148697970Y-83292749D01*
X148697970Y-83604323D02*
X148775864Y-83448536D01*
X148775864Y-83448536D02*
X148853757Y-83370643D01*
X148853757Y-83370643D02*
X149009544Y-83292749D01*
X149009544Y-83292749D02*
X149165330Y-83292749D01*
X149476903Y-83292749D02*
X150100050Y-83292749D01*
X149710583Y-82747496D02*
X149710583Y-84149576D01*
X149710583Y-84149576D02*
X149788477Y-84305363D01*
X149788477Y-84305363D02*
X149944263Y-84383256D01*
X149944263Y-84383256D02*
X150100050Y-84383256D01*
X150645303Y-84383256D02*
X150645303Y-83292749D01*
X150645303Y-83604323D02*
X150723197Y-83448536D01*
X150723197Y-83448536D02*
X150801090Y-83370643D01*
X150801090Y-83370643D02*
X150956877Y-83292749D01*
X150956877Y-83292749D02*
X151112663Y-83292749D01*
X151657916Y-84383256D02*
X151657916Y-83292749D01*
X151657916Y-82747496D02*
X151580023Y-82825389D01*
X151580023Y-82825389D02*
X151657916Y-82903283D01*
X151657916Y-82903283D02*
X151735810Y-82825389D01*
X151735810Y-82825389D02*
X151657916Y-82747496D01*
X151657916Y-82747496D02*
X151657916Y-82903283D01*
X153137889Y-84383256D02*
X153137889Y-82747496D01*
X153137889Y-84305363D02*
X152982103Y-84383256D01*
X152982103Y-84383256D02*
X152670529Y-84383256D01*
X152670529Y-84383256D02*
X152514743Y-84305363D01*
X152514743Y-84305363D02*
X152436849Y-84227469D01*
X152436849Y-84227469D02*
X152358956Y-84071683D01*
X152358956Y-84071683D02*
X152358956Y-83604323D01*
X152358956Y-83604323D02*
X152436849Y-83448536D01*
X152436849Y-83448536D02*
X152514743Y-83370643D01*
X152514743Y-83370643D02*
X152670529Y-83292749D01*
X152670529Y-83292749D02*
X152982103Y-83292749D01*
X152982103Y-83292749D02*
X153137889Y-83370643D01*
X154617862Y-83292749D02*
X154617862Y-84616936D01*
X154617862Y-84616936D02*
X154539969Y-84772723D01*
X154539969Y-84772723D02*
X154462076Y-84850616D01*
X154462076Y-84850616D02*
X154306289Y-84928509D01*
X154306289Y-84928509D02*
X154072609Y-84928509D01*
X154072609Y-84928509D02*
X153916822Y-84850616D01*
X154617862Y-84305363D02*
X154462076Y-84383256D01*
X154462076Y-84383256D02*
X154150502Y-84383256D01*
X154150502Y-84383256D02*
X153994716Y-84305363D01*
X153994716Y-84305363D02*
X153916822Y-84227469D01*
X153916822Y-84227469D02*
X153838929Y-84071683D01*
X153838929Y-84071683D02*
X153838929Y-83604323D01*
X153838929Y-83604323D02*
X153916822Y-83448536D01*
X153916822Y-83448536D02*
X153994716Y-83370643D01*
X153994716Y-83370643D02*
X154150502Y-83292749D01*
X154150502Y-83292749D02*
X154462076Y-83292749D01*
X154462076Y-83292749D02*
X154617862Y-83370643D01*
X156019942Y-84305363D02*
X155864155Y-84383256D01*
X155864155Y-84383256D02*
X155552582Y-84383256D01*
X155552582Y-84383256D02*
X155396795Y-84305363D01*
X155396795Y-84305363D02*
X155318902Y-84149576D01*
X155318902Y-84149576D02*
X155318902Y-83526429D01*
X155318902Y-83526429D02*
X155396795Y-83370643D01*
X155396795Y-83370643D02*
X155552582Y-83292749D01*
X155552582Y-83292749D02*
X155864155Y-83292749D01*
X155864155Y-83292749D02*
X156019942Y-83370643D01*
X156019942Y-83370643D02*
X156097835Y-83526429D01*
X156097835Y-83526429D02*
X156097835Y-83682216D01*
X156097835Y-83682216D02*
X155318902Y-83838003D01*
X157889382Y-83292749D02*
X158278848Y-84383256D01*
X158278848Y-84383256D02*
X158668315Y-83292749D01*
X159213568Y-82903283D02*
X159291461Y-82825389D01*
X159291461Y-82825389D02*
X159447248Y-82747496D01*
X159447248Y-82747496D02*
X159836715Y-82747496D01*
X159836715Y-82747496D02*
X159992501Y-82825389D01*
X159992501Y-82825389D02*
X160070395Y-82903283D01*
X160070395Y-82903283D02*
X160148288Y-83059069D01*
X160148288Y-83059069D02*
X160148288Y-83214856D01*
X160148288Y-83214856D02*
X160070395Y-83448536D01*
X160070395Y-83448536D02*
X159135675Y-84383256D01*
X159135675Y-84383256D02*
X160148288Y-84383256D01*
X162095621Y-84383256D02*
X162095621Y-82747496D01*
X162095621Y-82747496D02*
X162640875Y-83915896D01*
X162640875Y-83915896D02*
X163186128Y-82747496D01*
X163186128Y-82747496D02*
X163186128Y-84383256D01*
X163887168Y-84305363D02*
X164120848Y-84383256D01*
X164120848Y-84383256D02*
X164510315Y-84383256D01*
X164510315Y-84383256D02*
X164666101Y-84305363D01*
X164666101Y-84305363D02*
X164743995Y-84227469D01*
X164743995Y-84227469D02*
X164821888Y-84071683D01*
X164821888Y-84071683D02*
X164821888Y-83915896D01*
X164821888Y-83915896D02*
X164743995Y-83760109D01*
X164743995Y-83760109D02*
X164666101Y-83682216D01*
X164666101Y-83682216D02*
X164510315Y-83604323D01*
X164510315Y-83604323D02*
X164198741Y-83526429D01*
X164198741Y-83526429D02*
X164042955Y-83448536D01*
X164042955Y-83448536D02*
X163965061Y-83370643D01*
X163965061Y-83370643D02*
X163887168Y-83214856D01*
X163887168Y-83214856D02*
X163887168Y-83059069D01*
X163887168Y-83059069D02*
X163965061Y-82903283D01*
X163965061Y-82903283D02*
X164042955Y-82825389D01*
X164042955Y-82825389D02*
X164198741Y-82747496D01*
X164198741Y-82747496D02*
X164588208Y-82747496D01*
X164588208Y-82747496D02*
X164821888Y-82825389D01*
X166068182Y-83526429D02*
X166301862Y-83604323D01*
X166301862Y-83604323D02*
X166379755Y-83682216D01*
X166379755Y-83682216D02*
X166457648Y-83838003D01*
X166457648Y-83838003D02*
X166457648Y-84071683D01*
X166457648Y-84071683D02*
X166379755Y-84227469D01*
X166379755Y-84227469D02*
X166301862Y-84305363D01*
X166301862Y-84305363D02*
X166146075Y-84383256D01*
X166146075Y-84383256D02*
X165522928Y-84383256D01*
X165522928Y-84383256D02*
X165522928Y-82747496D01*
X165522928Y-82747496D02*
X166068182Y-82747496D01*
X166068182Y-82747496D02*
X166223968Y-82825389D01*
X166223968Y-82825389D02*
X166301862Y-82903283D01*
X166301862Y-82903283D02*
X166379755Y-83059069D01*
X166379755Y-83059069D02*
X166379755Y-83214856D01*
X166379755Y-83214856D02*
X166301862Y-83370643D01*
X166301862Y-83370643D02*
X166223968Y-83448536D01*
X166223968Y-83448536D02*
X166068182Y-83526429D01*
X166068182Y-83526429D02*
X165522928Y-83526429D01*
D12*
X154972451Y-86359390D02*
X154916813Y-86415029D01*
X154916813Y-86415029D02*
X154749899Y-86470667D01*
X154749899Y-86470667D02*
X154638623Y-86470667D01*
X154638623Y-86470667D02*
X154471708Y-86415029D01*
X154471708Y-86415029D02*
X154360432Y-86303752D01*
X154360432Y-86303752D02*
X154304794Y-86192476D01*
X154304794Y-86192476D02*
X154249156Y-85969924D01*
X154249156Y-85969924D02*
X154249156Y-85803009D01*
X154249156Y-85803009D02*
X154304794Y-85580457D01*
X154304794Y-85580457D02*
X154360432Y-85469181D01*
X154360432Y-85469181D02*
X154471708Y-85357905D01*
X154471708Y-85357905D02*
X154638623Y-85302267D01*
X154638623Y-85302267D02*
X154749899Y-85302267D01*
X154749899Y-85302267D02*
X154916813Y-85357905D01*
X154916813Y-85357905D02*
X154972451Y-85413543D01*
X155640108Y-86470667D02*
X155528832Y-86415029D01*
X155528832Y-86415029D02*
X155473194Y-86303752D01*
X155473194Y-86303752D02*
X155473194Y-85302267D01*
X155973937Y-85691733D02*
X156252127Y-86470667D01*
X156530318Y-85691733D02*
X156252127Y-86470667D01*
X156252127Y-86470667D02*
X156140851Y-86748857D01*
X156140851Y-86748857D02*
X156085213Y-86804495D01*
X156085213Y-86804495D02*
X155973937Y-86860133D01*
X157476166Y-86470667D02*
X157476166Y-85302267D01*
X157476166Y-86415029D02*
X157364890Y-86470667D01*
X157364890Y-86470667D02*
X157142337Y-86470667D01*
X157142337Y-86470667D02*
X157031061Y-86415029D01*
X157031061Y-86415029D02*
X156975423Y-86359390D01*
X156975423Y-86359390D02*
X156919785Y-86248114D01*
X156919785Y-86248114D02*
X156919785Y-85914286D01*
X156919785Y-85914286D02*
X156975423Y-85803009D01*
X156975423Y-85803009D02*
X157031061Y-85747371D01*
X157031061Y-85747371D02*
X157142337Y-85691733D01*
X157142337Y-85691733D02*
X157364890Y-85691733D01*
X157364890Y-85691733D02*
X157476166Y-85747371D01*
X158477652Y-86415029D02*
X158366376Y-86470667D01*
X158366376Y-86470667D02*
X158143823Y-86470667D01*
X158143823Y-86470667D02*
X158032547Y-86415029D01*
X158032547Y-86415029D02*
X157976909Y-86303752D01*
X157976909Y-86303752D02*
X157976909Y-85858648D01*
X157976909Y-85858648D02*
X158032547Y-85747371D01*
X158032547Y-85747371D02*
X158143823Y-85691733D01*
X158143823Y-85691733D02*
X158366376Y-85691733D01*
X158366376Y-85691733D02*
X158477652Y-85747371D01*
X158477652Y-85747371D02*
X158533290Y-85858648D01*
X158533290Y-85858648D02*
X158533290Y-85969924D01*
X158533290Y-85969924D02*
X157976909Y-86081200D01*
X159868605Y-86415029D02*
X160035519Y-86470667D01*
X160035519Y-86470667D02*
X160313710Y-86470667D01*
X160313710Y-86470667D02*
X160424986Y-86415029D01*
X160424986Y-86415029D02*
X160480624Y-86359390D01*
X160480624Y-86359390D02*
X160536262Y-86248114D01*
X160536262Y-86248114D02*
X160536262Y-86136838D01*
X160536262Y-86136838D02*
X160480624Y-86025562D01*
X160480624Y-86025562D02*
X160424986Y-85969924D01*
X160424986Y-85969924D02*
X160313710Y-85914286D01*
X160313710Y-85914286D02*
X160091157Y-85858648D01*
X160091157Y-85858648D02*
X159979881Y-85803009D01*
X159979881Y-85803009D02*
X159924243Y-85747371D01*
X159924243Y-85747371D02*
X159868605Y-85636095D01*
X159868605Y-85636095D02*
X159868605Y-85524819D01*
X159868605Y-85524819D02*
X159924243Y-85413543D01*
X159924243Y-85413543D02*
X159979881Y-85357905D01*
X159979881Y-85357905D02*
X160091157Y-85302267D01*
X160091157Y-85302267D02*
X160369348Y-85302267D01*
X160369348Y-85302267D02*
X160536262Y-85357905D01*
X161037005Y-86470667D02*
X161037005Y-85302267D01*
X161537748Y-86470667D02*
X161537748Y-85858648D01*
X161537748Y-85858648D02*
X161482110Y-85747371D01*
X161482110Y-85747371D02*
X161370834Y-85691733D01*
X161370834Y-85691733D02*
X161203919Y-85691733D01*
X161203919Y-85691733D02*
X161092643Y-85747371D01*
X161092643Y-85747371D02*
X161037005Y-85803009D01*
X162594872Y-86470667D02*
X162594872Y-85858648D01*
X162594872Y-85858648D02*
X162539234Y-85747371D01*
X162539234Y-85747371D02*
X162427958Y-85691733D01*
X162427958Y-85691733D02*
X162205405Y-85691733D01*
X162205405Y-85691733D02*
X162094129Y-85747371D01*
X162594872Y-86415029D02*
X162483596Y-86470667D01*
X162483596Y-86470667D02*
X162205405Y-86470667D01*
X162205405Y-86470667D02*
X162094129Y-86415029D01*
X162094129Y-86415029D02*
X162038491Y-86303752D01*
X162038491Y-86303752D02*
X162038491Y-86192476D01*
X162038491Y-86192476D02*
X162094129Y-86081200D01*
X162094129Y-86081200D02*
X162205405Y-86025562D01*
X162205405Y-86025562D02*
X162483596Y-86025562D01*
X162483596Y-86025562D02*
X162594872Y-85969924D01*
X162984339Y-85691733D02*
X163429443Y-85691733D01*
X163151253Y-86470667D02*
X163151253Y-85469181D01*
X163151253Y-85469181D02*
X163206891Y-85357905D01*
X163206891Y-85357905D02*
X163318167Y-85302267D01*
X163318167Y-85302267D02*
X163429443Y-85302267D01*
X163651996Y-85691733D02*
X164097100Y-85691733D01*
X163818910Y-86470667D02*
X163818910Y-85469181D01*
X163818910Y-85469181D02*
X163874548Y-85357905D01*
X163874548Y-85357905D02*
X163985824Y-85302267D01*
X163985824Y-85302267D02*
X164097100Y-85302267D01*
X164931672Y-86415029D02*
X164820396Y-86470667D01*
X164820396Y-86470667D02*
X164597843Y-86470667D01*
X164597843Y-86470667D02*
X164486567Y-86415029D01*
X164486567Y-86415029D02*
X164430929Y-86303752D01*
X164430929Y-86303752D02*
X164430929Y-85858648D01*
X164430929Y-85858648D02*
X164486567Y-85747371D01*
X164486567Y-85747371D02*
X164597843Y-85691733D01*
X164597843Y-85691733D02*
X164820396Y-85691733D01*
X164820396Y-85691733D02*
X164931672Y-85747371D01*
X164931672Y-85747371D02*
X164987310Y-85858648D01*
X164987310Y-85858648D02*
X164987310Y-85969924D01*
X164987310Y-85969924D02*
X164430929Y-86081200D01*
X165488053Y-86470667D02*
X165488053Y-85691733D01*
X165488053Y-85914286D02*
X165543691Y-85803009D01*
X165543691Y-85803009D02*
X165599329Y-85747371D01*
X165599329Y-85747371D02*
X165710605Y-85691733D01*
X165710605Y-85691733D02*
X165821882Y-85691733D01*
X153748413Y-87739707D02*
X153358946Y-87739707D01*
X153358946Y-88351726D02*
X153358946Y-87183326D01*
X153358946Y-87183326D02*
X153915327Y-87183326D01*
X154805537Y-88296088D02*
X154694261Y-88351726D01*
X154694261Y-88351726D02*
X154471708Y-88351726D01*
X154471708Y-88351726D02*
X154360432Y-88296088D01*
X154360432Y-88296088D02*
X154304794Y-88184811D01*
X154304794Y-88184811D02*
X154304794Y-87739707D01*
X154304794Y-87739707D02*
X154360432Y-87628430D01*
X154360432Y-87628430D02*
X154471708Y-87572792D01*
X154471708Y-87572792D02*
X154694261Y-87572792D01*
X154694261Y-87572792D02*
X154805537Y-87628430D01*
X154805537Y-87628430D02*
X154861175Y-87739707D01*
X154861175Y-87739707D02*
X154861175Y-87850983D01*
X154861175Y-87850983D02*
X154304794Y-87962259D01*
X155361918Y-88351726D02*
X155361918Y-87183326D01*
X155361918Y-87628430D02*
X155473194Y-87572792D01*
X155473194Y-87572792D02*
X155695747Y-87572792D01*
X155695747Y-87572792D02*
X155807023Y-87628430D01*
X155807023Y-87628430D02*
X155862661Y-87684068D01*
X155862661Y-87684068D02*
X155918299Y-87795345D01*
X155918299Y-87795345D02*
X155918299Y-88129173D01*
X155918299Y-88129173D02*
X155862661Y-88240449D01*
X155862661Y-88240449D02*
X155807023Y-88296088D01*
X155807023Y-88296088D02*
X155695747Y-88351726D01*
X155695747Y-88351726D02*
X155473194Y-88351726D01*
X155473194Y-88351726D02*
X155361918Y-88296088D01*
X156419042Y-88351726D02*
X156419042Y-87572792D01*
X156419042Y-87795345D02*
X156474680Y-87684068D01*
X156474680Y-87684068D02*
X156530318Y-87628430D01*
X156530318Y-87628430D02*
X156641594Y-87572792D01*
X156641594Y-87572792D02*
X156752871Y-87572792D01*
X157643080Y-87572792D02*
X157643080Y-88351726D01*
X157142337Y-87572792D02*
X157142337Y-88184811D01*
X157142337Y-88184811D02*
X157197975Y-88296088D01*
X157197975Y-88296088D02*
X157309251Y-88351726D01*
X157309251Y-88351726D02*
X157476166Y-88351726D01*
X157476166Y-88351726D02*
X157587442Y-88296088D01*
X157587442Y-88296088D02*
X157643080Y-88240449D01*
X158700204Y-88351726D02*
X158700204Y-87739707D01*
X158700204Y-87739707D02*
X158644566Y-87628430D01*
X158644566Y-87628430D02*
X158533290Y-87572792D01*
X158533290Y-87572792D02*
X158310737Y-87572792D01*
X158310737Y-87572792D02*
X158199461Y-87628430D01*
X158700204Y-88296088D02*
X158588928Y-88351726D01*
X158588928Y-88351726D02*
X158310737Y-88351726D01*
X158310737Y-88351726D02*
X158199461Y-88296088D01*
X158199461Y-88296088D02*
X158143823Y-88184811D01*
X158143823Y-88184811D02*
X158143823Y-88073535D01*
X158143823Y-88073535D02*
X158199461Y-87962259D01*
X158199461Y-87962259D02*
X158310737Y-87906621D01*
X158310737Y-87906621D02*
X158588928Y-87906621D01*
X158588928Y-87906621D02*
X158700204Y-87850983D01*
X159256585Y-88351726D02*
X159256585Y-87572792D01*
X159256585Y-87795345D02*
X159312223Y-87684068D01*
X159312223Y-87684068D02*
X159367861Y-87628430D01*
X159367861Y-87628430D02*
X159479137Y-87572792D01*
X159479137Y-87572792D02*
X159590414Y-87572792D01*
X159868604Y-87572792D02*
X160146794Y-88351726D01*
X160424985Y-87572792D02*
X160146794Y-88351726D01*
X160146794Y-88351726D02*
X160035518Y-88629916D01*
X160035518Y-88629916D02*
X159979880Y-88685554D01*
X159979880Y-88685554D02*
X159868604Y-88741192D01*
X161704662Y-87294602D02*
X161760300Y-87238964D01*
X161760300Y-87238964D02*
X161871576Y-87183326D01*
X161871576Y-87183326D02*
X162149767Y-87183326D01*
X162149767Y-87183326D02*
X162261043Y-87238964D01*
X162261043Y-87238964D02*
X162316681Y-87294602D01*
X162316681Y-87294602D02*
X162372319Y-87405878D01*
X162372319Y-87405878D02*
X162372319Y-87517154D01*
X162372319Y-87517154D02*
X162316681Y-87684068D01*
X162316681Y-87684068D02*
X161649024Y-88351726D01*
X161649024Y-88351726D02*
X162372319Y-88351726D01*
X163095614Y-87183326D02*
X163206891Y-87183326D01*
X163206891Y-87183326D02*
X163318167Y-87238964D01*
X163318167Y-87238964D02*
X163373805Y-87294602D01*
X163373805Y-87294602D02*
X163429443Y-87405878D01*
X163429443Y-87405878D02*
X163485081Y-87628430D01*
X163485081Y-87628430D02*
X163485081Y-87906621D01*
X163485081Y-87906621D02*
X163429443Y-88129173D01*
X163429443Y-88129173D02*
X163373805Y-88240449D01*
X163373805Y-88240449D02*
X163318167Y-88296088D01*
X163318167Y-88296088D02*
X163206891Y-88351726D01*
X163206891Y-88351726D02*
X163095614Y-88351726D01*
X163095614Y-88351726D02*
X162984338Y-88296088D01*
X162984338Y-88296088D02*
X162928700Y-88240449D01*
X162928700Y-88240449D02*
X162873062Y-88129173D01*
X162873062Y-88129173D02*
X162817424Y-87906621D01*
X162817424Y-87906621D02*
X162817424Y-87628430D01*
X162817424Y-87628430D02*
X162873062Y-87405878D01*
X162873062Y-87405878D02*
X162928700Y-87294602D01*
X162928700Y-87294602D02*
X162984338Y-87238964D01*
X162984338Y-87238964D02*
X163095614Y-87183326D01*
X163930186Y-87294602D02*
X163985824Y-87238964D01*
X163985824Y-87238964D02*
X164097100Y-87183326D01*
X164097100Y-87183326D02*
X164375291Y-87183326D01*
X164375291Y-87183326D02*
X164486567Y-87238964D01*
X164486567Y-87238964D02*
X164542205Y-87294602D01*
X164542205Y-87294602D02*
X164597843Y-87405878D01*
X164597843Y-87405878D02*
X164597843Y-87517154D01*
X164597843Y-87517154D02*
X164542205Y-87684068D01*
X164542205Y-87684068D02*
X163874548Y-88351726D01*
X163874548Y-88351726D02*
X164597843Y-88351726D01*
X165599329Y-87183326D02*
X165376776Y-87183326D01*
X165376776Y-87183326D02*
X165265500Y-87238964D01*
X165265500Y-87238964D02*
X165209862Y-87294602D01*
X165209862Y-87294602D02*
X165098586Y-87461516D01*
X165098586Y-87461516D02*
X165042948Y-87684068D01*
X165042948Y-87684068D02*
X165042948Y-88129173D01*
X165042948Y-88129173D02*
X165098586Y-88240449D01*
X165098586Y-88240449D02*
X165154224Y-88296088D01*
X165154224Y-88296088D02*
X165265500Y-88351726D01*
X165265500Y-88351726D02*
X165488053Y-88351726D01*
X165488053Y-88351726D02*
X165599329Y-88296088D01*
X165599329Y-88296088D02*
X165654967Y-88240449D01*
X165654967Y-88240449D02*
X165710605Y-88129173D01*
X165710605Y-88129173D02*
X165710605Y-87850983D01*
X165710605Y-87850983D02*
X165654967Y-87739707D01*
X165654967Y-87739707D02*
X165599329Y-87684068D01*
X165599329Y-87684068D02*
X165488053Y-87628430D01*
X165488053Y-87628430D02*
X165265500Y-87628430D01*
X165265500Y-87628430D02*
X165154224Y-87684068D01*
X165154224Y-87684068D02*
X165098586Y-87739707D01*
X165098586Y-87739707D02*
X165042948Y-87850983D01*
D13*
X150456607Y-96291407D02*
X150422353Y-96325661D01*
X150422353Y-96325661D02*
X150319592Y-96359914D01*
X150319592Y-96359914D02*
X150251084Y-96359914D01*
X150251084Y-96359914D02*
X150148323Y-96325661D01*
X150148323Y-96325661D02*
X150079816Y-96257153D01*
X150079816Y-96257153D02*
X150045562Y-96188646D01*
X150045562Y-96188646D02*
X150011308Y-96051631D01*
X150011308Y-96051631D02*
X150011308Y-95948870D01*
X150011308Y-95948870D02*
X150045562Y-95811855D01*
X150045562Y-95811855D02*
X150079816Y-95743347D01*
X150079816Y-95743347D02*
X150148323Y-95674840D01*
X150148323Y-95674840D02*
X150251084Y-95640586D01*
X150251084Y-95640586D02*
X150319592Y-95640586D01*
X150319592Y-95640586D02*
X150422353Y-95674840D01*
X150422353Y-95674840D02*
X150456607Y-95709094D01*
X150696383Y-95640586D02*
X151141681Y-95640586D01*
X151141681Y-95640586D02*
X150901905Y-95914616D01*
X150901905Y-95914616D02*
X151004666Y-95914616D01*
X151004666Y-95914616D02*
X151073174Y-95948870D01*
X151073174Y-95948870D02*
X151107427Y-95983123D01*
X151107427Y-95983123D02*
X151141681Y-96051631D01*
X151141681Y-96051631D02*
X151141681Y-96222899D01*
X151141681Y-96222899D02*
X151107427Y-96291407D01*
X151107427Y-96291407D02*
X151073174Y-96325661D01*
X151073174Y-96325661D02*
X151004666Y-96359914D01*
X151004666Y-96359914D02*
X150799144Y-96359914D01*
X150799144Y-96359914D02*
X150730636Y-96325661D01*
X150730636Y-96325661D02*
X150696383Y-96291407D01*
X144380407Y-90215207D02*
X144346153Y-90249461D01*
X144346153Y-90249461D02*
X144243392Y-90283714D01*
X144243392Y-90283714D02*
X144174884Y-90283714D01*
X144174884Y-90283714D02*
X144072123Y-90249461D01*
X144072123Y-90249461D02*
X144003616Y-90180953D01*
X144003616Y-90180953D02*
X143969362Y-90112446D01*
X143969362Y-90112446D02*
X143935108Y-89975431D01*
X143935108Y-89975431D02*
X143935108Y-89872670D01*
X143935108Y-89872670D02*
X143969362Y-89735655D01*
X143969362Y-89735655D02*
X144003616Y-89667147D01*
X144003616Y-89667147D02*
X144072123Y-89598640D01*
X144072123Y-89598640D02*
X144174884Y-89564386D01*
X144174884Y-89564386D02*
X144243392Y-89564386D01*
X144243392Y-89564386D02*
X144346153Y-89598640D01*
X144346153Y-89598640D02*
X144380407Y-89632894D01*
X144654436Y-89632894D02*
X144688690Y-89598640D01*
X144688690Y-89598640D02*
X144757198Y-89564386D01*
X144757198Y-89564386D02*
X144928466Y-89564386D01*
X144928466Y-89564386D02*
X144996974Y-89598640D01*
X144996974Y-89598640D02*
X145031227Y-89632894D01*
X145031227Y-89632894D02*
X145065481Y-89701401D01*
X145065481Y-89701401D02*
X145065481Y-89769909D01*
X145065481Y-89769909D02*
X145031227Y-89872670D01*
X145031227Y-89872670D02*
X144620183Y-90283714D01*
X144620183Y-90283714D02*
X145065481Y-90283714D01*
X166291407Y-90484592D02*
X166325661Y-90518846D01*
X166325661Y-90518846D02*
X166359914Y-90621607D01*
X166359914Y-90621607D02*
X166359914Y-90690115D01*
X166359914Y-90690115D02*
X166325661Y-90792876D01*
X166325661Y-90792876D02*
X166257153Y-90861383D01*
X166257153Y-90861383D02*
X166188646Y-90895637D01*
X166188646Y-90895637D02*
X166051631Y-90929891D01*
X166051631Y-90929891D02*
X165948870Y-90929891D01*
X165948870Y-90929891D02*
X165811855Y-90895637D01*
X165811855Y-90895637D02*
X165743347Y-90861383D01*
X165743347Y-90861383D02*
X165674840Y-90792876D01*
X165674840Y-90792876D02*
X165640586Y-90690115D01*
X165640586Y-90690115D02*
X165640586Y-90621607D01*
X165640586Y-90621607D02*
X165674840Y-90518846D01*
X165674840Y-90518846D02*
X165709094Y-90484592D01*
X166359914Y-89799518D02*
X166359914Y-90210563D01*
X166359914Y-90005040D02*
X165640586Y-90005040D01*
X165640586Y-90005040D02*
X165743347Y-90073548D01*
X165743347Y-90073548D02*
X165811855Y-90142055D01*
X165811855Y-90142055D02*
X165846109Y-90210563D01*
D14*
X132378795Y-89965893D02*
X131680295Y-89965893D01*
X132312272Y-89234131D02*
X132345534Y-89267393D01*
X132345534Y-89267393D02*
X132378795Y-89367179D01*
X132378795Y-89367179D02*
X132378795Y-89433703D01*
X132378795Y-89433703D02*
X132345534Y-89533488D01*
X132345534Y-89533488D02*
X132279010Y-89600012D01*
X132279010Y-89600012D02*
X132212486Y-89633274D01*
X132212486Y-89633274D02*
X132079438Y-89666536D01*
X132079438Y-89666536D02*
X131979653Y-89666536D01*
X131979653Y-89666536D02*
X131846605Y-89633274D01*
X131846605Y-89633274D02*
X131780081Y-89600012D01*
X131780081Y-89600012D02*
X131713557Y-89533488D01*
X131713557Y-89533488D02*
X131680295Y-89433703D01*
X131680295Y-89433703D02*
X131680295Y-89367179D01*
X131680295Y-89367179D02*
X131713557Y-89267393D01*
X131713557Y-89267393D02*
X131746819Y-89234131D01*
X131680295Y-89001298D02*
X131680295Y-88568893D01*
X131680295Y-88568893D02*
X131946391Y-88801726D01*
X131946391Y-88801726D02*
X131946391Y-88701941D01*
X131946391Y-88701941D02*
X131979653Y-88635417D01*
X131979653Y-88635417D02*
X132012914Y-88602155D01*
X132012914Y-88602155D02*
X132079438Y-88568893D01*
X132079438Y-88568893D02*
X132245748Y-88568893D01*
X132245748Y-88568893D02*
X132312272Y-88602155D01*
X132312272Y-88602155D02*
X132345534Y-88635417D01*
X132345534Y-88635417D02*
X132378795Y-88701941D01*
X132378795Y-88701941D02*
X132378795Y-88901512D01*
X132378795Y-88901512D02*
X132345534Y-88968036D01*
X132345534Y-88968036D02*
X132312272Y-89001298D01*
D13*
X159146314Y-113438037D02*
X158426986Y-113438037D01*
X159077807Y-112684455D02*
X159112061Y-112718709D01*
X159112061Y-112718709D02*
X159146314Y-112821470D01*
X159146314Y-112821470D02*
X159146314Y-112889978D01*
X159146314Y-112889978D02*
X159112061Y-112992739D01*
X159112061Y-112992739D02*
X159043553Y-113061246D01*
X159043553Y-113061246D02*
X158975046Y-113095500D01*
X158975046Y-113095500D02*
X158838031Y-113129754D01*
X158838031Y-113129754D02*
X158735270Y-113129754D01*
X158735270Y-113129754D02*
X158598255Y-113095500D01*
X158598255Y-113095500D02*
X158529747Y-113061246D01*
X158529747Y-113061246D02*
X158461240Y-112992739D01*
X158461240Y-112992739D02*
X158426986Y-112889978D01*
X158426986Y-112889978D02*
X158426986Y-112821470D01*
X158426986Y-112821470D02*
X158461240Y-112718709D01*
X158461240Y-112718709D02*
X158495494Y-112684455D01*
X159146314Y-111999381D02*
X159146314Y-112410426D01*
X159146314Y-112204903D02*
X158426986Y-112204903D01*
X158426986Y-112204903D02*
X158529747Y-112273411D01*
X158529747Y-112273411D02*
X158598255Y-112341918D01*
X158598255Y-112341918D02*
X158632509Y-112410426D01*
D15*
X148822142Y-88725825D02*
X148822142Y-89055825D01*
X148476428Y-88757254D02*
X148492142Y-88741540D01*
X148492142Y-88741540D02*
X148539285Y-88725825D01*
X148539285Y-88725825D02*
X148570713Y-88725825D01*
X148570713Y-88725825D02*
X148617856Y-88741540D01*
X148617856Y-88741540D02*
X148649285Y-88772968D01*
X148649285Y-88772968D02*
X148664999Y-88804397D01*
X148664999Y-88804397D02*
X148680713Y-88867254D01*
X148680713Y-88867254D02*
X148680713Y-88914397D01*
X148680713Y-88914397D02*
X148664999Y-88977254D01*
X148664999Y-88977254D02*
X148649285Y-89008682D01*
X148649285Y-89008682D02*
X148617856Y-89040111D01*
X148617856Y-89040111D02*
X148570713Y-89055825D01*
X148570713Y-89055825D02*
X148539285Y-89055825D01*
X148539285Y-89055825D02*
X148492142Y-89040111D01*
X148492142Y-89040111D02*
X148476428Y-89024397D01*
X148193571Y-88945825D02*
X148193571Y-88725825D01*
X148272142Y-89071540D02*
X148350713Y-88835825D01*
X148350713Y-88835825D02*
X148146428Y-88835825D01*
D13*
X131377007Y-118383582D02*
X131411261Y-118417836D01*
X131411261Y-118417836D02*
X131445514Y-118520597D01*
X131445514Y-118520597D02*
X131445514Y-118589105D01*
X131445514Y-118589105D02*
X131411261Y-118691866D01*
X131411261Y-118691866D02*
X131342753Y-118760373D01*
X131342753Y-118760373D02*
X131274246Y-118794627D01*
X131274246Y-118794627D02*
X131137231Y-118828881D01*
X131137231Y-118828881D02*
X131034470Y-118828881D01*
X131034470Y-118828881D02*
X130897455Y-118794627D01*
X130897455Y-118794627D02*
X130828947Y-118760373D01*
X130828947Y-118760373D02*
X130760440Y-118691866D01*
X130760440Y-118691866D02*
X130726186Y-118589105D01*
X130726186Y-118589105D02*
X130726186Y-118520597D01*
X130726186Y-118520597D02*
X130760440Y-118417836D01*
X130760440Y-118417836D02*
X130794694Y-118383582D01*
X130965962Y-117767016D02*
X131445514Y-117767016D01*
X130691933Y-117938284D02*
X131205738Y-118109553D01*
X131205738Y-118109553D02*
X131205738Y-117664254D01*
D14*
X133672755Y-115778195D02*
X133672755Y-115079695D01*
X134404517Y-115711672D02*
X134371255Y-115744934D01*
X134371255Y-115744934D02*
X134271469Y-115778195D01*
X134271469Y-115778195D02*
X134204945Y-115778195D01*
X134204945Y-115778195D02*
X134105160Y-115744934D01*
X134105160Y-115744934D02*
X134038636Y-115678410D01*
X134038636Y-115678410D02*
X134005374Y-115611886D01*
X134005374Y-115611886D02*
X133972112Y-115478838D01*
X133972112Y-115478838D02*
X133972112Y-115379053D01*
X133972112Y-115379053D02*
X134005374Y-115246005D01*
X134005374Y-115246005D02*
X134038636Y-115179481D01*
X134038636Y-115179481D02*
X134105160Y-115112957D01*
X134105160Y-115112957D02*
X134204945Y-115079695D01*
X134204945Y-115079695D02*
X134271469Y-115079695D01*
X134271469Y-115079695D02*
X134371255Y-115112957D01*
X134371255Y-115112957D02*
X134404517Y-115146219D01*
X134670612Y-115146219D02*
X134703874Y-115112957D01*
X134703874Y-115112957D02*
X134770398Y-115079695D01*
X134770398Y-115079695D02*
X134936707Y-115079695D01*
X134936707Y-115079695D02*
X135003231Y-115112957D01*
X135003231Y-115112957D02*
X135036493Y-115146219D01*
X135036493Y-115146219D02*
X135069755Y-115212743D01*
X135069755Y-115212743D02*
X135069755Y-115279267D01*
X135069755Y-115279267D02*
X135036493Y-115379053D01*
X135036493Y-115379053D02*
X134637350Y-115778195D01*
X134637350Y-115778195D02*
X135069755Y-115778195D01*
D16*
%TO.C,IC3*%
X131121800Y-88023000D02*
X131121800Y-100977000D01*
D17*
X131147200Y-101002400D02*
X137852800Y-101002400D01*
X133230000Y-87997600D02*
X131147200Y-87997600D01*
X135770000Y-87997600D02*
X133230000Y-87997600D01*
X137852800Y-87997600D02*
X135770000Y-87997600D01*
X130766200Y-88378600D02*
G75*
G02*
X131147200Y-87997600I380999J1D01*
G01*
X131147200Y-101002400D02*
G75*
G02*
X130766200Y-100621400I0J381000D01*
G01*
X135770000Y-87997600D02*
G75*
G02*
X133230000Y-87997600I-1270000J0D01*
G01*
X137852800Y-87997600D02*
G75*
G02*
X138233800Y-88378600I1J-380999D01*
G01*
X138233800Y-100621400D02*
G75*
G02*
X137852800Y-101002400I-381000J0D01*
G01*
D10*
%TO.C,IC1*%
X157750000Y-116500000D02*
X157750000Y-115200000D01*
X157975000Y-97150000D02*
X170025000Y-97150000D01*
X157975000Y-114850000D02*
X157975000Y-97150000D01*
X170025000Y-97150000D02*
X170025000Y-114850000D01*
X170025000Y-114850000D02*
X157975000Y-114850000D01*
%TO.C,IC4*%
D18*
X149175000Y-92125000D02*
X147825000Y-92125000D01*
X147825000Y-89875000D01*
X149175000Y-89875000D01*
X149175000Y-92125000D01*
X149020711Y-91900000D02*
G75*
G02*
X148879289Y-91900000I-70711J0D01*
G01*
X148879289Y-91900000D02*
G75*
G02*
X149020711Y-91900000I70711J0D01*
G01*
D17*
%TO.C,IC2*%
X131544200Y-105301000D02*
X131544200Y-114699000D01*
X131925200Y-115080000D02*
X132992000Y-115080000D01*
X132992000Y-115080000D02*
X134008000Y-115080000D01*
X134008000Y-115080000D02*
X135074800Y-115080000D01*
X135074800Y-104920000D02*
X131925200Y-104920000D01*
D16*
X135100200Y-115080000D02*
X135100200Y-104920000D01*
D17*
X135455800Y-114699000D02*
X135455800Y-105301000D01*
X131544200Y-105301000D02*
G75*
G02*
X131925200Y-104920000I381000J0D01*
G01*
X131925200Y-115080000D02*
G75*
G02*
X131544200Y-114699000I-1J380999D01*
G01*
X132992000Y-115080000D02*
G75*
G02*
X134008000Y-115080000I508000J0D01*
G01*
X135074800Y-104920000D02*
G75*
G02*
X135455800Y-105301000I0J-381000D01*
G01*
X135455800Y-114699000D02*
G75*
G02*
X135074800Y-115080000I-380999J-1D01*
G01*
%TD*%
%LPC*%
D19*
%TO.C,U$1*%
G36*
X172453300Y-128955800D02*
G01*
X124548900Y-128955800D01*
X124548900Y-123774200D01*
X172453300Y-123774200D01*
X172453300Y-128955800D01*
G37*
%TD*%
D20*
%TO.C,C3*%
X148050000Y-94000000D03*
X149950000Y-94000000D03*
%TD*%
%TO.C,C2*%
X142050000Y-88000000D03*
X143950000Y-88000000D03*
%TD*%
D21*
%TO.C,C1*%
X164000000Y-93450000D03*
X164000000Y-91550000D03*
%TD*%
D22*
%TO.C,IC3*%
X129470800Y-88785000D03*
X129470800Y-90055000D03*
X129470800Y-91325000D03*
X129470800Y-92595000D03*
X129470800Y-93865000D03*
X129470800Y-95135000D03*
X129470800Y-96405000D03*
X129470800Y-97675000D03*
X129470800Y-98945000D03*
X129470800Y-100215000D03*
X139529200Y-100215000D03*
X139529200Y-98945000D03*
X139529200Y-97675000D03*
X139529200Y-96405000D03*
X139529200Y-95135000D03*
X139529200Y-93865000D03*
X139529200Y-92595000D03*
X139529200Y-91325000D03*
X139529200Y-90055000D03*
X139529200Y-88785000D03*
%TD*%
D23*
%TO.C,IC1*%
X158250000Y-115850000D03*
X158750000Y-115850000D03*
X159250000Y-115850000D03*
X159750000Y-115850000D03*
X160250000Y-115850000D03*
X160750000Y-115850000D03*
X161250000Y-115850000D03*
X161750000Y-115850000D03*
X162250000Y-115850000D03*
X162750000Y-115850000D03*
X163250000Y-115850000D03*
X163750000Y-115850000D03*
X164250000Y-115850000D03*
X164750000Y-115850000D03*
X165250000Y-115850000D03*
X165750000Y-115850000D03*
X166250000Y-115850000D03*
X166750000Y-115850000D03*
X167250000Y-115850000D03*
X167750000Y-115850000D03*
X168250000Y-115850000D03*
X168750000Y-115850000D03*
X169250000Y-115850000D03*
X169750000Y-115850000D03*
X169750000Y-96150000D03*
X169250000Y-96150000D03*
X168750000Y-96150000D03*
X168250000Y-96150000D03*
X167750000Y-96150000D03*
X167250000Y-96150000D03*
X166750000Y-96150000D03*
X166250000Y-96150000D03*
X165750000Y-96150000D03*
X165250000Y-96150000D03*
X164750000Y-96150000D03*
X164250000Y-96150000D03*
X163750000Y-96150000D03*
X163250000Y-96150000D03*
X162750000Y-96150000D03*
X162250000Y-96150000D03*
X161750000Y-96150000D03*
X161250000Y-96150000D03*
X160750000Y-96150000D03*
X160250000Y-96150000D03*
X159750000Y-96150000D03*
X159250000Y-96150000D03*
X158750000Y-96150000D03*
X158250000Y-96150000D03*
%TD*%
D24*
%TO.C,H1*%
X148678900Y-105606850D03*
%TD*%
D25*
%TO.C,U$1*%
X128358900Y-84861400D03*
X168643300Y-84861400D03*
D26*
X126911100Y-125603000D03*
X129451100Y-125603000D03*
X131991100Y-125603000D03*
X134531100Y-125603000D03*
X137071100Y-125603000D03*
X139611100Y-125603000D03*
X142151100Y-125603000D03*
X144691100Y-125603000D03*
X147231100Y-125603000D03*
X149771100Y-125603000D03*
X152311100Y-125603000D03*
X154851100Y-125603000D03*
X157391100Y-125603000D03*
X159931100Y-125603000D03*
X162471100Y-125603000D03*
X165011100Y-125603000D03*
X167551100Y-125603000D03*
X170091100Y-125603000D03*
%TD*%
D27*
%TO.C,IC4*%
X149500000Y-91650000D03*
X149500000Y-91000000D03*
X149500000Y-90350000D03*
X147500000Y-90350000D03*
X147500000Y-91650000D03*
%TD*%
D28*
%TO.C,C4*%
X130000000Y-116550000D03*
X130000000Y-118450000D03*
%TD*%
D29*
%TO.C,IC2*%
X136573400Y-114445000D03*
X136573400Y-113175000D03*
X136573400Y-111905000D03*
X136573400Y-110635000D03*
X136573400Y-109365000D03*
X136573400Y-108095000D03*
X136573400Y-106825000D03*
X136573400Y-105555000D03*
X130426600Y-105555000D03*
X130426600Y-106825000D03*
X130426600Y-108095000D03*
X130426600Y-109365000D03*
X130426600Y-110635000D03*
X130426600Y-111905000D03*
X130426600Y-113175000D03*
X130426600Y-114445000D03*
%TD*%
%LPD*%
M02*
