%TF.GenerationSoftware,KiCad,Pcbnew,9.0.4*%
%TF.CreationDate,2026-02-25T16:03:30-05:00*%
%TF.ProjectId,FlashCardBanked2M,466c6173-6843-4617-9264-42616e6b6564,rev?*%
%TF.SameCoordinates,Original*%
%TF.FileFunction,Paste,Top*%
%TF.FilePolarity,Positive*%
%FSLAX46Y46*%
G04 Gerber Fmt 4.6, Leading zero omitted, Abs format (unit mm)*
G04 Created by KiCad (PCBNEW 9.0.4) date 2026-02-25 16:03:30*
%MOMM*%
%LPD*%
G01*
G04 APERTURE LIST*
G04 Aperture macros list*
%AMRoundRect*
0 Rectangle with rounded corners*
0 $1 Rounding radius*
0 $2 $3 $4 $5 $6 $7 $8 $9 X,Y pos of 4 corners*
0 Add a 4 corners polygon primitive as box body*
4,1,4,$2,$3,$4,$5,$6,$7,$8,$9,$2,$3,0*
0 Add four circle primitives for the rounded corners*
1,1,$1+$1,$2,$3*
1,1,$1+$1,$4,$5*
1,1,$1+$1,$6,$7*
1,1,$1+$1,$8,$9*
0 Add four rect primitives between the rounded corners*
20,1,$1+$1,$2,$3,$4,$5,0*
20,1,$1+$1,$4,$5,$6,$7,0*
20,1,$1+$1,$6,$7,$8,$9,0*
20,1,$1+$1,$8,$9,$2,$3,0*%
G04 Aperture macros list end*
%ADD10R,1.300000X1.500000*%
%ADD11R,1.500000X1.300000*%
%ADD12R,2.032000X0.660400*%
%ADD13R,0.300000X1.300000*%
%ADD14RoundRect,0.100000X0.250000X0.100000X-0.250000X0.100000X-0.250000X-0.100000X0.250000X-0.100000X0*%
G04 APERTURE END LIST*
D10*
%TO.C,C3*%
X148050000Y-94000000D03*
X149950000Y-94000000D03*
%TD*%
%TO.C,C2*%
X142050000Y-88000000D03*
X143950000Y-88000000D03*
%TD*%
D11*
%TO.C,C1*%
X164000000Y-93450000D03*
X164000000Y-91550000D03*
%TD*%
D12*
%TO.C,IC3*%
X129470800Y-88785000D03*
X129470800Y-90055000D03*
X129470800Y-91325000D03*
X129470800Y-92595000D03*
X129470800Y-93865000D03*
X129470800Y-95135000D03*
X129470800Y-96405000D03*
X129470800Y-97675000D03*
X129470800Y-98945000D03*
X129470800Y-100215000D03*
X139529200Y-100215000D03*
X139529200Y-98945000D03*
X139529200Y-97675000D03*
X139529200Y-96405000D03*
X139529200Y-95135000D03*
X139529200Y-93865000D03*
X139529200Y-92595000D03*
X139529200Y-91325000D03*
X139529200Y-90055000D03*
X139529200Y-88785000D03*
%TD*%
D13*
%TO.C,IC1*%
X158250000Y-115850000D03*
X158750000Y-115850000D03*
X159250000Y-115850000D03*
X159750000Y-115850000D03*
X160250000Y-115850000D03*
X160750000Y-115850000D03*
X161250000Y-115850000D03*
X161750000Y-115850000D03*
X162250000Y-115850000D03*
X162750000Y-115850000D03*
X163250000Y-115850000D03*
X163750000Y-115850000D03*
X164250000Y-115850000D03*
X164750000Y-115850000D03*
X165250000Y-115850000D03*
X165750000Y-115850000D03*
X166250000Y-115850000D03*
X166750000Y-115850000D03*
X167250000Y-115850000D03*
X167750000Y-115850000D03*
X168250000Y-115850000D03*
X168750000Y-115850000D03*
X169250000Y-115850000D03*
X169750000Y-115850000D03*
X169750000Y-96150000D03*
X169250000Y-96150000D03*
X168750000Y-96150000D03*
X168250000Y-96150000D03*
X167750000Y-96150000D03*
X167250000Y-96150000D03*
X166750000Y-96150000D03*
X166250000Y-96150000D03*
X165750000Y-96150000D03*
X165250000Y-96150000D03*
X164750000Y-96150000D03*
X164250000Y-96150000D03*
X163750000Y-96150000D03*
X163250000Y-96150000D03*
X162750000Y-96150000D03*
X162250000Y-96150000D03*
X161750000Y-96150000D03*
X161250000Y-96150000D03*
X160750000Y-96150000D03*
X160250000Y-96150000D03*
X159750000Y-96150000D03*
X159250000Y-96150000D03*
X158750000Y-96150000D03*
X158250000Y-96150000D03*
%TD*%
D14*
%TO.C,IC4*%
X149500000Y-91650000D03*
X149500000Y-91000000D03*
X149500000Y-90350000D03*
X147500000Y-90350000D03*
X147500000Y-91650000D03*
%TD*%
D11*
%TO.C,C4*%
X130000000Y-116550000D03*
X130000000Y-118450000D03*
%TD*%
D12*
%TO.C,IC2*%
X136573400Y-114445000D03*
X136573400Y-113175000D03*
X136573400Y-111905000D03*
X136573400Y-110635000D03*
X136573400Y-109365000D03*
X136573400Y-108095000D03*
X136573400Y-106825000D03*
X136573400Y-105555000D03*
X130426600Y-105555000D03*
X130426600Y-106825000D03*
X130426600Y-108095000D03*
X130426600Y-109365000D03*
X130426600Y-110635000D03*
X130426600Y-111905000D03*
X130426600Y-113175000D03*
X130426600Y-114445000D03*
%TD*%
M02*
