<?xml version="1.0" encoding="UTF-8" standalone="no"?>
<svg
   viewBox="0 0 581.15734 241.00001"
   width="581.15735"
   height="241"
   version="1.1"
   id="svg117"
   sodipodi:docname="gt-gamepad.svg"
   inkscape:version="1.3.2 (091e20e, 2023-11-25, custom)"
   xmlns:inkscape="http://www.inkscape.org/namespaces/inkscape"
   xmlns:sodipodi="http://sodipodi.sourceforge.net/DTD/sodipodi-0.dtd"
   xmlns="http://www.w3.org/2000/svg"
   xmlns:svg="http://www.w3.org/2000/svg">
  <sodipodi:namedview
     id="namedview117"
     pagecolor="#ffffff"
     bordercolor="#000000"
     borderopacity="0.25"
     inkscape:showpageshadow="2"
     inkscape:pageopacity="0.0"
     inkscape:pagecheckerboard="0"
     inkscape:deskcolor="#d1d1d1"
     inkscape:zoom="2.0899411"
     inkscape:cx="456.47219"
     inkscape:cy="285.89322"
     inkscape:window-width="2560"
     inkscape:window-height="1369"
     inkscape:window-x="-8"
     inkscape:window-y="-8"
     inkscape:window-maximized="1"
     inkscape:current-layer="g117" />
  <desc
     id="desc1">gt-gamepad.dxf - scale = 1.000000, origin = (0.000000, 0.000000), method = manual</desc>
  <defs
     id="defs4">
    <marker
       id="DistanceX"
       orient="auto"
       refX="0"
       refY="0"
       style="overflow:visible">
      <path
         d="M 3,-3 -3,3 M 0,-5 V 5"
         style="stroke:#000000;stroke-width:0.5"
         id="path1" />
    </marker>
    <pattern
       id="Hatch"
       patternUnits="userSpaceOnUse"
       width="8"
       height="8"
       x="0"
       y="0">
      <path
         d="M8 4 l-4,4"
         stroke="#000000"
         stroke-width="0.25"
         linecap="square"
         id="path2" />
      <path
         d="M6 2 l-4,4"
         stroke="#000000"
         stroke-width="0.25"
         linecap="square"
         id="path3" />
      <path
         d="M4 0 l-4,4"
         stroke="#000000"
         stroke-width="0.25"
         linecap="square"
         id="path4" />
    </pattern>
    <symbol
       id="*MODEL_SPACE" />
    <symbol
       id="*PAPER_SPACE" />
  </defs>
  <g
     inkscape:groupmode="layer"
     inkscape:label="0"
     id="g117"
     transform="translate(290.57935,-1020.9169)">
    <path
       d="m -170.0794,1261.4169 v -15.1181 a 104.8819,104.8819 0 0 1 0,-209.7638 v -15.1181 a 120,120 0 0 0 0,240 z"
       style="fill:none;stroke:#000000"
       id="path5" />
    <path
       d="m 182.10446,1115.648 -37.79527,37.7953 a 17.007887,17.007887 0 1 1 -24.05277,-24.0528 l 37.79528,-37.7952 a 17.007874,17.007874 0 0 1 24.05276,24.0527 z"
       style="fill:none;stroke:#000000"
       id="path6" />
    <path
       d="m 187.08595,1179.2122 a 17.007875,17.007875 0 0 0 -34.01575,0 17.007875,17.007875 0 0 0 34.01575,0 z"
       style="fill:none;stroke:#000000"
       id="path7" />
    <path
       d="m -151.18176,1122.5193 h 30.23622 v 37.7953 h -30.23622 v 30.2362 h -37.79528 v -30.2362 h -30.23622 v -37.7953 h 30.23622 v -30.2362 h 37.79528 z"
       style="fill:none;stroke:#000000"
       id="path8" />
    <path
       d="m 224.88123,1141.4169 a 17.007875,17.007875 0 0 0 -34.01575,0 17.007875,17.007875 0 0 0 34.01575,0 z"
       style="fill:none;stroke:#000000"
       id="path9" />
    <path
       d="m 17.007213,1084.724 a 17.007874,17.007874 0 0 0 -34.015748,0 17.007874,17.007874 0 0 0 34.015748,0 z"
       style="fill:none;stroke:#000000"
       id="path10" />
    <path
       d="m -170.0794,1036.535 a 104.8819,104.8819 0 0 0 0,209.7638 h 340.15748 a 104.8819,104.8819 0 0 0 0,-209.7638 z"
       style="fill:none;stroke:#000000"
       id="path11" />
    <path
       d="m 170.07808,1261.4169 v -15.1181 H -170.0794 v 15.1181 z"
       style="fill:none;stroke:#000000"
       id="path12" />
    <path
       d="m 170.07808,1021.4169 v 15.1181 a 104.8819,104.8819 0 0 1 0,209.7638 v 15.1181 a 120,120 0 0 0 0,-240 z"
       style="fill:none;stroke:#000000"
       id="path13" />
    <path
       d="m -170.0794,1021.4169 v 15.1181 h 340.15748 v -15.1181 z"
       style="fill:none;stroke:#000000"
       id="path14" />
    <path
       d="m -185.19751,1182.9917 h 30.23622 v -26.4567 h 26.45669 v -30.2362 h -26.45669 v -26.4567 h -30.23622 v 26.4567 h -26.45669 v 30.2362 h 26.45669 z"
       style="fill:none;stroke:#000000"
       id="path15" />
    <path
       d="m 11.337921,1084.724 a 11.338583,11.338583 0 0 0 -22.677165,0 11.338583,11.338583 0 0 0 22.677165,0 z"
       style="fill:none;stroke:#000000"
       id="path16" />
    <path
       d="m -2.540032,1092.1502 c -0.33144,-0.3695 -0.66288,-0.7391 -0.878445,-1.1654 -0.244803,-0.4842 -0.340167,-1.0417 -0.435531,-1.5991"
       style="fill:none;stroke:#000000"
       id="path17" />
    <path
       d="m 0.612036,1093.0988 c -0.622817,-0.022 -1.245633,-0.045 -1.814101,-0.2372 -0.470846,-0.1593 -0.904406,-0.4354 -1.337967,-0.7114"
       style="fill:none;stroke:#000000"
       id="path18" />
    <path
       d="m 2.966858,1092.7038 c -0.350856,0.115 -0.701711,0.23 -1.061147,0.2962 -0.423292,0.078 -0.858484,0.088 -1.293675,0.099"
       style="fill:none;stroke:#000000"
       id="path19" />
    <path
       d="m 4.428472,1091.4969 c -0.192625,0.2543 -0.385251,0.5087 -0.623769,0.7077 -0.246583,0.2058 -0.542214,0.3525 -0.837845,0.4992"
       style="fill:none;stroke:#000000"
       id="path20" />
    <path
       d="m 4.945205,1089.7548 c -0.022303,0.3063 -0.044605,0.6126 -0.129183,0.9006 -0.08613,0.2932 -0.23684,0.5673 -0.38755,0.8415"
       style="fill:none;stroke:#000000"
       id="path21" />
    <path
       d="m 4.513364,1088.0311 c 0.125835,0.2553 0.25167,0.5105 0.32388,0.7797 0.081259,0.3029 0.09461,0.6234 0.107961,0.944"
       style="fill:none;stroke:#000000"
       id="path22" />
    <path
       d="m 3.317498,1086.9312 c 0.239832,0.1448 0.479665,0.2896 0.680979,0.4761 0.19596,0.1816 0.355423,0.4027 0.514887,0.6238"
       style="fill:none;stroke:#000000"
       id="path23" />
    <path
       d="m 0.958984,1086.1524 c 0.467538,0.1122 0.935075,0.2245 1.386872,0.3829 0.329461,0.1156 0.650551,0.2558 0.971642,0.3959"
       style="fill:none;stroke:#000000"
       id="path24" />
    <path
       d="m -1.04889,1085.429 c 0.232925,0.1266 0.465849,0.2532 0.708661,0.3543 0.413915,0.1724 0.856564,0.2708 1.299213,0.3691"
       style="fill:none;stroke:#000000"
       id="path25" />
    <path
       d="m -1.373693,1084.772 c 0.015032,0.1246 0.030065,0.2491 0.0812,0.3562 0.05418,0.1134 0.148892,0.2071 0.243603,0.3008"
       style="fill:none;stroke:#000000"
       id="path26" />
    <path
       d="m -1.026745,1084.1002 c -0.101192,0.09 -0.202385,0.1808 -0.260211,0.2935 -0.057229,0.1115 -0.071983,0.2449 -0.086737,0.3783"
       style="fill:none;stroke:#000000"
       id="path27" />
    <path
       d="m 0.464398,1083.709 c -0.289513,0.01 -0.579026,0.018 -0.848918,0.098 -0.223006,0.066 -0.432615,0.1796 -0.642225,0.2934"
       style="fill:none;stroke:#000000"
       id="path28" />
    <path
       d="m 1.848502,1084.0744 c -0.188001,-0.1062 -0.376002,-0.2124 -0.57671,-0.274 -0.255413,-0.079 -0.531404,-0.085 -0.807394,-0.091"
       style="fill:none;stroke:#000000"
       id="path29" />
    <path
       d="m 2.450126,1085.274 c -0.051132,-0.2508 -0.102264,-0.5015 -0.220533,-0.717 -0.096953,-0.1767 -0.239022,-0.3296 -0.381091,-0.4826"
       style="fill:none;stroke:#000000"
       id="path30" />
    <path
       style="fill:none;stroke:#000000"
       d="m 2.45013,1085.27 2.18503,-0.09"
       id="path31" />
    <path
       d="m 3.553718,1082.7936 c 0.302661,0.3288 0.605322,0.6575 0.785248,1.0427 0.189391,0.4055 0.242795,0.8736 0.296199,1.3417"
       style="fill:none;stroke:#000000"
       id="path32" />
    <path
       d="m 0.486543,1081.9004 c 0.612793,0.018 1.225587,0.036 1.785494,0.2233 0.450002,0.1505 0.865841,0.4102 1.281681,0.6699"
       style="fill:none;stroke:#000000"
       id="path33" />
    <path
       d="m -1.643132,1082.2769 c 0.321637,-0.1097 0.643273,-0.2193 0.973486,-0.2823 0.377908,-0.072 0.767048,-0.083 1.156189,-0.094"
       style="fill:none;stroke:#000000"
       id="path34" />
    <path
       d="m -2.994018,1083.3731 c 0.177581,-0.2273 0.355162,-0.4546 0.572096,-0.6339 0.230085,-0.1901 0.504437,-0.3262 0.77879,-0.4623"
       style="fill:none;stroke:#000000"
       id="path35" />
    <path
       d="m -3.462769,1084.9196 c 0.020313,-0.2723 0.040625,-0.5446 0.117188,-0.8 0.078133,-0.2606 0.214848,-0.5035 0.351563,-0.7465"
       style="fill:none;stroke:#000000"
       id="path36" />
    <path
       d="m -2.466213,1087.0973 c -0.290651,-0.3115 -0.581301,-0.623 -0.747417,-0.991 -0.162267,-0.3596 -0.205703,-0.7731 -0.249139,-1.1867"
       style="fill:none;stroke:#000000"
       id="path37" />
    <path
       d="m -6.62e-4,1088.1677 c -0.51268,-0.1303 -1.025361,-0.2605 -1.494833,-0.4854 -0.338553,-0.1622 -0.654636,-0.3736 -0.970718,-0.585"
       style="fill:none;stroke:#000000"
       id="path38" />
    <path
       d="m 1.748846,1088.6401 c -0.209415,-0.063 -0.41883,-0.1256 -0.629306,-0.1845 -0.371202,-0.104 -0.745702,-0.196 -1.120202,-0.2879"
       style="fill:none;stroke:#000000"
       id="path39" />
    <path
       d="m 2.535017,1089.1089 c -0.099156,-0.09 -0.198313,-0.1805 -0.309116,-0.252 -0.14561,-0.094 -0.311332,-0.1553 -0.477055,-0.2168"
       style="fill:none;stroke:#000000"
       id="path40" />
    <path
       d="m 2.760165,1089.7622 c -0.00843,-0.1221 -0.016863,-0.2441 -0.056287,-0.3553 -0.037546,-0.1059 -0.103204,-0.202 -0.168861,-0.298"
       style="fill:none;stroke:#000000"
       id="path41" />
    <path
       d="m 2.224978,1090.8067 c 0.156005,-0.1504 0.31201,-0.3008 0.40139,-0.4844 0.081813,-0.1682 0.107805,-0.3642 0.133797,-0.5601"
       style="fill:none;stroke:#000000"
       id="path42" />
    <path
       d="m 0.63418,1091.2533 c 0.317105,-0.01 0.63421,-0.018 0.925505,-0.1117 0.232749,-0.075 0.449021,-0.2051 0.665293,-0.3349"
       style="fill:none;stroke:#000000"
       id="path43" />
    <path
       d="m -0.949235,1090.7513 c 0.222901,0.1462 0.445802,0.2925 0.689285,0.3765 0.279909,0.097 0.58702,0.1111 0.89413,0.1255"
       style="fill:none;stroke:#000000"
       id="path44" />
    <path
       d="m -1.728024,1089.179 c 0.069862,0.3233 0.139724,0.6467 0.290661,0.9283 0.125401,0.2339 0.306765,0.439 0.488128,0.644"
       style="fill:none;stroke:#000000"
       id="path45" />
    <path
       style="fill:none;stroke:#000000"
       d="m -1.72802,1089.18 -2.12599,0.21"
       id="path46" />
    <path
       d="m 124.26521,1133.3993 a 11.338592,11.338592 0 1 0 16.03518,16.0352 l 37.79528,-37.7953 a 11.338583,11.338583 0 0 0 -16.03518,-16.0351 z"
       style="fill:none;stroke:#000000"
       id="path47" />
    <path
       d="m 219.21194,1141.4169 a 11.338585,11.338585 0 0 0 -22.67717,0 11.338585,11.338585 0 0 0 22.67717,0 z"
       style="fill:none;stroke:#000000"
       id="path48" />
    <path
       d="m 15.117449,1084.724 a 15.118111,15.118111 0 0 0 -30.236221,0 15.118111,15.118111 0 0 0 30.236221,0 z"
       style="fill:none;stroke:#000000"
       id="path49" />
    <path
       d="m 11.337921,1084.724 a 11.338583,11.338583 0 0 0 -22.677165,0 11.338583,11.338583 0 0 0 22.677165,0 z"
       style="fill:none;stroke:#000000"
       id="path50" />
    <path
       d="m -185.19751,1096.0626 v 3.7795 h 30.23622 v -3.7795 z"
       style="fill:none;stroke:#000000"
       id="path51" />
    <path
       d="m -215.43373,1156.535 h 3.77953 v -30.2362 h -3.77953 z"
       style="fill:none;stroke:#000000"
       id="path52" />
    <path
       d="m -154.96129,1186.7713 v -3.7796 h -30.23622 v 3.7796 z"
       style="fill:none;stroke:#000000"
       id="path53" />
    <path
       d="m -124.72507,1126.2988 h -3.77953 v 30.2362 h 3.77953 z"
       style="fill:none;stroke:#000000"
       id="path54" />
    <path
       d="m 159.38796,1092.9315 2.67253,2.6726 a 11.338583,11.338583 0 1 1 16.03518,16.0351 l 2.67253,2.6726 a 15.118134,15.118134 0 1 0 -21.38024,-21.3803 z"
       style="fill:none;stroke:#000000"
       id="path55" />
    <path
       d="m 121.59269,1130.7268 2.67252,2.6725 37.79528,-37.7952 -2.67253,-2.6726 z"
       style="fill:none;stroke:#000000"
       id="path56" />
    <path
       d="m 142.97292,1152.107 -2.67253,-2.6725 a 11.338592,11.338592 0 1 1 -16.03518,-16.0352 l -2.67252,-2.6725 a 15.11811,15.11811 0 1 0 21.38023,21.3802 z"
       style="fill:none;stroke:#000000"
       id="path57" />
    <path
       style="fill:none;stroke:#000000"
       d="M 178.096,1111.64 140.3,1149.43"
       id="path58" />
    <path
       d="m 180.7682,1114.3118 -2.67253,-2.6726 -37.79528,37.7953 2.67253,2.6725 z"
       style="fill:none;stroke:#000000"
       id="path59" />
    <path
       d="m 185.19619,1179.2122 a 15.11811,15.11811 0 0 0 -30.23622,0 15.11811,15.11811 0 0 0 30.23622,0 z"
       style="fill:none;stroke:#000000"
       id="path60" />
    <path
       d="m 181.41666,1179.2122 a 11.338583,11.338583 0 0 0 -22.67716,0 11.338583,11.338583 0 0 0 22.67716,0 z"
       style="fill:none;stroke:#000000"
       id="path61" />
    <path
       d="m 181.41666,1179.2122 a 11.338583,11.338583 0 0 0 -22.67716,0 11.338583,11.338583 0 0 0 22.67716,0 z"
       style="fill:none;stroke:#000000"
       id="path62" />
    <path
       d="m 175.50746,1187.4873 -4.33317,-10.8219 h -2.31053 l -4.21506,10.8219 h 2.31791 l 0.89321,-2.4582 h 4.32579 l 0.94488,2.4582 z"
       style="fill:none;stroke:#000000"
       id="path63" />
    <path
       d="m 171.48433,1183.2058 h -2.95276 l 1.46162,-4.0157 z"
       style="fill:none;stroke:#000000"
       id="path64" />
    <path
       d="m 153.59063,1128.4654 c 0.19784,-0.2277 0.39568,-0.4553 0.53888,-0.7124 0.17497,-0.314 0.26834,-0.6719 0.36171,-1.0297"
       style="fill:none;stroke:#000000"
       id="path65" />
    <path
       d="m 152.0921,1129.019 c 0.27902,-0.022 0.55804,-0.044 0.81017,-0.1384 0.2466,-0.092 0.46748,-0.2537 0.68836,-0.4152"
       style="fill:none;stroke:#000000"
       id="path66" />
    <path
       d="m 150.17281,1128.148 c 0.26641,0.254 0.53281,0.5081 0.84892,0.6533 0.32234,0.148 0.69635,0.1829 1.07037,0.2177"
       style="fill:none;stroke:#000000"
       id="path67" />
    <path
       d="m 149.43462,1125.2247 c 0.006,0.6012 0.0127,1.2023 0.18455,1.7569 0.12561,0.4054 0.33962,0.7859 0.55364,1.1664"
       style="fill:none;stroke:#000000"
       id="path68" />
    <path
       d="m 150.18388,1122.427 c -0.21745,0.3682 -0.4349,0.7364 -0.56194,1.1313 -0.16867,0.5242 -0.17799,1.0953 -0.18732,1.6664"
       style="fill:none;stroke:#000000"
       id="path69" />
    <path
       d="m 152.13639,1121.5633 c -0.38027,0.034 -0.76055,0.068 -1.08975,0.216 -0.31969,0.1439 -0.59122,0.3958 -0.86276,0.6477"
       style="fill:none;stroke:#000000"
       id="path70" />
    <path
       d="m 153.61646,1122.0505 c -0.21805,-0.142 -0.4361,-0.2841 -0.67452,-0.3654 -0.2532,-0.086 -0.52937,-0.104 -0.80555,-0.1218"
       style="fill:none;stroke:#000000"
       id="path71" />
    <path
       d="m 154.4174,1123.3793 c -0.0784,-0.2634 -0.15685,-0.5267 -0.2962,-0.753 -0.13187,-0.2141 -0.3183,-0.3949 -0.50474,-0.5758"
       style="fill:none;stroke:#000000"
       id="path72" />
    <path
       style="fill:none;stroke:#000000"
       d="m 154.417,1123.38 2.163,-0.52"
       id="path73" />
    <path
       d="m 155.47301,1120.8694 c 0.23451,0.2709 0.46901,0.5417 0.64591,0.8453 0.20573,0.353 0.33355,0.7504 0.46137,1.1478"
       style="fill:none;stroke:#000000"
       id="path74" />
    <path
       d="m 152.24712,1119.6957 c 0.6213,0.04 1.2426,0.08 1.79934,0.2934 0.5119,0.196 0.96923,0.5382 1.42655,0.8803"
       style="fill:none;stroke:#000000"
       id="path75" />
    <path
       d="m 148.57832,1121.1905 c 0.51246,-0.4358 1.02492,-0.8717 1.61479,-1.1211 0.62646,-0.2648 1.34024,-0.3192 2.05401,-0.3737"
       style="fill:none;stroke:#000000"
       id="path76" />
    <path
       d="m 147.18315,1125.3872 c 0.038,-0.8274 0.0761,-1.6547 0.34879,-2.4001 0.23381,-0.639 0.64009,-1.2178 1.04638,-1.7966"
       style="fill:none;stroke:#000000"
       id="path77" />
    <path
       d="m 148.57094,1129.414 c -0.40432,-0.5605 -0.80864,-1.1209 -1.04084,-1.7431 -0.26421,-0.7079 -0.30558,-1.4958 -0.34695,-2.2837"
       style="fill:none;stroke:#000000"
       id="path78" />
    <path
       d="m 152.11425,1130.8867 c -0.68221,-0.057 -1.36441,-0.1137 -1.96358,-0.3682 -0.57811,-0.2455 -1.07892,-0.675 -1.57973,-1.1045"
       style="fill:none;stroke:#000000"
       id="path79" />
    <path
       d="m 154.98949,1130.0267 c -0.41744,0.2506 -0.83489,0.5012 -1.28537,0.645 -0.50255,0.1603 -1.04621,0.1876 -1.58987,0.215"
       style="fill:none;stroke:#000000"
       id="path80" />
    <path
       d="m 156.60982,1127.395 c -0.17465,0.5409 -0.34931,1.0817 -0.64868,1.5438 -0.26079,0.4025 -0.61622,0.7452 -0.97165,1.0879"
       style="fill:none;stroke:#000000"
       id="path81" />
    <path
       style="fill:none;stroke:#000000"
       d="m 156.61,1127.4 -2.119,-0.68"
       id="path82" />
    <path
       style="fill:none;stroke:#000000"
       d="m 204.448,1138.87 v 10.82"
       id="path83" />
    <path
       style="fill:none;stroke:#000000"
       d="m 204.448,1149.69 h 3.684"
       id="path84" />
    <path
       d="m 210.76705,1149.6182 c -0.31058,0.018 -0.62117,0.036 -0.93196,0.048 -0.56735,0.022 -1.13536,0.024 -1.70337,0.026"
       style="fill:none;stroke:#000000"
       id="path85" />
    <path
       d="m 212.23236,1149.1052 c -0.21614,0.1263 -0.43228,0.2526 -0.66345,0.3368 -0.25508,0.093 -0.52847,0.1345 -0.80186,0.1762"
       style="fill:none;stroke:#000000"
       id="path86" />
    <path
       d="m 213.16986,1147.9905 c -0.12304,0.2195 -0.24608,0.4391 -0.40601,0.6275 -0.15428,0.1817 -0.34288,0.3344 -0.53149,0.4872"
       style="fill:none;stroke:#000000"
       id="path87" />
    <path
       d="m 213.51312,1146.5547 c -0.0151,0.2459 -0.0301,0.4918 -0.0858,0.7281 -0.0572,0.2427 -0.15733,0.4752 -0.25744,0.7077"
       style="fill:none;stroke:#000000"
       id="path88" />
    <path
       d="m 212.98162,1144.9233 c 0.15501,0.2443 0.31001,0.4886 0.39862,0.7548 0.092,0.2765 0.11246,0.5766 0.13288,0.8766"
       style="fill:none;stroke:#000000"
       id="path89" />
    <path
       d="m 211.46095,1143.9415 c 0.3063,0.1074 0.6126,0.2148 0.87476,0.3894 0.23996,0.1599 0.44293,0.3762 0.64591,0.5924"
       style="fill:none;stroke:#000000"
       id="path90" />
    <path
       d="m 212.57193,1142.9893 c -0.14929,0.1986 -0.29858,0.3973 -0.48259,0.5555 -0.18585,0.1597 -0.40712,0.2782 -0.62839,0.3967"
       style="fill:none;stroke:#000000"
       id="path91" />
    <path
       d="m 212.98162,1141.5941 c -0.0169,0.248 -0.0339,0.4961 -0.10242,0.729 -0.0683,0.2321 -0.18778,0.4491 -0.30727,0.6662"
       style="fill:none;stroke:#000000"
       id="path92" />
    <path
       d="m 212.64944,1140.3281 c 0.0969,0.196 0.19375,0.3919 0.24914,0.5989 0.0574,0.2145 0.0702,0.4408 0.083,0.6671"
       style="fill:none;stroke:#000000"
       id="path93" />
    <path
       d="m 211.81897,1139.4238 c 0.16031,0.1245 0.32062,0.2491 0.45676,0.3959 0.14213,0.1532 0.25792,0.3308 0.37371,0.5084"
       style="fill:none;stroke:#000000"
       id="path94" />
    <path
       d="m 210.68954,1138.9772 c 0.20352,0.044 0.40704,0.089 0.59794,0.1652 0.18507,0.074 0.35828,0.1777 0.53149,0.2814"
       style="fill:none;stroke:#000000"
       id="path95" />
    <path
       d="m 208.77394,1138.8702 c 0.37423,5e-4 0.74846,0 1.12113,0.027 0.26535,0.018 0.52991,0.049 0.79447,0.08"
       style="fill:none;stroke:#000000"
       id="path96" />
    <path
       style="fill:none;stroke:#000000"
       d="m 208.774,1138.87 h -4.326"
       id="path97" />
    <path
       style="fill:none;stroke:#000000"
       d="m 206.633,1140.67 h 1.255"
       id="path98" />
    <path
       d="m 209.75573,1140.7083 c -0.20973,-0.011 -0.41947,-0.021 -0.6293,-0.028 -0.41251,-0.013 -0.82541,-0.011 -1.23831,-0.01"
       style="fill:none;stroke:#000000"
       id="path99" />
    <path
       d="m 210.57882,1141.0884 c -0.1095,-0.095 -0.219,-0.1897 -0.34419,-0.2519 -0.1455,-0.072 -0.3122,-0.1002 -0.4789,-0.1282"
       style="fill:none;stroke:#000000"
       id="path100" />
    <path
       d="m 210.85564,1141.9041 c -0.009,-0.1565 -0.0181,-0.3131 -0.0692,-0.4549 -0.0462,-0.1283 -0.12693,-0.2445 -0.20761,-0.3608"
       style="fill:none;stroke:#000000"
       id="path101" />
    <path
       d="m 210.53453,1142.7494 c 0.0936,-0.1188 0.18723,-0.2376 0.24083,-0.3719 0.0581,-0.1456 0.0692,-0.3095 0.0803,-0.4734"
       style="fill:none;stroke:#000000"
       id="path102" />
    <path
       d="m 209.65239,1143.1369 c 0.17338,-0.029 0.34675,-0.058 0.50105,-0.1301 0.13707,-0.064 0.25908,-0.1605 0.38109,-0.2574"
       style="fill:none;stroke:#000000"
       id="path103" />
    <path
       d="m 208.06528,1143.1738 c 0.34524,0 0.69048,0 1.03531,-0.01 0.18401,-0.01 0.36791,-0.017 0.5518,-0.028"
       style="fill:none;stroke:#000000"
       id="path104" />
    <path
       style="fill:none;stroke:#000000"
       d="m 208.065,1143.17 h -1.432"
       id="path105" />
    <path
       style="fill:none;stroke:#000000"
       d="m 206.633,1143.17 v -2.5"
       id="path106" />
    <path
       style="fill:none;stroke:#000000"
       d="m 206.633,1144.97 h 1.764"
       id="path107" />
    <path
       d="m 210.33521,1145.13 c -0.23535,-0.045 -0.4707,-0.089 -0.70773,-0.1162 -0.40671,-0.047 -0.81836,-0.043 -1.23001,-0.039"
       style="fill:none;stroke:#000000"
       id="path108" />
    <path
       d="m 211.01804,1145.6246 c -0.09,-0.1063 -0.18003,-0.2127 -0.28882,-0.2934 -0.11688,-0.087 -0.25545,-0.144 -0.39401,-0.2012"
       style="fill:none;stroke:#000000"
       id="path109" />
    <path
       d="m 211.25426,1146.4514 c -0.008,-0.1535 -0.016,-0.3071 -0.059,-0.4503 -0.0395,-0.1313 -0.10831,-0.2539 -0.17717,-0.3765"
       style="fill:none;stroke:#000000"
       id="path110" />
    <path
       d="m 210.94791,1147.3704 c 0.0893,-0.1294 0.17852,-0.2588 0.22976,-0.4014 0.058,-0.1613 0.0673,-0.3395 0.0766,-0.5176"
       style="fill:none;stroke:#000000"
       id="path111" />
    <path
       d="m 210.15436,1147.8023 c 0.1538,-0.039 0.3076,-0.078 0.44199,-0.1523 0.12913,-0.071 0.24035,-0.1755 0.35156,-0.2796"
       style="fill:none;stroke:#000000"
       id="path112" />
    <path
       d="m 208.65583,1147.8687 c 0.32216,0 0.64432,0 0.96518,-0.017 0.17805,-0.012 0.3557,-0.031 0.53335,-0.05"
       style="fill:none;stroke:#000000"
       id="path113" />
    <path
       style="fill:none;stroke:#000000"
       d="m 208.656,1147.87 h -2.023"
       id="path114" />
    <path
       style="fill:none;stroke:#000000"
       d="m 206.633,1147.87 v -2.9"
       id="path115" />
    <path
       d="m 222.99146,1141.4169 a 15.118111,15.118111 0 0 0 -30.23622,0 15.118111,15.118111 0 0 0 30.23622,0 z"
       style="fill:none;stroke:#000000"
       id="path116" />
    <path
       d="m 219.21194,1141.4169 a 11.338585,11.338585 0 0 0 -22.67717,0 11.338585,11.338585 0 0 0 22.67717,0 z"
       style="fill:none;stroke:#000000"
       id="path117" />
  </g>
</svg>
