<?xml version="1.0" encoding="UTF-8" standalone="no"?>
<svg
   viewBox="0 0 1152 1152"
   width="12in"
   height="12in"
   version="1.1"
   id="svg8"
   sodipodi:docname="bushing_many.svg"
   inkscape:version="1.3.2 (091e20e, 2023-11-25, custom)"
   xmlns:inkscape="http://www.inkscape.org/namespaces/inkscape"
   xmlns:sodipodi="http://sodipodi.sourceforge.net/DTD/sodipodi-0.dtd"
   xmlns="http://www.w3.org/2000/svg"
   xmlns:svg="http://www.w3.org/2000/svg">
  <sodipodi:namedview
     id="namedview8"
     pagecolor="#ffffff"
     bordercolor="#000000"
     borderopacity="0.25"
     inkscape:showpageshadow="2"
     inkscape:pageopacity="0.0"
     inkscape:pagecheckerboard="0"
     inkscape:deskcolor="#d1d1d1"
     inkscape:zoom="1.6204616"
     inkscape:cx="396.80052"
     inkscape:cy="561.25983"
     inkscape:window-width="3840"
     inkscape:window-height="2054"
     inkscape:window-x="-11"
     inkscape:window-y="-11"
     inkscape:window-maximized="1"
     inkscape:current-layer="g8"
     inkscape:document-units="in" />
  <desc
     id="desc1">bushing_outlines.dxf - scale = 1.000000, origin = (0.000000, 0.000000), method = manual</desc>
  <defs
     id="defs4">
    <marker
       id="DistanceX"
       orient="auto"
       refX="0"
       refY="0"
       style="overflow:visible">
      <path
         d="M 3,-3 -3,3 M 0,-5 V 5"
         style="stroke:#000000;stroke-width:0.5"
         id="path1" />
    </marker>
    <pattern
       id="Hatch"
       patternUnits="userSpaceOnUse"
       width="8"
       height="8"
       x="0"
       y="0">
      <path
         d="M8 4 l-4,4"
         stroke="#000000"
         stroke-width="0.25"
         linecap="square"
         id="path2" />
      <path
         d="M6 2 l-4,4"
         stroke="#000000"
         stroke-width="0.25"
         linecap="square"
         id="path3" />
      <path
         d="M4 0 l-4,4"
         stroke="#000000"
         stroke-width="0.25"
         linecap="square"
         id="path4" />
    </pattern>
    <symbol
       id="*MODEL_SPACE" />
    <symbol
       id="*PAPER_SPACE" />
  </defs>
  <g
     inkscape:groupmode="layer"
     inkscape:label="0"
     id="g8">
    <path
       d="m 104.88363,633.46316 h -5.65817 l -13.58405,13.58405 v 5.65816 l 9.308,9.308 h 5.65817 l 13.58405,-13.58405 v -5.65816 z"
       style="fill:none;stroke:#ff0000"
       id="path7" />
    <path
       d="m 138.73501,635.64507 a 18.897638,18.897638 0 0 0 -26.72529,-26.7253 l -50.91169,50.91169 a 18.897638,18.897638 0 0 0 26.72529,26.7253 z"
       style="fill:none;stroke:#ff0000"
       id="path8" />
    <path
       d="m 95.659415,158.58425 h 5.658165 l 13.58405,-13.58404 v -5.65817 l -9.308,-9.308 h -5.658165 l -13.58405,13.58405 v 5.65816 z"
       style="fill:none;stroke:#ff0000"
       id="path9" />
    <path
       d="m 119.52416,144.30915 a 18.897638,18.897638 0 0 0 -37.795275,0 18.897638,18.897638 0 0 0 37.795275,0 z"
       style="fill:none;stroke:#ff0000"
       id="path10" />
    <path
       d="m 175.65941,158.58425 h 5.65817 l 13.58405,-13.58404 v -5.65817 l -9.308,-9.308 h -5.65817 l -13.58405,13.58405 v 5.65816 z"
       style="fill:none;stroke:#ff0000"
       id="path11" />
    <path
       d="m 199.52416,144.30915 a 18.89764,18.89764 0 0 0 -37.79528,0 18.89764,18.89764 0 0 0 37.79528,0 z"
       style="fill:none;stroke:#ff0000"
       id="path12" />
    <path
       d="m 135.65941,198.58425 h 5.65817 l 13.58405,-13.58404 v -5.65817 l -9.308,-9.308 h -5.65817 l -13.58405,13.58405 v 5.65816 z"
       style="fill:none;stroke:#ff0000"
       id="path13" />
    <path
       d="m 159.52416,184.30915 a 18.89764,18.89764 0 0 0 -37.79528,0 18.89764,18.89764 0 0 0 37.79528,0 z"
       style="fill:none;stroke:#ff0000"
       id="path14" />
    <path
       d="m 135.65941,118.58425 h 5.65817 l 13.58405,-13.58404 v -5.65817 l -9.308,-9.308 h -5.65817 l -13.58405,13.58405 v 5.65816 z"
       style="fill:none;stroke:#ff0000"
       id="path15" />
    <path
       d="m 159.52416,104.30915 a 18.89764,18.89764 0 0 0 -37.79528,0 18.89764,18.89764 0 0 0 37.79528,0 z"
       style="fill:none;stroke:#ff0000"
       id="path16" />
    <path
       d="m 95.65941,238.58425 h 5.65817 l 13.58405,-13.58404 v -5.65817 l -9.308,-9.308 h -5.65817 l -13.58405,13.58405 v 5.65816 z"
       style="fill:none;stroke:#ff0000"
       id="path17" />
    <path
       d="m 119.52416,224.30915 a 18.89764,18.89764 0 0 0 -37.79528,0 18.89764,18.89764 0 0 0 37.79528,0 z"
       style="fill:none;stroke:#ff0000"
       id="path18" />
    <path
       d="m 175.65941,238.58425 h 5.65817 l 13.58405,-13.58404 v -5.65817 l -9.308,-9.308 h -5.65817 l -13.58405,13.58405 v 5.65816 z"
       style="fill:none;stroke:#ff0000"
       id="path19" />
    <path
       d="m 199.52416,224.30915 a 18.89764,18.89764 0 0 0 -37.79528,0 18.89764,18.89764 0 0 0 37.79528,0 z"
       style="fill:none;stroke:#ff0000"
       id="path20" />
    <path
       d="m 135.65941,278.58425 h 5.65817 l 13.58405,-13.58404 v -5.65817 l -9.308,-9.308 h -5.65817 l -13.58405,13.58405 v 5.65816 z"
       style="fill:none;stroke:#ff0000"
       id="path21" />
    <path
       d="m 159.52416,264.30915 a 18.89764,18.89764 0 0 0 -37.79528,0 18.89764,18.89764 0 0 0 37.79528,0 z"
       style="fill:none;stroke:#ff0000"
       id="path22" />
    <path
       d="m 215.65941,198.58425 h 5.65817 l 13.58405,-13.58404 v -5.65817 l -9.308,-9.308 h -5.65817 l -13.58405,13.58405 v 5.65816 z"
       style="fill:none;stroke:#ff0000"
       id="path23" />
    <path
       d="m 239.52416,184.30915 a 18.89764,18.89764 0 0 0 -37.79528,0 18.89764,18.89764 0 0 0 37.79528,0 z"
       style="fill:none;stroke:#ff0000"
       id="path24" />
    <path
       d="m 295.65941,198.58425 h 5.65817 l 13.58405,-13.58404 v -5.65817 l -9.308,-9.308 h -5.65817 l -13.58405,13.58405 v 5.65816 z"
       style="fill:none;stroke:#ff0000"
       id="path25" />
    <path
       d="m 319.52416,184.30915 a 18.89764,18.89764 0 0 0 -37.79528,0 18.89764,18.89764 0 0 0 37.79528,0 z"
       style="fill:none;stroke:#ff0000"
       id="path26" />
    <path
       d="m 255.65941,238.58425 h 5.65817 l 13.58405,-13.58404 v -5.65817 l -9.308,-9.308 h -5.65817 l -13.58405,13.58405 v 5.65816 z"
       style="fill:none;stroke:#ff0000"
       id="path27" />
    <path
       d="m 279.52416,224.30915 a 18.89764,18.89764 0 0 0 -37.79528,0 18.89764,18.89764 0 0 0 37.79528,0 z"
       style="fill:none;stroke:#ff0000"
       id="path28" />
    <path
       d="m 255.65941,158.58425 h 5.65817 l 13.58405,-13.58404 v -5.65817 l -9.308,-9.308 h -5.65817 l -13.58405,13.58405 v 5.65816 z"
       style="fill:none;stroke:#ff0000"
       id="path29" />
    <path
       d="m 279.52416,144.30915 a 18.89764,18.89764 0 0 0 -37.79528,0 18.89764,18.89764 0 0 0 37.79528,0 z"
       style="fill:none;stroke:#ff0000"
       id="path30" />
    <path
       d="m 215.65941,278.58425 h 5.65817 l 13.58405,-13.58404 v -5.65817 l -9.308,-9.308 h -5.65817 l -13.58405,13.58405 v 5.65816 z"
       style="fill:none;stroke:#ff0000"
       id="path31" />
    <path
       d="m 239.52416,264.30915 a 18.89764,18.89764 0 0 0 -37.79528,0 18.89764,18.89764 0 0 0 37.79528,0 z"
       style="fill:none;stroke:#ff0000"
       id="path32" />
    <path
       d="m 295.65941,278.58425 h 5.65817 l 13.58405,-13.58404 v -5.65817 l -9.308,-9.308 h -5.65817 l -13.58405,13.58405 v 5.65816 z"
       style="fill:none;stroke:#ff0000"
       id="path33" />
    <path
       d="m 319.52416,264.30915 a 18.89764,18.89764 0 0 0 -37.79528,0 18.89764,18.89764 0 0 0 37.79528,0 z"
       style="fill:none;stroke:#ff0000"
       id="path34" />
    <path
       d="m 255.65941,318.58425 h 5.65817 l 13.58405,-13.58404 v -5.65817 l -9.308,-9.308 h -5.65817 l -13.58405,13.58405 v 5.65816 z"
       style="fill:none;stroke:#ff0000"
       id="path35" />
    <path
       d="m 279.52416,304.30915 a 18.89764,18.89764 0 0 0 -37.79528,0 18.89764,18.89764 0 0 0 37.79528,0 z"
       style="fill:none;stroke:#ff0000"
       id="path36" />
    <path
       d="m 135.65941,358.58425 h 5.65817 l 13.58405,-13.58404 v -5.65817 l -9.308,-9.308 h -5.65817 l -13.58405,13.58405 v 5.65816 z"
       style="fill:none;stroke:#ff0000"
       id="path37" />
    <path
       d="m 159.52416,344.30915 a 18.89764,18.89764 0 0 0 -37.79528,0 18.89764,18.89764 0 0 0 37.79528,0 z"
       style="fill:none;stroke:#ff0000"
       id="path38" />
    <path
       d="m 215.65941,358.58425 h 5.65817 l 13.58405,-13.58404 v -5.65817 l -9.308,-9.308 h -5.65817 l -13.58405,13.58405 v 5.65816 z"
       style="fill:none;stroke:#ff0000"
       id="path39" />
    <path
       d="m 239.52416,344.30915 a 18.89764,18.89764 0 0 0 -37.79528,0 18.89764,18.89764 0 0 0 37.79528,0 z"
       style="fill:none;stroke:#ff0000"
       id="path40" />
    <path
       d="m 175.65941,398.58425 h 5.65817 l 13.58405,-13.58404 v -5.65817 l -9.308,-9.308 h -5.65817 l -13.58405,13.58405 v 5.65816 z"
       style="fill:none;stroke:#ff0000"
       id="path41" />
    <path
       d="m 199.52416,384.30915 a 18.89764,18.89764 0 0 0 -37.79528,0 18.89764,18.89764 0 0 0 37.79528,0 z"
       style="fill:none;stroke:#ff0000"
       id="path42" />
    <path
       d="m 175.65941,318.58425 h 5.65817 l 13.58405,-13.58404 v -5.65817 l -9.308,-9.308 h -5.65817 l -13.58405,13.58405 v 5.65816 z"
       style="fill:none;stroke:#ff0000"
       id="path43" />
    <path
       d="m 199.52416,304.30915 a 18.89764,18.89764 0 0 0 -37.79528,0 18.89764,18.89764 0 0 0 37.79528,0 z"
       style="fill:none;stroke:#ff0000"
       id="path44" />
    <path
       d="m 135.65941,438.58425 h 5.65817 l 13.58405,-13.58404 v -5.65817 l -9.308,-9.308 h -5.65817 l -13.58405,13.58405 v 5.65816 z"
       style="fill:none;stroke:#ff0000"
       id="path45" />
    <path
       d="m 159.52416,424.30915 a 18.89764,18.89764 0 0 0 -37.79528,0 18.89764,18.89764 0 0 0 37.79528,0 z"
       style="fill:none;stroke:#ff0000"
       id="path46" />
    <path
       d="m 215.65941,438.58425 h 5.65817 l 13.58405,-13.58404 v -5.65817 l -9.308,-9.308 h -5.65817 l -13.58405,13.58405 v 5.65816 z"
       style="fill:none;stroke:#ff0000"
       id="path47" />
    <path
       d="m 239.52416,424.30915 a 18.89764,18.89764 0 0 0 -37.79528,0 18.89764,18.89764 0 0 0 37.79528,0 z"
       style="fill:none;stroke:#ff0000"
       id="path48" />
    <path
       d="m 175.65941,478.58425 h 5.65817 l 13.58405,-13.58404 v -5.65817 l -9.308,-9.308 h -5.65817 l -13.58405,13.58405 v 5.65816 z"
       style="fill:none;stroke:#ff0000"
       id="path49" />
    <path
       d="m 199.52416,464.30915 a 18.89764,18.89764 0 0 0 -37.79528,0 18.89764,18.89764 0 0 0 37.79528,0 z"
       style="fill:none;stroke:#ff0000"
       id="path50" />
    <path
       d="m 255.65941,398.58425 h 5.65817 l 13.58405,-13.58404 v -5.65817 l -9.308,-9.308 h -5.65817 l -13.58405,13.58405 v 5.65816 z"
       style="fill:none;stroke:#ff0000"
       id="path51" />
    <path
       d="m 279.52416,384.30915 a 18.89764,18.89764 0 0 0 -37.79528,0 18.89764,18.89764 0 0 0 37.79528,0 z"
       style="fill:none;stroke:#ff0000"
       id="path52" />
    <path
       d="m 335.65941,398.58425 h 5.65817 l 13.58405,-13.58404 v -5.65817 l -9.308,-9.308 h -5.65817 l -13.58405,13.58405 v 5.65816 z"
       style="fill:none;stroke:#ff0000"
       id="path53" />
    <path
       d="m 359.52416,384.30915 a 18.89764,18.89764 0 0 0 -37.79528,0 18.89764,18.89764 0 0 0 37.79528,0 z"
       style="fill:none;stroke:#ff0000"
       id="path54" />
    <path
       d="m 295.65941,438.58425 h 5.65817 l 13.58405,-13.58404 v -5.65817 l -9.308,-9.308 h -5.65817 l -13.58405,13.58405 v 5.65816 z"
       style="fill:none;stroke:#ff0000"
       id="path55" />
    <path
       d="m 319.52416,424.30915 a 18.89764,18.89764 0 0 0 -37.79528,0 18.89764,18.89764 0 0 0 37.79528,0 z"
       style="fill:none;stroke:#ff0000"
       id="path56" />
    <path
       d="m 295.65941,358.58425 h 5.65817 l 13.58405,-13.58404 v -5.65817 l -9.308,-9.308 h -5.65817 l -13.58405,13.58405 v 5.65816 z"
       style="fill:none;stroke:#ff0000"
       id="path57" />
    <path
       d="m 319.52416,344.30915 a 18.89764,18.89764 0 0 0 -37.79528,0 18.89764,18.89764 0 0 0 37.79528,0 z"
       style="fill:none;stroke:#ff0000"
       id="path58" />
    <path
       d="m 255.65941,478.58425 h 5.65817 l 13.58405,-13.58404 v -5.65817 l -9.308,-9.308 h -5.65817 l -13.58405,13.58405 v 5.65816 z"
       style="fill:none;stroke:#ff0000"
       id="path59" />
    <path
       d="m 279.52416,464.30915 a 18.89764,18.89764 0 0 0 -37.79528,0 18.89764,18.89764 0 0 0 37.79528,0 z"
       style="fill:none;stroke:#ff0000"
       id="path60" />
    <path
       d="m 335.65941,478.58425 h 5.65817 l 13.58405,-13.58404 v -5.65817 l -9.308,-9.308 h -5.65817 l -13.58405,13.58405 v 5.65816 z"
       style="fill:none;stroke:#ff0000"
       id="path61" />
    <path
       d="m 359.52416,464.30915 a 18.89764,18.89764 0 0 0 -37.79528,0 18.89764,18.89764 0 0 0 37.79528,0 z"
       style="fill:none;stroke:#ff0000"
       id="path62" />
    <path
       d="m 295.65941,518.58425 h 5.65817 l 13.58405,-13.58404 v -5.65817 l -9.308,-9.308 h -5.65817 l -13.58405,13.58405 v 5.65816 z"
       style="fill:none;stroke:#ff0000"
       id="path63" />
    <path
       d="m 319.52416,504.30915 a 18.89764,18.89764 0 0 0 -37.79528,0 18.89764,18.89764 0 0 0 37.79528,0 z"
       style="fill:none;stroke:#ff0000"
       id="path64" />
    <path
       d="m 144.88363,673.46316 h -5.65817 l -13.58405,13.58405 v 5.65816 l 9.308,9.308 h 5.65817 l 13.58405,-13.58405 v -5.65816 z"
       style="fill:none;stroke:#ff0000"
       id="path65" />
    <path
       d="m 178.73501,675.64507 a 18.897638,18.897638 0 0 0 -26.72529,-26.7253 l -50.91169,50.91169 a 18.897638,18.897638 0 0 0 26.72529,26.7253 z"
       style="fill:none;stroke:#ff0000"
       id="path66" />
    <path
       d="m 184.88363,713.46316 h -5.65817 l -13.58405,13.58405 v 5.65816 l 9.308,9.308 h 5.65817 l 13.58405,-13.58405 v -5.65816 z"
       style="fill:none;stroke:#ff0000"
       id="path67" />
    <path
       d="m 218.73501,715.64507 a 18.897638,18.897638 0 0 0 -26.72529,-26.7253 l -50.91169,50.91169 a 18.897638,18.897638 0 0 0 26.72529,26.7253 z"
       style="fill:none;stroke:#ff0000"
       id="path68" />
    <path
       d="m 224.88363,753.46316 h -5.65817 l -13.58405,13.58405 v 5.65816 l 9.308,9.308 h 5.65817 l 13.58405,-13.58405 v -5.65816 z"
       style="fill:none;stroke:#ff0000"
       id="path69" />
    <path
       d="m 258.73501,755.64507 a 18.897638,18.897638 0 0 0 -26.72529,-26.7253 l -50.91169,50.91169 a 18.897638,18.897638 0 0 0 26.72529,26.7253 z"
       style="fill:none;stroke:#ff0000"
       id="path70" />
    <path
       d="m 335.65941,158.58425 h 5.65817 l 13.58405,-13.58404 v -5.65817 l -9.308,-9.308 h -5.65817 l -13.58405,13.58405 v 5.65816 z"
       style="fill:none;stroke:#ff0000"
       id="path71" />
    <path
       d="m 359.52416,144.30915 a 18.89764,18.89764 0 0 0 -37.79528,0 18.89764,18.89764 0 0 0 37.79528,0 z"
       style="fill:none;stroke:#ff0000"
       id="path72" />
    <path
       d="m 415.65941,158.58425 h 5.65817 l 13.58405,-13.58404 v -5.65817 l -9.308,-9.308 h -5.65817 l -13.58405,13.58405 v 5.65816 z"
       style="fill:none;stroke:#ff0000"
       id="path73" />
    <path
       d="m 439.52416,144.30915 a 18.89764,18.89764 0 0 0 -37.79528,0 18.89764,18.89764 0 0 0 37.79528,0 z"
       style="fill:none;stroke:#ff0000"
       id="path74" />
    <path
       d="m 375.65941,198.58425 h 5.65817 l 13.58405,-13.58404 v -5.65817 l -9.308,-9.308 h -5.65817 l -13.58405,13.58405 v 5.65816 z"
       style="fill:none;stroke:#ff0000"
       id="path75" />
    <path
       d="m 399.52416,184.30915 a 18.89764,18.89764 0 0 0 -37.79528,0 18.89764,18.89764 0 0 0 37.79528,0 z"
       style="fill:none;stroke:#ff0000"
       id="path76" />
    <path
       d="m 375.65941,118.58425 h 5.65817 l 13.58405,-13.58404 v -5.65817 l -9.308,-9.308 h -5.65817 l -13.58405,13.58405 v 5.65816 z"
       style="fill:none;stroke:#ff0000"
       id="path77" />
    <path
       d="m 399.52416,104.30915 a 18.89764,18.89764 0 0 0 -37.79528,0 18.89764,18.89764 0 0 0 37.79528,0 z"
       style="fill:none;stroke:#ff0000"
       id="path78" />
    <path
       d="m 335.65941,238.58425 h 5.65817 l 13.58405,-13.58404 v -5.65817 l -9.308,-9.308 h -5.65817 l -13.58405,13.58405 v 5.65816 z"
       style="fill:none;stroke:#ff0000"
       id="path79" />
    <path
       d="m 359.52416,224.30915 a 18.89764,18.89764 0 0 0 -37.79528,0 18.89764,18.89764 0 0 0 37.79528,0 z"
       style="fill:none;stroke:#ff0000"
       id="path80" />
    <path
       d="m 415.65941,238.58425 h 5.65817 l 13.58405,-13.58404 v -5.65817 l -9.308,-9.308 h -5.65817 l -13.58405,13.58405 v 5.65816 z"
       style="fill:none;stroke:#ff0000"
       id="path81" />
    <path
       d="m 439.52416,224.30915 a 18.89764,18.89764 0 0 0 -37.79528,0 18.89764,18.89764 0 0 0 37.79528,0 z"
       style="fill:none;stroke:#ff0000"
       id="path82" />
    <path
       d="m 375.65941,278.58425 h 5.65817 l 13.58405,-13.58404 v -5.65817 l -9.308,-9.308 h -5.65817 l -13.58405,13.58405 v 5.65816 z"
       style="fill:none;stroke:#ff0000"
       id="path83" />
    <path
       d="m 399.52416,264.30915 a 18.89764,18.89764 0 0 0 -37.79528,0 18.89764,18.89764 0 0 0 37.79528,0 z"
       style="fill:none;stroke:#ff0000"
       id="path84" />
    <path
       d="m 455.65941,198.58425 h 5.65817 l 13.58405,-13.58404 v -5.65817 l -9.308,-9.308 h -5.65817 l -13.58405,13.58405 v 5.65816 z"
       style="fill:none;stroke:#ff0000"
       id="path85" />
    <path
       d="m 479.52416,184.30915 a 18.89764,18.89764 0 0 0 -37.79528,0 18.89764,18.89764 0 0 0 37.79528,0 z"
       style="fill:none;stroke:#ff0000"
       id="path86" />
    <path
       d="m 535.65941,198.58425 h 5.65817 l 13.58405,-13.58404 v -5.65817 l -9.308,-9.308 h -5.65817 l -13.58405,13.58405 v 5.65816 z"
       style="fill:none;stroke:#ff0000"
       id="path87" />
    <path
       d="m 559.52416,184.30915 a 18.89764,18.89764 0 0 0 -37.79528,0 18.89764,18.89764 0 0 0 37.79528,0 z"
       style="fill:none;stroke:#ff0000"
       id="path88" />
    <path
       d="m 495.65941,238.58425 h 5.65817 l 13.58405,-13.58404 v -5.65817 l -9.308,-9.308 h -5.65817 l -13.58405,13.58405 v 5.65816 z"
       style="fill:none;stroke:#ff0000"
       id="path89" />
    <path
       d="m 519.52416,224.30915 a 18.89764,18.89764 0 0 0 -37.79528,0 18.89764,18.89764 0 0 0 37.79528,0 z"
       style="fill:none;stroke:#ff0000"
       id="path90" />
    <path
       d="m 495.65941,158.58425 h 5.65817 l 13.58405,-13.58404 v -5.65817 l -9.308,-9.308 h -5.65817 l -13.58405,13.58405 v 5.65816 z"
       style="fill:none;stroke:#ff0000"
       id="path91" />
    <path
       d="m 519.52416,144.30915 a 18.89764,18.89764 0 0 0 -37.79528,0 18.89764,18.89764 0 0 0 37.79528,0 z"
       style="fill:none;stroke:#ff0000"
       id="path92" />
    <path
       d="m 455.65941,278.58425 h 5.65817 l 13.58405,-13.58404 v -5.65817 l -9.308,-9.308 h -5.65817 l -13.58405,13.58405 v 5.65816 z"
       style="fill:none;stroke:#ff0000"
       id="path93" />
    <path
       d="m 479.52416,264.30915 a 18.89764,18.89764 0 0 0 -37.79528,0 18.89764,18.89764 0 0 0 37.79528,0 z"
       style="fill:none;stroke:#ff0000"
       id="path94" />
    <path
       d="m 535.65941,278.58425 h 5.65817 l 13.58405,-13.58404 v -5.65817 l -9.308,-9.308 h -5.65817 l -13.58405,13.58405 v 5.65816 z"
       style="fill:none;stroke:#ff0000"
       id="path95" />
    <path
       d="m 559.52416,264.30915 a 18.89764,18.89764 0 0 0 -37.79528,0 18.89764,18.89764 0 0 0 37.79528,0 z"
       style="fill:none;stroke:#ff0000"
       id="path96" />
    <path
       d="m 495.65941,318.58425 h 5.65817 l 13.58405,-13.58404 v -5.65817 l -9.308,-9.308 h -5.65817 l -13.58405,13.58405 v 5.65816 z"
       style="fill:none;stroke:#ff0000"
       id="path97" />
    <path
       d="m 519.52416,304.30915 a 18.89764,18.89764 0 0 0 -37.79528,0 18.89764,18.89764 0 0 0 37.79528,0 z"
       style="fill:none;stroke:#ff0000"
       id="path98" />
    <path
       d="m 375.65941,358.58425 h 5.65817 l 13.58405,-13.58404 v -5.65817 l -9.308,-9.308 h -5.65817 l -13.58405,13.58405 v 5.65816 z"
       style="fill:none;stroke:#ff0000"
       id="path99" />
    <path
       d="m 399.52416,344.30915 a 18.89764,18.89764 0 0 0 -37.79528,0 18.89764,18.89764 0 0 0 37.79528,0 z"
       style="fill:none;stroke:#ff0000"
       id="path100" />
    <path
       d="m 455.65941,358.58425 h 5.65817 l 13.58405,-13.58404 v -5.65817 l -9.308,-9.308 h -5.65817 l -13.58405,13.58405 v 5.65816 z"
       style="fill:none;stroke:#ff0000"
       id="path101" />
    <path
       d="m 479.52416,344.30915 a 18.89764,18.89764 0 0 0 -37.79528,0 18.89764,18.89764 0 0 0 37.79528,0 z"
       style="fill:none;stroke:#ff0000"
       id="path102" />
    <path
       d="m 415.65941,398.58425 h 5.65817 l 13.58405,-13.58404 v -5.65817 l -9.308,-9.308 h -5.65817 l -13.58405,13.58405 v 5.65816 z"
       style="fill:none;stroke:#ff0000"
       id="path103" />
    <path
       d="m 439.52416,384.30915 a 18.89764,18.89764 0 0 0 -37.79528,0 18.89764,18.89764 0 0 0 37.79528,0 z"
       style="fill:none;stroke:#ff0000"
       id="path104" />
    <path
       d="m 415.65941,318.58425 h 5.65817 l 13.58405,-13.58404 v -5.65817 l -9.308,-9.308 h -5.65817 l -13.58405,13.58405 v 5.65816 z"
       style="fill:none;stroke:#ff0000"
       id="path105" />
    <path
       d="m 439.52416,304.30915 a 18.89764,18.89764 0 0 0 -37.79528,0 18.89764,18.89764 0 0 0 37.79528,0 z"
       style="fill:none;stroke:#ff0000"
       id="path106" />
    <path
       d="m 375.65941,438.58425 h 5.65817 l 13.58405,-13.58404 v -5.65817 l -9.308,-9.308 h -5.65817 l -13.58405,13.58405 v 5.65816 z"
       style="fill:none;stroke:#ff0000"
       id="path107" />
    <path
       d="m 399.52416,424.30915 a 18.89764,18.89764 0 0 0 -37.79528,0 18.89764,18.89764 0 0 0 37.79528,0 z"
       style="fill:none;stroke:#ff0000"
       id="path108" />
    <path
       d="m 455.65941,438.58425 h 5.65817 l 13.58405,-13.58404 v -5.65817 l -9.308,-9.308 h -5.65817 l -13.58405,13.58405 v 5.65816 z"
       style="fill:none;stroke:#ff0000"
       id="path109" />
    <path
       d="m 479.52416,424.30915 a 18.89764,18.89764 0 0 0 -37.79528,0 18.89764,18.89764 0 0 0 37.79528,0 z"
       style="fill:none;stroke:#ff0000"
       id="path110" />
    <path
       d="m 415.65941,478.58425 h 5.65817 l 13.58405,-13.58404 v -5.65817 l -9.308,-9.308 h -5.65817 l -13.58405,13.58405 v 5.65816 z"
       style="fill:none;stroke:#ff0000"
       id="path111" />
    <path
       d="m 439.52416,464.30915 a 18.89764,18.89764 0 0 0 -37.79528,0 18.89764,18.89764 0 0 0 37.79528,0 z"
       style="fill:none;stroke:#ff0000"
       id="path112" />
    <path
       d="m 495.65941,398.58425 h 5.65817 l 13.58405,-13.58404 v -5.65817 l -9.308,-9.308 h -5.65817 l -13.58405,13.58405 v 5.65816 z"
       style="fill:none;stroke:#ff0000"
       id="path113" />
    <path
       d="m 519.52416,384.30915 a 18.89764,18.89764 0 0 0 -37.79528,0 18.89764,18.89764 0 0 0 37.79528,0 z"
       style="fill:none;stroke:#ff0000"
       id="path114" />
    <path
       d="m 575.65941,398.58425 h 5.65817 l 13.58405,-13.58404 v -5.65817 l -9.308,-9.308 h -5.65817 l -13.58405,13.58405 v 5.65816 z"
       style="fill:none;stroke:#ff0000"
       id="path115" />
    <path
       d="m 599.52416,384.30915 a 18.89764,18.89764 0 0 0 -37.79528,0 18.89764,18.89764 0 0 0 37.79528,0 z"
       style="fill:none;stroke:#ff0000"
       id="path116" />
    <path
       d="m 535.65941,438.58425 h 5.65817 l 13.58405,-13.58404 v -5.65817 l -9.308,-9.308 h -5.65817 l -13.58405,13.58405 v 5.65816 z"
       style="fill:none;stroke:#ff0000"
       id="path117" />
    <path
       d="m 559.52416,424.30915 a 18.89764,18.89764 0 0 0 -37.79528,0 18.89764,18.89764 0 0 0 37.79528,0 z"
       style="fill:none;stroke:#ff0000"
       id="path118" />
    <path
       d="m 535.65941,358.58425 h 5.65817 l 13.58405,-13.58404 v -5.65817 l -9.308,-9.308 h -5.65817 l -13.58405,13.58405 v 5.65816 z"
       style="fill:none;stroke:#ff0000"
       id="path119" />
    <path
       d="m 559.52416,344.30915 a 18.89764,18.89764 0 0 0 -37.79528,0 18.89764,18.89764 0 0 0 37.79528,0 z"
       style="fill:none;stroke:#ff0000"
       id="path120" />
    <path
       d="m 495.65941,478.58425 h 5.65817 l 13.58405,-13.58404 v -5.65817 l -9.308,-9.308 h -5.65817 l -13.58405,13.58405 v 5.65816 z"
       style="fill:none;stroke:#ff0000"
       id="path121" />
    <path
       d="m 519.52416,464.30915 a 18.89764,18.89764 0 0 0 -37.79528,0 18.89764,18.89764 0 0 0 37.79528,0 z"
       style="fill:none;stroke:#ff0000"
       id="path122" />
    <path
       d="m 575.65941,478.58425 h 5.65817 l 13.58405,-13.58404 v -5.65817 l -9.308,-9.308 h -5.65817 l -13.58405,13.58405 v 5.65816 z"
       style="fill:none;stroke:#ff0000"
       id="path123" />
    <path
       d="m 599.52416,464.30915 a 18.89764,18.89764 0 0 0 -37.79528,0 18.89764,18.89764 0 0 0 37.79528,0 z"
       style="fill:none;stroke:#ff0000"
       id="path124" />
    <path
       d="m 535.65941,518.58425 h 5.65817 l 13.58405,-13.58404 v -5.65817 l -9.308,-9.308 h -5.65817 l -13.58405,13.58405 v 5.65816 z"
       style="fill:none;stroke:#ff0000"
       id="path125" />
    <path
       d="m 559.52416,504.30915 a 18.89764,18.89764 0 0 0 -37.79528,0 18.89764,18.89764 0 0 0 37.79528,0 z"
       style="fill:none;stroke:#ff0000"
       id="path126" />
    <path
       d="m 204.88363,533.46316 h -5.65817 l -13.58405,13.58405 v 5.65816 l 9.308,9.308 h 5.65817 l 13.58405,-13.58405 v -5.65816 z"
       style="fill:none;stroke:#ff0000"
       id="path127" />
    <path
       d="m 238.73501,535.64507 a 18.897638,18.897638 0 0 0 -26.72529,-26.7253 l -50.91169,50.91169 a 18.897638,18.897638 0 0 0 26.72529,26.7253 z"
       style="fill:none;stroke:#ff0000"
       id="path128" />
    <path
       d="m 244.88363,573.46316 h -5.65817 l -13.58405,13.58405 v 5.65816 l 9.308,9.308 h 5.65817 l 13.58405,-13.58405 v -5.65816 z"
       style="fill:none;stroke:#ff0000"
       id="path129" />
    <path
       d="m 278.73501,575.64507 a 18.897638,18.897638 0 0 0 -26.72529,-26.7253 l -50.91169,50.91169 a 18.897638,18.897638 0 0 0 26.72529,26.7253 z"
       style="fill:none;stroke:#ff0000"
       id="path130" />
    <path
       d="m 284.88363,613.46316 h -5.65817 l -13.58405,13.58405 v 5.65816 l 9.308,9.308 h 5.65817 l 13.58405,-13.58405 v -5.65816 z"
       style="fill:none;stroke:#ff0000"
       id="path131" />
    <path
       d="m 318.73501,615.64507 a 18.897638,18.897638 0 0 0 -26.72529,-26.7253 l -50.91169,50.91169 a 18.897638,18.897638 0 0 0 26.72529,26.7253 z"
       style="fill:none;stroke:#ff0000"
       id="path132" />
    <path
       d="m 324.88363,653.46316 h -5.65817 l -13.58405,13.58405 v 5.65816 l 9.308,9.308 h 5.65817 l 13.58405,-13.58405 v -5.65816 z"
       style="fill:none;stroke:#ff0000"
       id="path133" />
    <path
       d="m 358.73501,655.64507 a 18.897638,18.897638 0 0 0 -26.72529,-26.7253 l -50.91169,50.91169 a 18.897638,18.897638 0 0 0 26.72529,26.7253 z"
       style="fill:none;stroke:#ff0000"
       id="path134" />
    <path
       d="m 575.65941,158.58425 h 5.65817 l 13.58405,-13.58404 v -5.65817 l -9.308,-9.308 h -5.65817 l -13.58405,13.58405 v 5.65816 z"
       style="fill:none;stroke:#ff0000"
       id="path135" />
    <path
       d="m 599.52416,144.30915 a 18.89764,18.89764 0 0 0 -37.79528,0 18.89764,18.89764 0 0 0 37.79528,0 z"
       style="fill:none;stroke:#ff0000"
       id="path136" />
    <path
       d="m 655.65941,158.58425 h 5.65817 l 13.58405,-13.58404 v -5.65817 l -9.308,-9.308 h -5.65817 l -13.58405,13.58405 v 5.65816 z"
       style="fill:none;stroke:#ff0000"
       id="path137" />
    <path
       d="m 679.52416,144.30915 a 18.89764,18.89764 0 0 0 -37.79528,0 18.89764,18.89764 0 0 0 37.79528,0 z"
       style="fill:none;stroke:#ff0000"
       id="path138" />
    <path
       d="m 615.65941,198.58425 h 5.65817 l 13.58405,-13.58404 v -5.65817 l -9.308,-9.308 h -5.65817 l -13.58405,13.58405 v 5.65816 z"
       style="fill:none;stroke:#ff0000"
       id="path139" />
    <path
       d="m 639.52416,184.30915 a 18.89764,18.89764 0 0 0 -37.79528,0 18.89764,18.89764 0 0 0 37.79528,0 z"
       style="fill:none;stroke:#ff0000"
       id="path140" />
    <path
       d="m 615.65941,118.58425 h 5.65817 l 13.58405,-13.58404 v -5.65817 l -9.308,-9.308 h -5.65817 l -13.58405,13.58405 v 5.65816 z"
       style="fill:none;stroke:#ff0000"
       id="path141" />
    <path
       d="m 639.52416,104.30915 a 18.89764,18.89764 0 0 0 -37.79528,0 18.89764,18.89764 0 0 0 37.79528,0 z"
       style="fill:none;stroke:#ff0000"
       id="path142" />
    <path
       d="m 575.65941,238.58425 h 5.65817 l 13.58405,-13.58404 v -5.65817 l -9.308,-9.308 h -5.65817 l -13.58405,13.58405 v 5.65816 z"
       style="fill:none;stroke:#ff0000"
       id="path143" />
    <path
       d="m 599.52416,224.30915 a 18.89764,18.89764 0 0 0 -37.79528,0 18.89764,18.89764 0 0 0 37.79528,0 z"
       style="fill:none;stroke:#ff0000"
       id="path144" />
    <path
       d="m 655.65941,238.58425 h 5.65817 l 13.58405,-13.58404 v -5.65817 l -9.308,-9.308 h -5.65817 l -13.58405,13.58405 v 5.65816 z"
       style="fill:none;stroke:#ff0000"
       id="path145" />
    <path
       d="m 679.52416,224.30915 a 18.89764,18.89764 0 0 0 -37.79528,0 18.89764,18.89764 0 0 0 37.79528,0 z"
       style="fill:none;stroke:#ff0000"
       id="path146" />
    <path
       d="m 615.65941,278.58425 h 5.65817 l 13.58405,-13.58404 v -5.65817 l -9.308,-9.308 h -5.65817 l -13.58405,13.58405 v 5.65816 z"
       style="fill:none;stroke:#ff0000"
       id="path147" />
    <path
       d="m 639.52416,264.30915 a 18.89764,18.89764 0 0 0 -37.79528,0 18.89764,18.89764 0 0 0 37.79528,0 z"
       style="fill:none;stroke:#ff0000"
       id="path148" />
    <path
       d="m 695.65941,198.58425 h 5.65817 l 13.58405,-13.58404 v -5.65817 l -9.308,-9.308 h -5.65817 l -13.58405,13.58405 v 5.65816 z"
       style="fill:none;stroke:#ff0000"
       id="path149" />
    <path
       d="m 719.52416,184.30915 a 18.89764,18.89764 0 0 0 -37.79528,0 18.89764,18.89764 0 0 0 37.79528,0 z"
       style="fill:none;stroke:#ff0000"
       id="path150" />
    <path
       d="m 775.65941,198.58425 h 5.65817 l 13.58405,-13.58404 v -5.65817 l -9.308,-9.308 h -5.65817 l -13.58405,13.58405 v 5.65816 z"
       style="fill:none;stroke:#ff0000"
       id="path151" />
    <path
       d="m 799.52416,184.30915 a 18.89764,18.89764 0 0 0 -37.79528,0 18.89764,18.89764 0 0 0 37.79528,0 z"
       style="fill:none;stroke:#ff0000"
       id="path152" />
    <path
       d="m 735.65941,238.58425 h 5.65817 l 13.58405,-13.58404 v -5.65817 l -9.308,-9.308 h -5.65817 l -13.58405,13.58405 v 5.65816 z"
       style="fill:none;stroke:#ff0000"
       id="path153" />
    <path
       d="m 759.52416,224.30915 a 18.89764,18.89764 0 0 0 -37.79528,0 18.89764,18.89764 0 0 0 37.79528,0 z"
       style="fill:none;stroke:#ff0000"
       id="path154" />
    <path
       d="m 735.65941,158.58425 h 5.65817 l 13.58405,-13.58404 v -5.65817 l -9.308,-9.308 h -5.65817 l -13.58405,13.58405 v 5.65816 z"
       style="fill:none;stroke:#ff0000"
       id="path155" />
    <path
       d="m 759.52416,144.30915 a 18.89764,18.89764 0 0 0 -37.79528,0 18.89764,18.89764 0 0 0 37.79528,0 z"
       style="fill:none;stroke:#ff0000"
       id="path156" />
    <path
       d="m 695.65941,278.58425 h 5.65817 l 13.58405,-13.58404 v -5.65817 l -9.308,-9.308 h -5.65817 l -13.58405,13.58405 v 5.65816 z"
       style="fill:none;stroke:#ff0000"
       id="path157" />
    <path
       d="m 719.52416,264.30915 a 18.89764,18.89764 0 0 0 -37.79528,0 18.89764,18.89764 0 0 0 37.79528,0 z"
       style="fill:none;stroke:#ff0000"
       id="path158" />
    <path
       d="m 775.65941,278.58425 h 5.65817 l 13.58405,-13.58404 v -5.65817 l -9.308,-9.308 h -5.65817 l -13.58405,13.58405 v 5.65816 z"
       style="fill:none;stroke:#ff0000"
       id="path159" />
    <path
       d="m 799.52416,264.30915 a 18.89764,18.89764 0 0 0 -37.79528,0 18.89764,18.89764 0 0 0 37.79528,0 z"
       style="fill:none;stroke:#ff0000"
       id="path160" />
    <path
       d="m 735.65941,318.58425 h 5.65817 l 13.58405,-13.58404 v -5.65817 l -9.308,-9.308 h -5.65817 l -13.58405,13.58405 v 5.65816 z"
       style="fill:none;stroke:#ff0000"
       id="path161" />
    <path
       d="m 759.52416,304.30915 a 18.89764,18.89764 0 0 0 -37.79528,0 18.89764,18.89764 0 0 0 37.79528,0 z"
       style="fill:none;stroke:#ff0000"
       id="path162" />
    <path
       d="m 615.65941,358.58425 h 5.65817 l 13.58405,-13.58404 v -5.65817 l -9.308,-9.308 h -5.65817 l -13.58405,13.58405 v 5.65816 z"
       style="fill:none;stroke:#ff0000"
       id="path163" />
    <path
       d="m 639.52416,344.30915 a 18.89764,18.89764 0 0 0 -37.79528,0 18.89764,18.89764 0 0 0 37.79528,0 z"
       style="fill:none;stroke:#ff0000"
       id="path164" />
    <path
       d="m 695.65941,358.58425 h 5.65817 l 13.58405,-13.58404 v -5.65817 l -9.308,-9.308 h -5.65817 l -13.58405,13.58405 v 5.65816 z"
       style="fill:none;stroke:#ff0000"
       id="path165" />
    <path
       d="m 719.52416,344.30915 a 18.89764,18.89764 0 0 0 -37.79528,0 18.89764,18.89764 0 0 0 37.79528,0 z"
       style="fill:none;stroke:#ff0000"
       id="path166" />
    <path
       d="m 655.65941,398.58425 h 5.65817 l 13.58405,-13.58404 v -5.65817 l -9.308,-9.308 h -5.65817 l -13.58405,13.58405 v 5.65816 z"
       style="fill:none;stroke:#ff0000"
       id="path167" />
    <path
       d="m 679.52416,384.30915 a 18.89764,18.89764 0 0 0 -37.79528,0 18.89764,18.89764 0 0 0 37.79528,0 z"
       style="fill:none;stroke:#ff0000"
       id="path168" />
    <path
       d="m 655.65941,318.58425 h 5.65817 l 13.58405,-13.58404 v -5.65817 l -9.308,-9.308 h -5.65817 l -13.58405,13.58405 v 5.65816 z"
       style="fill:none;stroke:#ff0000"
       id="path169" />
    <path
       d="m 679.52416,304.30915 a 18.89764,18.89764 0 0 0 -37.79528,0 18.89764,18.89764 0 0 0 37.79528,0 z"
       style="fill:none;stroke:#ff0000"
       id="path170" />
    <path
       d="m 615.65941,438.58425 h 5.65817 l 13.58405,-13.58404 v -5.65817 l -9.308,-9.308 h -5.65817 l -13.58405,13.58405 v 5.65816 z"
       style="fill:none;stroke:#ff0000"
       id="path171" />
    <path
       d="m 639.52416,424.30915 a 18.89764,18.89764 0 0 0 -37.79528,0 18.89764,18.89764 0 0 0 37.79528,0 z"
       style="fill:none;stroke:#ff0000"
       id="path172" />
    <path
       d="m 695.65941,438.58425 h 5.65817 l 13.58405,-13.58404 v -5.65817 l -9.308,-9.308 h -5.65817 l -13.58405,13.58405 v 5.65816 z"
       style="fill:none;stroke:#ff0000"
       id="path173" />
    <path
       d="m 719.52416,424.30915 a 18.89764,18.89764 0 0 0 -37.79528,0 18.89764,18.89764 0 0 0 37.79528,0 z"
       style="fill:none;stroke:#ff0000"
       id="path174" />
    <path
       d="m 655.65941,478.58425 h 5.65817 l 13.58405,-13.58404 v -5.65817 l -9.308,-9.308 h -5.65817 l -13.58405,13.58405 v 5.65816 z"
       style="fill:none;stroke:#ff0000"
       id="path175" />
    <path
       d="m 679.52416,464.30915 a 18.89764,18.89764 0 0 0 -37.79528,0 18.89764,18.89764 0 0 0 37.79528,0 z"
       style="fill:none;stroke:#ff0000"
       id="path176" />
    <path
       d="m 735.65941,398.58425 h 5.65817 l 13.58405,-13.58404 v -5.65817 l -9.308,-9.308 h -5.65817 l -13.58405,13.58405 v 5.65816 z"
       style="fill:none;stroke:#ff0000"
       id="path177" />
    <path
       d="m 759.52416,384.30915 a 18.89764,18.89764 0 0 0 -37.79528,0 18.89764,18.89764 0 0 0 37.79528,0 z"
       style="fill:none;stroke:#ff0000"
       id="path178" />
    <path
       d="m 815.65941,398.58425 h 5.65817 l 13.58405,-13.58404 v -5.65817 l -9.308,-9.308 h -5.65817 l -13.58405,13.58405 v 5.65816 z"
       style="fill:none;stroke:#ff0000"
       id="path179" />
    <path
       d="m 839.52416,384.30915 a 18.89764,18.89764 0 0 0 -37.79528,0 18.89764,18.89764 0 0 0 37.79528,0 z"
       style="fill:none;stroke:#ff0000"
       id="path180" />
    <path
       d="m 775.65941,438.58425 h 5.65817 l 13.58405,-13.58404 v -5.65817 l -9.308,-9.308 h -5.65817 l -13.58405,13.58405 v 5.65816 z"
       style="fill:none;stroke:#ff0000"
       id="path181" />
    <path
       d="m 799.52416,424.30915 a 18.89764,18.89764 0 0 0 -37.79528,0 18.89764,18.89764 0 0 0 37.79528,0 z"
       style="fill:none;stroke:#ff0000"
       id="path182" />
    <path
       d="m 775.65941,358.58425 h 5.65817 l 13.58405,-13.58404 v -5.65817 l -9.308,-9.308 h -5.65817 l -13.58405,13.58405 v 5.65816 z"
       style="fill:none;stroke:#ff0000"
       id="path183" />
    <path
       d="m 799.52416,344.30915 a 18.89764,18.89764 0 0 0 -37.79528,0 18.89764,18.89764 0 0 0 37.79528,0 z"
       style="fill:none;stroke:#ff0000"
       id="path184" />
    <path
       d="m 735.65941,478.58425 h 5.65817 l 13.58405,-13.58404 v -5.65817 l -9.308,-9.308 h -5.65817 l -13.58405,13.58405 v 5.65816 z"
       style="fill:none;stroke:#ff0000"
       id="path185" />
    <path
       d="m 759.52416,464.30915 a 18.89764,18.89764 0 0 0 -37.79528,0 18.89764,18.89764 0 0 0 37.79528,0 z"
       style="fill:none;stroke:#ff0000"
       id="path186" />
    <path
       d="m 815.65941,478.58425 h 5.65817 l 13.58405,-13.58404 v -5.65817 l -9.308,-9.308 h -5.65817 l -13.58405,13.58405 v 5.65816 z"
       style="fill:none;stroke:#ff0000"
       id="path187" />
    <path
       d="m 839.52416,464.30915 a 18.89764,18.89764 0 0 0 -37.79528,0 18.89764,18.89764 0 0 0 37.79528,0 z"
       style="fill:none;stroke:#ff0000"
       id="path188" />
    <path
       d="m 775.65941,518.58425 h 5.65817 l 13.58405,-13.58404 v -5.65817 l -9.308,-9.308 h -5.65817 l -13.58405,13.58405 v 5.65816 z"
       style="fill:none;stroke:#ff0000"
       id="path189" />
    <path
       d="m 799.52416,504.30915 a 18.89764,18.89764 0 0 0 -37.79528,0 18.89764,18.89764 0 0 0 37.79528,0 z"
       style="fill:none;stroke:#ff0000"
       id="path190" />
    <path
       d="m 815.65941,158.58425 h 5.65817 l 13.58405,-13.58404 v -5.65817 l -9.308,-9.308 h -5.65817 l -13.58405,13.58405 v 5.65816 z"
       style="fill:none;stroke:#ff0000"
       id="path191" />
    <path
       d="m 839.52416,144.30915 a 18.89764,18.89764 0 0 0 -37.79528,0 18.89764,18.89764 0 0 0 37.79528,0 z"
       style="fill:none;stroke:#ff0000"
       id="path192" />
    <path
       d="m 895.65941,158.58425 h 5.65817 l 13.58405,-13.58404 v -5.65817 l -9.308,-9.308 h -5.65817 l -13.58405,13.58405 v 5.65816 z"
       style="fill:none;stroke:#ff0000"
       id="path193" />
    <path
       d="m 919.52416,144.30915 a 18.89764,18.89764 0 0 0 -37.79528,0 18.89764,18.89764 0 0 0 37.79528,0 z"
       style="fill:none;stroke:#ff0000"
       id="path194" />
    <path
       d="m 855.65941,198.58425 h 5.65817 l 13.58405,-13.58404 v -5.65817 l -9.308,-9.308 h -5.65817 l -13.58405,13.58405 v 5.65816 z"
       style="fill:none;stroke:#ff0000"
       id="path195" />
    <path
       d="m 879.52416,184.30915 a 18.89764,18.89764 0 0 0 -37.79528,0 18.89764,18.89764 0 0 0 37.79528,0 z"
       style="fill:none;stroke:#ff0000"
       id="path196" />
    <path
       d="m 855.65941,118.58425 h 5.65817 l 13.58405,-13.58404 v -5.65817 l -9.308,-9.308 h -5.65817 l -13.58405,13.58405 v 5.65816 z"
       style="fill:none;stroke:#ff0000"
       id="path197" />
    <path
       d="m 879.52416,104.30915 a 18.89764,18.89764 0 0 0 -37.79528,0 18.89764,18.89764 0 0 0 37.79528,0 z"
       style="fill:none;stroke:#ff0000"
       id="path198" />
    <path
       d="m 815.65941,238.58425 h 5.65817 l 13.58405,-13.58404 v -5.65817 l -9.308,-9.308 h -5.65817 l -13.58405,13.58405 v 5.65816 z"
       style="fill:none;stroke:#ff0000"
       id="path199" />
    <path
       d="m 839.52416,224.30915 a 18.89764,18.89764 0 0 0 -37.79528,0 18.89764,18.89764 0 0 0 37.79528,0 z"
       style="fill:none;stroke:#ff0000"
       id="path200" />
    <path
       d="m 895.65941,238.58425 h 5.65817 l 13.58405,-13.58404 v -5.65817 l -9.308,-9.308 h -5.65817 l -13.58405,13.58405 v 5.65816 z"
       style="fill:none;stroke:#ff0000"
       id="path201" />
    <path
       d="m 919.52416,224.30915 a 18.89764,18.89764 0 0 0 -37.79528,0 18.89764,18.89764 0 0 0 37.79528,0 z"
       style="fill:none;stroke:#ff0000"
       id="path202" />
    <path
       d="m 855.65941,278.58425 h 5.65817 l 13.58405,-13.58404 v -5.65817 l -9.308,-9.308 h -5.65817 l -13.58405,13.58405 v 5.65816 z"
       style="fill:none;stroke:#ff0000"
       id="path203" />
    <path
       d="m 879.52416,264.30915 a 18.89764,18.89764 0 0 0 -37.79528,0 18.89764,18.89764 0 0 0 37.79528,0 z"
       style="fill:none;stroke:#ff0000"
       id="path204" />
    <path
       d="m 935.65941,198.58425 h 5.65817 l 13.58405,-13.58404 v -5.65817 l -9.308,-9.308 h -5.65817 l -13.58405,13.58405 v 5.65816 z"
       style="fill:none;stroke:#ff0000"
       id="path205" />
    <path
       d="m 959.52416,184.30915 a 18.89764,18.89764 0 0 0 -37.79528,0 18.89764,18.89764 0 0 0 37.79528,0 z"
       style="fill:none;stroke:#ff0000"
       id="path206" />
    <path
       d="m 1015.6594,198.58425 h 5.6582 l 13.584,-13.58404 v -5.65817 l -9.308,-9.308 h -5.6581 l -13.5841,13.58405 v 5.65816 z"
       style="fill:none;stroke:#ff0000"
       id="path207" />
    <path
       d="m 1039.5242,184.30915 a 18.89766,18.89766 0 0 0 -37.7953,0 18.89766,18.89766 0 0 0 37.7953,0 z"
       style="fill:none;stroke:#ff0000"
       id="path208" />
    <path
       d="m 975.6594,238.58425 h 5.6582 l 13.584,-13.58404 v -5.65817 l -9.308,-9.308 h -5.6581 l -13.5841,13.58405 v 5.65816 z"
       style="fill:none;stroke:#ff0000"
       id="path209" />
    <path
       d="m 999.5242,224.30915 a 18.89766,18.89766 0 0 0 -37.7953,0 18.89766,18.89766 0 0 0 37.7953,0 z"
       style="fill:none;stroke:#ff0000"
       id="path210" />
    <path
       d="m 975.6594,158.58425 h 5.6582 l 13.584,-13.58404 v -5.65817 l -9.308,-9.308 h -5.6581 l -13.5841,13.58405 v 5.65816 z"
       style="fill:none;stroke:#ff0000"
       id="path211" />
    <path
       d="m 999.5242,144.30915 a 18.89766,18.89766 0 0 0 -37.7953,0 18.89766,18.89766 0 0 0 37.7953,0 z"
       style="fill:none;stroke:#ff0000"
       id="path212" />
    <path
       d="m 935.65941,278.58425 h 5.65817 l 13.58405,-13.58404 v -5.65817 l -9.308,-9.308 h -5.65817 l -13.58405,13.58405 v 5.65816 z"
       style="fill:none;stroke:#ff0000"
       id="path213" />
    <path
       d="m 959.52416,264.30915 a 18.89764,18.89764 0 0 0 -37.79528,0 18.89764,18.89764 0 0 0 37.79528,0 z"
       style="fill:none;stroke:#ff0000"
       id="path214" />
    <path
       d="m 1015.6594,278.58425 h 5.6582 l 13.584,-13.58404 v -5.65817 l -9.308,-9.308 h -5.6581 l -13.5841,13.58405 v 5.65816 z"
       style="fill:none;stroke:#ff0000"
       id="path215" />
    <path
       d="m 1039.5242,264.30915 a 18.89766,18.89766 0 0 0 -37.7953,0 18.89766,18.89766 0 0 0 37.7953,0 z"
       style="fill:none;stroke:#ff0000"
       id="path216" />
    <path
       d="m 975.6594,318.58425 h 5.6582 l 13.584,-13.58404 v -5.65817 l -9.308,-9.308 h -5.6581 l -13.5841,13.58405 v 5.65816 z"
       style="fill:none;stroke:#ff0000"
       id="path217" />
    <path
       d="m 999.5242,304.30915 a 18.89766,18.89766 0 0 0 -37.7953,0 18.89766,18.89766 0 0 0 37.7953,0 z"
       style="fill:none;stroke:#ff0000"
       id="path218" />
    <path
       d="m 855.65941,358.58425 h 5.65817 l 13.58405,-13.58404 v -5.65817 l -9.308,-9.308 h -5.65817 l -13.58405,13.58405 v 5.65816 z"
       style="fill:none;stroke:#ff0000"
       id="path219" />
    <path
       d="m 879.52416,344.30915 a 18.89764,18.89764 0 0 0 -37.79528,0 18.89764,18.89764 0 0 0 37.79528,0 z"
       style="fill:none;stroke:#ff0000"
       id="path220" />
    <path
       d="m 935.65941,358.58425 h 5.65817 l 13.58405,-13.58404 v -5.65817 l -9.308,-9.308 h -5.65817 l -13.58405,13.58405 v 5.65816 z"
       style="fill:none;stroke:#ff0000"
       id="path221" />
    <path
       d="m 959.52416,344.30915 a 18.89764,18.89764 0 0 0 -37.79528,0 18.89764,18.89764 0 0 0 37.79528,0 z"
       style="fill:none;stroke:#ff0000"
       id="path222" />
    <path
       d="m 895.65941,398.58425 h 5.65817 l 13.58405,-13.58404 v -5.65817 l -9.308,-9.308 h -5.65817 l -13.58405,13.58405 v 5.65816 z"
       style="fill:none;stroke:#ff0000"
       id="path223" />
    <path
       d="m 919.52416,384.30915 a 18.89764,18.89764 0 0 0 -37.79528,0 18.89764,18.89764 0 0 0 37.79528,0 z"
       style="fill:none;stroke:#ff0000"
       id="path224" />
    <path
       d="m 895.65941,318.58425 h 5.65817 l 13.58405,-13.58404 v -5.65817 l -9.308,-9.308 h -5.65817 l -13.58405,13.58405 v 5.65816 z"
       style="fill:none;stroke:#ff0000"
       id="path225" />
    <path
       d="m 919.52416,304.30915 a 18.89764,18.89764 0 0 0 -37.79528,0 18.89764,18.89764 0 0 0 37.79528,0 z"
       style="fill:none;stroke:#ff0000"
       id="path226" />
    <path
       d="m 855.65941,438.58425 h 5.65817 l 13.58405,-13.58404 v -5.65817 l -9.308,-9.308 h -5.65817 l -13.58405,13.58405 v 5.65816 z"
       style="fill:none;stroke:#ff0000"
       id="path227" />
    <path
       d="m 879.52416,424.30915 a 18.89764,18.89764 0 0 0 -37.79528,0 18.89764,18.89764 0 0 0 37.79528,0 z"
       style="fill:none;stroke:#ff0000"
       id="path228" />
    <path
       d="m 935.65941,438.58425 h 5.65817 l 13.58405,-13.58404 v -5.65817 l -9.308,-9.308 h -5.65817 l -13.58405,13.58405 v 5.65816 z"
       style="fill:none;stroke:#ff0000"
       id="path229" />
    <path
       d="m 959.52416,424.30915 a 18.89764,18.89764 0 0 0 -37.79528,0 18.89764,18.89764 0 0 0 37.79528,0 z"
       style="fill:none;stroke:#ff0000"
       id="path230" />
    <path
       d="m 895.65941,478.58425 h 5.65817 l 13.58405,-13.58404 v -5.65817 l -9.308,-9.308 h -5.65817 l -13.58405,13.58405 v 5.65816 z"
       style="fill:none;stroke:#ff0000"
       id="path231" />
    <path
       d="m 919.52416,464.30915 a 18.89764,18.89764 0 0 0 -37.79528,0 18.89764,18.89764 0 0 0 37.79528,0 z"
       style="fill:none;stroke:#ff0000"
       id="path232" />
    <path
       d="m 975.6594,398.58425 h 5.6582 l 13.584,-13.58404 v -5.65817 l -9.308,-9.308 h -5.6581 l -13.5841,13.58405 v 5.65816 z"
       style="fill:none;stroke:#ff0000"
       id="path233" />
    <path
       d="m 999.5242,384.30915 a 18.89766,18.89766 0 0 0 -37.7953,0 18.89766,18.89766 0 0 0 37.7953,0 z"
       style="fill:none;stroke:#ff0000"
       id="path234" />
    <path
       d="m 1055.6594,398.58425 h 5.6582 l 13.584,-13.58404 v -5.65817 l -9.308,-9.308 h -5.6581 l -13.5841,13.58405 v 5.65816 z"
       style="fill:none;stroke:#ff0000"
       id="path235" />
    <path
       d="m 1079.5242,384.30915 a 18.89766,18.89766 0 0 0 -37.7953,0 18.89766,18.89766 0 0 0 37.7953,0 z"
       style="fill:none;stroke:#ff0000"
       id="path236" />
    <path
       d="m 1015.6594,438.58425 h 5.6582 l 13.584,-13.58404 v -5.65817 l -9.308,-9.308 h -5.6581 l -13.5841,13.58405 v 5.65816 z"
       style="fill:none;stroke:#ff0000"
       id="path237" />
    <path
       d="m 1039.5242,424.30915 a 18.89766,18.89766 0 0 0 -37.7953,0 18.89766,18.89766 0 0 0 37.7953,0 z"
       style="fill:none;stroke:#ff0000"
       id="path238" />
    <path
       d="m 1015.6594,358.58425 h 5.6582 l 13.584,-13.58404 v -5.65817 l -9.308,-9.308 h -5.6581 l -13.5841,13.58405 v 5.65816 z"
       style="fill:none;stroke:#ff0000"
       id="path239" />
    <path
       d="m 1039.5242,344.30915 a 18.89766,18.89766 0 0 0 -37.7953,0 18.89766,18.89766 0 0 0 37.7953,0 z"
       style="fill:none;stroke:#ff0000"
       id="path240" />
    <path
       d="m 975.6594,478.58425 h 5.6582 l 13.584,-13.58404 v -5.65817 l -9.308,-9.308 h -5.6581 l -13.5841,13.58405 v 5.65816 z"
       style="fill:none;stroke:#ff0000"
       id="path241" />
    <path
       d="m 999.5242,464.30915 a 18.89766,18.89766 0 0 0 -37.7953,0 18.89766,18.89766 0 0 0 37.7953,0 z"
       style="fill:none;stroke:#ff0000"
       id="path242" />
    <path
       d="m 1055.6594,478.58425 h 5.6582 l 13.584,-13.58404 v -5.65817 l -9.308,-9.308 h -5.6581 l -13.5841,13.58405 v 5.65816 z"
       style="fill:none;stroke:#ff0000"
       id="path243" />
    <path
       d="m 1079.5242,464.30915 a 18.89766,18.89766 0 0 0 -37.7953,0 18.89766,18.89766 0 0 0 37.7953,0 z"
       style="fill:none;stroke:#ff0000"
       id="path244" />
    <path
       d="m 1015.6594,518.58425 h 5.6582 l 13.584,-13.58404 v -5.65817 l -9.308,-9.308 h -5.6581 l -13.5841,13.58405 v 5.65816 z"
       style="fill:none;stroke:#ff0000"
       id="path245" />
    <path
       d="m 1039.5242,504.30915 a 18.89766,18.89766 0 0 0 -37.7953,0 18.89766,18.89766 0 0 0 37.7953,0 z"
       style="fill:none;stroke:#ff0000"
       id="path246" />
    <path
       d="m 575.65941,578.58425 h 5.65817 l 13.58405,-13.58404 v -5.65817 l -9.308,-9.308 h -5.65817 l -13.58405,13.58405 v 5.65816 z"
       style="fill:none;stroke:#ff0000"
       id="path247" />
    <path
       d="m 599.52416,564.30915 a 18.89764,18.89764 0 0 0 -37.79528,0 18.89764,18.89764 0 0 0 37.79528,0 z"
       style="fill:none;stroke:#ff0000"
       id="path248" />
    <path
       d="m 655.65941,578.58425 h 5.65817 l 13.58405,-13.58404 v -5.65817 l -9.308,-9.308 h -5.65817 l -13.58405,13.58405 v 5.65816 z"
       style="fill:none;stroke:#ff0000"
       id="path249" />
    <path
       d="m 679.52416,564.30915 a 18.89764,18.89764 0 0 0 -37.79528,0 18.89764,18.89764 0 0 0 37.79528,0 z"
       style="fill:none;stroke:#ff0000"
       id="path250" />
    <path
       d="m 615.65941,618.58425 h 5.65817 l 13.58405,-13.58404 v -5.65817 l -9.308,-9.308 h -5.65817 l -13.58405,13.58405 v 5.65816 z"
       style="fill:none;stroke:#ff0000"
       id="path251" />
    <path
       d="m 639.52416,604.30915 a 18.89764,18.89764 0 0 0 -37.79528,0 18.89764,18.89764 0 0 0 37.79528,0 z"
       style="fill:none;stroke:#ff0000"
       id="path252" />
    <path
       d="m 615.65941,538.58425 h 5.65817 l 13.58405,-13.58404 v -5.65817 l -9.308,-9.308 h -5.65817 l -13.58405,13.58405 v 5.65816 z"
       style="fill:none;stroke:#ff0000"
       id="path253" />
    <path
       d="m 639.52416,524.30915 a 18.89764,18.89764 0 0 0 -37.79528,0 18.89764,18.89764 0 0 0 37.79528,0 z"
       style="fill:none;stroke:#ff0000"
       id="path254" />
    <path
       d="m 575.65941,658.58425 h 5.65817 l 13.58405,-13.58404 v -5.65817 l -9.308,-9.308 h -5.65817 l -13.58405,13.58405 v 5.65816 z"
       style="fill:none;stroke:#ff0000"
       id="path255" />
    <path
       d="m 599.52416,644.30915 a 18.89764,18.89764 0 0 0 -37.79528,0 18.89764,18.89764 0 0 0 37.79528,0 z"
       style="fill:none;stroke:#ff0000"
       id="path256" />
    <path
       d="m 655.65941,658.58425 h 5.65817 l 13.58405,-13.58404 v -5.65817 l -9.308,-9.308 h -5.65817 l -13.58405,13.58405 v 5.65816 z"
       style="fill:none;stroke:#ff0000"
       id="path257" />
    <path
       d="m 679.52416,644.30915 a 18.89764,18.89764 0 0 0 -37.79528,0 18.89764,18.89764 0 0 0 37.79528,0 z"
       style="fill:none;stroke:#ff0000"
       id="path258" />
    <path
       d="m 615.65941,698.58425 h 5.65817 l 13.58405,-13.58404 v -5.65817 l -9.308,-9.308 h -5.65817 l -13.58405,13.58405 v 5.65816 z"
       style="fill:none;stroke:#ff0000"
       id="path259" />
    <path
       d="m 639.52416,684.30915 a 18.89764,18.89764 0 0 0 -37.79528,0 18.89764,18.89764 0 0 0 37.79528,0 z"
       style="fill:none;stroke:#ff0000"
       id="path260" />
    <path
       d="m 695.65941,618.58425 h 5.65817 l 13.58405,-13.58404 v -5.65817 l -9.308,-9.308 h -5.65817 l -13.58405,13.58405 v 5.65816 z"
       style="fill:none;stroke:#ff0000"
       id="path261" />
    <path
       d="m 719.52416,604.30915 a 18.89764,18.89764 0 0 0 -37.79528,0 18.89764,18.89764 0 0 0 37.79528,0 z"
       style="fill:none;stroke:#ff0000"
       id="path262" />
    <path
       d="m 775.65941,618.58425 h 5.65817 l 13.58405,-13.58404 v -5.65817 l -9.308,-9.308 h -5.65817 l -13.58405,13.58405 v 5.65816 z"
       style="fill:none;stroke:#ff0000"
       id="path263" />
    <path
       d="m 799.52416,604.30915 a 18.89764,18.89764 0 0 0 -37.79528,0 18.89764,18.89764 0 0 0 37.79528,0 z"
       style="fill:none;stroke:#ff0000"
       id="path264" />
    <path
       d="m 735.65941,658.58425 h 5.65817 l 13.58405,-13.58404 v -5.65817 l -9.308,-9.308 h -5.65817 l -13.58405,13.58405 v 5.65816 z"
       style="fill:none;stroke:#ff0000"
       id="path265" />
    <path
       d="m 759.52416,644.30915 a 18.89764,18.89764 0 0 0 -37.79528,0 18.89764,18.89764 0 0 0 37.79528,0 z"
       style="fill:none;stroke:#ff0000"
       id="path266" />
    <path
       d="m 735.65941,578.58425 h 5.65817 l 13.58405,-13.58404 v -5.65817 l -9.308,-9.308 h -5.65817 l -13.58405,13.58405 v 5.65816 z"
       style="fill:none;stroke:#ff0000"
       id="path267" />
    <path
       d="m 759.52416,564.30915 a 18.89764,18.89764 0 0 0 -37.79528,0 18.89764,18.89764 0 0 0 37.79528,0 z"
       style="fill:none;stroke:#ff0000"
       id="path268" />
    <path
       d="m 695.65941,698.58425 h 5.65817 l 13.58405,-13.58404 v -5.65817 l -9.308,-9.308 h -5.65817 l -13.58405,13.58405 v 5.65816 z"
       style="fill:none;stroke:#ff0000"
       id="path269" />
    <path
       d="m 719.52416,684.30915 a 18.89764,18.89764 0 0 0 -37.79528,0 18.89764,18.89764 0 0 0 37.79528,0 z"
       style="fill:none;stroke:#ff0000"
       id="path270" />
    <path
       d="m 775.65941,698.58425 h 5.65817 l 13.58405,-13.58404 v -5.65817 l -9.308,-9.308 h -5.65817 l -13.58405,13.58405 v 5.65816 z"
       style="fill:none;stroke:#ff0000"
       id="path271" />
    <path
       d="m 799.52416,684.30915 a 18.89764,18.89764 0 0 0 -37.79528,0 18.89764,18.89764 0 0 0 37.79528,0 z"
       style="fill:none;stroke:#ff0000"
       id="path272" />
    <path
       d="m 735.65941,738.58425 h 5.65817 l 13.58405,-13.58404 v -5.65817 l -9.308,-9.308 h -5.65817 l -13.58405,13.58405 v 5.65816 z"
       style="fill:none;stroke:#ff0000"
       id="path273" />
    <path
       d="m 759.52416,724.30915 a 18.89764,18.89764 0 0 0 -37.79528,0 18.89764,18.89764 0 0 0 37.79528,0 z"
       style="fill:none;stroke:#ff0000"
       id="path274" />
    <path
       d="m 615.65941,778.58425 h 5.65817 l 13.58405,-13.58404 v -5.65817 l -9.308,-9.308 h -5.65817 l -13.58405,13.58405 v 5.65816 z"
       style="fill:none;stroke:#ff0000"
       id="path275" />
    <path
       d="m 639.52416,764.30915 a 18.89764,18.89764 0 0 0 -37.79528,0 18.89764,18.89764 0 0 0 37.79528,0 z"
       style="fill:none;stroke:#ff0000"
       id="path276" />
    <path
       d="m 695.65941,778.58425 h 5.65817 l 13.58405,-13.58404 v -5.65817 l -9.308,-9.308 h -5.65817 l -13.58405,13.58405 v 5.65816 z"
       style="fill:none;stroke:#ff0000"
       id="path277" />
    <path
       d="m 719.52416,764.30915 a 18.89764,18.89764 0 0 0 -37.79528,0 18.89764,18.89764 0 0 0 37.79528,0 z"
       style="fill:none;stroke:#ff0000"
       id="path278" />
    <path
       d="m 655.65941,818.58425 h 5.65817 l 13.58405,-13.58404 v -5.65817 l -9.308,-9.308 h -5.65817 l -13.58405,13.58405 v 5.65816 z"
       style="fill:none;stroke:#ff0000"
       id="path279" />
    <path
       d="m 679.52416,804.30915 a 18.89764,18.89764 0 0 0 -37.79528,0 18.89764,18.89764 0 0 0 37.79528,0 z"
       style="fill:none;stroke:#ff0000"
       id="path280" />
    <path
       d="m 655.65941,738.58425 h 5.65817 l 13.58405,-13.58404 v -5.65817 l -9.308,-9.308 h -5.65817 l -13.58405,13.58405 v 5.65816 z"
       style="fill:none;stroke:#ff0000"
       id="path281" />
    <path
       d="m 679.52416,724.30915 a 18.89764,18.89764 0 0 0 -37.79528,0 18.89764,18.89764 0 0 0 37.79528,0 z"
       style="fill:none;stroke:#ff0000"
       id="path282" />
    <path
       d="m 615.65941,858.58425 h 5.65817 l 13.58405,-13.58404 v -5.65817 l -9.308,-9.308 h -5.65817 l -13.58405,13.58405 v 5.65816 z"
       style="fill:none;stroke:#ff0000"
       id="path283" />
    <path
       d="m 639.52416,844.30915 a 18.89764,18.89764 0 0 0 -37.79528,0 18.89764,18.89764 0 0 0 37.79528,0 z"
       style="fill:none;stroke:#ff0000"
       id="path284" />
    <path
       d="m 695.65941,858.58425 h 5.65817 l 13.58405,-13.58404 v -5.65817 l -9.308,-9.308 h -5.65817 l -13.58405,13.58405 v 5.65816 z"
       style="fill:none;stroke:#ff0000"
       id="path285" />
    <path
       d="m 719.52416,844.30915 a 18.89764,18.89764 0 0 0 -37.79528,0 18.89764,18.89764 0 0 0 37.79528,0 z"
       style="fill:none;stroke:#ff0000"
       id="path286" />
    <path
       d="m 655.65941,898.58425 h 5.65817 l 13.58405,-13.58404 v -5.65817 l -9.308,-9.308 h -5.65817 l -13.58405,13.58405 v 5.65816 z"
       style="fill:none;stroke:#ff0000"
       id="path287" />
    <path
       d="m 679.52416,884.30915 a 18.89764,18.89764 0 0 0 -37.79528,0 18.89764,18.89764 0 0 0 37.79528,0 z"
       style="fill:none;stroke:#ff0000"
       id="path288" />
    <path
       d="m 735.65941,818.58425 h 5.65817 l 13.58405,-13.58404 v -5.65817 l -9.308,-9.308 h -5.65817 l -13.58405,13.58405 v 5.65816 z"
       style="fill:none;stroke:#ff0000"
       id="path289" />
    <path
       d="m 759.52416,804.30915 a 18.89764,18.89764 0 0 0 -37.79528,0 18.89764,18.89764 0 0 0 37.79528,0 z"
       style="fill:none;stroke:#ff0000"
       id="path290" />
    <path
       d="m 815.65941,818.58425 h 5.65817 l 13.58405,-13.58404 v -5.65817 l -9.308,-9.308 h -5.65817 l -13.58405,13.58405 v 5.65816 z"
       style="fill:none;stroke:#ff0000"
       id="path291" />
    <path
       d="m 839.52416,804.30915 a 18.89764,18.89764 0 0 0 -37.79528,0 18.89764,18.89764 0 0 0 37.79528,0 z"
       style="fill:none;stroke:#ff0000"
       id="path292" />
    <path
       d="m 775.65941,858.58425 h 5.65817 l 13.58405,-13.58404 v -5.65817 l -9.308,-9.308 h -5.65817 l -13.58405,13.58405 v 5.65816 z"
       style="fill:none;stroke:#ff0000"
       id="path293" />
    <path
       d="m 799.52416,844.30915 a 18.89764,18.89764 0 0 0 -37.79528,0 18.89764,18.89764 0 0 0 37.79528,0 z"
       style="fill:none;stroke:#ff0000"
       id="path294" />
    <path
       d="m 775.65941,778.58425 h 5.65817 l 13.58405,-13.58404 v -5.65817 l -9.308,-9.308 h -5.65817 l -13.58405,13.58405 v 5.65816 z"
       style="fill:none;stroke:#ff0000"
       id="path295" />
    <path
       d="m 799.52416,764.30915 a 18.89764,18.89764 0 0 0 -37.79528,0 18.89764,18.89764 0 0 0 37.79528,0 z"
       style="fill:none;stroke:#ff0000"
       id="path296" />
    <path
       d="m 735.65941,898.58425 h 5.65817 l 13.58405,-13.58404 v -5.65817 l -9.308,-9.308 h -5.65817 l -13.58405,13.58405 v 5.65816 z"
       style="fill:none;stroke:#ff0000"
       id="path297" />
    <path
       d="m 759.52416,884.30915 a 18.89764,18.89764 0 0 0 -37.79528,0 18.89764,18.89764 0 0 0 37.79528,0 z"
       style="fill:none;stroke:#ff0000"
       id="path298" />
    <path
       d="m 815.65941,898.58425 h 5.65817 l 13.58405,-13.58404 v -5.65817 l -9.308,-9.308 h -5.65817 l -13.58405,13.58405 v 5.65816 z"
       style="fill:none;stroke:#ff0000"
       id="path299" />
    <path
       d="m 839.52416,884.30915 a 18.89764,18.89764 0 0 0 -37.79528,0 18.89764,18.89764 0 0 0 37.79528,0 z"
       style="fill:none;stroke:#ff0000"
       id="path300" />
    <path
       d="m 775.65941,938.58425 h 5.65817 l 13.58405,-13.58404 v -5.65817 l -9.308,-9.308 h -5.65817 l -13.58405,13.58405 v 5.65816 z"
       style="fill:none;stroke:#ff0000"
       id="path301" />
    <path
       d="m 799.52416,924.30915 a 18.89764,18.89764 0 0 0 -37.79528,0 18.89764,18.89764 0 0 0 37.79528,0 z"
       style="fill:none;stroke:#ff0000"
       id="path302" />
    <path
       d="m 815.65941,578.58425 h 5.65817 l 13.58405,-13.58404 v -5.65817 l -9.308,-9.308 h -5.65817 l -13.58405,13.58405 v 5.65816 z"
       style="fill:none;stroke:#ff0000"
       id="path303" />
    <path
       d="m 839.52416,564.30915 a 18.89764,18.89764 0 0 0 -37.79528,0 18.89764,18.89764 0 0 0 37.79528,0 z"
       style="fill:none;stroke:#ff0000"
       id="path304" />
    <path
       d="m 895.65941,578.58425 h 5.65817 l 13.58405,-13.58404 v -5.65817 l -9.308,-9.308 h -5.65817 l -13.58405,13.58405 v 5.65816 z"
       style="fill:none;stroke:#ff0000"
       id="path305" />
    <path
       d="m 919.52416,564.30915 a 18.89764,18.89764 0 0 0 -37.79528,0 18.89764,18.89764 0 0 0 37.79528,0 z"
       style="fill:none;stroke:#ff0000"
       id="path306" />
    <path
       d="m 855.65941,618.58425 h 5.65817 l 13.58405,-13.58404 v -5.65817 l -9.308,-9.308 h -5.65817 l -13.58405,13.58405 v 5.65816 z"
       style="fill:none;stroke:#ff0000"
       id="path307" />
    <path
       d="m 879.52416,604.30915 a 18.89764,18.89764 0 0 0 -37.79528,0 18.89764,18.89764 0 0 0 37.79528,0 z"
       style="fill:none;stroke:#ff0000"
       id="path308" />
    <path
       d="m 855.65941,538.58425 h 5.65817 l 13.58405,-13.58404 v -5.65817 l -9.308,-9.308 h -5.65817 l -13.58405,13.58405 v 5.65816 z"
       style="fill:none;stroke:#ff0000"
       id="path309" />
    <path
       d="m 879.52416,524.30915 a 18.89764,18.89764 0 0 0 -37.79528,0 18.89764,18.89764 0 0 0 37.79528,0 z"
       style="fill:none;stroke:#ff0000"
       id="path310" />
    <path
       d="m 815.65941,658.58425 h 5.65817 l 13.58405,-13.58404 v -5.65817 l -9.308,-9.308 h -5.65817 l -13.58405,13.58405 v 5.65816 z"
       style="fill:none;stroke:#ff0000"
       id="path311" />
    <path
       d="m 839.52416,644.30915 a 18.89764,18.89764 0 0 0 -37.79528,0 18.89764,18.89764 0 0 0 37.79528,0 z"
       style="fill:none;stroke:#ff0000"
       id="path312" />
    <path
       d="m 895.65941,658.58425 h 5.65817 l 13.58405,-13.58404 v -5.65817 l -9.308,-9.308 h -5.65817 l -13.58405,13.58405 v 5.65816 z"
       style="fill:none;stroke:#ff0000"
       id="path313" />
    <path
       d="m 919.52416,644.30915 a 18.89764,18.89764 0 0 0 -37.79528,0 18.89764,18.89764 0 0 0 37.79528,0 z"
       style="fill:none;stroke:#ff0000"
       id="path314" />
    <path
       d="m 855.65941,698.58425 h 5.65817 l 13.58405,-13.58404 v -5.65817 l -9.308,-9.308 h -5.65817 l -13.58405,13.58405 v 5.65816 z"
       style="fill:none;stroke:#ff0000"
       id="path315" />
    <path
       d="m 879.52416,684.30915 a 18.89764,18.89764 0 0 0 -37.79528,0 18.89764,18.89764 0 0 0 37.79528,0 z"
       style="fill:none;stroke:#ff0000"
       id="path316" />
    <path
       d="m 935.65941,618.58425 h 5.65817 l 13.58405,-13.58404 v -5.65817 l -9.308,-9.308 h -5.65817 l -13.58405,13.58405 v 5.65816 z"
       style="fill:none;stroke:#ff0000"
       id="path317" />
    <path
       d="m 959.52416,604.30915 a 18.89764,18.89764 0 0 0 -37.79528,0 18.89764,18.89764 0 0 0 37.79528,0 z"
       style="fill:none;stroke:#ff0000"
       id="path318" />
    <path
       d="m 1015.6594,618.58425 h 5.6582 l 13.584,-13.58404 v -5.65817 l -9.308,-9.308 h -5.6581 l -13.5841,13.58405 v 5.65816 z"
       style="fill:none;stroke:#ff0000"
       id="path319" />
    <path
       d="m 1039.5242,604.30915 a 18.89766,18.89766 0 0 0 -37.7953,0 18.89766,18.89766 0 0 0 37.7953,0 z"
       style="fill:none;stroke:#ff0000"
       id="path320" />
    <path
       d="m 975.6594,658.58425 h 5.6582 l 13.584,-13.58404 v -5.65817 l -9.308,-9.308 h -5.6581 l -13.5841,13.58405 v 5.65816 z"
       style="fill:none;stroke:#ff0000"
       id="path321" />
    <path
       d="m 999.5242,644.30915 a 18.89766,18.89766 0 0 0 -37.7953,0 18.89766,18.89766 0 0 0 37.7953,0 z"
       style="fill:none;stroke:#ff0000"
       id="path322" />
    <path
       d="m 975.6594,578.58425 h 5.6582 l 13.584,-13.58404 v -5.65817 l -9.308,-9.308 h -5.6581 l -13.5841,13.58405 v 5.65816 z"
       style="fill:none;stroke:#ff0000"
       id="path323" />
    <path
       d="m 999.5242,564.30915 a 18.89766,18.89766 0 0 0 -37.7953,0 18.89766,18.89766 0 0 0 37.7953,0 z"
       style="fill:none;stroke:#ff0000"
       id="path324" />
    <path
       d="m 935.65941,698.58425 h 5.65817 l 13.58405,-13.58404 v -5.65817 l -9.308,-9.308 h -5.65817 l -13.58405,13.58405 v 5.65816 z"
       style="fill:none;stroke:#ff0000"
       id="path325" />
    <path
       d="m 959.52416,684.30915 a 18.89764,18.89764 0 0 0 -37.79528,0 18.89764,18.89764 0 0 0 37.79528,0 z"
       style="fill:none;stroke:#ff0000"
       id="path326" />
    <path
       d="m 1015.6594,698.58425 h 5.6582 l 13.584,-13.58404 v -5.65817 l -9.308,-9.308 h -5.6581 l -13.5841,13.58405 v 5.65816 z"
       style="fill:none;stroke:#ff0000"
       id="path327" />
    <path
       d="m 1039.5242,684.30915 a 18.89766,18.89766 0 0 0 -37.7953,0 18.89766,18.89766 0 0 0 37.7953,0 z"
       style="fill:none;stroke:#ff0000"
       id="path328" />
    <path
       d="m 975.6594,738.58425 h 5.6582 l 13.584,-13.58404 v -5.65817 l -9.308,-9.308 h -5.6581 l -13.5841,13.58405 v 5.65816 z"
       style="fill:none;stroke:#ff0000"
       id="path329" />
    <path
       d="m 999.5242,724.30915 a 18.89766,18.89766 0 0 0 -37.7953,0 18.89766,18.89766 0 0 0 37.7953,0 z"
       style="fill:none;stroke:#ff0000"
       id="path330" />
    <path
       d="m 855.65941,778.58425 h 5.65817 l 13.58405,-13.58404 v -5.65817 l -9.308,-9.308 h -5.65817 l -13.58405,13.58405 v 5.65816 z"
       style="fill:none;stroke:#ff0000"
       id="path331" />
    <path
       d="m 879.52416,764.30915 a 18.89764,18.89764 0 0 0 -37.79528,0 18.89764,18.89764 0 0 0 37.79528,0 z"
       style="fill:none;stroke:#ff0000"
       id="path332" />
    <path
       d="m 935.65941,778.58425 h 5.65817 l 13.58405,-13.58404 v -5.65817 l -9.308,-9.308 h -5.65817 l -13.58405,13.58405 v 5.65816 z"
       style="fill:none;stroke:#ff0000"
       id="path333" />
    <path
       d="m 959.52416,764.30915 a 18.89764,18.89764 0 0 0 -37.79528,0 18.89764,18.89764 0 0 0 37.79528,0 z"
       style="fill:none;stroke:#ff0000"
       id="path334" />
    <path
       d="m 895.65941,818.58425 h 5.65817 l 13.58405,-13.58404 v -5.65817 l -9.308,-9.308 h -5.65817 l -13.58405,13.58405 v 5.65816 z"
       style="fill:none;stroke:#ff0000"
       id="path335" />
    <path
       d="m 919.52416,804.30915 a 18.89764,18.89764 0 0 0 -37.79528,0 18.89764,18.89764 0 0 0 37.79528,0 z"
       style="fill:none;stroke:#ff0000"
       id="path336" />
    <path
       d="m 895.65941,738.58425 h 5.65817 l 13.58405,-13.58404 v -5.65817 l -9.308,-9.308 h -5.65817 l -13.58405,13.58405 v 5.65816 z"
       style="fill:none;stroke:#ff0000"
       id="path337" />
    <path
       d="m 919.52416,724.30915 a 18.89764,18.89764 0 0 0 -37.79528,0 18.89764,18.89764 0 0 0 37.79528,0 z"
       style="fill:none;stroke:#ff0000"
       id="path338" />
    <path
       d="m 855.65941,858.58425 h 5.65817 l 13.58405,-13.58404 v -5.65817 l -9.308,-9.308 h -5.65817 l -13.58405,13.58405 v 5.65816 z"
       style="fill:none;stroke:#ff0000"
       id="path339" />
    <path
       d="m 879.52416,844.30915 a 18.89764,18.89764 0 0 0 -37.79528,0 18.89764,18.89764 0 0 0 37.79528,0 z"
       style="fill:none;stroke:#ff0000"
       id="path340" />
    <path
       d="m 935.65941,858.58425 h 5.65817 l 13.58405,-13.58404 v -5.65817 l -9.308,-9.308 h -5.65817 l -13.58405,13.58405 v 5.65816 z"
       style="fill:none;stroke:#ff0000"
       id="path341" />
    <path
       d="m 959.52416,844.30915 a 18.89764,18.89764 0 0 0 -37.79528,0 18.89764,18.89764 0 0 0 37.79528,0 z"
       style="fill:none;stroke:#ff0000"
       id="path342" />
    <path
       d="m 895.65941,898.58425 h 5.65817 l 13.58405,-13.58404 v -5.65817 l -9.308,-9.308 h -5.65817 l -13.58405,13.58405 v 5.65816 z"
       style="fill:none;stroke:#ff0000"
       id="path343" />
    <path
       d="m 919.52416,884.30915 a 18.89764,18.89764 0 0 0 -37.79528,0 18.89764,18.89764 0 0 0 37.79528,0 z"
       style="fill:none;stroke:#ff0000"
       id="path344" />
    <path
       d="m 975.6594,818.58425 h 5.6582 l 13.584,-13.58404 v -5.65817 l -9.308,-9.308 h -5.6581 l -13.5841,13.58405 v 5.65816 z"
       style="fill:none;stroke:#ff0000"
       id="path345" />
    <path
       d="m 999.5242,804.30915 a 18.89766,18.89766 0 0 0 -37.7953,0 18.89766,18.89766 0 0 0 37.7953,0 z"
       style="fill:none;stroke:#ff0000"
       id="path346" />
    <path
       d="m 1055.6594,818.58425 h 5.6582 l 13.584,-13.58404 v -5.65817 l -9.308,-9.308 h -5.6581 l -13.5841,13.58405 v 5.65816 z"
       style="fill:none;stroke:#ff0000"
       id="path347" />
    <path
       d="m 1079.5242,804.30915 a 18.89766,18.89766 0 0 0 -37.7953,0 18.89766,18.89766 0 0 0 37.7953,0 z"
       style="fill:none;stroke:#ff0000"
       id="path348" />
    <path
       d="m 1015.6594,858.58425 h 5.6582 l 13.584,-13.58404 v -5.65817 l -9.308,-9.308 h -5.6581 l -13.5841,13.58405 v 5.65816 z"
       style="fill:none;stroke:#ff0000"
       id="path349" />
    <path
       d="m 1039.5242,844.30915 a 18.89766,18.89766 0 0 0 -37.7953,0 18.89766,18.89766 0 0 0 37.7953,0 z"
       style="fill:none;stroke:#ff0000"
       id="path350" />
    <path
       d="m 1015.6594,778.58425 h 5.6582 l 13.584,-13.58404 v -5.65817 l -9.308,-9.308 h -5.6581 l -13.5841,13.58405 v 5.65816 z"
       style="fill:none;stroke:#ff0000"
       id="path351" />
    <path
       d="m 1039.5242,764.30915 a 18.89766,18.89766 0 0 0 -37.7953,0 18.89766,18.89766 0 0 0 37.7953,0 z"
       style="fill:none;stroke:#ff0000"
       id="path352" />
    <path
       d="m 975.6594,898.58425 h 5.6582 l 13.584,-13.58404 v -5.65817 l -9.308,-9.308 h -5.6581 l -13.5841,13.58405 v 5.65816 z"
       style="fill:none;stroke:#ff0000"
       id="path353" />
    <path
       d="m 999.5242,884.30915 a 18.89766,18.89766 0 0 0 -37.7953,0 18.89766,18.89766 0 0 0 37.7953,0 z"
       style="fill:none;stroke:#ff0000"
       id="path354" />
    <path
       d="m 1055.6594,898.58425 h 5.6582 l 13.584,-13.58404 v -5.65817 l -9.308,-9.308 h -5.6581 l -13.5841,13.58405 v 5.65816 z"
       style="fill:none;stroke:#ff0000"
       id="path355" />
    <path
       d="m 1079.5242,884.30915 a 18.89766,18.89766 0 0 0 -37.7953,0 18.89766,18.89766 0 0 0 37.7953,0 z"
       style="fill:none;stroke:#ff0000"
       id="path356" />
    <path
       d="m 1015.6594,938.58425 h 5.6582 l 13.584,-13.58404 v -5.65817 l -9.308,-9.308 h -5.6581 l -13.5841,13.58405 v 5.65816 z"
       style="fill:none;stroke:#ff0000"
       id="path357" />
    <path
       d="m 1039.5242,924.30915 a 18.89766,18.89766 0 0 0 -37.7953,0 18.89766,18.89766 0 0 0 37.7953,0 z"
       style="fill:none;stroke:#ff0000"
       id="path358" />
    <path
       d="m 324.88363,733.46316 h -5.65817 l -13.58405,13.58405 v 5.65816 l 9.308,9.308 h 5.65817 l 13.58405,-13.58405 v -5.65816 z"
       style="fill:none;stroke:#ff0000"
       id="path359" />
    <path
       d="m 358.73501,735.64507 a 18.897638,18.897638 0 0 0 -26.72529,-26.7253 l -50.91169,50.91169 a 18.897638,18.897638 0 0 0 26.72529,26.7253 z"
       style="fill:none;stroke:#ff0000"
       id="path360" />
    <path
       d="m 364.88363,773.46316 h -5.65817 l -13.58405,13.58405 v 5.65816 l 9.308,9.308 h 5.65817 l 13.58405,-13.58405 v -5.65816 z"
       style="fill:none;stroke:#ff0000"
       id="path361" />
    <path
       d="m 398.73501,775.64507 a 18.897638,18.897638 0 0 0 -26.72529,-26.7253 l -50.91169,50.91169 a 18.897638,18.897638 0 0 0 26.72529,26.7253 z"
       style="fill:none;stroke:#ff0000"
       id="path362" />
    <path
       d="m 404.88363,813.46316 h -5.65817 l -13.58405,13.58405 v 5.65816 l 9.308,9.308 h 5.65817 l 13.58405,-13.58405 v -5.65816 z"
       style="fill:none;stroke:#ff0000"
       id="path363" />
    <path
       d="m 438.73501,815.64507 a 18.897638,18.897638 0 0 0 -26.72529,-26.7253 l -50.91169,50.91169 a 18.897638,18.897638 0 0 0 26.72529,26.7253 z"
       style="fill:none;stroke:#ff0000"
       id="path364" />
    <path
       d="m 444.88363,853.46316 h -5.65817 l -13.58405,13.58405 v 5.65816 l 9.308,9.308 h 5.65817 l 13.58405,-13.58405 v -5.65816 z"
       style="fill:none;stroke:#ff0000"
       id="path365" />
    <path
       d="m 478.73501,855.64507 a 18.897638,18.897638 0 0 0 -26.72529,-26.7253 l -50.91169,50.91169 a 18.897651,18.897651 0 0 0 26.72529,26.72534 z"
       style="fill:none;stroke:#ff0000"
       id="path366" />
    <path
       d="m 424.88363,633.46316 h -5.65817 l -13.58405,13.58405 v 5.65816 l 9.308,9.308 h 5.65817 l 13.58405,-13.58405 v -5.65816 z"
       style="fill:none;stroke:#ff0000"
       id="path367" />
    <path
       d="m 458.73501,635.64507 a 18.897638,18.897638 0 0 0 -26.72529,-26.7253 l -50.91169,50.91169 a 18.897638,18.897638 0 0 0 26.72529,26.7253 z"
       style="fill:none;stroke:#ff0000"
       id="path368" />
    <path
       d="m 464.88363,673.46316 h -5.65817 l -13.58405,13.58405 v 5.65816 l 9.308,9.308 h 5.65817 l 13.58405,-13.58405 v -5.65816 z"
       style="fill:none;stroke:#ff0000"
       id="path369" />
    <path
       d="m 498.73501,675.64507 a 18.897638,18.897638 0 0 0 -26.72529,-26.7253 l -50.91169,50.91169 a 18.897638,18.897638 0 0 0 26.72529,26.7253 z"
       style="fill:none;stroke:#ff0000"
       id="path370" />
    <path
       d="m 504.88363,713.46316 h -5.65817 l -13.58405,13.58405 v 5.65816 l 9.308,9.308 h 5.65817 l 13.58405,-13.58405 v -5.65816 z"
       style="fill:none;stroke:#ff0000"
       id="path371" />
    <path
       d="m 538.73501,715.64507 a 18.897638,18.897638 0 0 0 -26.72529,-26.7253 l -50.91169,50.91169 a 18.897638,18.897638 0 0 0 26.72529,26.7253 z"
       style="fill:none;stroke:#ff0000"
       id="path372" />
    <path
       d="m 544.88363,753.46316 h -5.65817 l -13.58405,13.58405 v 5.65816 l 9.308,9.308 h 5.65817 l 13.58405,-13.58405 v -5.65816 z"
       style="fill:none;stroke:#ff0000"
       id="path373" />
    <path
       d="m 578.73501,755.64507 a 18.897638,18.897638 0 0 0 -26.72529,-26.7253 l -50.91169,50.91169 a 18.897638,18.897638 0 0 0 26.72529,26.7253 z"
       style="fill:none;stroke:#ff0000"
       id="path374" />
    <path
       d="m 124.88363,933.46316 h -5.65817 l -13.58405,13.58405 v 5.65816 l 9.308,9.30803 h 5.65817 l 13.58405,-13.58408 v -5.65816 z"
       style="fill:none;stroke:#ff0000"
       id="path375" />
    <path
       d="m 158.73501,935.64507 a 18.897638,18.897638 0 0 0 -26.72529,-26.7253 l -50.91169,50.91169 a 18.897651,18.897651 0 0 0 26.72529,26.72534 z"
       style="fill:none;stroke:#ff0000"
       id="path376" />
    <path
       d="m 164.88363,973.4632 h -5.65817 l -13.58405,13.584 v 5.6582 l 9.308,9.308 h 5.65817 l 13.58405,-13.5841 v -5.6581 z"
       style="fill:none;stroke:#ff0000"
       id="path377" />
    <path
       d="m 198.73501,975.6451 a 18.897648,18.897648 0 0 0 -26.72529,-26.72533 l -50.91169,50.91173 a 18.897651,18.897651 0 0 0 26.72529,26.7253 z"
       style="fill:none;stroke:#ff0000"
       id="path378" />
    <path
       d="m 204.88363,1013.4632 h -5.65817 l -13.58405,13.584 v 5.6582 l 9.308,9.308 h 5.65817 l 13.58405,-13.5841 v -5.6581 z"
       style="fill:none;stroke:#ff0000"
       id="path379" />
    <path
       d="m 238.73501,1015.6451 a 18.897648,18.897648 0 0 0 -26.72529,-26.7253 l -50.91169,50.9117 a 18.897651,18.897651 0 0 0 26.72529,26.7253 z"
       style="fill:none;stroke:#ff0000"
       id="path380" />
    <path
       d="m 244.88363,1053.4632 h -5.65817 l -13.58405,13.584 v 5.6582 l 9.308,9.308 h 5.65817 l 13.58405,-13.5841 v -5.6581 z"
       style="fill:none;stroke:#ff0000"
       id="path381" />
    <path
       d="m 278.73501,1055.6451 a 18.897648,18.897648 0 0 0 -26.72529,-26.7253 l -50.91169,50.9117 a 18.897651,18.897651 0 0 0 26.72529,26.7253 z"
       style="fill:none;stroke:#ff0000"
       id="path382" />
    <path
       d="m 224.88363,833.46316 h -5.65817 l -13.58405,13.58405 v 5.65816 l 9.308,9.308 h 5.65817 l 13.58405,-13.58405 v -5.65816 z"
       style="fill:none;stroke:#ff0000"
       id="path383" />
    <path
       d="m 258.73501,835.64507 a 18.897638,18.897638 0 0 0 -26.72529,-26.7253 l -50.91169,50.91169 a 18.897638,18.897638 0 0 0 26.72529,26.7253 z"
       style="fill:none;stroke:#ff0000"
       id="path384" />
    <path
       d="m 264.88363,873.46316 h -5.65817 l -13.58405,13.58405 v 5.65816 l 9.308,9.308 h 5.65817 l 13.58405,-13.58405 v -5.65816 z"
       style="fill:none;stroke:#ff0000"
       id="path385" />
    <path
       d="m 298.73501,875.64507 a 18.897638,18.897638 0 0 0 -26.72529,-26.7253 l -50.91169,50.91169 a 18.897638,18.897638 0 0 0 26.72529,26.7253 z"
       style="fill:none;stroke:#ff0000"
       id="path386" />
    <path
       d="m 304.88363,913.46316 h -5.65817 l -13.58405,13.58405 v 5.65816 l 9.308,9.308 h 5.65817 l 13.58405,-13.58405 v -5.65816 z"
       style="fill:none;stroke:#ff0000"
       id="path387" />
    <path
       d="m 338.73501,915.64507 a 18.897638,18.897638 0 0 0 -26.72529,-26.7253 l -50.91169,50.91169 a 18.897651,18.897651 0 0 0 26.72529,26.72534 z"
       style="fill:none;stroke:#ff0000"
       id="path388" />
    <path
       d="m 344.88363,953.46316 h -5.65817 l -13.58405,13.58404 v 5.6582 l 9.308,9.308 h 5.65817 l 13.58405,-13.5841 v -5.6581 z"
       style="fill:none;stroke:#ff0000"
       id="path389" />
    <path
       d="m 378.73501,955.64507 a 18.897638,18.897638 0 0 0 -26.72529,-26.7253 l -50.91169,50.91173 a 18.897651,18.897651 0 0 0 26.72529,26.7253 z"
       style="fill:none;stroke:#ff0000"
       id="path390" />
  </g>
</svg>
