G04 #@! TF.GenerationSoftware,KiCad,Pcbnew,7.0.6*
G04 #@! TF.CreationDate,2024-11-20T12:06:44-05:00*
G04 #@! TF.ProjectId,LogicBoard_smt,4c6f6769-6342-46f6-9172-645f736d742e,rev?*
G04 #@! TF.SameCoordinates,Original*
G04 #@! TF.FileFunction,Copper,L4,Bot*
G04 #@! TF.FilePolarity,Positive*
%FSLAX46Y46*%
G04 Gerber Fmt 4.6, Leading zero omitted, Abs format (unit mm)*
G04 Created by KiCad (PCBNEW 7.0.6) date 2024-11-20 12:06:44*
%MOMM*%
%LPD*%
G01*
G04 APERTURE LIST*
G04 Aperture macros list*
%AMOutline5P*
0 Free polygon, 5 corners , with rotation*
0 The origin of the aperture is its center*
0 number of corners: always 5*
0 $1 to $10 corner X, Y*
0 $11 Rotation angle, in degrees counterclockwise*
0 create outline with 5 corners*
4,1,5,$1,$2,$3,$4,$5,$6,$7,$8,$9,$10,$1,$2,$11*%
%AMOutline6P*
0 Free polygon, 6 corners , with rotation*
0 The origin of the aperture is its center*
0 number of corners: always 6*
0 $1 to $12 corner X, Y*
0 $13 Rotation angle, in degrees counterclockwise*
0 create outline with 6 corners*
4,1,6,$1,$2,$3,$4,$5,$6,$7,$8,$9,$10,$11,$12,$1,$2,$13*%
%AMOutline7P*
0 Free polygon, 7 corners , with rotation*
0 The origin of the aperture is its center*
0 number of corners: always 7*
0 $1 to $14 corner X, Y*
0 $15 Rotation angle, in degrees counterclockwise*
0 create outline with 7 corners*
4,1,7,$1,$2,$3,$4,$5,$6,$7,$8,$9,$10,$11,$12,$13,$14,$1,$2,$15*%
%AMOutline8P*
0 Free polygon, 8 corners , with rotation*
0 The origin of the aperture is its center*
0 number of corners: always 8*
0 $1 to $16 corner X, Y*
0 $17 Rotation angle, in degrees counterclockwise*
0 create outline with 8 corners*
4,1,8,$1,$2,$3,$4,$5,$6,$7,$8,$9,$10,$11,$12,$13,$14,$15,$16,$1,$2,$17*%
G04 Aperture macros list end*
G04 #@! TA.AperFunction,ComponentPad*
%ADD10O,1.524000X3.048000*%
G04 #@! TD*
G04 #@! TA.AperFunction,ComponentPad*
%ADD11R,4.600000X2.000000*%
G04 #@! TD*
G04 #@! TA.AperFunction,ComponentPad*
%ADD12O,4.200000X2.000000*%
G04 #@! TD*
G04 #@! TA.AperFunction,ComponentPad*
%ADD13O,2.000000X4.200000*%
G04 #@! TD*
G04 #@! TA.AperFunction,ComponentPad*
%ADD14Outline8P,-0.762000X0.315631X-0.315631X0.762000X0.315631X0.762000X0.762000X0.315631X0.762000X-0.315631X0.315631X-0.762000X-0.315631X-0.762000X-0.762000X-0.315631X0.000000*%
G04 #@! TD*
G04 #@! TA.AperFunction,ComponentPad*
%ADD15R,1.000000X1.000000*%
G04 #@! TD*
G04 #@! TA.AperFunction,ComponentPad*
%ADD16O,1.000000X1.000000*%
G04 #@! TD*
G04 #@! TA.AperFunction,ComponentPad*
%ADD17C,3.600000*%
G04 #@! TD*
G04 #@! TA.AperFunction,ConnectorPad*
%ADD18C,6.400000*%
G04 #@! TD*
G04 #@! TA.AperFunction,ComponentPad*
%ADD19C,1.524000*%
G04 #@! TD*
G04 #@! TA.AperFunction,WasherPad*
%ADD20C,3.600000*%
G04 #@! TD*
G04 #@! TA.AperFunction,ComponentPad*
%ADD21C,1.700000*%
G04 #@! TD*
G04 #@! TA.AperFunction,ComponentPad*
%ADD22C,1.600000*%
G04 #@! TD*
G04 #@! TA.AperFunction,ViaPad*
%ADD23C,0.600000*%
G04 #@! TD*
G04 #@! TA.AperFunction,Conductor*
%ADD24C,0.152400*%
G04 #@! TD*
G04 APERTURE END LIST*
D10*
G04 #@! TO.P,EXTRA_BUTTON_1,1,1*
G04 #@! TO.N,Net-(PAD1REG0A-2D)*
X85852000Y-140208000D03*
G04 #@! TO.P,EXTRA_BUTTON_1,2,2*
G04 #@! TO.N,GND*
X88392000Y-140208000D03*
G04 #@! TD*
D11*
G04 #@! TO.P,J2,1*
G04 #@! TO.N,Net-(J2-Pad1)*
X158838900Y-14072400D03*
D12*
G04 #@! TO.P,J2,2*
G04 #@! TO.N,GND*
X158838900Y-7772400D03*
D13*
G04 #@! TO.P,J2,3*
G04 #@! TO.N,unconnected-(J2-Pad3)*
X154038900Y-11172400D03*
G04 #@! TD*
D14*
G04 #@! TO.P,PORT1,1,1*
G04 #@! TO.N,Net-(PAD1REG0A-5D)*
X89281000Y-160526700D03*
G04 #@! TO.P,PORT1,2,2*
G04 #@! TO.N,Net-(PAD1REG0A-6D)*
X92049600Y-160526700D03*
G04 #@! TO.P,PORT1,3,3*
G04 #@! TO.N,Net-(PAD1REG0A-7D)*
X94818200Y-160526700D03*
G04 #@! TO.P,PORT1,4,4*
G04 #@! TO.N,Net-(PAD1REG0A-8D)*
X97586800Y-160526700D03*
G04 #@! TO.P,PORT1,5,5*
G04 #@! TO.N,VCC*
X100355400Y-160526700D03*
G04 #@! TO.P,PORT1,6,6*
G04 #@! TO.N,Net-(PAD1REG0A-4D)*
X90665300Y-163370300D03*
G04 #@! TO.P,PORT1,7,7*
G04 #@! TO.N,Net-(GAMEPAD_SELECTOR0A-Q)*
X93433900Y-163370300D03*
G04 #@! TO.P,PORT1,8,8*
G04 #@! TO.N,GND*
X96202500Y-163370300D03*
G04 #@! TO.P,PORT1,9,9*
G04 #@! TO.N,Net-(PAD1REG0A-3D)*
X98971100Y-163370300D03*
G04 #@! TD*
D15*
G04 #@! TO.P,J3,1,Pin_1*
G04 #@! TO.N,/CPU and address decode/~{RESET}*
X188500000Y-158225000D03*
D16*
G04 #@! TO.P,J3,2,Pin_2*
G04 #@! TO.N,VCC*
X188500000Y-159495000D03*
G04 #@! TO.P,J3,3,Pin_3*
G04 #@! TO.N,GND*
X188500000Y-160765000D03*
G04 #@! TD*
D17*
G04 #@! TO.P,H2,1,1*
G04 #@! TO.N,GND*
X45560000Y-161145000D03*
D18*
X45560000Y-161145000D03*
G04 #@! TD*
D17*
G04 #@! TO.P,H4,1,1*
G04 #@! TO.N,GND*
X203360000Y-39050000D03*
D18*
X203360000Y-39050000D03*
G04 #@! TD*
D14*
G04 #@! TO.P,PORT2,1,1*
G04 #@! TO.N,Net-(PAD2REG0A-5D)*
X148564600Y-160526700D03*
G04 #@! TO.P,PORT2,2,2*
G04 #@! TO.N,Net-(PAD2REG0A-6D)*
X151333200Y-160526700D03*
G04 #@! TO.P,PORT2,3,3*
G04 #@! TO.N,Net-(PAD2REG0A-7D)*
X154101800Y-160526700D03*
G04 #@! TO.P,PORT2,4,4*
G04 #@! TO.N,Net-(PAD2REG0A-8D)*
X156870400Y-160526700D03*
G04 #@! TO.P,PORT2,5,5*
G04 #@! TO.N,VCC*
X159639000Y-160526700D03*
G04 #@! TO.P,PORT2,6,6*
G04 #@! TO.N,Net-(PAD2REG0A-4D)*
X149948900Y-163370300D03*
G04 #@! TO.P,PORT2,7,7*
G04 #@! TO.N,Net-(GAMEPAD_SELECTOR0B-Q)*
X152717500Y-163370300D03*
G04 #@! TO.P,PORT2,8,8*
G04 #@! TO.N,GND*
X155486100Y-163370300D03*
G04 #@! TO.P,PORT2,9,9*
G04 #@! TO.N,Net-(PAD2REG0A-3D)*
X158254700Y-163370300D03*
G04 #@! TD*
D10*
G04 #@! TO.P,EXTRA_BUTTON_2,1,1*
G04 #@! TO.N,Net-(PAD2REG0A-2D)*
X168910000Y-142259000D03*
G04 #@! TO.P,EXTRA_BUTTON_2,2,2*
G04 #@! TO.N,GND*
X171450000Y-142259000D03*
G04 #@! TD*
D19*
G04 #@! TO.P,U$3,P$1,VCC*
G04 #@! TO.N,VCC*
X102870000Y-64770000D03*
G04 #@! TO.P,U$3,P$2,~{SPI_CS}*
G04 #@! TO.N,/CPU and address decode/~{SPI_CS}*
X105410000Y-64770000D03*
G04 #@! TO.P,U$3,P$3,SPI_MISO*
G04 #@! TO.N,/CPU and address decode/SPI_MISO*
X107950000Y-64770000D03*
G04 #@! TO.P,U$3,P$4,SPI_MOSI*
G04 #@! TO.N,/CPU and address decode/SPI_MOSI*
X110490000Y-64770000D03*
G04 #@! TO.P,U$3,P$5,SPI_CLK*
G04 #@! TO.N,/CPU and address decode/SPI_CLK*
X113030000Y-64770000D03*
G04 #@! TO.P,U$3,P$6,A12*
G04 #@! TO.N,A12*
X115570000Y-64770000D03*
G04 #@! TO.P,U$3,P$7,A7*
G04 #@! TO.N,A7*
X118110000Y-64770000D03*
G04 #@! TO.P,U$3,P$8,A6*
G04 #@! TO.N,A6*
X120650000Y-64770000D03*
G04 #@! TO.P,U$3,P$9,A5*
G04 #@! TO.N,A5*
X123190000Y-64770000D03*
G04 #@! TO.P,U$3,P$10,A4*
G04 #@! TO.N,A4*
X125730000Y-64770000D03*
G04 #@! TO.P,U$3,P$11,A3*
G04 #@! TO.N,A3*
X128270000Y-64770000D03*
G04 #@! TO.P,U$3,P$12,A2*
G04 #@! TO.N,A2*
X130810000Y-64770000D03*
G04 #@! TO.P,U$3,P$13,A1*
G04 #@! TO.N,A1*
X133350000Y-64770000D03*
G04 #@! TO.P,U$3,P$14,A0*
G04 #@! TO.N,A0*
X135890000Y-64770000D03*
G04 #@! TO.P,U$3,P$15,D0*
G04 #@! TO.N,D0*
X138430000Y-64770000D03*
G04 #@! TO.P,U$3,P$16,D1*
G04 #@! TO.N,D1*
X140970000Y-64770000D03*
G04 #@! TO.P,U$3,P$17,D2*
G04 #@! TO.N,D2*
X143510000Y-64770000D03*
G04 #@! TO.P,U$3,P$18,CLK*
G04 #@! TO.N,CLK3_5*
X146050000Y-64770000D03*
G04 #@! TO.P,U$3,P$19,A13*
G04 #@! TO.N,A13*
X102870000Y-59918600D03*
G04 #@! TO.P,U$3,P$20,_WE*
G04 #@! TO.N,~{WE2}*
X105410000Y-59918600D03*
G04 #@! TO.P,U$3,P$21,_IRQ*
G04 #@! TO.N,~{IRQ}*
X107950000Y-59918600D03*
G04 #@! TO.P,U$3,P$22,A8*
G04 #@! TO.N,A8*
X110490000Y-59918600D03*
G04 #@! TO.P,U$3,P$23,A9*
G04 #@! TO.N,A9*
X113030000Y-59918600D03*
G04 #@! TO.P,U$3,P$24,A11*
G04 #@! TO.N,A11*
X115570000Y-59918600D03*
G04 #@! TO.P,U$3,P$25,_OE*
G04 #@! TO.N,~{RE2}*
X118110000Y-59918600D03*
G04 #@! TO.P,U$3,P$26,A10*
G04 #@! TO.N,A10*
X120650000Y-59918600D03*
G04 #@! TO.P,U$3,P$27,_CS*
G04 #@! TO.N,/CPU and address decode/_CARTSEL*
X123190000Y-59918600D03*
G04 #@! TO.P,U$3,P$28,D7*
G04 #@! TO.N,D7*
X125730000Y-59918600D03*
G04 #@! TO.P,U$3,P$29,D6*
G04 #@! TO.N,D6*
X128270000Y-59918600D03*
G04 #@! TO.P,U$3,P$30,D5*
G04 #@! TO.N,D5*
X130810000Y-59918600D03*
G04 #@! TO.P,U$3,P$31,D4*
G04 #@! TO.N,D4*
X133350000Y-59918600D03*
G04 #@! TO.P,U$3,P$32,D3*
G04 #@! TO.N,D3*
X135890000Y-59918600D03*
G04 #@! TO.P,U$3,P$33,A14*
G04 #@! TO.N,/CPU and address decode/A14*
X138430000Y-59918600D03*
G04 #@! TO.P,U$3,P$34,READY*
G04 #@! TO.N,/CPU and address decode/RDY*
X140970000Y-59918600D03*
G04 #@! TO.P,U$3,P$35,_RESET*
G04 #@! TO.N,/CPU and address decode/~{RESET}*
X143510000Y-59918600D03*
G04 #@! TO.P,U$3,P$36,GND*
G04 #@! TO.N,GND*
X146050000Y-59918600D03*
G04 #@! TD*
D20*
G04 #@! TO.P,J1,*
G04 #@! TO.N,*
X175850000Y-28800331D03*
X209150000Y-28800331D03*
D21*
G04 #@! TO.P,J1,1,Pin_1*
G04 #@! TO.N,/CPU and address decode/R{slash}~{W}*
X183875000Y-31340331D03*
G04 #@! TO.P,J1,2,Pin_2*
G04 #@! TO.N,/CPU and address decode/sync*
X186165000Y-31340331D03*
G04 #@! TO.P,J1,3,Pin_3*
G04 #@! TO.N,CLK28*
X188455000Y-31340331D03*
G04 #@! TO.P,J1,4,Pin_4*
G04 #@! TO.N,VNMI*
X190745000Y-31340331D03*
G04 #@! TO.P,J1,5,Pin_5*
G04 #@! TO.N,/CPU and address decode/~{RESET}*
X193035000Y-31340331D03*
G04 #@! TO.P,J1,6,Pin_6*
G04 #@! TO.N,/CPU and address decode/BusEnable*
X195325000Y-31340331D03*
G04 #@! TO.P,J1,7,Pin_7*
G04 #@! TO.N,/CPU and address decode/MemLock*
X197615000Y-31340331D03*
G04 #@! TO.P,J1,8,Pin_8*
G04 #@! TO.N,/CPU and address decode/A15*
X199905000Y-31340331D03*
G04 #@! TO.P,J1,9,Pin_9*
G04 #@! TO.N,GND*
X202195000Y-31340331D03*
G04 #@! TO.P,J1,10,Pin_10*
G04 #@! TO.N,VCC*
X182730000Y-28800331D03*
G04 #@! TO.P,J1,11,Pin_11*
G04 #@! TO.N,Net-(J1-Pin_11)*
X185020000Y-28800331D03*
G04 #@! TO.P,J1,12,Pin_12*
G04 #@! TO.N,Net-(J1-Pin_12)*
X187310000Y-28800331D03*
G04 #@! TO.P,J1,13,Pin_13*
G04 #@! TO.N,Net-(J1-Pin_13)*
X189600000Y-28800331D03*
G04 #@! TO.P,J1,14,Pin_14*
G04 #@! TO.N,Net-(J1-Pin_14)*
X191890000Y-28800331D03*
G04 #@! TO.P,J1,15,Pin_15*
G04 #@! TO.N,Net-(J1-Pin_15)*
X194180000Y-28800331D03*
G04 #@! TO.P,J1,16,Pin_16*
G04 #@! TO.N,Net-(J1-Pin_16)*
X196470000Y-28800331D03*
G04 #@! TO.P,J1,17,Pin_17*
G04 #@! TO.N,Net-(J1-Pin_17)*
X198760000Y-28800331D03*
G04 #@! TO.P,J1,18,Pin_18*
G04 #@! TO.N,Net-(J1-Pin_18)*
X201050000Y-28800331D03*
G04 #@! TO.P,J1,19,Pin_19*
G04 #@! TO.N,Net-(J1-Pin_19)*
X183875000Y-26260331D03*
G04 #@! TO.P,J1,20,Pin_20*
G04 #@! TO.N,Net-(J1-Pin_20)*
X186165000Y-26260331D03*
G04 #@! TO.P,J1,21,Pin_21*
G04 #@! TO.N,Net-(J1-Pin_21)*
X188455000Y-26260331D03*
G04 #@! TO.P,J1,22,Pin_22*
G04 #@! TO.N,Net-(J1-Pin_22)*
X190745000Y-26260331D03*
G04 #@! TO.P,J1,23,Pin_23*
G04 #@! TO.N,Net-(J1-Pin_23)*
X193035000Y-26260331D03*
G04 #@! TO.P,J1,24,Pin_24*
G04 #@! TO.N,Net-(J1-Pin_24)*
X195325000Y-26260331D03*
G04 #@! TO.P,J1,25,Pin_25*
G04 #@! TO.N,Net-(J1-Pin_25)*
X197615000Y-26260331D03*
G04 #@! TO.P,J1,26,Pin_26*
G04 #@! TO.N,Net-(J1-Pin_26)*
X199905000Y-26260331D03*
G04 #@! TD*
D22*
G04 #@! TO.P,C66,1*
G04 #@! TO.N,VCC*
X133700000Y-23050000D03*
G04 #@! TO.P,C66,2*
G04 #@! TO.N,GND*
X133700000Y-25550000D03*
G04 #@! TD*
D17*
G04 #@! TO.P,H3,1,1*
G04 #@! TO.N,GND*
X203360000Y-161145000D03*
D18*
X203360000Y-161145000D03*
G04 #@! TD*
D17*
G04 #@! TO.P,H1,1,1*
G04 #@! TO.N,GND*
X45560000Y-29050000D03*
D18*
X45560000Y-29050000D03*
G04 #@! TD*
D23*
G04 #@! TO.N,VCC*
X146371000Y-80055500D03*
X144360900Y-9042400D03*
X148926000Y-131540000D03*
X76220600Y-70520300D03*
X57785000Y-111125000D03*
X116557000Y-121920000D03*
X50559000Y-157734000D03*
X59449000Y-158369000D03*
X87630000Y-111760000D03*
X127000000Y-111125000D03*
X142194000Y-100271000D03*
X82410900Y-20828000D03*
X88900000Y-154940000D03*
X59449000Y-148844000D03*
X171691000Y-65184000D03*
X105127000Y-121920000D03*
X114765000Y-160095000D03*
X143764000Y-120904000D03*
X154940000Y-112732000D03*
X47257000Y-44644000D03*
X50559000Y-149479000D03*
X76200000Y-111760000D03*
X127000000Y-100330000D03*
X181864000Y-125776000D03*
X87515200Y-70520300D03*
X79375000Y-115570000D03*
X93345000Y-111125000D03*
X183122000Y-76754000D03*
X102104000Y-20828000D03*
X188849000Y-123871000D03*
X146050000Y-154940000D03*
X111125000Y-112395000D03*
X114935000Y-111125000D03*
X93345000Y-100330000D03*
X119761000Y-151384000D03*
X72099000Y-155388000D03*
X208291500Y-77600000D03*
X64770000Y-111760000D03*
X72099000Y-157293000D03*
X76200000Y-100965000D03*
X174498000Y-126411000D03*
X156096000Y-121974000D03*
X69215000Y-111125000D03*
X81915000Y-88265000D03*
X103505000Y-100330000D03*
X189624000Y-64758000D03*
X174485000Y-132126000D03*
X41529000Y-109384000D03*
X48000000Y-149000000D03*
X60500000Y-102500000D03*
X128622000Y-121920000D03*
X70091900Y-86935300D03*
X142875000Y-145542000D03*
X194424000Y-130810000D03*
X103722000Y-87316300D03*
X163068000Y-88278000D03*
X93345000Y-40640000D03*
X50051000Y-101133000D03*
X128016000Y-148209000D03*
X71013600Y-61530300D03*
X69215000Y-100330000D03*
X142875000Y-111125000D03*
X93697200Y-121920000D03*
X113665000Y-116205000D03*
X99060000Y-112395000D03*
X176704000Y-98539000D03*
X92062900Y-20724700D03*
X69567200Y-121920000D03*
X70829000Y-139196000D03*
X58572550Y-92322550D03*
X176035000Y-109311000D03*
X128410000Y-78475000D03*
X94488000Y-146050000D03*
X128651000Y-152019000D03*
X144145000Y-114935000D03*
X144764000Y-91231500D03*
X194424000Y-134112000D03*
X53340000Y-111760000D03*
X181000000Y-139000000D03*
X194424000Y-137668000D03*
X81927200Y-61530300D03*
X44704000Y-141224000D03*
X80645000Y-100330000D03*
X80463200Y-111125000D03*
X50750000Y-56500000D03*
X64770000Y-31491400D03*
X55880000Y-115570000D03*
X56134000Y-28194000D03*
X112010000Y-20724700D03*
X103505000Y-111125000D03*
X171500000Y-61374000D03*
X93345000Y-88265000D03*
X115570000Y-100330000D03*
X87630000Y-100965000D03*
X71464000Y-153483000D03*
X82267200Y-121920000D03*
G04 #@! TO.N,GND*
X163436000Y-63914000D03*
X151114000Y-100122000D03*
X78752200Y-62800300D03*
X54610000Y-54356000D03*
X134874000Y-129159000D03*
X77187200Y-129540000D03*
X111477000Y-128905000D03*
X77470000Y-109220000D03*
X86360000Y-106045000D03*
X148300000Y-16900000D03*
X123542000Y-128905000D03*
X89535000Y-88265000D03*
X100965000Y-109855000D03*
X68186900Y-86935300D03*
X100047000Y-128905000D03*
X139954000Y-120904000D03*
X125095000Y-113665000D03*
X125870000Y-79745000D03*
X61939000Y-157293000D03*
X90157900Y-20724700D03*
X156845000Y-109220000D03*
X113665000Y-113665000D03*
X79870900Y-22098000D03*
X66040000Y-99060000D03*
X111477000Y-122555000D03*
X110490000Y-116840000D03*
X77470000Y-88265000D03*
X62865000Y-106045000D03*
X185179000Y-69838000D03*
X97659300Y-28448000D03*
X50686000Y-106213000D03*
X147154900Y-12852400D03*
X150202900Y-13868400D03*
X87630000Y-116840000D03*
X151765000Y-138557000D03*
X134874000Y-122809000D03*
X149186900Y-13868400D03*
X62582200Y-128905000D03*
X122555000Y-113030000D03*
X62582200Y-122555000D03*
X151451000Y-88310500D03*
X102235000Y-113665000D03*
X98929300Y-22098000D03*
X166500000Y-17100000D03*
X124812000Y-120650000D03*
X100965000Y-99060000D03*
X143100000Y-12000000D03*
X52250000Y-97750000D03*
X143846000Y-137255000D03*
X89535000Y-39370000D03*
X87617900Y-28344700D03*
X78457200Y-120650000D03*
X74930000Y-106045000D03*
X85610200Y-70520300D03*
X88617200Y-122555000D03*
X74315600Y-70520300D03*
X124600000Y-77205000D03*
X68600600Y-78140300D03*
X55245000Y-109855000D03*
X150202900Y-11836400D03*
X86360000Y-95250000D03*
X64479000Y-147451000D03*
X75577200Y-69785300D03*
X136480000Y-105986000D03*
X147154900Y-13868400D03*
X137795000Y-113030000D03*
X145415000Y-147447000D03*
X67838600Y-62800300D03*
X175500000Y-160500000D03*
X38875000Y-146812000D03*
X122936000Y-153924000D03*
X68924000Y-139196000D03*
X101952000Y-120650000D03*
X164338000Y-80023000D03*
X77470000Y-99060000D03*
X152500000Y-16900000D03*
X163200000Y-17200000D03*
X96101900Y-94936300D03*
X124460000Y-109855000D03*
X209400000Y-77600000D03*
X120155000Y-83555000D03*
X88617200Y-129540000D03*
X57658000Y-54356000D03*
X42812000Y-43374000D03*
X139700000Y-109855000D03*
X102743000Y-139065000D03*
X113382000Y-120650000D03*
X176704000Y-100444000D03*
X77965900Y-28448000D03*
X124460000Y-99060000D03*
X187084000Y-63488000D03*
X63741900Y-95190300D03*
X163068000Y-100978000D03*
X38989000Y-111924000D03*
X149186900Y-12852400D03*
X64529000Y-148844000D03*
X66040000Y-109855000D03*
X89535000Y-109220000D03*
X107565000Y-28979700D03*
X165900000Y-11000000D03*
X52705000Y-116840000D03*
X63500000Y-35301400D03*
X148170900Y-13868400D03*
X109855000Y-106045000D03*
X139654000Y-99000700D03*
X139300000Y-12700000D03*
X136525000Y-116840000D03*
X145101000Y-83865500D03*
X181852000Y-79294000D03*
X63209000Y-158563000D03*
X99060000Y-105410000D03*
X60669000Y-155388000D03*
X63500000Y-117475000D03*
X64028600Y-69785300D03*
X184404000Y-126411000D03*
X165800000Y-8200000D03*
X69342000Y-39624000D03*
X38240000Y-154813000D03*
X153556000Y-120704000D03*
X50559000Y-153924000D03*
X112395000Y-109855000D03*
X54864000Y-25010000D03*
X40907000Y-49724000D03*
X50559000Y-159004000D03*
X151651000Y-122609000D03*
X101817000Y-87316300D03*
X76200000Y-116840000D03*
X123542000Y-122555000D03*
X81165200Y-78775300D03*
X99060000Y-116840000D03*
X149186900Y-11836400D03*
X124206000Y-147574000D03*
X44704000Y-135890000D03*
X148170900Y-12852400D03*
X149860000Y-113030000D03*
X51750000Y-56515000D03*
X169685000Y-115026000D03*
X150202900Y-12852400D03*
X60500000Y-88750000D03*
X85090000Y-47625000D03*
X171958000Y-124506000D03*
X146138900Y-13868400D03*
X122555000Y-116205000D03*
X112395000Y-99060000D03*
X60500000Y-106500000D03*
X48514000Y-115099000D03*
X151651000Y-128959000D03*
X67027200Y-120650000D03*
X145750000Y-130270000D03*
X144764000Y-95041500D03*
X181000000Y-144000000D03*
X146138900Y-12852400D03*
X97663000Y-147955000D03*
X122555000Y-105410000D03*
X74012200Y-122555000D03*
X172860000Y-108041000D03*
X68289000Y-150943000D03*
X100047000Y-122555000D03*
X74930000Y-95250000D03*
X89535000Y-99060000D03*
X184959000Y-106794000D03*
X89887200Y-120650000D03*
X128100000Y-159460000D03*
X110105000Y-20724700D03*
X188202000Y-81198000D03*
X184404000Y-117521000D03*
G04 #@! TO.N,/DMA Controller/V{slash}_G*
X141039000Y-119314500D03*
X119471000Y-79686600D03*
G04 #@! TO.N,/DMA Controller/VG_WE*
X131064000Y-82296000D03*
X122936000Y-80264000D03*
X95778100Y-80264000D03*
X87355900Y-40914100D03*
X125984000Y-82296000D03*
G04 #@! TO.N,/DMA Controller/VG_OE*
X132055900Y-84118100D03*
X131757000Y-80305000D03*
G04 #@! TO.N,Net-(BANKMUX0A-2Y)*
X112647300Y-82905000D03*
X107038000Y-77295700D03*
G04 #@! TO.N,Net-(BANKMUX0A-3Y)*
X103131300Y-25783000D03*
X125487100Y-83053500D03*
G04 #@! TO.N,Net-(BANKMUX0A-4Y)*
X124212500Y-81605000D03*
X85090000Y-23595700D03*
G04 #@! TO.N,/DMA Controller/DD1*
X66040000Y-42825000D03*
X66040000Y-41646900D03*
X53750000Y-77000000D03*
X50550700Y-75949300D03*
G04 #@! TO.N,/DMA Controller/DD2*
X66802000Y-41646900D03*
X67056000Y-43475000D03*
X51500000Y-75000000D03*
X54356000Y-75000000D03*
G04 #@! TO.N,/DMA Controller/DD3*
X67564000Y-41646900D03*
X55235400Y-74500000D03*
X68072000Y-44125000D03*
X52378273Y-74378273D03*
G04 #@! TO.N,/DMA Controller/DD4*
X68834000Y-41646900D03*
X69088000Y-44775000D03*
X51690000Y-73852573D03*
X56000000Y-73500000D03*
G04 #@! TO.N,/DMA Controller/DD5*
X70104000Y-45425000D03*
X52500000Y-73326873D03*
X70104000Y-41646900D03*
X56642000Y-72500000D03*
G04 #@! TO.N,/DMA Controller/DD6*
X57404000Y-71500000D03*
X71374000Y-46075000D03*
X71374000Y-41646900D03*
X51872661Y-72801173D03*
G04 #@! TO.N,/DMA Controller/DD7*
X51992041Y-71938339D03*
X72644000Y-46725000D03*
X70845900Y-40894000D03*
X58166000Y-70500000D03*
G04 #@! TO.N,Net-(BLIT_BUS_SWITCH0C-~{G})*
X91060200Y-47962700D03*
X99269200Y-91405800D03*
G04 #@! TO.N,/DMA Controller/DMAMODE*
X122196300Y-102612600D03*
X119693300Y-96482100D03*
X124123300Y-103833300D03*
X131054900Y-111796100D03*
G04 #@! TO.N,Net-(BLIT_REG_SELECTOR0B-Y7)*
X47629000Y-112130000D03*
X139410000Y-139131300D03*
X139768500Y-136245000D03*
X55193000Y-121333200D03*
G04 #@! TO.N,/DMA Controller/TRIGGER-SELECT*
X145780700Y-137295700D03*
X140901200Y-134859400D03*
G04 #@! TO.N,Net-(BLIT_REG_SELECTOR0B-Y3)*
X138074500Y-136957900D03*
X144613200Y-135333200D03*
G04 #@! TO.N,Net-(BLIT_REG_SELECTOR0B-Y2)*
X145415200Y-131530100D03*
X92259800Y-129326600D03*
G04 #@! TO.N,/CPU and address decode/~{RESET}*
X182750000Y-59000000D03*
X177000000Y-58633800D03*
X177000000Y-34275700D03*
X185279400Y-125880500D03*
G04 #@! TO.N,/DMA Controller/SEQGEN_HIGH*
X66227600Y-143628600D03*
X71114100Y-145342000D03*
G04 #@! TO.N,/DMA Controller/P3*
X125615700Y-100311000D03*
X65797900Y-142312100D03*
X75805100Y-122113300D03*
X101855700Y-105522500D03*
X139839200Y-114081700D03*
X76370600Y-134544900D03*
G04 #@! TO.N,/DMA Controller/P2*
X113146000Y-106341700D03*
X62630900Y-131533200D03*
X85448800Y-128946800D03*
X88046800Y-121973300D03*
G04 #@! TO.N,/DMA Controller/P1*
X58895300Y-119187500D03*
X77776800Y-104105500D03*
X60406100Y-122647800D03*
X54549900Y-112983200D03*
X75940700Y-112657500D03*
X64581700Y-112573600D03*
G04 #@! TO.N,/DMA Controller/P0*
X94943100Y-120467400D03*
X97263800Y-111167200D03*
X82862600Y-136314400D03*
X68721500Y-144340400D03*
G04 #@! TO.N,/DMA Controller/~{ROWCOMPLETE}*
X99086000Y-101883300D03*
X102388900Y-112776800D03*
G04 #@! TO.N,/DMA Controller/~{INIT}*
X107015700Y-109042500D03*
X119779500Y-112476700D03*
X92604500Y-117041800D03*
X96673100Y-101251900D03*
X72062400Y-116973900D03*
X135207800Y-118013100D03*
X92041400Y-106140000D03*
X104791700Y-112378200D03*
G04 #@! TO.N,/DMA Controller/~{RUNNING}*
X119708900Y-115381700D03*
X110697000Y-121686800D03*
G04 #@! TO.N,Net-(CTR.W0A-PL)*
X105559600Y-116347400D03*
X108454300Y-105694300D03*
G04 #@! TO.N,Net-(PAD2REG0A-2D)*
X149678000Y-152100700D03*
G04 #@! TO.N,Net-(GAMEPAD_SELECTOR0A-Q)*
X98327800Y-146672300D03*
G04 #@! TO.N,Net-(GAMEPAD_SELECTOR0B-D)*
X125857400Y-150817300D03*
X127033300Y-154003900D03*
G04 #@! TO.N,/DMA Controller/~{DMAMODE}*
X84410100Y-73633600D03*
X75462300Y-62424200D03*
X73845800Y-39872700D03*
X98398800Y-22657300D03*
X104405400Y-78613300D03*
X96010600Y-22966000D03*
X74777300Y-56831800D03*
X77812500Y-71923600D03*
X119424400Y-104459200D03*
X85055200Y-78520500D03*
G04 #@! TO.N,Net-(GMUX0A-1A)*
X103479100Y-85883900D03*
X105390400Y-39402800D03*
G04 #@! TO.N,/DMA Controller/GA0*
X104140000Y-37084000D03*
X53340000Y-37338000D03*
G04 #@! TO.N,Net-(GMUX0A-2A)*
X89379700Y-56672700D03*
X107470100Y-27462300D03*
X77367900Y-93464500D03*
X105371300Y-56672700D03*
G04 #@! TO.N,/DMA Controller/GA1*
X52324000Y-37084000D03*
X104902000Y-36662900D03*
G04 #@! TO.N,/DMA Controller/GA2*
X51642100Y-36576000D03*
X110744000Y-36322000D03*
G04 #@! TO.N,Net-(GMUX0A-3A)*
X120011000Y-26253500D03*
X82780400Y-94840900D03*
X89879200Y-51337400D03*
X114300000Y-48160500D03*
G04 #@! TO.N,/DMA Controller/GA3*
X51054000Y-35814000D03*
X109982000Y-35830000D03*
G04 #@! TO.N,Net-(GMUX0A-4A)*
X82274900Y-90595100D03*
X105775800Y-57343700D03*
X106256100Y-39403300D03*
X89459700Y-57622200D03*
G04 #@! TO.N,Net-(GMUX1A-1A)*
X53238000Y-38765600D03*
X53500000Y-94500000D03*
G04 #@! TO.N,/DMA Controller/GA4*
X94996000Y-25400000D03*
X51054000Y-24130000D03*
G04 #@! TO.N,Net-(GMUX1A-2A)*
X53750000Y-96750000D03*
X67586000Y-34961100D03*
X95177500Y-34750000D03*
X53173400Y-45763800D03*
G04 #@! TO.N,D0*
X165608000Y-42825000D03*
X148082000Y-74422000D03*
X108937000Y-123190000D03*
X97507200Y-123190000D03*
X142748000Y-139954000D03*
X93472000Y-139954000D03*
X85442200Y-123190000D03*
X161036000Y-100076000D03*
X73377200Y-123190000D03*
X165608000Y-56134000D03*
X161036000Y-139700000D03*
X133858000Y-123444000D03*
X161036000Y-74422000D03*
X148844000Y-123190000D03*
X161036000Y-123190000D03*
X176784000Y-123190000D03*
X120367000Y-123190000D03*
X42550900Y-123190000D03*
X61947200Y-123190000D03*
G04 #@! TO.N,D1*
X72742200Y-123825000D03*
X161568000Y-140232000D03*
X92710000Y-140462000D03*
X149098000Y-123952000D03*
X108302000Y-123825000D03*
X149860000Y-73660000D03*
X142240000Y-140716000D03*
X161544000Y-123952000D03*
X161544000Y-122428000D03*
X161568000Y-73660000D03*
X176784000Y-122428000D03*
X166370000Y-43475000D03*
X61312200Y-123825000D03*
X135128000Y-123972000D03*
X96872200Y-123825000D03*
X166370000Y-55626000D03*
X161568000Y-100608000D03*
X119732000Y-123825000D03*
X43180000Y-123952000D03*
X84807200Y-123825000D03*
G04 #@! TO.N,D2*
X162306000Y-101092000D03*
X143002000Y-141244000D03*
X162052000Y-124634000D03*
X107667000Y-124460000D03*
X167132000Y-44125000D03*
X119097000Y-124460000D03*
X60677200Y-124460000D03*
X148782000Y-124634000D03*
X167132000Y-56134000D03*
X43731900Y-124463000D03*
X151384000Y-72644000D03*
X96237200Y-124460000D03*
X162306000Y-72644000D03*
X134366000Y-124500000D03*
X72107200Y-124460000D03*
X162052000Y-141224000D03*
X84172200Y-124460000D03*
X162306000Y-121666000D03*
X176784000Y-121666000D03*
X92710000Y-141478000D03*
G04 #@! TO.N,D3*
X96872200Y-125283000D03*
X149138000Y-125296000D03*
X108937000Y-125283000D03*
X44379000Y-125222000D03*
X60042200Y-125095000D03*
X85442200Y-125283000D03*
X93980000Y-142313000D03*
X135382000Y-125267000D03*
X74012200Y-125283000D03*
X168910000Y-56134000D03*
X168910000Y-44775000D03*
X119097000Y-125212000D03*
X141224000Y-141732000D03*
X135890000Y-44775000D03*
X163068000Y-125296000D03*
X176784000Y-120904000D03*
X164084000Y-101092000D03*
X163068000Y-120904000D03*
X163068000Y-141986000D03*
G04 #@! TO.N,D4*
X164866000Y-101092000D03*
X44958000Y-125984000D03*
X134874000Y-125984000D03*
X163576000Y-125984000D03*
X96237200Y-125933000D03*
X60960000Y-125750000D03*
X163600000Y-142518000D03*
X93218000Y-142494000D03*
X119732000Y-125933000D03*
X142748000Y-142514000D03*
X169672000Y-45425000D03*
X148590000Y-125984000D03*
X108302000Y-125933000D03*
X169672000Y-55880000D03*
X176784000Y-120142000D03*
X133350000Y-45425000D03*
X84807200Y-125933000D03*
X163597000Y-120142000D03*
X73377200Y-125933000D03*
G04 #@! TO.N,D5*
X119097000Y-126461000D03*
X84172200Y-126461000D03*
X107667000Y-126461000D03*
X130810000Y-46075000D03*
X142240000Y-143256000D03*
X176784000Y-119380000D03*
X170434000Y-46075000D03*
X45679000Y-126492000D03*
X135406000Y-126516000D03*
X164338000Y-127000000D03*
X165618000Y-101092000D03*
X149122000Y-126516000D03*
X164338000Y-143256000D03*
X93218000Y-143510000D03*
X164338000Y-119380000D03*
X61976000Y-126461000D03*
X72742200Y-126461000D03*
X170434000Y-56388000D03*
X95602200Y-126461000D03*
G04 #@! TO.N,D6*
X166370000Y-101092000D03*
X142772000Y-143788000D03*
X108937000Y-127233000D03*
X74012200Y-127233000D03*
X165100000Y-144018000D03*
X135382000Y-127267000D03*
X165100000Y-127762000D03*
X46230900Y-127003000D03*
X176784000Y-118618000D03*
X60706000Y-127254000D03*
X93218000Y-144272000D03*
X171450000Y-56388000D03*
X128270000Y-46725000D03*
X85442200Y-127233000D03*
X165100000Y-118618000D03*
X120367000Y-127233000D03*
X148844000Y-127254000D03*
X171450000Y-46725000D03*
X96872200Y-127233000D03*
G04 #@! TO.N,D7*
X148844000Y-128016000D03*
X93980000Y-145034000D03*
X165862000Y-117856000D03*
X96237200Y-127883000D03*
X175006000Y-59690000D03*
X73377200Y-127883000D03*
X165862000Y-144526000D03*
X84807200Y-127883000D03*
X165862000Y-128524000D03*
X167132000Y-101092000D03*
X61722000Y-128016000D03*
X176759000Y-117856000D03*
X119732000Y-127883000D03*
X175006000Y-47375000D03*
X135382000Y-128019000D03*
X46990000Y-128016000D03*
X142240000Y-144526000D03*
X108302000Y-127883000D03*
X125730000Y-47375000D03*
G04 #@! TO.N,A0*
X142240000Y-85344000D03*
X116586000Y-24892000D03*
X157988000Y-74909900D03*
X203200000Y-123190000D03*
X186199000Y-67168000D03*
X151250000Y-30480000D03*
X62738000Y-65786000D03*
X62738000Y-85344000D03*
X157988000Y-61468000D03*
X189511477Y-73238523D03*
X104902000Y-24892000D03*
X196801400Y-61250000D03*
X203200000Y-96266000D03*
X203250000Y-80500000D03*
X146071000Y-74909900D03*
G04 #@! TO.N,A1*
X202672000Y-95504000D03*
X139954000Y-71374000D03*
X152250000Y-31750000D03*
X196801400Y-62000000D03*
X92710000Y-71374000D03*
X65532000Y-67818000D03*
X202672000Y-122428000D03*
X147066000Y-97028000D03*
X92710000Y-79756000D03*
X157226000Y-75417900D03*
X157460000Y-60452000D03*
X104902000Y-26924000D03*
X116586000Y-26924000D03*
X144018000Y-75417900D03*
X147097000Y-104140000D03*
X65532000Y-79756000D03*
X202674300Y-81750000D03*
G04 #@! TO.N,A2*
X202144000Y-94742000D03*
X202144000Y-120904000D03*
X202200000Y-82700000D03*
X156928000Y-59690000D03*
X141986000Y-75925900D03*
X147828000Y-96520000D03*
X68600100Y-68326000D03*
X156464000Y-75925900D03*
X67818000Y-84582000D03*
X196801400Y-62750000D03*
X141478000Y-84582000D03*
X154500000Y-32250000D03*
X147828000Y-104902000D03*
G04 #@! TO.N,A3*
X201616000Y-119888000D03*
X136017000Y-72517000D03*
X153250000Y-31008100D03*
X67056000Y-80518000D03*
X93472000Y-72390000D03*
X201616000Y-93980000D03*
X67056000Y-67564000D03*
X155194000Y-76433900D03*
X155194000Y-55880000D03*
X196801400Y-63500000D03*
X93472000Y-80518000D03*
X139954000Y-76433900D03*
X201616000Y-83500000D03*
G04 #@! TO.N,A4*
X99822000Y-40132000D03*
X134112000Y-73152000D03*
X201088000Y-119324000D03*
X196801400Y-64250000D03*
X201087000Y-93445200D03*
X73152000Y-74676000D03*
X94488000Y-81788000D03*
X94488000Y-73152000D03*
X99822000Y-73152000D03*
X137922000Y-76941900D03*
X201090300Y-84250000D03*
X73152000Y-81788000D03*
G04 #@! TO.N,A5*
X95250000Y-73914000D03*
X200674300Y-84971806D03*
X132461000Y-74041000D03*
X99060000Y-40132000D03*
X95250000Y-82529900D03*
X200560000Y-92710000D03*
X99060000Y-73914000D03*
X72390000Y-76708000D03*
X135890000Y-77449900D03*
X72390000Y-82550000D03*
X200560000Y-118364000D03*
X196801400Y-65250000D03*
G04 #@! TO.N,A6*
X200031000Y-91948000D03*
X196801400Y-66040000D03*
X131318000Y-75438000D03*
X101346000Y-75438000D03*
X77216000Y-77470000D03*
X200031000Y-85500000D03*
X200031000Y-117602000D03*
X134112000Y-77957900D03*
X101346000Y-40132000D03*
X97536000Y-83058000D03*
X77216000Y-83058000D03*
X97536000Y-75438000D03*
G04 #@! TO.N,A7*
X199390000Y-86000000D03*
X131826000Y-78465900D03*
X87122000Y-69850000D03*
X123317000Y-69977000D03*
X78740000Y-69850000D03*
X199390000Y-114554000D03*
X196801400Y-67056000D03*
X78740000Y-65786000D03*
X87376000Y-49530000D03*
X199390000Y-91186000D03*
G04 #@! TO.N,A8*
X196500000Y-68000000D03*
X197250000Y-38250000D03*
X198862000Y-89916000D03*
X110490000Y-55626000D03*
X79481900Y-67818000D03*
X79481900Y-60706000D03*
X110490000Y-38100000D03*
X198862000Y-113792000D03*
X87884000Y-55626000D03*
X87884000Y-60706000D03*
X87884000Y-48260000D03*
G04 #@! TO.N,A9*
X113030000Y-39116000D03*
X198334000Y-89154000D03*
X109220000Y-39116000D03*
X93959900Y-38862000D03*
X98298000Y-61214000D03*
X198334000Y-113030000D03*
X195974993Y-69501285D03*
X196250000Y-39116000D03*
X98298000Y-68580000D03*
G04 #@! TO.N,A10*
X120650000Y-40132000D03*
X194250000Y-70750000D03*
X97282000Y-66548000D03*
X197806000Y-112014000D03*
X195500000Y-40132000D03*
X197806000Y-96774000D03*
X97282000Y-61976000D03*
X97282000Y-39878000D03*
G04 #@! TO.N,A11*
X181610000Y-89895900D03*
X197104000Y-111252000D03*
X83860700Y-74676000D03*
X193525700Y-71500000D03*
X197104000Y-89154000D03*
X93980000Y-41148000D03*
X115570000Y-41148000D03*
X83820000Y-56642000D03*
X194025700Y-41148000D03*
X84074000Y-57912000D03*
X181610000Y-100330000D03*
X79268100Y-37866100D03*
G04 #@! TO.N,A12*
X130048000Y-78994000D03*
X96520000Y-74676000D03*
X96520000Y-53086000D03*
X193525700Y-72250000D03*
X96520000Y-83820000D03*
X84328000Y-76708000D03*
X196342000Y-110490000D03*
X84328000Y-83820000D03*
X78486000Y-41402000D03*
X196342000Y-86000000D03*
X196342000Y-91948000D03*
X78486000Y-53086000D03*
X182372000Y-91948000D03*
X182283000Y-100666000D03*
X125476000Y-74676000D03*
G04 #@! TO.N,A13*
X102870000Y-41910000D03*
X193000000Y-73000000D03*
X195580000Y-109474000D03*
X84582000Y-55880000D03*
X89408000Y-77470000D03*
X181102000Y-106680000D03*
X84582000Y-41402000D03*
X192275700Y-42000000D03*
X181102000Y-112776000D03*
X89408000Y-59944000D03*
G04 #@! TO.N,/DMA Controller/GA5*
X98298000Y-30734000D03*
X51562000Y-30734000D03*
G04 #@! TO.N,/DMA Controller/GA6*
X52029300Y-29464000D03*
X100838000Y-28194000D03*
G04 #@! TO.N,Net-(GMUX1A-3A)*
X101686600Y-39401000D03*
X65966600Y-83095200D03*
X59431500Y-97000000D03*
X99220200Y-81383700D03*
G04 #@! TO.N,Net-(GMUX2A-1A)*
X96736400Y-86196800D03*
X98044300Y-39624300D03*
X87871500Y-94129000D03*
X84976800Y-86196800D03*
X96076700Y-28919600D03*
X89612900Y-24665400D03*
G04 #@! TO.N,/DMA Controller/GA7*
X85090000Y-25654000D03*
X52578000Y-25654000D03*
G04 #@! TO.N,Net-(GMUX2A-2A)*
X84455000Y-38642200D03*
X89027300Y-93763400D03*
G04 #@! TO.N,/DMA Controller/GA8*
X87899500Y-27288000D03*
X57658000Y-27432000D03*
G04 #@! TO.N,/DMA Controller/GA9*
X58085900Y-28194000D03*
X93218000Y-28194000D03*
G04 #@! TO.N,Net-(GMUX2A-3A)*
X93559800Y-94527100D03*
X90011700Y-40862400D03*
G04 #@! TO.N,Net-(GMUX2A-4A)*
X92875700Y-28929700D03*
X90819100Y-25148900D03*
X82756000Y-89067500D03*
X89597700Y-49481800D03*
G04 #@! TO.N,Net-(GMUX3A-1A)*
X62983700Y-64318000D03*
X74252100Y-37893700D03*
X73306200Y-56816000D03*
X62632100Y-89735400D03*
G04 #@! TO.N,/DMA Controller/GA11*
X75438000Y-25654000D03*
X58674000Y-25654000D03*
G04 #@! TO.N,Net-(GMUX3A-2A)*
X74688900Y-55993300D03*
X75009300Y-37890000D03*
X63818700Y-71025300D03*
X63442200Y-88402100D03*
G04 #@! TO.N,/DMA Controller/GA12*
X75184000Y-26903900D03*
X53086000Y-27432000D03*
G04 #@! TO.N,/DMA Controller/GA13*
X57029200Y-28702000D03*
X81026000Y-28448000D03*
G04 #@! TO.N,Net-(GMUX3A-3A)*
X73698500Y-69934000D03*
X73458600Y-61497800D03*
X70836700Y-94150400D03*
X76160700Y-56826400D03*
X79563600Y-40074400D03*
X71642000Y-78001500D03*
G04 #@! TO.N,Net-(GMUX3A-4Y)*
X79022800Y-51302000D03*
X80497000Y-38390800D03*
G04 #@! TO.N,/DMA Controller/COLORFILL*
X81787600Y-53665400D03*
X80391500Y-39251400D03*
X140077400Y-121975400D03*
X109333100Y-99442700D03*
X118035000Y-103833300D03*
X92081500Y-53665400D03*
G04 #@! TO.N,Net-(GXH0A-Q3)*
X61750000Y-98500000D03*
X61750000Y-93750000D03*
G04 #@! TO.N,Net-(GXL0A-Q3)*
X81658900Y-114484400D03*
X81658900Y-91051000D03*
G04 #@! TO.N,Net-(GXL0A-Q2)*
X81018500Y-94941700D03*
X79260600Y-114065500D03*
G04 #@! TO.N,Net-(GXL0A-Q1)*
X78961000Y-94370500D03*
X78075400Y-112823100D03*
G04 #@! TO.N,Net-(GXL0A-Q0)*
X79209900Y-112413400D03*
X81311900Y-89580500D03*
G04 #@! TO.N,Net-(GYH0A-Q3)*
X87148000Y-97939700D03*
X83004900Y-95595600D03*
G04 #@! TO.N,/DMA Controller/GA14*
X49784000Y-55880000D03*
X55750000Y-92000000D03*
X49784000Y-35052000D03*
X56000000Y-95000000D03*
X59182000Y-55880000D03*
X53594000Y-35052000D03*
G04 #@! TO.N,Net-(GXH0A-P0)*
X75936800Y-102818000D03*
X78098400Y-106744100D03*
G04 #@! TO.N,Net-(GXH0A-P1)*
X88365100Y-128425600D03*
X83378000Y-128429600D03*
G04 #@! TO.N,/DMA Controller/RUNNING*
X84818000Y-114409100D03*
X75953900Y-118461300D03*
X91623000Y-108463200D03*
X102395500Y-104553100D03*
X65819300Y-116882100D03*
X102377400Y-94111000D03*
X89688600Y-107654300D03*
X82173400Y-110116400D03*
X113660700Y-104715500D03*
X119790000Y-114419700D03*
X54215700Y-118054300D03*
G04 #@! TO.N,/DMA Controller/~{XRELOAD}*
X82959000Y-104336100D03*
X80307200Y-106145400D03*
X78618300Y-115620600D03*
X68947000Y-119328900D03*
X89613600Y-96847900D03*
G04 #@! TO.N,/DMA Controller/GX-CARRY*
X88723600Y-97398700D03*
X82194600Y-104350200D03*
G04 #@! TO.N,CLK14*
X197100000Y-59100000D03*
X67184000Y-53446500D03*
X39491400Y-58387900D03*
X38980600Y-128208700D03*
X208500000Y-74949300D03*
G04 #@! TO.N,/DMA Controller/GX-CARRY?*
X96210200Y-103183300D03*
X82503500Y-112476700D03*
G04 #@! TO.N,Net-(GYH0A-Q1)*
X75999000Y-103632200D03*
X89226400Y-102878300D03*
X75406200Y-100048500D03*
X66117500Y-94716600D03*
X65727700Y-97692400D03*
X81994800Y-107875400D03*
G04 #@! TO.N,Net-(GYL0A-Q3)*
X90782400Y-111080100D03*
X90835500Y-91093800D03*
G04 #@! TO.N,Net-(GYL0A-Q2)*
X92281100Y-95050000D03*
X90552000Y-114155900D03*
G04 #@! TO.N,Net-(GYL0A-Q1)*
X87509200Y-92998600D03*
X90246000Y-112422500D03*
G04 #@! TO.N,~{VID_SEL}*
X138931100Y-135351000D03*
X108512700Y-96588100D03*
X188002000Y-83822300D03*
X146952200Y-134730300D03*
X124617000Y-116276000D03*
G04 #@! TO.N,~{WE2}*
X197300000Y-72900000D03*
X158750000Y-53645100D03*
X147345400Y-128552300D03*
X143143000Y-130999000D03*
X152747700Y-88241900D03*
X183690900Y-57712300D03*
X168451400Y-81097100D03*
X195000000Y-66750000D03*
X146791600Y-122911600D03*
X130248100Y-83564400D03*
G04 #@! TO.N,Net-(GYL0A-Q0)*
X99509600Y-101216500D03*
X94922300Y-113299600D03*
G04 #@! TO.N,/DMA Controller/GA15*
X49022000Y-34544000D03*
X71120000Y-92202000D03*
X55626000Y-34544000D03*
X71120000Y-86106000D03*
X59944000Y-55118000D03*
X49022000Y-55118000D03*
G04 #@! TO.N,Net-(GYH0A-P2)*
X102159900Y-115150800D03*
X101079500Y-118930100D03*
G04 #@! TO.N,Net-(GYH0A-P3)*
X98564200Y-118410200D03*
X98153400Y-122066200D03*
G04 #@! TO.N,/DMA Controller/ROWCOMPLETE*
X93543900Y-115726700D03*
X95141200Y-116911300D03*
X107909100Y-102819000D03*
X67704900Y-115334500D03*
G04 #@! TO.N,/DMA Controller/GY-CARRY?*
X97127600Y-106309700D03*
X93806100Y-112476700D03*
G04 #@! TO.N,/DMA Controller/~{TILEMODE}*
X140319800Y-122899500D03*
X105495500Y-101731700D03*
G04 #@! TO.N,/DMA Controller/~{WRAP_Y}*
X108033400Y-66308200D03*
X60717100Y-55112500D03*
X148938400Y-115356900D03*
X46656000Y-50270300D03*
G04 #@! TO.N,/DMA Controller/~{WRAP_X}*
X48477600Y-51502500D03*
X58859100Y-54206500D03*
X149623800Y-116315700D03*
X112342100Y-67380200D03*
G04 #@! TO.N,/DMA Controller/VRAMBANK*
X38921000Y-52582700D03*
X92081500Y-51010700D03*
X47750000Y-52500000D03*
X59384300Y-51414000D03*
X93902000Y-70612000D03*
X125229200Y-70612000D03*
X38980600Y-65717300D03*
X157418900Y-122636400D03*
G04 #@! TO.N,/DMA Controller/GA18*
X37592000Y-52832000D03*
X37592000Y-81534000D03*
X37592000Y-28702000D03*
X37592000Y-132080000D03*
X154940000Y-132080000D03*
X53642100Y-28702000D03*
G04 #@! TO.N,/DMA Controller/GA17*
X37063900Y-33782000D03*
X37063900Y-80772000D03*
X37084000Y-132842000D03*
X154432000Y-132842000D03*
X56154100Y-33782000D03*
X37063900Y-52070000D03*
G04 #@! TO.N,/DMA Controller/GA16*
X53848000Y-30205900D03*
X36322000Y-32766000D03*
X153670000Y-133370000D03*
X36322000Y-133350000D03*
X36322000Y-80010000D03*
X36322000Y-51308000D03*
G04 #@! TO.N,/CPU and address decode/A15*
X200750000Y-54250000D03*
X189750000Y-46000000D03*
X184000000Y-60750000D03*
X182879300Y-66460300D03*
X180340000Y-105918000D03*
X180340000Y-114300000D03*
G04 #@! TO.N,/CPU and address decode/R{slash}~{W}*
X184272000Y-78100100D03*
X185280600Y-68309700D03*
X181750000Y-51750000D03*
X181737900Y-122978400D03*
X172250000Y-51750000D03*
X172250000Y-63000000D03*
G04 #@! TO.N,/CPU and address decode/W{slash}~{R}*
X186808600Y-67851300D03*
X187810500Y-75275900D03*
G04 #@! TO.N,CLK28*
X197000000Y-58250000D03*
X40627000Y-131535300D03*
X40152400Y-57771800D03*
X209726600Y-75800000D03*
X52557600Y-56621900D03*
X63273600Y-53057500D03*
X183000000Y-52500000D03*
G04 #@! TO.N,~{NMI}*
X204000000Y-71923600D03*
X203750000Y-127000000D03*
G04 #@! TO.N,~{IRQ}*
X174709100Y-63754000D03*
X159929800Y-113381700D03*
X191000000Y-74000000D03*
X165066300Y-63648200D03*
X181000000Y-54000000D03*
X191775700Y-62242000D03*
G04 #@! TO.N,CLK7*
X71120000Y-156931000D03*
X62992000Y-156210000D03*
X55372000Y-153416000D03*
X40083300Y-58949300D03*
X194750000Y-79750000D03*
X39868200Y-131548300D03*
X41656000Y-142240000D03*
X142750000Y-157500000D03*
G04 #@! TO.N,CLK3_5*
X39754400Y-60060500D03*
X152422800Y-97398100D03*
X62992000Y-154260000D03*
X167478200Y-135332400D03*
X155067600Y-105203300D03*
X173317300Y-109874400D03*
X181204000Y-126490500D03*
X39335500Y-130453700D03*
X139500000Y-156250000D03*
X150235900Y-58844600D03*
X177914300Y-86655600D03*
X71120000Y-154940000D03*
G04 #@! TO.N,Net-(IC4D-I)*
X186729500Y-69489200D03*
X186551400Y-75701200D03*
G04 #@! TO.N,Net-(IC12D-I1)*
X188271900Y-69847100D03*
X188541500Y-107540500D03*
G04 #@! TO.N,Net-(IC32D-O)*
X158375500Y-83420200D03*
X163320400Y-64736500D03*
G04 #@! TO.N,Net-(IC4F-I)*
X188788600Y-77271000D03*
X188604600Y-67126300D03*
G04 #@! TO.N,Net-(IC5C-O)*
X63506800Y-121931900D03*
X100664900Y-106541400D03*
G04 #@! TO.N,Net-(IC7A-I0)*
X184150000Y-100584000D03*
X184150000Y-81026000D03*
G04 #@! TO.N,Net-(IC7A-I1)*
X184912000Y-100330000D03*
X184912000Y-80772000D03*
G04 #@! TO.N,/CPU and address decode/N$38_2*
X185674000Y-83820000D03*
X183642000Y-103378000D03*
G04 #@! TO.N,/CPU and address decode/N$37_2*
X184658000Y-103378000D03*
X186436000Y-83820000D03*
G04 #@! TO.N,Net-(IC12A-O)*
X172089900Y-111618000D03*
X178035500Y-82651900D03*
G04 #@! TO.N,/DMA Controller/IRQ*
X101881800Y-53930000D03*
X64292700Y-53294400D03*
X48334400Y-46594000D03*
X124924400Y-115391900D03*
G04 #@! TO.N,Net-(IC31C-O)*
X125327200Y-105355500D03*
X134854200Y-117114700D03*
X123462100Y-114081700D03*
G04 #@! TO.N,Net-(IC12B-I0)*
X171367400Y-112209700D03*
X182124900Y-66561500D03*
G04 #@! TO.N,Net-(IC12B-O)*
X150076000Y-111253700D03*
X144569600Y-106495800D03*
G04 #@! TO.N,Net-(IC12C-O)*
X144162600Y-103124000D03*
X151526400Y-110990000D03*
G04 #@! TO.N,Net-(IC18A-I1)*
X132545000Y-101824000D03*
X125789000Y-95068000D03*
G04 #@! TO.N,Net-(IC18A-O)*
X135307700Y-95730800D03*
X150733800Y-112081700D03*
G04 #@! TO.N,/DMA Controller/~{DIRECT-SELECT}*
X150219000Y-80243900D03*
X105103800Y-96362200D03*
X102302700Y-93296300D03*
X149134600Y-88398400D03*
G04 #@! TO.N,Net-(IC18D-O)*
X77814500Y-86431500D03*
X76964900Y-74954400D03*
G04 #@! TO.N,Net-(IC18D-I0)*
X108038400Y-91996300D03*
X118470800Y-102533300D03*
G04 #@! TO.N,Net-(IC18D-I1)*
X85496800Y-58254500D03*
X60193200Y-52820700D03*
X85820700Y-62636300D03*
X48448500Y-49194000D03*
X102796900Y-68298400D03*
X103108900Y-86666000D03*
G04 #@! TO.N,Net-(IC20A-O)*
X104398500Y-58902400D03*
X125476700Y-87190500D03*
X73080700Y-54048700D03*
X72340100Y-37896900D03*
G04 #@! TO.N,/DMA Controller/OFFSCR_X*
X42389200Y-45944000D03*
X56014500Y-103750800D03*
G04 #@! TO.N,/DMA Controller/OFFSCR_Y*
X66115300Y-104116700D03*
X54500000Y-100500000D03*
X43839600Y-48219000D03*
X63750000Y-99724300D03*
G04 #@! TO.N,/DMA Controller/~{IRQ-OUT}*
X105913900Y-51712500D03*
X148789900Y-113984900D03*
X63754200Y-51844700D03*
X46865400Y-47244000D03*
G04 #@! TO.N,/DMA Controller/IRQ-ENABLE*
X65966300Y-52221900D03*
X47486000Y-45835500D03*
X104076400Y-52814500D03*
X141677600Y-118862100D03*
G04 #@! TO.N,Net-(IC31A-I0)*
X123364100Y-86940400D03*
X123284700Y-100886500D03*
G04 #@! TO.N,Net-(IC31C-I1)*
X140387400Y-115381700D03*
X128536500Y-103833300D03*
G04 #@! TO.N,Net-(IC31D-O)*
X137712000Y-113934900D03*
X129096700Y-104381700D03*
G04 #@! TO.N,/CPU and address decode/~{REGSSEL}*
X182626000Y-101854000D03*
X148590000Y-97099000D03*
X148590000Y-80264000D03*
X148590000Y-104140000D03*
X178816000Y-104140000D03*
G04 #@! TO.N,/DMA Controller/XDIR*
X112784000Y-118202100D03*
X110915900Y-110985500D03*
X77622000Y-98083500D03*
X79192300Y-93514200D03*
X79761400Y-97253300D03*
G04 #@! TO.N,/DMA Controller/YDIR*
X107753000Y-96876400D03*
X125704200Y-117425400D03*
G04 #@! TO.N,/DMA Controller/VNMI_ENABLE*
X139089200Y-105119200D03*
X141935300Y-120041600D03*
G04 #@! TO.N,/DMA Controller/~{VWE}*
X42191300Y-62423600D03*
X47504700Y-101000000D03*
X62206900Y-79040900D03*
X58214900Y-85705700D03*
G04 #@! TO.N,/DMA Controller/~{VOE}*
X60242300Y-54041700D03*
X48469200Y-53356400D03*
X85818700Y-75383200D03*
X85068100Y-58962500D03*
G04 #@! TO.N,/DMA Controller/VID_OUT_PAGE*
X136801800Y-138656400D03*
X51788800Y-122171700D03*
X42724500Y-64923600D03*
X138641500Y-133916800D03*
G04 #@! TO.N,/DMA Controller/VA13*
X85852000Y-77978000D03*
X52000000Y-61000497D03*
G04 #@! TO.N,/DMA Controller/VA12*
X83312000Y-77470000D03*
X52000000Y-61750000D03*
G04 #@! TO.N,/DMA Controller/VA11*
X82804000Y-75438000D03*
X52000000Y-62500497D03*
G04 #@! TO.N,/DMA Controller/VA10*
X52000000Y-63250000D03*
X80538100Y-67056000D03*
G04 #@! TO.N,/DMA Controller/VA9*
X52000000Y-64000000D03*
X80010000Y-69088000D03*
G04 #@! TO.N,AUD_SQ2_N*
X149130300Y-95508100D03*
X166400200Y-107604900D03*
X170267700Y-87849900D03*
X152356200Y-107604900D03*
G04 #@! TO.N,AUD_LFSR_X*
X154497500Y-88139500D03*
X158965700Y-81796700D03*
G04 #@! TO.N,GRAM_PAGE_SEL*
X152756000Y-95248900D03*
X159678600Y-122639200D03*
G04 #@! TO.N,~{GAMEPAD1R}*
X137688400Y-133905200D03*
X136595000Y-139423400D03*
G04 #@! TO.N,~{GAMEPAD2R}*
X148372400Y-112230100D03*
X143298400Y-104710300D03*
G04 #@! TO.N,~{WAV_SEL}*
X192750000Y-74000000D03*
X191000000Y-80000000D03*
G04 #@! TO.N,/DMA Controller/VA8*
X77978000Y-68580000D03*
X52000000Y-64750497D03*
G04 #@! TO.N,/DMA Controller/VA7*
X77216000Y-66548000D03*
X52000000Y-65500000D03*
G04 #@! TO.N,/DMA Controller/VA6*
X51898600Y-66357946D03*
X75768100Y-78017200D03*
G04 #@! TO.N,/DMA Controller/VA5*
X51977182Y-67250845D03*
X71628000Y-77216000D03*
G04 #@! TO.N,/DMA Controller/VA4*
X52000000Y-68000000D03*
X71120000Y-75438000D03*
G04 #@! TO.N,/DMA Controller/VA3*
X68580000Y-67175300D03*
X52000000Y-68750497D03*
G04 #@! TO.N,/DMA Controller/VA2*
X52000000Y-69500000D03*
X68072000Y-69088000D03*
G04 #@! TO.N,~{RE2}*
X173902400Y-70607400D03*
X206000000Y-70600000D03*
X167679200Y-79542000D03*
X198500000Y-59800000D03*
X149464700Y-80242200D03*
X167673300Y-84663700D03*
X192801400Y-59800000D03*
X147616300Y-80271400D03*
X192801400Y-67487150D03*
G04 #@! TO.N,~{CLK7}*
X173411600Y-134391300D03*
X173311300Y-110968000D03*
G04 #@! TO.N,/DMA Controller/VA1*
X66301600Y-68374300D03*
X51936154Y-70390511D03*
G04 #@! TO.N,/DMA Controller/VA0*
X65793600Y-66342300D03*
X51871530Y-71198589D03*
G04 #@! TO.N,Net-(PAD1REG0A-3D)*
X99173700Y-145586900D03*
G04 #@! TO.N,Net-(PAD1REG0A-4D)*
X98157200Y-145566200D03*
G04 #@! TO.N,Net-(PAD2REG0A-3D)*
X151219100Y-154247200D03*
G04 #@! TO.N,Net-(REG.VX0A-7Q)*
X57945500Y-107785900D03*
X53191600Y-116039700D03*
G04 #@! TO.N,Net-(REG.VX0A-6Q)*
X71396300Y-122650800D03*
X49590100Y-115679600D03*
G04 #@! TO.N,Net-(REG.VX0A-5Q)*
X52704400Y-102427200D03*
X71390400Y-120929400D03*
G04 #@! TO.N,Net-(REG.VY0A-7Q)*
X64845200Y-113668600D03*
X65838500Y-117651500D03*
G04 #@! TO.N,Net-(REG.VY0A-6Q)*
X81122100Y-129311500D03*
X79560800Y-130869600D03*
G04 #@! TO.N,AUD_RESET*
X181750000Y-59397200D03*
X196985608Y-60436669D03*
X188951600Y-59298400D03*
X153047200Y-90340100D03*
X203952000Y-68000000D03*
X165072900Y-59303200D03*
G04 #@! TO.N,~{AUD_NMI}*
X167196900Y-104687600D03*
X149668600Y-94822700D03*
X170307000Y-88623500D03*
X152356200Y-104686000D03*
G04 #@! TO.N,AUD_SAMP_RATE_SEL*
X207750000Y-97500000D03*
X158821200Y-105500500D03*
X207800000Y-73423600D03*
X171127100Y-98293700D03*
X167983600Y-108704200D03*
X153262200Y-92725800D03*
G04 #@! TO.N,/CPU and address decode/A14*
X181204000Y-114300000D03*
X190000000Y-108712000D03*
X181864000Y-105918000D03*
X191647000Y-37084000D03*
X181864000Y-108712000D03*
X138430000Y-37084000D03*
G04 #@! TO.N,/CPU and address decode/~{VIASEL}*
X183642000Y-101854000D03*
X182500000Y-62500000D03*
G04 #@! TO.N,/CPU and address decode/SPI_MISO*
X151874000Y-63517700D03*
X151892000Y-70104000D03*
G04 #@! TO.N,RAM_PG_0*
X168438400Y-84475000D03*
X167240500Y-108373900D03*
X159853600Y-108640300D03*
X159569700Y-119295500D03*
G04 #@! TO.N,RAM_PG_1*
X159219700Y-121802500D03*
X158400000Y-85345600D03*
G04 #@! TO.N,/CPU and address decode/SPI_CLK*
X121196600Y-61950100D03*
G04 #@! TO.N,unconnected-(U1-NC-Pad35)*
X182537600Y-124261800D03*
X184500000Y-120750000D03*
G04 #@! TO.N,Net-(J1-Pin_11)*
X152400000Y-66802000D03*
X152400000Y-48514000D03*
X180340000Y-48514000D03*
G04 #@! TO.N,Net-(J1-Pin_12)*
X182880000Y-49276000D03*
X153416000Y-67818000D03*
X153416000Y-49276000D03*
G04 #@! TO.N,Net-(J1-Pin_13)*
X154178000Y-50292000D03*
X154178000Y-71374000D03*
X184500000Y-50292000D03*
G04 #@! TO.N,Net-(J1-Pin_14)*
X155956000Y-71899700D03*
X187960000Y-51054000D03*
X155956000Y-51054000D03*
G04 #@! TO.N,Net-(VMUX0A-1A)*
X61196700Y-65225300D03*
X57337800Y-109065900D03*
G04 #@! TO.N,Net-(VMUX0A-2A)*
X57234000Y-107417600D03*
X62198400Y-67211000D03*
G04 #@! TO.N,Net-(VMUX0A-3A)*
X68355400Y-70728000D03*
X59786200Y-114430000D03*
G04 #@! TO.N,Net-(VMUX0A-4A)*
X69820800Y-70517700D03*
X59945500Y-115189300D03*
G04 #@! TO.N,Net-(VMUX1A-1A)*
X68836700Y-74115300D03*
X59750000Y-102000000D03*
G04 #@! TO.N,Net-(VMUX1A-2A)*
X59134000Y-103018500D03*
X66512600Y-77877700D03*
G04 #@! TO.N,Net-(VMUX1A-3A)*
X58575100Y-103549000D03*
X64997100Y-80294700D03*
G04 #@! TO.N,Net-(VMUX2A-1A)*
X74587200Y-65379300D03*
X67966900Y-108855800D03*
G04 #@! TO.N,Net-(VMUX2A-2A)*
X67338800Y-112817900D03*
X70576400Y-70649600D03*
G04 #@! TO.N,Net-(VMUX2A-3A)*
X69040200Y-107224400D03*
X78181300Y-70359200D03*
G04 #@! TO.N,Net-(VMUX2A-4A)*
X76312200Y-63211600D03*
X71238500Y-100285200D03*
G04 #@! TO.N,Net-(VMUX3A-1A)*
X71403300Y-102235000D03*
X79903500Y-74115300D03*
G04 #@! TO.N,Net-(VMUX3A-2A)*
X70490200Y-102885000D03*
X79372800Y-76412700D03*
G04 #@! TO.N,Net-(VMUX3A-3A)*
X83269600Y-78280900D03*
X71403300Y-103535000D03*
G04 #@! TO.N,Net-(J1-Pin_15)*
X191750000Y-33000000D03*
X159750000Y-33750000D03*
X159750000Y-63000000D03*
G04 #@! TO.N,Net-(J1-Pin_16)*
X162750000Y-36000000D03*
X194250000Y-36250000D03*
X162750000Y-62000000D03*
G04 #@! TO.N,Net-(J1-Pin_17)*
X192974300Y-57750000D03*
X192974300Y-48000000D03*
X199750000Y-48000000D03*
X184000000Y-54750000D03*
X174962423Y-66462423D03*
G04 #@! TO.N,Net-(J1-Pin_18)*
X188000000Y-35500500D03*
X200750000Y-35525700D03*
X176250000Y-64250000D03*
G04 #@! TO.N,Net-(J1-Pin_19)*
X205500000Y-20500000D03*
X184000000Y-20500000D03*
X190250000Y-71882000D03*
X208250000Y-45000000D03*
X190474300Y-45000000D03*
G04 #@! TO.N,Net-(J1-Pin_20)*
X167386000Y-67056000D03*
X167674300Y-35500000D03*
X172000000Y-24500000D03*
X172000000Y-35500000D03*
X186250000Y-24500000D03*
G04 #@! TO.N,Net-(J1-Pin_21)*
X168381900Y-47988300D03*
X168381900Y-65786000D03*
X179000000Y-22500000D03*
X179000000Y-47988300D03*
X188500000Y-22500000D03*
G04 #@! TO.N,Net-(J1-Pin_22)*
X170881900Y-71031600D03*
X206025700Y-22750000D03*
X209500000Y-44000000D03*
X189250000Y-44000000D03*
G04 #@! TO.N,Net-(J1-Pin_23)*
X205000000Y-35000000D03*
X191121300Y-70454000D03*
X204500000Y-22025700D03*
X191000000Y-35000000D03*
G04 #@! TO.N,Net-(J1-Pin_24)*
X204474300Y-23500000D03*
X170833700Y-68599500D03*
X204000000Y-34474300D03*
X187000000Y-35500000D03*
G04 #@! TO.N,Net-(J1-Pin_25)*
X203750000Y-33500000D03*
X203750000Y-24250000D03*
X193500000Y-33500000D03*
X192808802Y-68983612D03*
G04 #@! TO.N,Net-(J1-Pin_26)*
X211000000Y-43250000D03*
X174663900Y-67504400D03*
X188618400Y-43250000D03*
X206525700Y-27380331D03*
G04 #@! TO.N,VNMI*
X111750000Y-33000000D03*
X85203800Y-49757800D03*
X96662100Y-90368900D03*
X47750000Y-53927200D03*
X94155700Y-86527400D03*
X76750000Y-41250000D03*
X76750000Y-33000000D03*
X76750000Y-49766300D03*
X57668500Y-49916600D03*
X89537300Y-86527400D03*
G04 #@! TO.N,/CPU and address decode/sync*
X195224300Y-50500000D03*
X210250000Y-124750000D03*
X183750000Y-48250000D03*
X195224300Y-56750000D03*
X210250000Y-50500000D03*
G04 #@! TO.N,/CPU and address decode/RDY*
X154967800Y-116065700D03*
G04 #@! TO.N,/CPU and address decode/BusEnable*
X198000000Y-51750000D03*
X182250000Y-133250000D03*
X211000000Y-51750000D03*
G04 #@! TO.N,/CPU and address decode/MemLock*
X189500000Y-128250000D03*
X211525700Y-128250000D03*
X198500000Y-49500000D03*
X211500000Y-49500000D03*
X194000000Y-128250000D03*
G04 #@! TD*
D24*
G04 #@! TO.N,/DMA Controller/V{slash}_G*
X119471000Y-79686600D02*
X119471000Y-80351000D01*
X123896000Y-84776000D02*
X123896000Y-102171500D01*
X119471000Y-80351000D02*
X123896000Y-84776000D01*
X123896000Y-102171500D02*
X141039000Y-119314500D01*
G04 #@! TO.N,/DMA Controller/VG_WE*
X95778100Y-42184100D02*
X95758000Y-42164000D01*
X122936000Y-80264000D02*
X123952000Y-80264000D01*
X95758000Y-42164000D02*
X88605800Y-42164000D01*
X88605800Y-42164000D02*
X87355900Y-40914100D01*
X123952000Y-80264000D02*
X125984000Y-82296000D01*
X95778100Y-80264000D02*
X95778100Y-42184100D01*
X125984000Y-82296000D02*
X131064000Y-82296000D01*
G04 #@! TO.N,/DMA Controller/VG_OE*
X132055900Y-80603900D02*
X131757000Y-80305000D01*
X132055900Y-84118100D02*
X132055900Y-80603900D01*
G04 #@! TO.N,Net-(BANKMUX0A-2Y)*
X107038000Y-77295700D02*
X112647300Y-82905000D01*
G04 #@! TO.N,Net-(BANKMUX0A-3Y)*
X117169500Y-31085200D02*
X111499400Y-36755300D01*
X103131300Y-25783000D02*
X103571300Y-26223000D01*
X111499400Y-36755300D02*
X111499400Y-68418500D01*
X117169500Y-26706200D02*
X117169500Y-31085200D01*
X121535100Y-78454200D02*
X121535100Y-80085900D01*
X111499400Y-68418500D02*
X121535100Y-78454200D01*
X103571300Y-26223000D02*
X116686300Y-26223000D01*
X121535100Y-80085900D02*
X124502700Y-83053500D01*
X116686300Y-26223000D02*
X117169500Y-26706200D01*
X124502700Y-83053500D02*
X125487100Y-83053500D01*
G04 #@! TO.N,Net-(BANKMUX0A-4Y)*
X117476200Y-26579100D02*
X117476200Y-31212300D01*
X117476200Y-31212300D02*
X111806100Y-36882400D01*
X121841800Y-77836600D02*
X121841800Y-79922400D01*
X116758600Y-25861500D02*
X117476200Y-26579100D01*
X85090000Y-23595700D02*
X102742700Y-23595700D01*
X121841800Y-79922400D02*
X123524400Y-81605000D01*
X111806100Y-36882400D02*
X111806100Y-67800900D01*
X111806100Y-67800900D02*
X121841800Y-77836600D01*
X123524400Y-81605000D02*
X124212500Y-81605000D01*
X105008500Y-25861500D02*
X116758600Y-25861500D01*
X102742700Y-23595700D02*
X105008500Y-25861500D01*
G04 #@! TO.N,/DMA Controller/DD1*
X50500000Y-76000000D02*
X50550700Y-75949300D01*
X52750000Y-76000000D02*
X50500000Y-76000000D01*
X66040000Y-41646900D02*
X66040000Y-42825000D01*
X53750000Y-77000000D02*
X52750000Y-76000000D01*
G04 #@! TO.N,/DMA Controller/DD2*
X66802000Y-41646900D02*
X66802000Y-43221000D01*
X66802000Y-43221000D02*
X67056000Y-43475000D01*
X54356000Y-75000000D02*
X51500000Y-75000000D01*
G04 #@! TO.N,/DMA Controller/DD3*
X55235400Y-74500000D02*
X55113673Y-74378273D01*
X67564000Y-41646900D02*
X68072000Y-42154900D01*
X68072000Y-42154900D02*
X68072000Y-44125000D01*
X55113673Y-74378273D02*
X52378273Y-74378273D01*
G04 #@! TO.N,/DMA Controller/DD4*
X53147427Y-73852573D02*
X51690000Y-73852573D01*
X53500000Y-73500000D02*
X53147427Y-73852573D01*
X69088000Y-41900900D02*
X69088000Y-44775000D01*
X56000000Y-73500000D02*
X53500000Y-73500000D01*
X68834000Y-41646900D02*
X69088000Y-41900900D01*
G04 #@! TO.N,/DMA Controller/DD5*
X56615800Y-72473800D02*
X56642000Y-72500000D01*
X70104000Y-41646900D02*
X70104000Y-45425000D01*
X53353073Y-72473800D02*
X56615800Y-72473800D01*
X52500000Y-73326873D02*
X53353073Y-72473800D01*
G04 #@! TO.N,/DMA Controller/DD6*
X53173834Y-71500000D02*
X51872661Y-72801173D01*
X57404000Y-71500000D02*
X53173834Y-71500000D01*
X71374000Y-41646900D02*
X71374000Y-46075000D01*
G04 #@! TO.N,/DMA Controller/DD7*
X71628000Y-40894000D02*
X72644000Y-41910000D01*
X58166000Y-70500000D02*
X53430380Y-70500000D01*
X53430380Y-70500000D02*
X51992041Y-71938339D01*
X70845900Y-40894000D02*
X71628000Y-40894000D01*
X72644000Y-41910000D02*
X72644000Y-46725000D01*
G04 #@! TO.N,Net-(BLIT_BUS_SWITCH0C-~{G})*
X91550900Y-83172400D02*
X91550900Y-48453400D01*
X91550900Y-48453400D02*
X91060200Y-47962700D01*
X99269200Y-91405800D02*
X99269200Y-90890700D01*
X99269200Y-90890700D02*
X91550900Y-83172400D01*
G04 #@! TO.N,/DMA Controller/DMAMODE*
X119693300Y-96482100D02*
X119693300Y-100109600D01*
X124123300Y-103833300D02*
X124989200Y-103833300D01*
X119693300Y-100109600D02*
X122196300Y-102612600D01*
X124989200Y-103833300D02*
X131054900Y-109899000D01*
X131054900Y-109899000D02*
X131054900Y-111796100D01*
G04 #@! TO.N,Net-(BLIT_REG_SELECTOR0B-Y7)*
X49059600Y-115965200D02*
X54427600Y-121333200D01*
X54427600Y-121333200D02*
X55193000Y-121333200D01*
X139410000Y-139131300D02*
X139768500Y-138772800D01*
X47629000Y-112130000D02*
X49059600Y-113560600D01*
X49059600Y-113560600D02*
X49059600Y-115965200D01*
X139768500Y-138772800D02*
X139768500Y-136245000D01*
G04 #@! TO.N,/DMA Controller/TRIGGER-SELECT*
X145780700Y-137295700D02*
X143344400Y-134859400D01*
X143344400Y-134859400D02*
X140901200Y-134859400D01*
G04 #@! TO.N,Net-(BLIT_REG_SELECTOR0B-Y3)*
X139461600Y-135508400D02*
X140648200Y-134321800D01*
X143601800Y-134321800D02*
X144613200Y-135333200D01*
X139461600Y-135570800D02*
X139461600Y-135508400D01*
X138074500Y-136957900D02*
X139461600Y-135570800D01*
X140648200Y-134321800D02*
X143601800Y-134321800D01*
G04 #@! TO.N,Net-(BLIT_REG_SELECTOR0B-Y2)*
X145415200Y-131530100D02*
X94463300Y-131530100D01*
X94463300Y-131530100D02*
X92259800Y-129326600D01*
G04 #@! TO.N,/CPU and address decode/~{RESET}*
X182750000Y-60750000D02*
X185488800Y-63488800D01*
X177000000Y-34275700D02*
X177000000Y-58633800D01*
X185488800Y-67436500D02*
X187273500Y-69221200D01*
X187273500Y-103704500D02*
X184409900Y-106568100D01*
X187273500Y-69221200D02*
X187273500Y-103704500D01*
X185488800Y-63488800D02*
X185488800Y-67436500D01*
X185279400Y-107889900D02*
X185279400Y-125880500D01*
X184409900Y-106568100D02*
X184409900Y-107020400D01*
X184409900Y-107020400D02*
X185279400Y-107889900D01*
X182750000Y-59000000D02*
X182750000Y-60750000D01*
G04 #@! TO.N,/DMA Controller/SEQGEN_HIGH*
X66227600Y-143628600D02*
X67941000Y-145342000D01*
X67941000Y-145342000D02*
X71114100Y-145342000D01*
G04 #@! TO.N,/DMA Controller/P3*
X94125300Y-117211700D02*
X90156500Y-121180500D01*
X96733200Y-114099500D02*
X94125300Y-116707400D01*
X65797900Y-141517200D02*
X65797900Y-142312100D01*
X98194700Y-109848800D02*
X97791300Y-109848800D01*
X101855700Y-106187800D02*
X98194700Y-109848800D01*
X96733200Y-110906900D02*
X96733200Y-114099500D01*
X126453700Y-101149000D02*
X127179100Y-101149000D01*
X97791300Y-109848800D02*
X96733200Y-110906900D01*
X90156500Y-121180500D02*
X76737900Y-121180500D01*
X76370600Y-134544900D02*
X72770200Y-134544900D01*
X72770200Y-134544900D02*
X65797900Y-141517200D01*
X94125300Y-116707400D02*
X94125300Y-117211700D01*
X76737900Y-121180500D02*
X75805100Y-122113300D01*
X101855700Y-105522500D02*
X101855700Y-106187800D01*
X127179100Y-101149000D02*
X139839200Y-113809100D01*
X125615700Y-100311000D02*
X126453700Y-101149000D01*
X139839200Y-113809100D02*
X139839200Y-114081700D01*
G04 #@! TO.N,/DMA Controller/P2*
X88046800Y-121973300D02*
X92788900Y-121973300D01*
X102960500Y-119719700D02*
X110384000Y-112296200D01*
X82966800Y-128768600D02*
X83206400Y-129008200D01*
X101516700Y-119719700D02*
X102960500Y-119719700D01*
X110384000Y-112296200D02*
X110384000Y-109103700D01*
X93412400Y-122596800D02*
X98639600Y-122596800D01*
X62630900Y-131533200D02*
X65395500Y-128768600D01*
X65395500Y-128768600D02*
X82966800Y-128768600D01*
X110384000Y-109103700D02*
X113146000Y-106341700D01*
X83206400Y-129008200D02*
X85387400Y-129008200D01*
X92788900Y-121973300D02*
X93412400Y-122596800D01*
X98639600Y-122596800D02*
X101516700Y-119719700D01*
X85387400Y-129008200D02*
X85448800Y-128946800D01*
G04 #@! TO.N,/DMA Controller/P1*
X64975500Y-113048600D02*
X64581700Y-113048600D01*
X61841700Y-115788600D02*
X57355300Y-115788600D01*
X74959500Y-113357300D02*
X65284200Y-113357300D01*
X57355300Y-115788600D02*
X54549900Y-112983200D01*
X75659300Y-112657500D02*
X75940700Y-112657500D01*
X75659300Y-112657500D02*
X75659300Y-106223000D01*
X75659300Y-106223000D02*
X77776800Y-104105500D01*
X58895300Y-121137000D02*
X58895300Y-119187500D01*
X64581700Y-113048600D02*
X61841700Y-115788600D01*
X65284200Y-113357300D02*
X64975500Y-113048600D01*
X60406100Y-122647800D02*
X58895300Y-121137000D01*
X75659300Y-112657500D02*
X74959500Y-113357300D01*
X64581700Y-112573600D02*
X64581700Y-113048600D01*
G04 #@! TO.N,/DMA Controller/P0*
X74836700Y-144340300D02*
X68721500Y-144340300D01*
X68721500Y-144340300D02*
X68721500Y-144340400D01*
X97263800Y-114027200D02*
X97263800Y-111167200D01*
X94943100Y-120467400D02*
X94593800Y-120118100D01*
X94593800Y-120118100D02*
X94593800Y-116697200D01*
X82862600Y-136314400D02*
X74836700Y-144340300D01*
X94593800Y-116697200D02*
X97263800Y-114027200D01*
G04 #@! TO.N,/DMA Controller/~{ROWCOMPLETE}*
X99086000Y-101883300D02*
X99086000Y-101993700D01*
X102388900Y-105296600D02*
X102388900Y-112776800D01*
X99086000Y-101993700D02*
X102388900Y-105296600D01*
G04 #@! TO.N,/DMA Controller/~{INIT}*
X92267100Y-117379200D02*
X72467700Y-117379200D01*
X122024500Y-116424600D02*
X122024500Y-114984900D01*
X96673100Y-101870800D02*
X96377400Y-102166500D01*
X95748000Y-111642200D02*
X92604500Y-114785700D01*
X135207800Y-118013000D02*
X123612900Y-118013000D01*
X97669500Y-103458600D02*
X97669500Y-108669200D01*
X135207800Y-118013100D02*
X135207800Y-118013000D01*
X104791700Y-112378200D02*
X104791700Y-111266500D01*
X97669500Y-108669200D02*
X95748000Y-110590700D01*
X96377400Y-102166500D02*
X97669500Y-103458600D01*
X104791700Y-111266500D02*
X107015700Y-109042500D01*
X96014900Y-102166500D02*
X92041400Y-106140000D01*
X122024500Y-114984900D02*
X119779500Y-112739900D01*
X123612900Y-118013000D02*
X122024500Y-116424600D01*
X96673100Y-101251900D02*
X96673100Y-101870800D01*
X96377400Y-102166500D02*
X96014900Y-102166500D01*
X92604500Y-114785700D02*
X92604500Y-117041800D01*
X92604500Y-117041800D02*
X92267100Y-117379200D01*
X119779500Y-112739900D02*
X119779500Y-112476700D01*
X95748000Y-110590700D02*
X95748000Y-111642200D01*
X72467700Y-117379200D02*
X72062400Y-116973900D01*
G04 #@! TO.N,/DMA Controller/~{RUNNING}*
X117002100Y-115381700D02*
X119708900Y-115381700D01*
X110697000Y-121686800D02*
X117002100Y-115381700D01*
G04 #@! TO.N,Net-(CTR.W0A-PL)*
X108454300Y-105694300D02*
X108454300Y-113452700D01*
X108454300Y-113452700D02*
X105559600Y-116347400D01*
G04 #@! TO.N,Net-(PAD2REG0A-2D)*
X149678000Y-152100700D02*
X159502100Y-152100700D01*
X168910000Y-142259000D02*
X167917500Y-142259000D01*
X159502100Y-152100700D02*
X167917500Y-143685300D01*
X167917500Y-143685300D02*
X167917500Y-142259000D01*
G04 #@! TO.N,Net-(GAMEPAD_SELECTOR0A-Q)*
X98327800Y-148040400D02*
X98327800Y-146672300D01*
X93433900Y-163370300D02*
X93433900Y-152934300D01*
X93433900Y-152934300D02*
X98327800Y-148040400D01*
G04 #@! TO.N,Net-(GAMEPAD_SELECTOR0B-D)*
X127033300Y-151993200D02*
X125857400Y-150817300D01*
X127033300Y-154003900D02*
X127033300Y-151993200D01*
G04 #@! TO.N,/DMA Controller/~{DMAMODE}*
X75462300Y-67956600D02*
X77314700Y-69809000D01*
X108852100Y-83060000D02*
X108852100Y-92162000D01*
X108852100Y-92162000D02*
X119424400Y-102734300D01*
X104405400Y-78613300D02*
X108852100Y-83060000D01*
X85055200Y-74278700D02*
X85055200Y-78520500D01*
X98398800Y-22657300D02*
X98090100Y-22966000D01*
X77314700Y-69809000D02*
X77314700Y-71425800D01*
X77314700Y-71425800D02*
X77812500Y-71923600D01*
X84410100Y-73633600D02*
X85055200Y-74278700D01*
X75462300Y-62424200D02*
X75462300Y-67956600D01*
X98090100Y-22966000D02*
X96010600Y-22966000D01*
X74777300Y-56831800D02*
X73972900Y-56027400D01*
X73972900Y-56027400D02*
X73972900Y-39999800D01*
X73972900Y-39999800D02*
X73845800Y-39872700D01*
X119424400Y-102734300D02*
X119424400Y-104459200D01*
G04 #@! TO.N,Net-(GMUX0A-1A)*
X103545900Y-53034100D02*
X103867700Y-53355900D01*
X103545900Y-41247300D02*
X103545900Y-53034100D01*
X103867700Y-85495300D02*
X103479100Y-85883900D01*
X105390400Y-39402800D02*
X103545900Y-41247300D01*
X103867700Y-53355900D02*
X103867700Y-85495300D01*
G04 #@! TO.N,/DMA Controller/GA0*
X103886000Y-37338000D02*
X104140000Y-37084000D01*
X53340000Y-37338000D02*
X103886000Y-37338000D01*
G04 #@! TO.N,Net-(GMUX0A-2A)*
X107470100Y-27462300D02*
X112750000Y-32742200D01*
X112750000Y-32742200D02*
X112750000Y-35070900D01*
X105371300Y-49340900D02*
X105371300Y-56672700D01*
X89379700Y-56672700D02*
X88552800Y-57499600D01*
X88552800Y-57499600D02*
X88552800Y-80447900D01*
X88552800Y-80447900D02*
X78613700Y-90387000D01*
X109959500Y-37861400D02*
X109959500Y-44752700D01*
X78613700Y-92218700D02*
X77367900Y-93464500D01*
X78613700Y-90387000D02*
X78613700Y-92218700D01*
X112750000Y-35070900D02*
X109959500Y-37861400D01*
X109959500Y-44752700D02*
X105371300Y-49340900D01*
G04 #@! TO.N,/DMA Controller/GA1*
X104481000Y-36662900D02*
X104258000Y-36439600D01*
X104258000Y-36439600D02*
X52968400Y-36439600D01*
X104902000Y-36662900D02*
X104481000Y-36662900D01*
X52968400Y-36439600D02*
X52324000Y-37084000D01*
G04 #@! TO.N,/DMA Controller/GA2*
X109539000Y-36134800D02*
X52083300Y-36134800D01*
X109763000Y-36358600D02*
X109539000Y-36134800D01*
X110744000Y-36322000D02*
X110707000Y-36358600D01*
X52083300Y-36134800D02*
X51642100Y-36576000D01*
X110707000Y-36358600D02*
X109763000Y-36358600D01*
G04 #@! TO.N,Net-(GMUX0A-3A)*
X83292700Y-87130500D02*
X90300600Y-80122600D01*
X120011000Y-26253500D02*
X120011000Y-35811700D01*
X90300600Y-51758800D02*
X89879200Y-51337400D01*
X83292700Y-94328600D02*
X83292700Y-87130500D01*
X114300000Y-41522700D02*
X114300000Y-48160500D01*
X120011000Y-35811700D02*
X114300000Y-41522700D01*
X82780400Y-94840900D02*
X83292700Y-94328600D01*
X90300600Y-80122600D02*
X90300600Y-51758800D01*
G04 #@! TO.N,/DMA Controller/GA3*
X51070000Y-35830000D02*
X51054000Y-35814000D01*
X109982000Y-35830000D02*
X51070000Y-35830000D01*
G04 #@! TO.N,Net-(GMUX0A-4A)*
X105775800Y-57343700D02*
X105235500Y-57343700D01*
X104807200Y-40852200D02*
X106256100Y-39403300D01*
X88859600Y-58222300D02*
X88859600Y-80696000D01*
X82679300Y-88283400D02*
X82188600Y-88774100D01*
X82188600Y-90508800D02*
X82274900Y-90595100D01*
X89459700Y-57622200D02*
X88859600Y-58222300D01*
X104807200Y-56915400D02*
X104807200Y-40852200D01*
X88859600Y-80696000D02*
X82679300Y-86876300D01*
X82188600Y-88774100D02*
X82188600Y-90508800D01*
X105235500Y-57343700D02*
X104807200Y-56915400D01*
X82679300Y-86876300D02*
X82679300Y-88283400D01*
G04 #@! TO.N,Net-(GMUX1A-1A)*
X53500000Y-92346800D02*
X45372700Y-84219500D01*
X47266300Y-45304900D02*
X47413200Y-45304900D01*
X53500000Y-94500000D02*
X53500000Y-92346800D01*
X53238000Y-39480100D02*
X53238000Y-38765600D01*
X47413200Y-45304900D02*
X53238000Y-39480100D01*
X45372700Y-84219500D02*
X45372700Y-47198500D01*
X45372700Y-47198500D02*
X47266300Y-45304900D01*
G04 #@! TO.N,/DMA Controller/GA4*
X93726000Y-24130000D02*
X94996000Y-25400000D01*
X51054000Y-24130000D02*
X93726000Y-24130000D01*
G04 #@! TO.N,Net-(GMUX1A-2A)*
X48235000Y-49756500D02*
X49180700Y-49756500D01*
X54250000Y-95250000D02*
X54250000Y-94000000D01*
X49180700Y-49756500D02*
X53173400Y-45763800D01*
X53899200Y-93649200D02*
X53899200Y-84157700D01*
X54250000Y-94000000D02*
X53899200Y-93649200D01*
X53750000Y-96750000D02*
X53750000Y-95750000D01*
X53750000Y-95750000D02*
X54250000Y-95250000D01*
X45736700Y-52254800D02*
X48235000Y-49756500D01*
X45736700Y-75995200D02*
X45736700Y-52254800D01*
X53899200Y-84157700D02*
X45736700Y-75995200D01*
X91720200Y-34750000D02*
X91509100Y-34961100D01*
X91509100Y-34961100D02*
X67586000Y-34961100D01*
X95177500Y-34750000D02*
X91720200Y-34750000D01*
G04 #@! TO.N,D0*
X133858000Y-123444000D02*
X148590000Y-123444000D01*
X161036000Y-100076000D02*
X161036000Y-74422000D01*
X165608000Y-56134000D02*
X165608000Y-42825000D01*
X148590000Y-123444000D02*
X148844000Y-123190000D01*
X61947200Y-123190000D02*
X73377200Y-123190000D01*
X161036000Y-70866000D02*
X165608000Y-66294000D01*
X161015000Y-123169000D02*
X161036000Y-123190000D01*
X131797000Y-123190000D02*
X132051000Y-123444000D01*
X85442200Y-123190000D02*
X97507200Y-123190000D01*
X161015000Y-100097000D02*
X161015000Y-123169000D01*
X132051000Y-123444000D02*
X133858000Y-123444000D01*
X161036000Y-139700000D02*
X143002000Y-139700000D01*
X97507200Y-123190000D02*
X108937000Y-123190000D01*
X138430000Y-64770000D02*
X148082000Y-74422000D01*
X161036000Y-100076000D02*
X161015000Y-100097000D01*
X120367000Y-123190000D02*
X131797000Y-123190000D01*
X161036000Y-74422000D02*
X161036000Y-70866000D01*
X142748000Y-139954000D02*
X93472000Y-139954000D01*
X42550900Y-123190000D02*
X61947200Y-123190000D01*
X143002000Y-139700000D02*
X142748000Y-139954000D01*
X165608000Y-66294000D02*
X165608000Y-56134000D01*
X148844000Y-123190000D02*
X161036000Y-123190000D01*
X73377200Y-123190000D02*
X85442200Y-123190000D01*
X108937000Y-123190000D02*
X120367000Y-123190000D01*
X176784000Y-123190000D02*
X161036000Y-123190000D01*
G04 #@! TO.N,D1*
X161568000Y-100608000D02*
X161568000Y-73660000D01*
X108302000Y-123825000D02*
X119732000Y-123825000D01*
X166370000Y-55626000D02*
X166370000Y-43475000D01*
X176784000Y-122428000D02*
X161544000Y-122428000D01*
X96872200Y-123825000D02*
X108302000Y-123825000D01*
X161568000Y-140232000D02*
X161083000Y-140716000D01*
X84807200Y-123825000D02*
X96872200Y-123825000D01*
X149098000Y-123952000D02*
X161544000Y-123952000D01*
X92964000Y-140716000D02*
X92710000Y-140462000D01*
X43180000Y-123952000D02*
X43307000Y-123825000D01*
X149078000Y-123972000D02*
X149098000Y-123952000D01*
X72742200Y-123825000D02*
X84807200Y-123825000D01*
X161568000Y-100608000D02*
X161544000Y-100631000D01*
X161083000Y-140716000D02*
X142240000Y-140716000D01*
X43307000Y-123825000D02*
X61312200Y-123825000D01*
X161544000Y-71120000D02*
X166370000Y-66294000D01*
X166370000Y-66294000D02*
X166370000Y-55626000D01*
X135128000Y-123972000D02*
X149078000Y-123972000D01*
X140970000Y-64770000D02*
X149860000Y-73660000D01*
X131309000Y-123972000D02*
X135128000Y-123972000D01*
X161568000Y-72159700D02*
X161544000Y-72136000D01*
X161544000Y-72136000D02*
X161544000Y-71120000D01*
X119732000Y-123825000D02*
X131162000Y-123825000D01*
X142240000Y-140716000D02*
X92964000Y-140716000D01*
X161544000Y-100631000D02*
X161544000Y-122428000D01*
X61312200Y-123825000D02*
X72742200Y-123825000D01*
X131162000Y-123825000D02*
X131309000Y-123972000D01*
X161568000Y-73660000D02*
X161568000Y-72159700D01*
G04 #@! TO.N,D2*
X143022000Y-141224000D02*
X143002000Y-141244000D01*
X167132000Y-56134000D02*
X167132000Y-44125000D01*
X72107200Y-124460000D02*
X84172200Y-124460000D01*
X43734600Y-124460000D02*
X60677200Y-124460000D01*
X141443000Y-141203000D02*
X92984600Y-141203000D01*
X162306000Y-72644000D02*
X162306000Y-70789100D01*
X176784000Y-121666000D02*
X162306000Y-121666000D01*
X96237200Y-124460000D02*
X107667000Y-124460000D01*
X43731900Y-124463000D02*
X43734600Y-124460000D01*
X119097000Y-124460000D02*
X134326000Y-124460000D01*
X84172200Y-124460000D02*
X96237200Y-124460000D01*
X162052000Y-141224000D02*
X143022000Y-141224000D01*
X134500000Y-124634000D02*
X148782000Y-124634000D01*
X134326000Y-124460000D02*
X134366000Y-124500000D01*
X162306000Y-101092000D02*
X162306000Y-121666000D01*
X92984600Y-141203000D02*
X92710000Y-141478000D01*
X143510000Y-64770000D02*
X151384000Y-72644000D01*
X162306000Y-101092000D02*
X162306000Y-72644000D01*
X141484000Y-141244000D02*
X141443000Y-141203000D01*
X167132000Y-65963100D02*
X167132000Y-56134000D01*
X143002000Y-141244000D02*
X141484000Y-141244000D01*
X134366000Y-124500000D02*
X134500000Y-124634000D01*
X60677200Y-124460000D02*
X72107200Y-124460000D01*
X162306000Y-70789100D02*
X167132000Y-65963100D01*
X148782000Y-124634000D02*
X162052000Y-124634000D01*
X107667000Y-124460000D02*
X119097000Y-124460000D01*
G04 #@! TO.N,D3*
X168910000Y-66548000D02*
X168910000Y-56134000D01*
X135890000Y-59918600D02*
X135890000Y-44775000D01*
X163068000Y-72390000D02*
X168910000Y-66548000D01*
X96872200Y-125283000D02*
X96872200Y-125095000D01*
X119097000Y-125095000D02*
X135210000Y-125095000D01*
X135210000Y-125095000D02*
X135382000Y-125267000D01*
X108937000Y-125283000D02*
X108937000Y-125095000D01*
X164084000Y-101092000D02*
X163809000Y-100817000D01*
X149109000Y-125267000D02*
X149138000Y-125296000D01*
X74200200Y-125095000D02*
X74012200Y-125283000D01*
X141224000Y-141732000D02*
X94561100Y-141732000D01*
X163068000Y-120904000D02*
X163047000Y-120883000D01*
X44379000Y-125222000D02*
X44506000Y-125095000D01*
X119097000Y-125212000D02*
X119097000Y-125095000D01*
X163047000Y-102129000D02*
X164084000Y-101092000D01*
X163068000Y-120904000D02*
X176784000Y-120904000D01*
X60042200Y-125095000D02*
X74200200Y-125095000D01*
X141478000Y-141986000D02*
X163068000Y-141986000D01*
X168910000Y-56134000D02*
X168910000Y-44775000D01*
X163047000Y-120883000D02*
X163047000Y-102129000D01*
X44506000Y-125095000D02*
X60042200Y-125095000D01*
X85630200Y-125095000D02*
X85442200Y-125283000D01*
X163809000Y-100817000D02*
X163809000Y-84307400D01*
X94561100Y-141732000D02*
X93980000Y-142313000D01*
X135382000Y-125267000D02*
X149109000Y-125267000D01*
X163809000Y-84307400D02*
X163068000Y-83566000D01*
X149138000Y-125296000D02*
X163068000Y-125296000D01*
X108937000Y-125095000D02*
X119097000Y-125095000D01*
X96872200Y-125095000D02*
X108937000Y-125095000D01*
X85630200Y-125095000D02*
X96872200Y-125095000D01*
X141224000Y-141732000D02*
X141478000Y-141986000D01*
X74200200Y-125095000D02*
X85630200Y-125095000D01*
X163068000Y-83566000D02*
X163068000Y-72390000D01*
G04 #@! TO.N,D4*
X119732000Y-125933000D02*
X134823000Y-125933000D01*
X142748000Y-142514000D02*
X94526600Y-142514000D01*
X164866000Y-101092000D02*
X164866000Y-84602200D01*
X169672000Y-66548000D02*
X169672000Y-55880000D01*
X163809000Y-83545400D02*
X163809000Y-72411000D01*
X60960000Y-125750000D02*
X61142900Y-125933000D01*
X61142900Y-125933000D02*
X73377200Y-125933000D01*
X134823000Y-125933000D02*
X134874000Y-125984000D01*
X133350000Y-59918600D02*
X133350000Y-45425000D01*
X96237200Y-125933000D02*
X108302000Y-125933000D01*
X93565700Y-142842000D02*
X93218000Y-142494000D01*
X163597000Y-120142000D02*
X176784000Y-120142000D01*
X73377200Y-125933000D02*
X84807200Y-125933000D01*
X45008900Y-125933000D02*
X44958000Y-125984000D01*
X94199000Y-142842000D02*
X93565700Y-142842000D01*
X163576000Y-102382000D02*
X164866000Y-101092000D01*
X164866000Y-84602200D02*
X163830000Y-83566000D01*
X142752000Y-142518000D02*
X142748000Y-142514000D01*
X163809000Y-72411000D02*
X169672000Y-66548000D01*
X60777100Y-125933000D02*
X45008900Y-125933000D01*
X148590000Y-125984000D02*
X163576000Y-125984000D01*
X163830000Y-83566000D02*
X163809000Y-83545400D01*
X60960000Y-125750000D02*
X60777100Y-125933000D01*
X108302000Y-125933000D02*
X119732000Y-125933000D01*
X163597000Y-120142000D02*
X163576000Y-120121000D01*
X94526600Y-142514000D02*
X94199000Y-142842000D01*
X163576000Y-120121000D02*
X163576000Y-102382000D01*
X169672000Y-55880000D02*
X169672000Y-45425000D01*
X134874000Y-125984000D02*
X148590000Y-125984000D01*
X84807200Y-125933000D02*
X96237200Y-125933000D01*
X163600000Y-142518000D02*
X142752000Y-142518000D01*
G04 #@! TO.N,D5*
X132334000Y-126516000D02*
X135406000Y-126516000D01*
X93472000Y-143256000D02*
X93218000Y-143510000D01*
X142240000Y-143256000D02*
X93472000Y-143256000D01*
X107667000Y-126461000D02*
X119097000Y-126461000D01*
X164338000Y-102372000D02*
X165618000Y-101092000D01*
X135406000Y-126516000D02*
X149122000Y-126516000D01*
X149606000Y-127000000D02*
X164338000Y-127000000D01*
X165618000Y-71364000D02*
X170434000Y-66548000D01*
X119097000Y-126461000D02*
X132280000Y-126461000D01*
X45709800Y-126461000D02*
X45679000Y-126492000D01*
X170434000Y-56388000D02*
X170434000Y-46075000D01*
X95602200Y-126461000D02*
X107667000Y-126461000D01*
X149122000Y-126516000D02*
X149606000Y-127000000D01*
X164338000Y-143256000D02*
X142240000Y-143256000D01*
X164338000Y-119380000D02*
X164338000Y-102372000D01*
X164338000Y-119380000D02*
X176784000Y-119380000D01*
X61976000Y-126461000D02*
X45709800Y-126461000D01*
X170434000Y-66548000D02*
X170434000Y-56388000D01*
X61976000Y-126461000D02*
X72742200Y-126461000D01*
X132280000Y-126461000D02*
X132334000Y-126516000D01*
X130810000Y-59918600D02*
X130810000Y-46075000D01*
X165618000Y-101092000D02*
X165618000Y-71364000D01*
X84172200Y-126461000D02*
X95602200Y-126461000D01*
X72742200Y-126461000D02*
X84172200Y-126461000D01*
G04 #@! TO.N,D6*
X60442000Y-126990000D02*
X46243800Y-126990000D01*
X148844000Y-127254000D02*
X149352000Y-127762000D01*
X85675200Y-127000000D02*
X97105200Y-127000000D01*
X60706000Y-127254000D02*
X60960000Y-127000000D01*
X85675200Y-127000000D02*
X85442200Y-127233000D01*
X165100000Y-118618000D02*
X165100000Y-102362000D01*
X109170000Y-127000000D02*
X120600000Y-127000000D01*
X142772000Y-143788000D02*
X96002800Y-143788000D01*
X128270000Y-59918600D02*
X128270000Y-46725000D01*
X97105200Y-127000000D02*
X109170000Y-127000000D01*
X170942000Y-59436000D02*
X171450000Y-58928000D01*
X60960000Y-127000000D02*
X74245200Y-127000000D01*
X60706000Y-127254000D02*
X60442000Y-126990000D01*
X96002800Y-143788000D02*
X95518400Y-144272000D01*
X149352000Y-127762000D02*
X165100000Y-127762000D01*
X120600000Y-127000000D02*
X135114000Y-127000000D01*
X166370000Y-71247000D02*
X170942000Y-66675000D01*
X74245200Y-127000000D02*
X74012200Y-127233000D01*
X109170000Y-127000000D02*
X108937000Y-127233000D01*
X165100000Y-144018000D02*
X143002000Y-144018000D01*
X171450000Y-58928000D02*
X171450000Y-56388000D01*
X95518400Y-144272000D02*
X93218000Y-144272000D01*
X135382000Y-127267000D02*
X135395000Y-127254000D01*
X166370000Y-101092000D02*
X166370000Y-71247000D01*
X135395000Y-127254000D02*
X148844000Y-127254000D01*
X97105200Y-127000000D02*
X96872200Y-127233000D01*
X171450000Y-56388000D02*
X171450000Y-46725000D01*
X143002000Y-144018000D02*
X142772000Y-143788000D01*
X135114000Y-127000000D02*
X135382000Y-127267000D01*
X170942000Y-66675000D02*
X170942000Y-59436000D01*
X165100000Y-102362000D02*
X166370000Y-101092000D01*
X165100000Y-118618000D02*
X176784000Y-118618000D01*
X120600000Y-127000000D02*
X120367000Y-127233000D01*
X46243800Y-126990000D02*
X46230900Y-127003000D01*
X74245200Y-127000000D02*
X85675200Y-127000000D01*
G04 #@! TO.N,D7*
X142261000Y-144547000D02*
X142240000Y-144526000D01*
X174182900Y-63536040D02*
X174250000Y-63468940D01*
X174250000Y-60446000D02*
X175006000Y-59690000D01*
X174250000Y-64039060D02*
X174182900Y-63971960D01*
X73377200Y-127883000D02*
X84807200Y-127883000D01*
X148841000Y-128019000D02*
X148844000Y-128016000D01*
X125730000Y-59918600D02*
X125730000Y-47375000D01*
X151964000Y-128524000D02*
X165862000Y-128524000D01*
X151338000Y-128524000D02*
X151432000Y-128430000D01*
X149352000Y-128524000D02*
X151338000Y-128524000D01*
X174250000Y-64256000D02*
X174250000Y-64039060D01*
X119732000Y-127883000D02*
X135246000Y-127883000D01*
X61722000Y-128016000D02*
X46990000Y-128016000D01*
X135246000Y-127883000D02*
X135382000Y-128019000D01*
X165862000Y-117856000D02*
X176759000Y-117856000D01*
X174182900Y-63971960D02*
X174182900Y-63536040D01*
X167132000Y-101092000D02*
X167132000Y-71374000D01*
X148844000Y-128016000D02*
X149352000Y-128524000D01*
X151432000Y-128430000D02*
X151870000Y-128430000D01*
X84807200Y-127883000D02*
X96237200Y-127883000D01*
X108302000Y-127883000D02*
X119732000Y-127883000D01*
X142240000Y-144526000D02*
X141732000Y-145034000D01*
X141732000Y-145034000D02*
X93980000Y-145034000D01*
X135382000Y-128019000D02*
X148841000Y-128019000D01*
X165862000Y-117856000D02*
X165862000Y-102362000D01*
X165862000Y-102362000D02*
X167132000Y-101092000D01*
X165841000Y-144547000D02*
X142261000Y-144547000D01*
X167132000Y-71374000D02*
X174250000Y-64256000D01*
X61722000Y-128016000D02*
X61855000Y-127883000D01*
X165862000Y-144526000D02*
X165841000Y-144547000D01*
X96237200Y-127883000D02*
X108302000Y-127883000D01*
X61855000Y-127883000D02*
X73377200Y-127883000D01*
X174250000Y-63468940D02*
X174250000Y-60446000D01*
X151870000Y-128430000D02*
X151964000Y-128524000D01*
X175006000Y-59690000D02*
X175006000Y-47375000D01*
G04 #@! TO.N,A0*
X189500000Y-73227046D02*
X189500000Y-67229000D01*
X104902000Y-24892000D02*
X116586000Y-24892000D01*
X156906460Y-30480000D02*
X157988000Y-31561540D01*
X203200000Y-123190000D02*
X203200000Y-96266000D01*
X135890000Y-64770000D02*
X146030000Y-74909900D01*
X62738000Y-65786000D02*
X62738000Y-85344000D01*
X203400000Y-80650000D02*
X203400000Y-96066000D01*
X189511477Y-73238523D02*
X189500000Y-73227046D01*
X203400000Y-96066000D02*
X203200000Y-96266000D01*
X157988000Y-31561540D02*
X157988000Y-61468000D01*
X157988000Y-61468000D02*
X157988000Y-74909900D01*
X146030000Y-74909900D02*
X146071000Y-74909900D01*
X203250000Y-80500000D02*
X203200000Y-80450000D01*
X189500000Y-67229000D02*
X188863900Y-66592900D01*
X188863900Y-66592900D02*
X186774100Y-66592900D01*
X203200000Y-80450000D02*
X203200000Y-67648600D01*
X142240000Y-78740500D02*
X146071000Y-74909900D01*
X151250000Y-30480000D02*
X156906460Y-30480000D01*
X203250000Y-80500000D02*
X203400000Y-80650000D01*
X142240000Y-85344000D02*
X142240000Y-78740500D01*
X186774100Y-66592900D02*
X186199000Y-67168000D01*
X203200000Y-67648600D02*
X196801400Y-61250000D01*
G04 #@! TO.N,A1*
X157460000Y-60452000D02*
X157460000Y-75184000D01*
X202674300Y-81750000D02*
X202800000Y-81875700D01*
X154667800Y-76651860D02*
X154976040Y-76960100D01*
X154976040Y-76960100D02*
X156173960Y-76960100D01*
X202672000Y-122428000D02*
X202672000Y-95504000D01*
X152250000Y-32500000D02*
X154976040Y-35226040D01*
X202672000Y-81747700D02*
X202672000Y-67870600D01*
X157460000Y-75184000D02*
X157226000Y-75417900D01*
X202674300Y-81750000D02*
X202672000Y-81747700D01*
X92710000Y-79756000D02*
X92710000Y-71374000D01*
X154667800Y-76215940D02*
X154667800Y-76651860D01*
X133350000Y-64770000D02*
X139954000Y-71374000D01*
X154891600Y-75992140D02*
X154667800Y-76215940D01*
X154891600Y-56321760D02*
X154891600Y-75992140D01*
X154976040Y-35226040D02*
X154976040Y-55353800D01*
X143998000Y-75417900D02*
X144018000Y-75417900D01*
X147097000Y-104140000D02*
X147097000Y-97059100D01*
X65532000Y-67818000D02*
X65532000Y-79756000D01*
X152250000Y-31750000D02*
X152250000Y-32500000D01*
X154667800Y-55662040D02*
X154667800Y-56097960D01*
X154976040Y-55353800D02*
X154667800Y-55662040D01*
X156173960Y-76960100D02*
X157460000Y-75674060D01*
X202672000Y-67870600D02*
X196801400Y-62000000D01*
X157460000Y-75674060D02*
X157460000Y-60452000D01*
X154667800Y-56097960D02*
X154891600Y-56321760D01*
X139954000Y-71374000D02*
X143998000Y-75417900D01*
X202800000Y-81875700D02*
X202800000Y-95376000D01*
X104902000Y-26924000D02*
X116586000Y-26924000D01*
X202800000Y-95376000D02*
X202672000Y-95504000D01*
X147097000Y-97059100D02*
X147066000Y-97028000D01*
G04 #@! TO.N,A2*
X141966000Y-75925900D02*
X141986000Y-75925900D01*
X156697000Y-75692500D02*
X156464000Y-75925900D01*
X202144000Y-120904000D02*
X202144000Y-94742000D01*
X202200000Y-82700000D02*
X202144000Y-82644000D01*
X202144000Y-68092600D02*
X196801400Y-62750000D01*
X67818000Y-70166300D02*
X67818000Y-84582000D01*
X68600100Y-68326000D02*
X68600100Y-69384200D01*
X156697000Y-59920800D02*
X156697000Y-75692500D01*
X147828000Y-104902000D02*
X147828000Y-96520000D01*
X154500000Y-32528100D02*
X156972000Y-35000100D01*
X156928000Y-59690000D02*
X156697000Y-59920800D01*
X202144000Y-82644000D02*
X202144000Y-68092600D01*
X202200000Y-94686000D02*
X202144000Y-94742000D01*
X202200000Y-82700000D02*
X202200000Y-94686000D01*
X141478000Y-84582000D02*
X141478000Y-76433900D01*
X141478000Y-76433900D02*
X141986000Y-75925900D01*
X68600100Y-69384200D02*
X67818000Y-70166300D01*
X154500000Y-32250000D02*
X154500000Y-32528100D01*
X156972000Y-59646200D02*
X156928000Y-59690000D01*
X130810000Y-64770000D02*
X141966000Y-75925900D01*
X156972000Y-35000100D02*
X156972000Y-59646200D01*
G04 #@! TO.N,A3*
X201616000Y-93980000D02*
X201700000Y-93896000D01*
X201616000Y-68314600D02*
X196801400Y-63500000D01*
X153250000Y-32258100D02*
X155427000Y-34435100D01*
X93472000Y-80518000D02*
X93472000Y-72390000D01*
X155427000Y-34435100D02*
X155427000Y-55646600D01*
X201616000Y-119888000D02*
X201616000Y-93980000D01*
X155427000Y-55646600D02*
X155194000Y-55880000D01*
X201616000Y-83500000D02*
X201616000Y-68314600D01*
X201700000Y-93896000D02*
X201700000Y-83584000D01*
X201700000Y-83584000D02*
X201616000Y-83500000D01*
X136017000Y-72517000D02*
X139934000Y-76433900D01*
X139934000Y-76433900D02*
X139954000Y-76433900D01*
X128270000Y-64770000D02*
X136017000Y-72517000D01*
X153250000Y-31008100D02*
X153250000Y-32258100D01*
X155194000Y-55880000D02*
X155194000Y-76433900D01*
X67056000Y-67564000D02*
X67056000Y-80518000D01*
G04 #@! TO.N,A4*
X201088000Y-93345000D02*
X201087000Y-93346000D01*
X201090300Y-84250000D02*
X201200000Y-84359700D01*
X137902000Y-76941900D02*
X137922000Y-76941900D01*
X94488000Y-81788000D02*
X94488000Y-73152000D01*
X201200000Y-84359700D02*
X201200000Y-93233000D01*
X99822000Y-40132000D02*
X99822000Y-73152000D01*
X134112000Y-73152000D02*
X137902000Y-76941900D01*
X201088000Y-84247700D02*
X201088000Y-68536600D01*
X73152000Y-74676000D02*
X73152000Y-81788000D01*
X125730000Y-64770000D02*
X134112000Y-73152000D01*
X201088000Y-119324000D02*
X201088000Y-93345000D01*
X201090300Y-84250000D02*
X201088000Y-84247700D01*
X201088000Y-68536600D02*
X196801400Y-64250000D01*
X201200000Y-93233000D02*
X201088000Y-93345000D01*
X201087000Y-93346000D02*
X201087000Y-93445200D01*
G04 #@! TO.N,A5*
X99060000Y-40132000D02*
X99060000Y-73914000D01*
X200560000Y-85086106D02*
X200560000Y-92710000D01*
X132461000Y-74041000D02*
X135870000Y-77449900D01*
X72390000Y-76708000D02*
X72390000Y-82550000D01*
X200560000Y-118364000D02*
X200560000Y-92710000D01*
X200560000Y-84857506D02*
X200560000Y-69008600D01*
X200560000Y-69008600D02*
X196801400Y-65250000D01*
X123190000Y-64770000D02*
X132461000Y-74041000D01*
X135870000Y-77449900D02*
X135890000Y-77449900D01*
X95250000Y-82529900D02*
X95250000Y-73914000D01*
X200674300Y-84971806D02*
X200560000Y-85086106D01*
X200674300Y-84971806D02*
X200560000Y-84857506D01*
G04 #@! TO.N,A6*
X200031000Y-85500000D02*
X200031000Y-91948000D01*
X200031000Y-69269600D02*
X196801400Y-66040000D01*
X133838000Y-77957900D02*
X134112000Y-77957900D01*
X200031000Y-117602000D02*
X200031000Y-91948000D01*
X120650000Y-64770000D02*
X131318000Y-75438000D01*
X200031000Y-85500000D02*
X200031000Y-69269600D01*
X97536000Y-83058000D02*
X97536000Y-75438000D01*
X77216000Y-77470000D02*
X77216000Y-83058000D01*
X131318000Y-75438000D02*
X133838000Y-77957900D01*
X101346000Y-40132000D02*
X101346000Y-75438000D01*
G04 #@! TO.N,A7*
X199390000Y-114554000D02*
X199390000Y-91186000D01*
X123317000Y-69977000D02*
X131806000Y-78465900D01*
X87376000Y-49530000D02*
X87122000Y-49784000D01*
X199390000Y-91186000D02*
X199390000Y-86000000D01*
X78740000Y-65786000D02*
X78740000Y-69850000D01*
X87122000Y-49784000D02*
X87122000Y-69850000D01*
X199390000Y-69644600D02*
X196801400Y-67056000D01*
X131806000Y-78465900D02*
X131826000Y-78465900D01*
X118110000Y-64770000D02*
X123317000Y-69977000D01*
X199390000Y-86000000D02*
X199390000Y-69644600D01*
G04 #@! TO.N,A8*
X87904600Y-55605400D02*
X87884000Y-55626000D01*
X87904600Y-48280600D02*
X87904600Y-55605400D01*
X110490000Y-55626000D02*
X110490000Y-59918600D01*
X87884000Y-48260000D02*
X87904600Y-48280600D01*
X196275700Y-67775700D02*
X196275700Y-46474300D01*
X198862000Y-70362000D02*
X198862000Y-89916000D01*
X197250000Y-45500000D02*
X197250000Y-38250000D01*
X196500000Y-68000000D02*
X196275700Y-67775700D01*
X196500000Y-68000000D02*
X198862000Y-70362000D01*
X110490000Y-38100000D02*
X110490000Y-55626000D01*
X198862000Y-113792000D02*
X198862000Y-89916000D01*
X87884000Y-60706000D02*
X87884000Y-55626000D01*
X79481900Y-67818000D02*
X79481900Y-60706000D01*
X196275700Y-46474300D02*
X197250000Y-45500000D01*
G04 #@! TO.N,A9*
X93959900Y-38862000D02*
X108966000Y-38862000D01*
X195974993Y-69501285D02*
X195750000Y-69276292D01*
X198334000Y-71860292D02*
X198334000Y-89154000D01*
X195750000Y-69276292D02*
X195750000Y-45750000D01*
X195974993Y-69501285D02*
X198334000Y-71860292D01*
X195750000Y-45750000D02*
X196334827Y-45165173D01*
X113030000Y-39116000D02*
X113030000Y-59918600D01*
X196334827Y-39200827D02*
X196250000Y-39116000D01*
X196334827Y-45165173D02*
X196334827Y-39200827D01*
X108966000Y-38862000D02*
X109220000Y-39116000D01*
X198334000Y-113030000D02*
X198334000Y-89154000D01*
X98298000Y-68580000D02*
X98298000Y-61214000D01*
G04 #@! TO.N,A10*
X197806000Y-96774000D02*
X197806000Y-74806000D01*
X194250000Y-71250000D02*
X194250000Y-70750000D01*
X194500000Y-62900000D02*
X194250000Y-63150000D01*
X97282000Y-39878000D02*
X97282000Y-61976000D01*
X195500000Y-41250000D02*
X194500000Y-42250000D01*
X197806000Y-74806000D02*
X194250000Y-71250000D01*
X120650000Y-40132000D02*
X120650000Y-59918600D01*
X194500000Y-42250000D02*
X194500000Y-62900000D01*
X195500000Y-40132000D02*
X195500000Y-41250000D01*
X194250000Y-63150000D02*
X194250000Y-70750000D01*
X197806000Y-112014000D02*
X197806000Y-96774000D01*
X97282000Y-66548000D02*
X97282000Y-61976000D01*
G04 #@! TO.N,A11*
X83820000Y-56642000D02*
X83820000Y-38100000D01*
X193525700Y-68974300D02*
X193525700Y-71500000D01*
X193750000Y-62550000D02*
X193750000Y-68750000D01*
X181610000Y-100330000D02*
X181610000Y-89895900D01*
X83860700Y-74676000D02*
X83860700Y-58125300D01*
X79288200Y-37846000D02*
X83566000Y-37846000D01*
X83566000Y-37846000D02*
X83820000Y-38100000D01*
X115570000Y-41148000D02*
X115570000Y-59918600D01*
X193750000Y-68750000D02*
X193525700Y-68974300D01*
X194025700Y-41148000D02*
X194025700Y-62274300D01*
X194025700Y-62274300D02*
X193750000Y-62550000D01*
X197104000Y-89154000D02*
X197104000Y-75078300D01*
X93980000Y-40132000D02*
X93980000Y-41148000D01*
X91948000Y-38100000D02*
X93980000Y-40132000D01*
X197104000Y-111252000D02*
X197104000Y-89154000D01*
X83820000Y-38100000D02*
X91948000Y-38100000D01*
X79268100Y-37866100D02*
X79288200Y-37846000D01*
X197104000Y-75078300D02*
X193525700Y-71500000D01*
X83860700Y-58125300D02*
X84074000Y-57912000D01*
G04 #@! TO.N,A12*
X125476000Y-74676000D02*
X129794000Y-78994000D01*
X115570000Y-64770000D02*
X125476000Y-74676000D01*
X129794000Y-78994000D02*
X130048000Y-78994000D01*
X96520000Y-83820000D02*
X96520000Y-74676000D01*
X196342000Y-75066300D02*
X193525700Y-72250000D01*
X196342000Y-86000000D02*
X196342000Y-75066300D01*
X196342000Y-91948000D02*
X196342000Y-86000000D01*
X196342000Y-110490000D02*
X196342000Y-91948000D01*
X182283000Y-92037500D02*
X182372000Y-91948000D01*
X84328000Y-76708000D02*
X84328000Y-83820000D01*
X96520000Y-53086000D02*
X96520000Y-74676000D01*
X78486000Y-41402000D02*
X78486000Y-53086000D01*
X182283000Y-100666000D02*
X182283000Y-92037500D01*
G04 #@! TO.N,A13*
X192275700Y-61997840D02*
X192301900Y-62024040D01*
X84582000Y-41402000D02*
X84561400Y-41422600D01*
X192302400Y-69124742D02*
X192302400Y-72302400D01*
X181102000Y-106680000D02*
X181102000Y-112776000D01*
X84561400Y-55859400D02*
X84582000Y-55880000D01*
X192302400Y-72302400D02*
X193000000Y-73000000D01*
X192301900Y-62024040D02*
X192301900Y-62459960D01*
X192275700Y-42000000D02*
X192275700Y-61997840D01*
X192275700Y-69098042D02*
X192302400Y-69124742D01*
X192301900Y-62459960D02*
X192275700Y-62486160D01*
X89408000Y-77470000D02*
X89408000Y-59944000D01*
X192275700Y-62486160D02*
X192275700Y-69098042D01*
X195580000Y-109474000D02*
X195580000Y-75580000D01*
X84561400Y-41422600D02*
X84561400Y-55859400D01*
X102870000Y-41910000D02*
X102870000Y-59918600D01*
X195580000Y-75580000D02*
X193000000Y-73000000D01*
G04 #@! TO.N,/DMA Controller/GA5*
X51562000Y-30734000D02*
X98298000Y-30734000D01*
G04 #@! TO.N,/DMA Controller/GA6*
X99568000Y-29464000D02*
X100838000Y-28194000D01*
X52029300Y-29464000D02*
X99568000Y-29464000D01*
G04 #@! TO.N,Net-(GMUX1A-3A)*
X100804000Y-39898200D02*
X101301200Y-39401000D01*
X99220200Y-81383700D02*
X100804000Y-79799900D01*
X64500000Y-84561800D02*
X65966600Y-83095200D01*
X64500000Y-89250000D02*
X64500000Y-84561800D01*
X100804000Y-79799900D02*
X100804000Y-39898200D01*
X59431500Y-97000000D02*
X59431500Y-94318500D01*
X101301200Y-39401000D02*
X101686600Y-39401000D01*
X59431500Y-94318500D02*
X64500000Y-89250000D01*
G04 #@! TO.N,Net-(GMUX2A-1A)*
X98464800Y-81265700D02*
X100424100Y-79306400D01*
X91660900Y-24503800D02*
X96076700Y-28919600D01*
X89774500Y-24503800D02*
X91660900Y-24503800D01*
X84976800Y-91234300D02*
X84976800Y-86196800D01*
X87871500Y-94129000D02*
X84976800Y-91234300D01*
X98067100Y-39601500D02*
X98044300Y-39624300D01*
X96736400Y-86196800D02*
X98464800Y-84468400D01*
X100116900Y-39601500D02*
X98067100Y-39601500D01*
X89612900Y-24665400D02*
X89774500Y-24503800D01*
X100424100Y-39908700D02*
X100116900Y-39601500D01*
X100424100Y-79306400D02*
X100424100Y-39908700D01*
X98464800Y-84468400D02*
X98464800Y-81265700D01*
G04 #@! TO.N,/DMA Controller/GA7*
X53106600Y-26182600D02*
X84561400Y-26182600D01*
X84561400Y-26182600D02*
X85090000Y-25654000D01*
X52578000Y-25654000D02*
X53106600Y-26182600D01*
G04 #@! TO.N,Net-(GMUX2A-2A)*
X89027300Y-93763400D02*
X90290200Y-92500500D01*
X90290200Y-92500500D02*
X90290200Y-81675400D01*
X85815000Y-44498500D02*
X85815000Y-40002200D01*
X90290200Y-81675400D02*
X90937500Y-81028100D01*
X85815000Y-40002200D02*
X84455000Y-38642200D01*
X90937500Y-81028100D02*
X90937500Y-49621000D01*
X90937500Y-49621000D02*
X85815000Y-44498500D01*
G04 #@! TO.N,/DMA Controller/GA8*
X57658000Y-27432000D02*
X87755500Y-27432000D01*
X87755500Y-27432000D02*
X87899500Y-27288000D01*
G04 #@! TO.N,/DMA Controller/GA9*
X92840100Y-27816100D02*
X93218000Y-28194000D01*
X58463800Y-27816100D02*
X92840100Y-27816100D01*
X58085900Y-28194000D02*
X58463800Y-27816100D01*
G04 #@! TO.N,Net-(GMUX2A-3A)*
X86824200Y-45073900D02*
X86824200Y-40684000D01*
X89442100Y-40292800D02*
X90011700Y-40862400D01*
X86824200Y-40684000D02*
X87215400Y-40292800D01*
X91244200Y-49493900D02*
X86824200Y-45073900D01*
X91244200Y-87283400D02*
X91244200Y-49493900D01*
X93559800Y-94527100D02*
X93559800Y-89599000D01*
X87215400Y-40292800D02*
X89442100Y-40292800D01*
X93559800Y-89599000D02*
X91244200Y-87283400D01*
G04 #@! TO.N,Net-(GMUX2A-4A)*
X90819100Y-25148900D02*
X90819100Y-25149000D01*
X90819100Y-25149000D02*
X90923200Y-25149000D01*
X93802300Y-28428200D02*
X93300800Y-28929700D01*
X89597700Y-49481800D02*
X89348600Y-49730900D01*
X89993900Y-53752100D02*
X89993900Y-79995500D01*
X82986000Y-88837500D02*
X82756000Y-89067500D01*
X93802300Y-28028100D02*
X93802300Y-28428200D01*
X82986000Y-87003400D02*
X82986000Y-88837500D01*
X89993900Y-79995500D02*
X82986000Y-87003400D01*
X89348600Y-53106800D02*
X89993900Y-53752100D01*
X93300800Y-28929700D02*
X92875700Y-28929700D01*
X89348600Y-49730900D02*
X89348600Y-53106800D01*
X90923200Y-25149000D02*
X93802300Y-28028100D01*
G04 #@! TO.N,Net-(GMUX3A-1A)*
X73306200Y-56816000D02*
X73612900Y-56509300D01*
X62632100Y-88117900D02*
X62632100Y-89735400D01*
X63276200Y-87473800D02*
X62632100Y-88117900D01*
X73612900Y-56509300D02*
X73612900Y-40390400D01*
X73306200Y-38839600D02*
X74252100Y-37893700D01*
X63276200Y-64610500D02*
X63276200Y-87473800D01*
X73306200Y-40083700D02*
X73306200Y-38839600D01*
X73612900Y-40390400D02*
X73306200Y-40083700D01*
X62983700Y-64318000D02*
X63276200Y-64610500D01*
G04 #@! TO.N,/DMA Controller/GA11*
X58674000Y-25654000D02*
X75438000Y-25654000D01*
G04 #@! TO.N,Net-(GMUX3A-2A)*
X63442200Y-88402100D02*
X63608200Y-88236100D01*
X74688900Y-38210400D02*
X74688900Y-55993300D01*
X63608200Y-88236100D02*
X63608200Y-71235800D01*
X63608200Y-71235800D02*
X63818700Y-71025300D01*
X75009300Y-37890000D02*
X74688900Y-38210400D01*
G04 #@! TO.N,/DMA Controller/GA12*
X53614600Y-26903400D02*
X75183500Y-26903400D01*
X53086000Y-27432000D02*
X53614600Y-26903400D01*
X75183500Y-26903400D02*
X75184000Y-26903900D01*
G04 #@! TO.N,/DMA Controller/GA13*
X80497400Y-28976600D02*
X81026000Y-28448000D01*
X57303800Y-28976600D02*
X80497400Y-28976600D01*
X57029200Y-28702000D02*
X57303800Y-28976600D01*
G04 #@! TO.N,Net-(GMUX3A-3A)*
X71650500Y-93336600D02*
X70836700Y-94150400D01*
X71642000Y-78001500D02*
X71650500Y-78010000D01*
X73458600Y-69694100D02*
X73698500Y-69934000D01*
X79563600Y-40074400D02*
X79563600Y-53423500D01*
X71650500Y-78010000D02*
X71650500Y-93336600D01*
X79563600Y-53423500D02*
X76160700Y-56826400D01*
X73458600Y-61497800D02*
X73458600Y-69694100D01*
G04 #@! TO.N,Net-(GMUX3A-4Y)*
X80497000Y-38390800D02*
X79022800Y-39865000D01*
X79022800Y-39865000D02*
X79022800Y-51302000D01*
G04 #@! TO.N,/DMA Controller/COLORFILL*
X80553400Y-52431200D02*
X81787600Y-53665400D01*
X135822000Y-117332200D02*
X135822000Y-117720100D01*
X121037400Y-104782900D02*
X125505000Y-104782900D01*
X101449300Y-91558900D02*
X100872500Y-91558900D01*
X118035000Y-103833300D02*
X119238200Y-105036500D01*
X80553400Y-39413200D02*
X80553400Y-52431200D01*
X100872500Y-91558900D02*
X92081500Y-82767900D01*
X120783800Y-105036500D02*
X121037400Y-104782900D01*
X119238200Y-105036500D02*
X120783800Y-105036500D01*
X80553300Y-39413200D02*
X80553400Y-39413200D01*
X135822100Y-117720100D02*
X140077400Y-121975400D01*
X135822000Y-117720100D02*
X135822100Y-117720100D01*
X92081500Y-82767900D02*
X92081500Y-53665400D01*
X109333100Y-99442700D02*
X101449300Y-91558900D01*
X80391500Y-39251400D02*
X80553300Y-39413200D01*
X127190700Y-108700900D02*
X135822000Y-117332200D01*
X127190700Y-106468600D02*
X127190700Y-108700900D01*
X125505000Y-104782900D02*
X127190700Y-106468600D01*
G04 #@! TO.N,Net-(GXH0A-Q3)*
X61750000Y-93750000D02*
X61750000Y-98500000D01*
G04 #@! TO.N,Net-(GXL0A-Q3)*
X81464300Y-114289800D02*
X81658900Y-114484400D01*
X81658900Y-107461100D02*
X81464300Y-107655700D01*
X81464300Y-107655700D02*
X81464300Y-114289800D01*
X81658900Y-91051000D02*
X81658900Y-107461100D01*
G04 #@! TO.N,Net-(GXL0A-Q2)*
X81157600Y-107528600D02*
X81157600Y-112168500D01*
X81018500Y-94941700D02*
X81224100Y-95147300D01*
X81224100Y-107462100D02*
X81157600Y-107528600D01*
X81224100Y-95147300D02*
X81224100Y-107462100D01*
X81157600Y-112168500D02*
X79260600Y-114065500D01*
G04 #@! TO.N,Net-(GXL0A-Q1)*
X78075400Y-112823100D02*
X78075400Y-107517400D01*
X78961000Y-106631800D02*
X78961000Y-94370500D01*
X78075400Y-107517400D02*
X78961000Y-106631800D01*
G04 #@! TO.N,Net-(GXL0A-Q0)*
X80093900Y-100867200D02*
X80093900Y-97671100D01*
X79209900Y-110900300D02*
X80850900Y-109259300D01*
X80417100Y-90475300D02*
X81311900Y-89580500D01*
X80850900Y-109259300D02*
X80850900Y-101624200D01*
X80093900Y-97671100D02*
X80417100Y-97347900D01*
X79209900Y-112413400D02*
X79209900Y-110900300D01*
X80417100Y-97347900D02*
X80417100Y-90475300D01*
X80850900Y-101624200D02*
X80093900Y-100867200D01*
G04 #@! TO.N,Net-(GYH0A-Q3)*
X87148000Y-97939700D02*
X84803900Y-95595600D01*
X84803900Y-95595600D02*
X83004900Y-95595600D01*
G04 #@! TO.N,/DMA Controller/GA14*
X49784000Y-35052000D02*
X53594000Y-35052000D01*
X59182000Y-55880000D02*
X49784000Y-55880000D01*
X55750000Y-92000000D02*
X56000000Y-95000000D01*
G04 #@! TO.N,Net-(GXH0A-P0)*
X77243500Y-102818000D02*
X78307400Y-103881900D01*
X75936800Y-102818000D02*
X77243500Y-102818000D01*
X78307400Y-103881900D02*
X78307400Y-106535100D01*
X78307400Y-106535100D02*
X78098400Y-106744100D01*
G04 #@! TO.N,Net-(GXH0A-P1)*
X88365100Y-128425600D02*
X88294700Y-128355200D01*
X85215900Y-128429600D02*
X83378000Y-128429600D01*
X85290300Y-128355200D02*
X85215900Y-128429600D01*
X88294700Y-128355200D02*
X85290300Y-128355200D01*
G04 #@! TO.N,/DMA Controller/RUNNING*
X102395500Y-102279800D02*
X102395500Y-100706300D01*
X74228500Y-120186700D02*
X68360800Y-120186700D01*
X84818000Y-111942000D02*
X83999000Y-111942000D01*
X119790000Y-114419700D02*
X113676500Y-108306200D01*
X63125500Y-118198100D02*
X62971000Y-118043600D01*
X84818000Y-111942000D02*
X85400900Y-111942000D01*
X85400900Y-111942000D02*
X89688600Y-107654300D01*
X66372200Y-118198100D02*
X63125500Y-118198100D01*
X96448200Y-100685100D02*
X91499900Y-105633400D01*
X75953900Y-118461300D02*
X74228500Y-120186700D01*
X54226400Y-118043600D02*
X54215700Y-118054300D01*
X102395500Y-102279800D02*
X111225000Y-102279800D01*
X102395500Y-102279800D02*
X102395500Y-104553100D01*
X102395500Y-100706300D02*
X102374300Y-100685100D01*
X102374300Y-100685100D02*
X96448200Y-100685100D01*
X91499900Y-108340100D02*
X91623000Y-108463200D01*
X83999000Y-111942000D02*
X82173400Y-110116400D01*
X84818000Y-111942000D02*
X84818000Y-114409100D01*
X113676500Y-108306200D02*
X113676500Y-104731300D01*
X113676500Y-104731300D02*
X113660700Y-104715500D01*
X66372200Y-118198100D02*
X66372200Y-117435000D01*
X91499900Y-105633400D02*
X91499900Y-108340100D01*
X66372200Y-117435000D02*
X65819300Y-116882100D01*
X102374300Y-100685100D02*
X102374300Y-94114100D01*
X111225000Y-102279800D02*
X113660700Y-104715500D01*
X102374300Y-94114100D02*
X102377400Y-94111000D01*
X68360800Y-120186700D02*
X66372200Y-118198100D01*
X62971000Y-118043600D02*
X54226400Y-118043600D01*
G04 #@! TO.N,/DMA Controller/~{XRELOAD}*
X82959000Y-104336100D02*
X89613600Y-97681500D01*
X72655300Y-115620600D02*
X68947000Y-119328900D01*
X89613600Y-97681500D02*
X89613600Y-96847900D01*
X78618300Y-107834300D02*
X80307200Y-106145400D01*
X78618300Y-115620600D02*
X78618300Y-107834300D01*
X78618300Y-115620600D02*
X72655300Y-115620600D01*
G04 #@! TO.N,/DMA Controller/GX-CARRY*
X82194600Y-104350200D02*
X82194600Y-103927700D01*
X82194600Y-103927700D02*
X88723600Y-97398700D01*
G04 #@! TO.N,CLK14*
X53543400Y-38227400D02*
X67184000Y-51868000D01*
X198526200Y-60651200D02*
X203443900Y-60651200D01*
X67184000Y-51868000D02*
X67184000Y-53446500D01*
X204477700Y-61685000D02*
X204477700Y-71077700D01*
X203443900Y-60651200D02*
X204477700Y-61685000D01*
X39205700Y-58673600D02*
X39491400Y-58387900D01*
X204477700Y-71077700D02*
X205200000Y-71800000D01*
X49311600Y-38227400D02*
X53543400Y-38227400D01*
X39519500Y-64237400D02*
X39205700Y-63923600D01*
X208500000Y-72300000D02*
X208500000Y-74949300D01*
X197100000Y-59225000D02*
X198526200Y-60651200D01*
X39491400Y-48047600D02*
X49311600Y-38227400D01*
X39519500Y-112817400D02*
X39519500Y-64237400D01*
X38980600Y-113356300D02*
X39519500Y-112817400D01*
X38980600Y-128208700D02*
X38980600Y-113356300D01*
X39205700Y-63923600D02*
X39205700Y-58673600D01*
X39491400Y-58387900D02*
X39491400Y-48047600D01*
X205200000Y-71800000D02*
X208000000Y-71800000D01*
X208000000Y-71800000D02*
X208500000Y-72300000D01*
X197100000Y-59100000D02*
X197100000Y-59225000D01*
G04 #@! TO.N,/DMA Controller/GX-CARRY?*
X82503500Y-112910500D02*
X82503500Y-112476700D01*
X90533200Y-114939600D02*
X84532600Y-114939600D01*
X95134600Y-104258900D02*
X95134600Y-110338200D01*
X96210200Y-103183300D02*
X95134600Y-104258900D01*
X84532600Y-114939600D02*
X82503500Y-112910500D01*
X95134600Y-110338200D02*
X90533200Y-114939600D01*
G04 #@! TO.N,Net-(GYH0A-Q1)*
X75406200Y-103039400D02*
X75406200Y-100048500D01*
X86991900Y-102878300D02*
X89226400Y-102878300D01*
X66117500Y-97302600D02*
X66117500Y-94716600D01*
X81994800Y-107875400D02*
X86991900Y-102878300D01*
X75999000Y-103632200D02*
X75406200Y-103039400D01*
X65727700Y-97692400D02*
X66117500Y-97302600D01*
G04 #@! TO.N,Net-(GYL0A-Q3)*
X90782400Y-91146900D02*
X90782400Y-111080100D01*
X90835500Y-91093800D02*
X90782400Y-91146900D01*
G04 #@! TO.N,Net-(GYL0A-Q2)*
X91354400Y-113353500D02*
X90552000Y-114155900D01*
X91092500Y-108682900D02*
X91354400Y-108944800D01*
X91354400Y-108944800D02*
X91354400Y-113353500D01*
X91092500Y-96238600D02*
X91092500Y-108682900D01*
X92281100Y-95050000D02*
X91092500Y-96238600D01*
G04 #@! TO.N,Net-(GYL0A-Q1)*
X90246000Y-112422500D02*
X90246000Y-95735400D01*
X90246000Y-95735400D02*
X87509200Y-92998600D01*
G04 #@! TO.N,~{VID_SEL}*
X138931100Y-135351000D02*
X140279200Y-134002900D01*
X167841100Y-134945000D02*
X176967300Y-134945000D01*
X108512700Y-96588100D02*
X108512700Y-97021800D01*
X124373000Y-116276000D02*
X124617000Y-116276000D01*
X188002000Y-123910300D02*
X188002000Y-83822300D01*
X167626400Y-134730300D02*
X167841100Y-134945000D01*
X121104400Y-109613500D02*
X121104400Y-113007400D01*
X146224800Y-134002900D02*
X146952200Y-134730300D01*
X121104400Y-113007400D02*
X124373000Y-116276000D01*
X176967300Y-134945000D02*
X188002000Y-123910300D01*
X108512700Y-97021800D02*
X121104400Y-109613500D01*
X140279200Y-134002900D02*
X146224800Y-134002900D01*
X146952200Y-134730300D02*
X167626400Y-134730300D01*
G04 #@! TO.N,~{WE2}*
X197300000Y-72900000D02*
X197150000Y-72900000D01*
X130248100Y-83564400D02*
X130248100Y-95527600D01*
X147345400Y-128552300D02*
X147345400Y-128552400D01*
X152747700Y-85821100D02*
X152747700Y-88241900D01*
X195000000Y-70750000D02*
X195000000Y-66750000D01*
X197150000Y-72900000D02*
X195000000Y-70750000D01*
X158750000Y-53645100D02*
X158750000Y-62000000D01*
X158606500Y-79962300D02*
X152747700Y-85821100D01*
X183582100Y-57821100D02*
X182260000Y-57821100D01*
X183690900Y-57712300D02*
X183582100Y-57821100D01*
X182260000Y-57821100D02*
X180909600Y-59171500D01*
X158750000Y-62000000D02*
X158606500Y-62143500D01*
X180909600Y-59171500D02*
X180909600Y-64350600D01*
X147345400Y-128552400D02*
X145589600Y-128552400D01*
X158606500Y-62143500D02*
X158606500Y-79962300D01*
X146791600Y-112071100D02*
X146791600Y-122911600D01*
X168451400Y-76808800D02*
X168451400Y-81097100D01*
X130248100Y-95527600D02*
X146791600Y-112071100D01*
X180909600Y-64350600D02*
X168451400Y-76808800D01*
X145589600Y-128552400D02*
X143143000Y-130999000D01*
G04 #@! TO.N,Net-(GYL0A-Q0)*
X98059500Y-108713000D02*
X96054700Y-110717800D01*
X99509600Y-101216500D02*
X98948500Y-101216500D01*
X96054700Y-110717800D02*
X96054700Y-112167200D01*
X98948500Y-101216500D02*
X98059500Y-102105500D01*
X96054700Y-112167200D02*
X94922300Y-113299600D01*
X98059500Y-102105500D02*
X98059500Y-108713000D01*
G04 #@! TO.N,/DMA Controller/GA15*
X49022000Y-34544000D02*
X49042600Y-34523400D01*
X59944000Y-55118000D02*
X49022000Y-55118000D01*
X55605400Y-34523400D02*
X55626000Y-34544000D01*
X71120000Y-92202000D02*
X71120000Y-86106000D01*
X49042600Y-34523400D02*
X55605400Y-34523400D01*
G04 #@! TO.N,Net-(GYH0A-P2)*
X101079500Y-118930100D02*
X101079500Y-116231200D01*
X101079500Y-116231200D02*
X102159900Y-115150800D01*
G04 #@! TO.N,Net-(GYH0A-P3)*
X98153400Y-118821000D02*
X98564200Y-118410200D01*
X98153400Y-122066200D02*
X98153400Y-118821000D01*
G04 #@! TO.N,/DMA Controller/ROWCOMPLETE*
X97450400Y-114602100D02*
X95141200Y-116911300D01*
X75979200Y-117685900D02*
X73792100Y-119873000D01*
X73792100Y-119873000D02*
X68709000Y-119873000D01*
X107909100Y-102819000D02*
X107909100Y-110035400D01*
X107909100Y-110035400D02*
X103342400Y-114602100D01*
X103342400Y-114602100D02*
X97450400Y-114602100D01*
X93403900Y-116992800D02*
X92710800Y-117685900D01*
X68709000Y-119873000D02*
X67704900Y-118868900D01*
X67704900Y-118868900D02*
X67704900Y-115334500D01*
X93403900Y-115866700D02*
X93403900Y-116992800D01*
X93543900Y-115726700D02*
X93403900Y-115866700D01*
X92710800Y-117685900D02*
X75979200Y-117685900D01*
G04 #@! TO.N,/DMA Controller/GY-CARRY?*
X95441300Y-107996000D02*
X95441300Y-110841500D01*
X97127600Y-106309700D02*
X95441300Y-107996000D01*
X95441300Y-110841500D02*
X93806100Y-112476700D01*
G04 #@! TO.N,/DMA Controller/~{TILEMODE}*
X140319800Y-122899400D02*
X140319800Y-122899500D01*
X105495500Y-101731700D02*
X111451300Y-101731700D01*
X111451300Y-101731700D02*
X114512400Y-104792800D01*
X114512400Y-104792800D02*
X114512400Y-108082300D01*
X121717800Y-115287700D02*
X121717800Y-116551700D01*
X114512400Y-108082300D02*
X121717800Y-115287700D01*
X125867700Y-120701600D02*
X138051100Y-120701600D01*
X140248900Y-122899400D02*
X140319800Y-122899400D01*
X121717800Y-116551700D02*
X125867700Y-120701600D01*
X138051100Y-120701600D02*
X140248900Y-122899400D01*
G04 #@! TO.N,/DMA Controller/~{WRAP_Y}*
X60781600Y-55048000D02*
X60781600Y-51570800D01*
X130516900Y-83025400D02*
X130911900Y-83420400D01*
X120615000Y-79203600D02*
X120615000Y-80085800D01*
X129692700Y-83025400D02*
X130516900Y-83025400D01*
X124437000Y-83907800D02*
X128810300Y-83907800D01*
X130911900Y-83420400D02*
X130911900Y-95757700D01*
X128810300Y-83907800D02*
X129692700Y-83025400D01*
X147128300Y-113546800D02*
X148938400Y-115356900D01*
X46656000Y-50164500D02*
X46656000Y-50270300D01*
X120615000Y-80085800D02*
X124437000Y-83907800D01*
X108033400Y-66622000D02*
X120615000Y-79203600D01*
X130911900Y-95757700D02*
X147128300Y-111974100D01*
X60781600Y-51570800D02*
X54133800Y-44923000D01*
X51897500Y-44923000D02*
X46656000Y-50164500D01*
X60717100Y-55112500D02*
X60781600Y-55048000D01*
X147128300Y-111974100D02*
X147128300Y-113546800D01*
X54133800Y-44923000D02*
X51897500Y-44923000D01*
X108033400Y-66308200D02*
X108033400Y-66622000D01*
G04 #@! TO.N,/DMA Controller/~{WRAP_X}*
X56155100Y-51502500D02*
X48477600Y-51502500D01*
X149623800Y-114024500D02*
X148747100Y-113147800D01*
X115710400Y-67380200D02*
X112342100Y-67380200D01*
X148486100Y-113147800D02*
X147793500Y-112455200D01*
X131596700Y-83116100D02*
X131596700Y-82028100D01*
X131525300Y-94635800D02*
X131525300Y-83187500D01*
X131596700Y-82028100D02*
X128972700Y-79404100D01*
X58859100Y-54206500D02*
X56155100Y-51502500D01*
X147793500Y-110904000D02*
X131525300Y-94635800D01*
X127734300Y-79404100D02*
X115710400Y-67380200D01*
X131525300Y-83187500D02*
X131596700Y-83116100D01*
X148747100Y-113147800D02*
X148486100Y-113147800D01*
X147793500Y-112455200D02*
X147793500Y-110904000D01*
X149623800Y-116315700D02*
X149623800Y-114024500D01*
X128972700Y-79404100D02*
X127734300Y-79404100D01*
G04 #@! TO.N,/DMA Controller/VRAMBANK*
X38921000Y-52582700D02*
X38825800Y-52677900D01*
X157418900Y-122636400D02*
X157418900Y-120869600D01*
X145868200Y-103752600D02*
X145868200Y-91251000D01*
X48288140Y-50947800D02*
X58918100Y-50947800D01*
X152881600Y-116332300D02*
X152881600Y-110766000D01*
X93902000Y-52831200D02*
X92081500Y-51010700D01*
X47750000Y-51485940D02*
X48288140Y-50947800D01*
X58918100Y-50947800D02*
X59384300Y-51414000D01*
X38825800Y-52677900D02*
X38825800Y-65562500D01*
X157418900Y-120869600D02*
X152881600Y-116332300D01*
X38825800Y-65562500D02*
X38980600Y-65717300D01*
X47750000Y-52500000D02*
X47750000Y-51485940D01*
X145868200Y-91251000D02*
X125229200Y-70612000D01*
X152881600Y-110766000D02*
X145868200Y-103752600D01*
X93902000Y-70612000D02*
X93902000Y-52831200D01*
G04 #@! TO.N,/DMA Controller/GA18*
X41148000Y-25146000D02*
X49022000Y-25146000D01*
X37592000Y-28702000D02*
X41148000Y-25146000D01*
X37592000Y-81534000D02*
X37592000Y-52832000D01*
X49022000Y-25146000D02*
X52578000Y-28702000D01*
X52578000Y-28702000D02*
X53642100Y-28702000D01*
X154940000Y-132080000D02*
X37592000Y-132080000D01*
G04 #@! TO.N,/DMA Controller/GA17*
X154432000Y-132842000D02*
X37084000Y-132842000D01*
X37063900Y-33782000D02*
X56154100Y-33782000D01*
X37063900Y-80772000D02*
X37063900Y-52070000D01*
G04 #@! TO.N,/DMA Controller/GA16*
X36322000Y-80010000D02*
X36322000Y-51308000D01*
X36322000Y-32766000D02*
X48260000Y-32766000D01*
X48260000Y-32766000D02*
X50820100Y-30205900D01*
X50820100Y-30205900D02*
X53848000Y-30205900D01*
X36342100Y-133370000D02*
X36322000Y-133350000D01*
X153670000Y-133370000D02*
X36342100Y-133370000D01*
G04 #@! TO.N,/CPU and address decode/A15*
X182879300Y-67239400D02*
X182879300Y-66460300D01*
X179151700Y-70967000D02*
X182879300Y-67239400D01*
X184000000Y-60750000D02*
X184750000Y-61500000D01*
X179151700Y-86516400D02*
X179151700Y-70967000D01*
X180340000Y-114300000D02*
X180340000Y-105918000D01*
X199500000Y-36500000D02*
X199500000Y-47005840D01*
X184750000Y-61500000D02*
X188250000Y-61500000D01*
X179836400Y-105918000D02*
X178285500Y-104367100D01*
X200750000Y-48255840D02*
X200750000Y-54250000D01*
X189750000Y-60000000D02*
X189750000Y-46000000D01*
X188250000Y-61500000D02*
X189750000Y-60000000D01*
X178285500Y-87382600D02*
X179151700Y-86516400D01*
X180340000Y-105918000D02*
X179836400Y-105918000D01*
X178285500Y-104367100D02*
X178285500Y-87382600D01*
X199500000Y-47005840D02*
X200750000Y-48255840D01*
X199905000Y-36095000D02*
X199500000Y-36500000D01*
X199905000Y-31340331D02*
X199905000Y-36095000D01*
G04 #@! TO.N,/CPU and address decode/R{slash}~{W}*
X186966800Y-80794900D02*
X186966800Y-102146700D01*
X172250000Y-51750000D02*
X172250000Y-63000000D01*
X186966800Y-102146700D02*
X182449300Y-106664200D01*
X182449300Y-106664200D02*
X182449300Y-122267000D01*
X184272000Y-78100100D02*
X186966800Y-80794900D01*
X185280600Y-68309700D02*
X184272000Y-69318300D01*
X183875000Y-31340331D02*
X181750000Y-33465331D01*
X181750000Y-33465331D02*
X181750000Y-51750000D01*
X184272000Y-69318300D02*
X184272000Y-78100100D01*
X182449300Y-122267000D02*
X181737900Y-122978400D01*
G04 #@! TO.N,/CPU and address decode/W{slash}~{R}*
X186808600Y-67851300D02*
X187741400Y-68784100D01*
X187741400Y-68784100D02*
X187741400Y-75206800D01*
X187741400Y-75206800D02*
X187810500Y-75275900D01*
G04 #@! TO.N,CLK28*
X197750000Y-59000000D02*
X204100000Y-59000000D01*
X188455000Y-33295000D02*
X188455000Y-31340331D01*
X63273600Y-53306300D02*
X63273600Y-53057500D01*
X197000000Y-58250000D02*
X197750000Y-59000000D01*
X204100000Y-59000000D02*
X209747400Y-64647400D01*
X183250000Y-52500000D02*
X185750000Y-50000000D01*
X185750000Y-50000000D02*
X185750000Y-36000000D01*
X40152400Y-57771800D02*
X40627000Y-58246400D01*
X59958000Y-56621900D02*
X63273600Y-53306300D01*
X52557600Y-56621900D02*
X59958000Y-56621900D01*
X209747400Y-64647400D02*
X209747400Y-75779200D01*
X40627000Y-58246400D02*
X40627000Y-131535300D01*
X183000000Y-52500000D02*
X183250000Y-52500000D01*
X185750000Y-36000000D02*
X188455000Y-33295000D01*
X209747400Y-75779200D02*
X209726600Y-75800000D01*
G04 #@! TO.N,~{NMI}*
X203919100Y-76803400D02*
X204000000Y-76722500D01*
X203919100Y-126830900D02*
X203919100Y-76803400D01*
X204000000Y-76722500D02*
X204000000Y-71923600D01*
X203750000Y-127000000D02*
X203919100Y-126830900D01*
G04 #@! TO.N,~{IRQ}*
X191750000Y-69000000D02*
X192000000Y-69250000D01*
X159929800Y-113381700D02*
X160391700Y-112919800D01*
X160391700Y-112919800D02*
X160391700Y-68850000D01*
X191750000Y-62267700D02*
X191750000Y-69000000D01*
X192000000Y-73000000D02*
X191000000Y-74000000D01*
X160391700Y-68850000D02*
X165066300Y-64175400D01*
X191775700Y-62242000D02*
X191750000Y-62267700D01*
X165066300Y-64175400D02*
X165066300Y-63648200D01*
X181000000Y-54000000D02*
X181000000Y-55500000D01*
X174709100Y-61790900D02*
X174709100Y-63754000D01*
X192000000Y-69250000D02*
X192000000Y-73000000D01*
X181000000Y-55500000D02*
X174709100Y-61790900D01*
G04 #@! TO.N,CLK7*
X164500000Y-153000000D02*
X177750000Y-139750000D01*
X39868200Y-113488700D02*
X40287000Y-113069900D01*
X39868200Y-131548300D02*
X39868200Y-113488700D01*
X55372000Y-153416000D02*
X58166000Y-156210000D01*
X58166000Y-156210000D02*
X62992000Y-156210000D01*
X42162600Y-142240000D02*
X41656000Y-142240000D01*
X44448600Y-147066000D02*
X43434000Y-147066000D01*
X194750000Y-119250000D02*
X194750000Y-79750000D01*
X70398900Y-156210000D02*
X71120000Y-156931000D01*
X177750000Y-136250000D02*
X194750000Y-119250000D01*
X50798600Y-153416000D02*
X44448600Y-147066000D01*
X40287000Y-59153000D02*
X40083300Y-58949300D01*
X43434000Y-147066000D02*
X42162600Y-145794600D01*
X145563550Y-157500000D02*
X150063550Y-153000000D01*
X150063550Y-153000000D02*
X164500000Y-153000000D01*
X42162600Y-145794600D02*
X42162600Y-142240000D01*
X55372000Y-153416000D02*
X50798600Y-153416000D01*
X62992000Y-156210000D02*
X70398900Y-156210000D01*
X177750000Y-139750000D02*
X177750000Y-136250000D01*
X40287000Y-113069900D02*
X40287000Y-59153000D01*
X142750000Y-157500000D02*
X145563550Y-157500000D01*
G04 #@! TO.N,CLK3_5*
X152257200Y-145492800D02*
X165676200Y-145492800D01*
X153504400Y-98479700D02*
X153504500Y-98479700D01*
X152422800Y-97398100D02*
X153504400Y-98479700D01*
X177914300Y-105277400D02*
X177914300Y-86655600D01*
X146050000Y-65527000D02*
X146050000Y-64770000D01*
X181204000Y-117761100D02*
X173317300Y-109874400D01*
X141500000Y-156250000D02*
X152257200Y-145492800D01*
X39335500Y-130453700D02*
X39519500Y-130269700D01*
X70440000Y-154260000D02*
X71120000Y-154940000D01*
X181204000Y-126490500D02*
X181204000Y-117761100D01*
X167478200Y-143690800D02*
X167478200Y-135332400D01*
X39519500Y-113403600D02*
X39867300Y-113055800D01*
X39867300Y-60173400D02*
X39754400Y-60060500D01*
X139500000Y-156250000D02*
X141500000Y-156250000D01*
X39519500Y-130269700D02*
X39519500Y-113403600D01*
X62992000Y-154260000D02*
X70440000Y-154260000D01*
X146050000Y-63030500D02*
X150235900Y-58844600D01*
X173317300Y-109874400D02*
X177914300Y-105277400D01*
X153504500Y-98479700D02*
X153504500Y-103640200D01*
X146050000Y-64770000D02*
X146050000Y-63030500D01*
X153504500Y-103640200D02*
X155067600Y-105203300D01*
X152422800Y-97398100D02*
X152215100Y-97190400D01*
X152215100Y-97190400D02*
X152215100Y-71692100D01*
X39867300Y-113055800D02*
X39867300Y-60173400D01*
X152215100Y-71692100D02*
X146050000Y-65527000D01*
X165676200Y-145492800D02*
X167478200Y-143690800D01*
G04 #@! TO.N,Net-(IC4D-I)*
X186551400Y-75701200D02*
X186551400Y-69667300D01*
X186551400Y-69667300D02*
X186729500Y-69489200D01*
G04 #@! TO.N,Net-(IC12D-I1)*
X188371500Y-75732800D02*
X188254300Y-75850000D01*
X188254300Y-75850000D02*
X188254300Y-79026000D01*
X188371500Y-69946700D02*
X188371500Y-75732800D01*
X188271900Y-69847100D02*
X188371500Y-69946700D01*
X188254300Y-79026000D02*
X188745000Y-79516700D01*
X188745000Y-107337000D02*
X188541500Y-107540500D01*
X188745000Y-79516700D02*
X188745000Y-107337000D01*
G04 #@! TO.N,Net-(IC32D-O)*
X159497800Y-82297900D02*
X159497800Y-68559100D01*
X158375500Y-83420200D02*
X159497800Y-82297900D01*
X159497800Y-68559100D02*
X163320400Y-64736500D01*
G04 #@! TO.N,Net-(IC4F-I)*
X188788600Y-77271000D02*
X188802400Y-77257200D01*
X188802400Y-77257200D02*
X188802400Y-67324100D01*
X188802400Y-67324100D02*
X188604600Y-67126300D01*
G04 #@! TO.N,Net-(IC5C-O)*
X96361400Y-114037500D02*
X93710600Y-116688300D01*
X64100700Y-121338000D02*
X63506800Y-121931900D01*
X93710600Y-117122100D02*
X92809300Y-118023400D01*
X71170700Y-121459900D02*
X71048800Y-121338000D01*
X93710600Y-116688300D02*
X93710600Y-117122100D01*
X92809300Y-118023400D02*
X77902900Y-118023400D01*
X71048800Y-121338000D02*
X64100700Y-121338000D01*
X77902900Y-118023400D02*
X74466400Y-121459900D01*
X96361400Y-110844900D02*
X96361400Y-114037500D01*
X74466400Y-121459900D02*
X71170700Y-121459900D01*
X100664900Y-106541400D02*
X96361400Y-110844900D01*
G04 #@! TO.N,Net-(IC7A-I0)*
X184150000Y-81026000D02*
X184150000Y-100584000D01*
G04 #@! TO.N,Net-(IC7A-I1)*
X184912000Y-80772000D02*
X184912000Y-100330000D01*
G04 #@! TO.N,/CPU and address decode/N$38_2*
X185674000Y-101346000D02*
X185674000Y-83820000D01*
X183642000Y-103378000D02*
X185674000Y-101346000D01*
G04 #@! TO.N,/CPU and address decode/N$37_2*
X186436000Y-101600000D02*
X186436000Y-83820000D01*
X184658000Y-103378000D02*
X186436000Y-101600000D01*
G04 #@! TO.N,Net-(IC12A-O)*
X178035500Y-82651900D02*
X172089900Y-88597500D01*
X172089900Y-88597500D02*
X172089900Y-111618000D01*
G04 #@! TO.N,/DMA Controller/IRQ*
X109051500Y-97126900D02*
X121411100Y-109486500D01*
X123948600Y-115391900D02*
X124924400Y-115391900D01*
X101823500Y-53988300D02*
X101823500Y-73836500D01*
X109051500Y-93812100D02*
X109051500Y-97126900D01*
X121411100Y-109486500D02*
X121411100Y-112854400D01*
X102578400Y-74591400D02*
X102578400Y-87339000D01*
X64292700Y-53294400D02*
X55614600Y-44616300D01*
X101823500Y-73836500D02*
X102578400Y-74591400D01*
X55614600Y-44616300D02*
X50312100Y-44616300D01*
X50312100Y-44616300D02*
X48334400Y-46594000D01*
X121411100Y-112854400D02*
X123948600Y-115391900D01*
X102578400Y-87339000D02*
X109051500Y-93812100D01*
X101881800Y-53930000D02*
X101823500Y-53988300D01*
G04 #@! TO.N,Net-(IC31C-O)*
X125719600Y-111824200D02*
X131010100Y-117114700D01*
X125719600Y-111824200D02*
X123462100Y-114081700D01*
X125327200Y-105355500D02*
X125719600Y-105747900D01*
X125719600Y-105747900D02*
X125719600Y-111824200D01*
X131010100Y-117114700D02*
X134854200Y-117114700D01*
G04 #@! TO.N,Net-(IC12B-I0)*
X171367400Y-112209700D02*
X171367400Y-98803700D01*
X171367400Y-98803700D02*
X171657600Y-98513500D01*
X171657600Y-77028800D02*
X182124900Y-66561500D01*
X171657600Y-98513500D02*
X171657600Y-77028800D01*
G04 #@! TO.N,Net-(IC12B-O)*
X145318200Y-106495900D02*
X144569600Y-106495900D01*
X144569600Y-106495900D02*
X144569600Y-106495800D01*
X150076000Y-111253700D02*
X145318200Y-106495900D01*
G04 #@! TO.N,Net-(IC12C-O)*
X144162600Y-103124000D02*
X144162600Y-103626200D01*
X144162600Y-103626200D02*
X151526400Y-110990000D01*
G04 #@! TO.N,Net-(IC18A-I1)*
X132545000Y-101824000D02*
X125789000Y-95068000D01*
G04 #@! TO.N,Net-(IC18A-O)*
X150733800Y-112081700D02*
X150733800Y-111156900D01*
X150733800Y-111156900D02*
X135307700Y-95730800D01*
G04 #@! TO.N,/DMA Controller/~{DIRECT-SELECT}*
X149134600Y-88398400D02*
X149134600Y-81328300D01*
X102302700Y-93296400D02*
X102302700Y-93296300D01*
X102359500Y-93296400D02*
X102302700Y-93296400D01*
X105103800Y-96040700D02*
X102359500Y-93296400D01*
X105103800Y-96362200D02*
X105103800Y-96040700D01*
X149134600Y-81328300D02*
X150219000Y-80243900D01*
G04 #@! TO.N,Net-(IC18D-O)*
X77814500Y-75804000D02*
X77814500Y-86431500D01*
X76964900Y-74954400D02*
X77814500Y-75804000D01*
G04 #@! TO.N,Net-(IC18D-I0)*
X118470800Y-102428700D02*
X108038400Y-91996300D01*
X118470800Y-102533300D02*
X118470800Y-102428700D01*
G04 #@! TO.N,Net-(IC18D-I1)*
X52409300Y-45233200D02*
X48448500Y-49194000D01*
X102948500Y-68450000D02*
X102796900Y-68298400D01*
X85820700Y-58578400D02*
X85496800Y-58254500D01*
X60193200Y-52820700D02*
X60193200Y-51455000D01*
X85820700Y-62636300D02*
X85820700Y-58578400D01*
X53971400Y-45233200D02*
X52409300Y-45233200D01*
X103108900Y-86666000D02*
X102948500Y-86505600D01*
X102948500Y-86505600D02*
X102948500Y-68450000D01*
X60193200Y-51455000D02*
X53971400Y-45233200D01*
G04 #@! TO.N,Net-(IC20A-O)*
X73229900Y-53899500D02*
X73080700Y-54048700D01*
X125476700Y-85922800D02*
X125476700Y-87190500D01*
X119215500Y-78671600D02*
X120001600Y-79457700D01*
X72340100Y-39704100D02*
X73229900Y-40593900D01*
X117847400Y-78671600D02*
X119215500Y-78671600D01*
X72340100Y-37896900D02*
X72340100Y-39704100D01*
X73229900Y-40593900D02*
X73229900Y-53899500D01*
X120001600Y-80447700D02*
X125476700Y-85922800D01*
X120001600Y-79457700D02*
X120001600Y-80447700D01*
X104398500Y-65222700D02*
X117847400Y-78671600D01*
X104398500Y-58902400D02*
X104398500Y-65222700D01*
G04 #@! TO.N,/DMA Controller/OFFSCR_X*
X48500000Y-94468321D02*
X43598800Y-89567121D01*
X43242800Y-62782000D02*
X43242800Y-46797600D01*
X56014500Y-102962100D02*
X48500000Y-95447600D01*
X43242800Y-46797600D02*
X42389200Y-45944000D01*
X43598800Y-63138000D02*
X43242800Y-62782000D01*
X48500000Y-95447600D02*
X48500000Y-94468321D01*
X56014500Y-103750800D02*
X56014500Y-102962100D01*
X43598800Y-89567121D02*
X43598800Y-63138000D01*
G04 #@! TO.N,/DMA Controller/OFFSCR_Y*
X44939800Y-89405300D02*
X44939800Y-49319200D01*
X63750000Y-101751400D02*
X66115300Y-104116700D01*
X44939800Y-49319200D02*
X43839600Y-48219000D01*
X54500000Y-98965500D02*
X44939800Y-89405300D01*
X63750000Y-99724300D02*
X63750000Y-101751400D01*
X54500000Y-100500000D02*
X54500000Y-98965500D01*
G04 #@! TO.N,/DMA Controller/~{IRQ-OUT}*
X148789900Y-113984900D02*
X147486800Y-112681800D01*
X124613700Y-83600400D02*
X120921700Y-79908400D01*
X109220100Y-55018700D02*
X105913900Y-51712500D01*
X120921700Y-79908400D02*
X120921700Y-79076500D01*
X128658600Y-83600400D02*
X124613700Y-83600400D01*
X131218600Y-95036200D02*
X131218600Y-83293300D01*
X130644000Y-82718700D02*
X129540300Y-82718700D01*
X109220100Y-67374900D02*
X109220100Y-55018700D01*
X129540300Y-82718700D02*
X128658600Y-83600400D01*
X120921700Y-79076500D02*
X109220100Y-67374900D01*
X49799800Y-44309600D02*
X56219100Y-44309600D01*
X56219100Y-44309600D02*
X63754200Y-51844700D01*
X131218600Y-83293300D02*
X130644000Y-82718700D01*
X46865400Y-47244000D02*
X49799800Y-44309600D01*
X147486800Y-111304400D02*
X131218600Y-95036200D01*
X147486800Y-112681800D02*
X147486800Y-111304400D01*
G04 #@! TO.N,/DMA Controller/IRQ-ENABLE*
X107813700Y-66838700D02*
X107816400Y-66838700D01*
X141677600Y-110129700D02*
X141677600Y-118862100D01*
X126563600Y-95015700D02*
X141677600Y-110129700D01*
X57747300Y-44002900D02*
X65966300Y-52221900D01*
X104465600Y-57065800D02*
X106680100Y-59280300D01*
X49318600Y-44002900D02*
X57747300Y-44002900D01*
X106680100Y-59280300D02*
X106680100Y-65705100D01*
X126563600Y-86575900D02*
X126563600Y-95015700D01*
X104465600Y-53203700D02*
X104465600Y-57065800D01*
X47486000Y-45835500D02*
X49318600Y-44002900D01*
X106680100Y-65705100D02*
X107813700Y-66838700D01*
X120308300Y-79330600D02*
X120308300Y-80320600D01*
X107816400Y-66838700D02*
X120308300Y-79330600D01*
X120308300Y-80320600D02*
X126563600Y-86575900D01*
X104076400Y-52814500D02*
X104465600Y-53203700D01*
G04 #@! TO.N,Net-(IC31A-I0)*
X123284700Y-87019800D02*
X123364100Y-86940400D01*
X123284700Y-100886500D02*
X123284700Y-87019800D01*
G04 #@! TO.N,Net-(IC31C-I1)*
X128536500Y-103833300D02*
X129350800Y-103833300D01*
X138911000Y-113393500D02*
X138911000Y-113905300D01*
X129350800Y-103833300D02*
X138911000Y-113393500D01*
X138911000Y-113905300D02*
X140387400Y-115381700D01*
G04 #@! TO.N,Net-(IC31D-O)*
X129096700Y-105319600D02*
X129096700Y-104381700D01*
X137712000Y-113934900D02*
X129096700Y-105319600D01*
G04 #@! TO.N,/CPU and address decode/~{REGSSEL}*
X182626000Y-101854000D02*
X181102000Y-101854000D01*
X148590000Y-80264000D02*
X148590000Y-97099000D01*
X148590000Y-97099000D02*
X148590000Y-104140000D01*
X181102000Y-101854000D02*
X178816000Y-104140000D01*
G04 #@! TO.N,/DMA Controller/XDIR*
X112784000Y-112853600D02*
X110915900Y-110985500D01*
X77622000Y-98083500D02*
X77622000Y-94959200D01*
X79761400Y-94083300D02*
X79761400Y-97253300D01*
X79067000Y-93514200D02*
X79192300Y-93514200D01*
X112784000Y-118202100D02*
X112784000Y-112853600D01*
X79192300Y-93514200D02*
X79761400Y-94083300D01*
X77622000Y-94959200D02*
X79067000Y-93514200D01*
G04 #@! TO.N,/DMA Controller/YDIR*
X120797700Y-113223600D02*
X124999500Y-117425400D01*
X107753000Y-96876400D02*
X120797700Y-109921100D01*
X124999500Y-117425400D02*
X125704200Y-117425400D01*
X120797700Y-109921100D02*
X120797700Y-113223600D01*
G04 #@! TO.N,/DMA Controller/VNMI_ENABLE*
X142208100Y-108238100D02*
X142208100Y-119768800D01*
X142208100Y-119768800D02*
X141935300Y-120041600D01*
X139089200Y-105119200D02*
X142208100Y-108238100D01*
G04 #@! TO.N,/DMA Controller/~{VWE}*
X62206900Y-81713700D02*
X62206900Y-79040900D01*
X47504700Y-101000000D02*
X47504700Y-94871600D01*
X42191300Y-89558200D02*
X42191300Y-62449300D01*
X47504700Y-94871600D02*
X42191300Y-89558200D01*
X58214900Y-85705700D02*
X62206900Y-81713700D01*
G04 #@! TO.N,/DMA Controller/~{VOE}*
X85068100Y-58962500D02*
X85068100Y-70982300D01*
X57409100Y-53356400D02*
X58227200Y-54174500D01*
X58227200Y-54328800D02*
X58635500Y-54737100D01*
X85068100Y-70982300D02*
X85818700Y-71732900D01*
X85818700Y-71732900D02*
X85818700Y-75383200D01*
X59546900Y-54737100D02*
X60242300Y-54041700D01*
X48469200Y-53356400D02*
X57409100Y-53356400D01*
X58227200Y-54174500D02*
X58227200Y-54328800D01*
X58635500Y-54737100D02*
X59546900Y-54737100D01*
G04 #@! TO.N,/DMA Controller/VID_OUT_PAGE*
X136801800Y-135756500D02*
X138641500Y-133916800D01*
X42724500Y-64923600D02*
X42724500Y-89338800D01*
X47041600Y-117424500D02*
X51788800Y-122171700D01*
X47041600Y-111660200D02*
X47041600Y-117424500D01*
X136801800Y-138656400D02*
X136801800Y-135756500D01*
X42724500Y-89338800D02*
X48069500Y-94683800D01*
X48069500Y-94683800D02*
X48069500Y-110632300D01*
X48069500Y-110632300D02*
X47041600Y-111660200D01*
G04 #@! TO.N,/DMA Controller/VA13*
X86360000Y-77470000D02*
X85852000Y-77978000D01*
X86360000Y-57404000D02*
X86360000Y-77470000D01*
X52000000Y-61000497D02*
X55636697Y-57363800D01*
X86319800Y-57363800D02*
X86360000Y-57404000D01*
X55636697Y-57363800D02*
X86319800Y-57363800D01*
G04 #@! TO.N,/DMA Controller/VA12*
X82727100Y-57912000D02*
X83312000Y-57912000D01*
X83332600Y-57932600D02*
X83332600Y-77449400D01*
X82707000Y-57891900D02*
X82727100Y-57912000D01*
X55858100Y-57891900D02*
X82707000Y-57891900D01*
X83332600Y-77449400D02*
X83312000Y-77470000D01*
X83312000Y-57912000D02*
X83332600Y-57932600D01*
X52000000Y-61750000D02*
X55858100Y-57891900D01*
G04 #@! TO.N,/DMA Controller/VA11*
X52000000Y-62500497D02*
X56080497Y-58420000D01*
X56080497Y-58420000D02*
X82804000Y-58420000D01*
X82804000Y-58420000D02*
X82804000Y-75438000D01*
G04 #@! TO.N,/DMA Controller/VA10*
X80518000Y-59182000D02*
X80518000Y-67035900D01*
X56068000Y-59182000D02*
X80518000Y-59182000D01*
X80518000Y-67035900D02*
X80538100Y-67056000D01*
X52000000Y-63250000D02*
X56068000Y-59182000D01*
G04 #@! TO.N,/DMA Controller/VA9*
X56056000Y-59944000D02*
X80010000Y-59944000D01*
X80010000Y-59944000D02*
X80010000Y-69088000D01*
X52000000Y-64000000D02*
X56056000Y-59944000D01*
G04 #@! TO.N,AUD_SQ2_N*
X166400200Y-102585200D02*
X166400200Y-107604900D01*
X149130300Y-95508100D02*
X149130300Y-104379000D01*
X169484300Y-88633300D02*
X169484300Y-99501100D01*
X170267700Y-87849900D02*
X169484300Y-88633300D01*
X169484300Y-99501100D02*
X166400200Y-102585200D01*
X149130300Y-104379000D02*
X152356200Y-107604900D01*
G04 #@! TO.N,AUD_LFSR_X*
X158965700Y-81796700D02*
X154497500Y-86264900D01*
X154497500Y-86264900D02*
X154497500Y-88139500D01*
G04 #@! TO.N,GRAM_PAGE_SEL*
X158290700Y-121643100D02*
X159286700Y-122639100D01*
X158290700Y-100783600D02*
X158290700Y-121643100D01*
X152756000Y-95248900D02*
X158290700Y-100783600D01*
X159286700Y-122639100D02*
X159678600Y-122639100D01*
X159678600Y-122639100D02*
X159678600Y-122639200D01*
G04 #@! TO.N,~{GAMEPAD1R}*
X136271300Y-139099700D02*
X136595000Y-139423400D01*
X136271300Y-135322300D02*
X136271300Y-139099700D01*
X137688400Y-133905200D02*
X136271300Y-135322300D01*
G04 #@! TO.N,~{GAMEPAD2R}*
X148372400Y-111049100D02*
X143298400Y-105975100D01*
X148372400Y-112230100D02*
X148372400Y-111049100D01*
X143298400Y-105975100D02*
X143298400Y-104710300D01*
G04 #@! TO.N,~{WAV_SEL}*
X192750000Y-74000000D02*
X194000000Y-75250000D01*
X194000000Y-75250000D02*
X194000000Y-77000000D01*
X194000000Y-77000000D02*
X191000000Y-80000000D01*
G04 #@! TO.N,/DMA Controller/VA8*
X77957400Y-60431400D02*
X77978000Y-60452000D01*
X56319097Y-60431400D02*
X77957400Y-60431400D01*
X52000000Y-64750497D02*
X56319097Y-60431400D01*
X77978000Y-60452000D02*
X77978000Y-68580000D01*
G04 #@! TO.N,/DMA Controller/VA7*
X77216000Y-60960000D02*
X77216000Y-66548000D01*
X52000000Y-65500000D02*
X56540000Y-60960000D01*
X56540000Y-60960000D02*
X77216000Y-60960000D01*
G04 #@! TO.N,/DMA Controller/VA6*
X73914000Y-70899600D02*
X73914000Y-77978000D01*
X64337600Y-61323200D02*
X73914000Y-70899600D01*
X75728900Y-77978000D02*
X75768100Y-78017200D01*
X73914000Y-77978000D02*
X75728900Y-77978000D01*
X56933346Y-61323200D02*
X64337600Y-61323200D01*
X51898600Y-66357946D02*
X56933346Y-61323200D01*
G04 #@! TO.N,/DMA Controller/VA5*
X51977182Y-67250845D02*
X51977182Y-67022818D01*
X64211300Y-61628000D02*
X71648600Y-69065300D01*
X71648600Y-77195400D02*
X71628000Y-77216000D01*
X51977182Y-67022818D02*
X57372000Y-61628000D01*
X57372000Y-61628000D02*
X64211300Y-61628000D01*
X71648600Y-69065300D02*
X71648600Y-77195400D01*
G04 #@! TO.N,/DMA Controller/VA4*
X58067200Y-61932800D02*
X64085100Y-61932800D01*
X64085100Y-61932800D02*
X71120000Y-68967700D01*
X71120000Y-68967700D02*
X71120000Y-75438000D01*
X52000000Y-68000000D02*
X58067200Y-61932800D01*
G04 #@! TO.N,/DMA Controller/VA3*
X52000000Y-68750497D02*
X58512897Y-62237600D01*
X63642300Y-62237600D02*
X68580000Y-67175300D01*
X58512897Y-62237600D02*
X63642300Y-62237600D01*
G04 #@! TO.N,/DMA Controller/VA2*
X63402500Y-62717400D02*
X68072000Y-67386900D01*
X58782600Y-62717400D02*
X63402500Y-62717400D01*
X68072000Y-67386900D02*
X68072000Y-69088000D01*
X52000000Y-69500000D02*
X58782600Y-62717400D01*
G04 #@! TO.N,~{RE2}*
X198700000Y-60000000D02*
X204000000Y-60000000D01*
X204000000Y-60000000D02*
X206000000Y-62000000D01*
X206000000Y-62000000D02*
X206000000Y-70600000D01*
X167679200Y-79542000D02*
X167679200Y-76830600D01*
X137160000Y-64594600D02*
X135830600Y-63265200D01*
X147616300Y-75667300D02*
X137160000Y-65211000D01*
X167673300Y-79547900D02*
X167673300Y-84663700D01*
X167679200Y-76830600D02*
X173902400Y-70607400D01*
X192801400Y-59800000D02*
X192750000Y-59851400D01*
X147616300Y-79714900D02*
X148937400Y-79714900D01*
X137160000Y-65211000D02*
X137160000Y-64594600D01*
X135830600Y-63265200D02*
X121456600Y-63265200D01*
X167679200Y-79542000D02*
X167673300Y-79547900D01*
X147616300Y-79714900D02*
X147616300Y-75667300D01*
X192750000Y-67435750D02*
X192801400Y-67487150D01*
X121456600Y-63265200D02*
X118110000Y-59918600D01*
X198500000Y-59800000D02*
X198700000Y-60000000D01*
X192750000Y-59851400D02*
X192750000Y-67435750D01*
X148937400Y-79714900D02*
X149464700Y-80242200D01*
X147616300Y-80271400D02*
X147616300Y-79714900D01*
G04 #@! TO.N,~{CLK7}*
X173311300Y-110968000D02*
X177340700Y-114997400D01*
X177340700Y-114997400D02*
X177340700Y-130462200D01*
X177340700Y-130462200D02*
X173411600Y-134391300D01*
G04 #@! TO.N,/DMA Controller/VA1*
X66294000Y-66589500D02*
X66294000Y-68366700D01*
X63479400Y-63225400D02*
X66322200Y-66068200D01*
X51936154Y-70390511D02*
X59101265Y-63225400D01*
X66294000Y-68366700D02*
X66301600Y-68374300D01*
X59101265Y-63225400D02*
X63479400Y-63225400D01*
X66322200Y-66068200D02*
X66322200Y-66561300D01*
X66322200Y-66561300D02*
X66294000Y-66589500D01*
G04 #@! TO.N,/DMA Controller/VA0*
X59316119Y-63754000D02*
X63205300Y-63754000D01*
X63205300Y-63754000D02*
X65793600Y-66342300D01*
X51871530Y-71198589D02*
X59316119Y-63754000D01*
G04 #@! TO.N,Net-(PAD1REG0A-3D)*
X98971100Y-163370300D02*
X98971100Y-145789500D01*
X98971100Y-145789500D02*
X99173700Y-145586900D01*
G04 #@! TO.N,Net-(PAD1REG0A-4D)*
X90665300Y-163370300D02*
X90665300Y-153058100D01*
X90665300Y-153058100D02*
X98157200Y-145566200D01*
G04 #@! TO.N,Net-(PAD2REG0A-3D)*
X155486100Y-158514200D02*
X151219100Y-154247200D01*
X158254700Y-163370300D02*
X155486100Y-160601700D01*
X155486100Y-160601700D02*
X155486100Y-158514200D01*
G04 #@! TO.N,Net-(REG.VX0A-7Q)*
X57945500Y-109267700D02*
X57945500Y-107785900D01*
X53191600Y-113589900D02*
X56534800Y-110246700D01*
X53191600Y-116039700D02*
X53191600Y-113589900D01*
X56534800Y-110246700D02*
X56966500Y-110246700D01*
X56966500Y-110246700D02*
X57945500Y-109267700D01*
G04 #@! TO.N,Net-(REG.VX0A-6Q)*
X59481800Y-118657000D02*
X63475600Y-122650800D01*
X52802000Y-118891500D02*
X54562600Y-118891500D01*
X54562600Y-118891500D02*
X54797100Y-118657000D01*
X54797100Y-118657000D02*
X59481800Y-118657000D01*
X49590100Y-115679600D02*
X52802000Y-118891500D01*
X63475600Y-122650800D02*
X71396300Y-122650800D01*
G04 #@! TO.N,Net-(REG.VX0A-5Q)*
X59730000Y-118350300D02*
X54670000Y-118350300D01*
X52161900Y-102969700D02*
X52704400Y-102427200D01*
X66246200Y-118659500D02*
X60039200Y-118659500D01*
X54670000Y-118350300D02*
X54435500Y-118584800D01*
X60039200Y-118659500D02*
X59730000Y-118350300D01*
X53594700Y-118584800D02*
X52161900Y-117152000D01*
X71390400Y-120929400D02*
X68516100Y-120929400D01*
X54435500Y-118584800D02*
X53594700Y-118584800D01*
X68516100Y-120929400D02*
X66246200Y-118659500D01*
X52161900Y-117152000D02*
X52161900Y-102969700D01*
G04 #@! TO.N,Net-(REG.VY0A-7Q)*
X64845200Y-113668600D02*
X64845200Y-116658200D01*
X64845200Y-116658200D02*
X65838500Y-117651500D01*
G04 #@! TO.N,Net-(REG.VY0A-6Q)*
X81122100Y-129311500D02*
X79564000Y-130869600D01*
X79564000Y-130869600D02*
X79560800Y-130869600D01*
G04 #@! TO.N,AUD_RESET*
X197436669Y-60436669D02*
X203952000Y-66952000D01*
X153047200Y-90340100D02*
X155028000Y-88359300D01*
X187907000Y-58253800D02*
X188951600Y-59298400D01*
X155028000Y-88359300D02*
X155028000Y-87961500D01*
X159804500Y-69003200D02*
X164238700Y-64569000D01*
X181750000Y-58764900D02*
X182261100Y-58253800D01*
X196985608Y-60436669D02*
X197436669Y-60436669D01*
X159804500Y-83185000D02*
X159804500Y-69003200D01*
X164238700Y-60137400D02*
X165072900Y-59303200D01*
X203952000Y-66952000D02*
X203952000Y-68000000D01*
X155028000Y-87961500D02*
X159804500Y-83185000D01*
X164238700Y-64569000D02*
X164238700Y-60137400D01*
X181750000Y-59397200D02*
X181750000Y-58764900D01*
X182261100Y-58253800D02*
X187907000Y-58253800D01*
G04 #@! TO.N,~{AUD_NMI}*
X170273400Y-101611100D02*
X167196900Y-104687600D01*
X170307000Y-88623500D02*
X170273400Y-88657100D01*
X149668600Y-94822700D02*
X149668600Y-101998400D01*
X149668600Y-101998400D02*
X152356200Y-104686000D01*
X170273400Y-88657100D02*
X170273400Y-101611100D01*
G04 #@! TO.N,AUD_SAMP_RATE_SEL*
X170990500Y-98430300D02*
X170990500Y-105697300D01*
X207765800Y-93528400D02*
X207765800Y-73457800D01*
X158821200Y-105500500D02*
X158821200Y-98284800D01*
X170990500Y-105697300D02*
X167983600Y-108704200D01*
X158821200Y-98284800D02*
X153262200Y-92725800D01*
X171127100Y-98293700D02*
X170990500Y-98430300D01*
X207765800Y-73457800D02*
X207800000Y-73423600D01*
X207750000Y-93544200D02*
X207765800Y-93528400D01*
X207750000Y-97500000D02*
X207750000Y-93544200D01*
G04 #@! TO.N,/CPU and address decode/A14*
X191250000Y-56419414D02*
X191647000Y-56022414D01*
X190000000Y-74190080D02*
X191647500Y-72542580D01*
X191647000Y-56022414D02*
X191647000Y-37084000D01*
X190000000Y-108712000D02*
X190000000Y-74190080D01*
X181204000Y-113690000D02*
X181864000Y-113030000D01*
X138430000Y-37084000D02*
X138430000Y-59918600D01*
X191250000Y-69500000D02*
X191250000Y-56419414D01*
X191647500Y-69897500D02*
X191250000Y-69500000D01*
X181864000Y-113030000D02*
X181864000Y-108712000D01*
X181864000Y-108712000D02*
X181864000Y-105918000D01*
X191647500Y-72542580D02*
X191647500Y-69897500D01*
X181204000Y-114300000D02*
X181204000Y-113690000D01*
G04 #@! TO.N,/CPU and address decode/~{VIASEL}*
X183642000Y-75692000D02*
X183896000Y-75946000D01*
X183896000Y-77216000D02*
X183624000Y-77488200D01*
X183642000Y-63642000D02*
X183642000Y-75692000D01*
X183624000Y-77488200D02*
X183624000Y-101836000D01*
X183624000Y-101836000D02*
X183642000Y-101854000D01*
X183896000Y-75946000D02*
X183896000Y-77216000D01*
X182500000Y-62500000D02*
X183642000Y-63642000D01*
G04 #@! TO.N,/CPU and address decode/SPI_MISO*
X151874000Y-69578300D02*
X151892000Y-69596000D01*
X151892000Y-69596000D02*
X151892000Y-70104000D01*
X151874000Y-63517700D02*
X151874000Y-69578300D01*
G04 #@! TO.N,RAM_PG_0*
X170596600Y-98074000D02*
X170596600Y-105017800D01*
X170596600Y-105017800D02*
X167240500Y-108373900D01*
X159372200Y-119098000D02*
X159372200Y-109121700D01*
X170886800Y-97783800D02*
X170596600Y-98074000D01*
X159372200Y-109121700D02*
X159853600Y-108640300D01*
X170886800Y-86923400D02*
X170886800Y-97783800D01*
X168438400Y-84475000D02*
X170886800Y-86923400D01*
X159569700Y-119295500D02*
X159372200Y-119098000D01*
G04 #@! TO.N,RAM_PG_1*
X159036100Y-121618900D02*
X159036100Y-106035900D01*
X159351700Y-86297300D02*
X158400000Y-85345600D01*
X159351700Y-105720300D02*
X159351700Y-86297300D01*
X159036100Y-106035900D02*
X159351700Y-105720300D01*
X159219700Y-121802500D02*
X159036100Y-121618900D01*
G04 #@! TO.N,/CPU and address decode/SPI_CLK*
X116840100Y-60959900D02*
X116840100Y-59781100D01*
X119649100Y-59994000D02*
X119649100Y-60402600D01*
X119649100Y-60402600D02*
X121196600Y-61950100D01*
X113030000Y-64770000D02*
X116840100Y-60959900D01*
X116840100Y-59781100D02*
X117695100Y-58926100D01*
X117695100Y-58926100D02*
X118581200Y-58926100D01*
X118581200Y-58926100D02*
X119649100Y-59994000D01*
G04 #@! TO.N,unconnected-(U1-NC-Pad35)*
X184500000Y-122299400D02*
X182537600Y-124261800D01*
X184500000Y-120750000D02*
X184500000Y-122299400D01*
G04 #@! TO.N,Net-(J1-Pin_11)*
X183720000Y-30100000D02*
X182900000Y-30100000D01*
X185020000Y-29360331D02*
X184459669Y-29360331D01*
X152400000Y-48514000D02*
X152400000Y-66802000D01*
X180429000Y-38385700D02*
X180429000Y-48425100D01*
X180428900Y-38385600D02*
X180429000Y-38385700D01*
X182900000Y-30100000D02*
X180428900Y-32571100D01*
X180428900Y-32571100D02*
X180428900Y-38385600D01*
X184459669Y-29360331D02*
X183720000Y-30100000D01*
X180429000Y-48425100D02*
X180340000Y-48514000D01*
G04 #@! TO.N,Net-(J1-Pin_12)*
X182968900Y-35031100D02*
X182968900Y-38766600D01*
X182969000Y-49187100D02*
X182880000Y-49276000D01*
X185000000Y-30831597D02*
X185000000Y-33000000D01*
X182969000Y-38766700D02*
X182969000Y-49187100D01*
X153416000Y-49276000D02*
X153416000Y-67818000D01*
X185000000Y-33000000D02*
X182968900Y-35031100D01*
X186890633Y-28940964D02*
X185000000Y-30831597D01*
X182968900Y-38766600D02*
X182969000Y-38766700D01*
G04 #@! TO.N,Net-(J1-Pin_13)*
X184500000Y-35500000D02*
X187300000Y-32700000D01*
X188761266Y-29360331D02*
X189600000Y-29360331D01*
X187300000Y-32700000D02*
X187300000Y-30821597D01*
X184500000Y-50292000D02*
X184500000Y-35500000D01*
X154178000Y-71374000D02*
X154178000Y-50292000D01*
X187300000Y-30821597D02*
X188761266Y-29360331D01*
G04 #@! TO.N,Net-(J1-Pin_14)*
X191039669Y-29360331D02*
X189600000Y-30800000D01*
X189600000Y-41400000D02*
X187960000Y-43040000D01*
X191890000Y-29360331D02*
X191039669Y-29360331D01*
X189600000Y-30800000D02*
X189600000Y-41400000D01*
X155956000Y-51054000D02*
X155956000Y-71899700D01*
X187960000Y-43040000D02*
X187960000Y-51054000D01*
G04 #@! TO.N,Net-(VMUX0A-1A)*
X59500000Y-67000000D02*
X59500000Y-78500000D01*
X59500000Y-78500000D02*
X56698400Y-81301600D01*
X56698400Y-81301600D02*
X56698400Y-108426500D01*
X61196700Y-65303300D02*
X59500000Y-67000000D01*
X56698400Y-108426500D02*
X57337800Y-109065900D01*
X61196700Y-65225300D02*
X61196700Y-65303300D01*
G04 #@! TO.N,Net-(VMUX0A-2A)*
X57234000Y-107417600D02*
X57234000Y-82766000D01*
X60500000Y-68909400D02*
X62198400Y-67211000D01*
X57234000Y-82766000D02*
X60500000Y-79500000D01*
X60500000Y-79500000D02*
X60500000Y-68909400D01*
G04 #@! TO.N,Net-(VMUX0A-3A)*
X69487800Y-71860400D02*
X68355400Y-70728000D01*
X59786200Y-114430000D02*
X66648000Y-107568200D01*
X66648000Y-107568200D02*
X66648000Y-87470100D01*
X66648000Y-87470100D02*
X69487800Y-84630300D01*
X69487800Y-84630300D02*
X69487800Y-71860400D01*
G04 #@! TO.N,Net-(VMUX0A-4A)*
X67086400Y-88786100D02*
X68720300Y-87152200D01*
X69820800Y-85300700D02*
X69820800Y-70517700D01*
X68720300Y-86401200D02*
X69820800Y-85300700D01*
X59945500Y-115189300D02*
X67086400Y-108048400D01*
X67086400Y-108048400D02*
X67086400Y-88786100D01*
X68720300Y-87152200D02*
X68720300Y-86401200D01*
G04 #@! TO.N,Net-(VMUX1A-1A)*
X65587000Y-96663000D02*
X65587000Y-87913000D01*
X59750000Y-102000000D02*
X60250000Y-102000000D01*
X69181100Y-84318900D02*
X69181100Y-74459700D01*
X69181100Y-74459700D02*
X68836700Y-74115300D01*
X65587000Y-87913000D02*
X69181100Y-84318900D01*
X60250000Y-102000000D02*
X65587000Y-96663000D01*
G04 #@! TO.N,Net-(VMUX1A-2A)*
X59134000Y-103018500D02*
X59134000Y-100366000D01*
X59134000Y-100366000D02*
X60500000Y-99000000D01*
X65000000Y-87702400D02*
X66512600Y-86189800D01*
X66512600Y-86189800D02*
X66512600Y-77877700D01*
X60500000Y-99000000D02*
X60500000Y-93852900D01*
X60500000Y-93852900D02*
X65000000Y-89352900D01*
X65000000Y-89352900D02*
X65000000Y-87702400D01*
G04 #@! TO.N,Net-(VMUX1A-3A)*
X58575100Y-103549000D02*
X58575100Y-94560200D01*
X63972700Y-81319100D02*
X64997100Y-80294700D01*
X58575100Y-94560200D02*
X63972700Y-89162600D01*
X63972700Y-89162600D02*
X63972700Y-81319100D01*
G04 #@! TO.N,Net-(VMUX2A-1A)*
X74587200Y-65379300D02*
X74587200Y-69716900D01*
X76298600Y-91614600D02*
X67966900Y-99946300D01*
X74587200Y-69716900D02*
X76298600Y-71428300D01*
X67966900Y-99946300D02*
X67966900Y-108855800D01*
X76298600Y-71428300D02*
X76298600Y-91614600D01*
G04 #@! TO.N,Net-(VMUX2A-2A)*
X67393200Y-91089100D02*
X69135000Y-89347300D01*
X69135000Y-89347300D02*
X69135000Y-86737500D01*
X69135000Y-86737500D02*
X70576400Y-85296100D01*
X67393200Y-112763500D02*
X67393200Y-91089100D01*
X67338800Y-112817900D02*
X67393200Y-112763500D01*
X70576400Y-85296100D02*
X70576400Y-70649600D01*
G04 #@! TO.N,Net-(VMUX2A-3A)*
X77161900Y-91618900D02*
X75911100Y-92869700D01*
X78663800Y-88449400D02*
X77161900Y-89951300D01*
X78181300Y-70359200D02*
X78663800Y-70841700D01*
X75911100Y-96362900D02*
X69040200Y-103233800D01*
X78663800Y-70841700D02*
X78663800Y-88449400D01*
X77161900Y-89951300D02*
X77161900Y-91618900D01*
X69040200Y-103233800D02*
X69040200Y-107224400D01*
X75911100Y-92869700D02*
X75911100Y-96362900D01*
G04 #@! TO.N,Net-(VMUX2A-4A)*
X76312200Y-67666700D02*
X77621500Y-68976000D01*
X76846300Y-91500800D02*
X71238500Y-97108600D01*
X76846300Y-89833100D02*
X76846300Y-91500800D01*
X77621500Y-70878800D02*
X78357100Y-71614400D01*
X78357100Y-88322300D02*
X76846300Y-89833100D01*
X71238500Y-97108600D02*
X71238500Y-100285200D01*
X77621500Y-68976000D02*
X77621500Y-70878800D01*
X76312200Y-63211600D02*
X76312200Y-67666700D01*
X78357100Y-71614400D02*
X78357100Y-88322300D01*
G04 #@! TO.N,Net-(VMUX3A-1A)*
X77847800Y-91800600D02*
X76524500Y-93123900D01*
X79903500Y-74115300D02*
X79903500Y-88077300D01*
X76524500Y-97113800D02*
X71403300Y-102235000D01*
X76524500Y-93123900D02*
X76524500Y-97113800D01*
X79903500Y-88077300D02*
X77847800Y-90133000D01*
X77847800Y-90133000D02*
X77847800Y-91800600D01*
G04 #@! TO.N,Net-(VMUX3A-2A)*
X76217800Y-92996800D02*
X76217800Y-96670300D01*
X77541100Y-90005900D02*
X77541100Y-91673500D01*
X70490200Y-102397900D02*
X70490200Y-102885000D01*
X79372800Y-88174200D02*
X77541100Y-90005900D01*
X77541100Y-91673500D02*
X76217800Y-92996800D01*
X79372800Y-76412700D02*
X79372800Y-88174200D01*
X76217800Y-96670300D02*
X70490200Y-102397900D01*
G04 #@! TO.N,Net-(VMUX3A-3A)*
X83269600Y-85272000D02*
X78154500Y-90387100D01*
X78154500Y-90387100D02*
X78154500Y-91927700D01*
X71403300Y-103301300D02*
X71403300Y-103535000D01*
X76831200Y-93251000D02*
X76831200Y-97873400D01*
X78154500Y-91927700D02*
X76831200Y-93251000D01*
X76831200Y-97873400D02*
X71403300Y-103301300D01*
X83269600Y-78280900D02*
X83269600Y-85272000D01*
G04 #@! TO.N,Net-(J1-Pin_15)*
X191750000Y-33000000D02*
X191900000Y-32850000D01*
X191900000Y-30801597D02*
X193341266Y-29360331D01*
X193341266Y-29360331D02*
X194180000Y-29360331D01*
X159750000Y-33750000D02*
X159750000Y-63000000D01*
X191900000Y-32850000D02*
X191900000Y-30801597D01*
G04 #@! TO.N,Net-(J1-Pin_16)*
X194250000Y-36250000D02*
X194200000Y-36200000D01*
X195639669Y-29360331D02*
X196470000Y-29360331D01*
X194200000Y-36200000D02*
X194200000Y-30800000D01*
X194200000Y-30800000D02*
X195639669Y-29360331D01*
X162750000Y-36000000D02*
X162750000Y-62000000D01*
G04 #@! TO.N,Net-(J1-Pin_17)*
X179947600Y-58838242D02*
X179947600Y-59500000D01*
X192974300Y-48000000D02*
X192974300Y-57750000D01*
X179947600Y-61552400D02*
X179947600Y-59500000D01*
X198760000Y-47010000D02*
X198760000Y-29360331D01*
X184000000Y-54785842D02*
X179947600Y-58838242D01*
X184000000Y-54750000D02*
X184000000Y-54785842D01*
X175037577Y-66462423D02*
X179947600Y-61552400D01*
X174962423Y-66462423D02*
X175037577Y-66462423D01*
X199750000Y-48000000D02*
X198760000Y-47010000D01*
G04 #@! TO.N,Net-(J1-Pin_18)*
X176250000Y-64250000D02*
X176250000Y-61500000D01*
X200750000Y-35525700D02*
X201050000Y-35225700D01*
X187500000Y-50250000D02*
X187500000Y-36000500D01*
X187500000Y-36000500D02*
X188000000Y-35500500D01*
X176250000Y-61500000D02*
X187500000Y-50250000D01*
X201050000Y-35225700D02*
X201050000Y-29360331D01*
G04 #@! TO.N,Net-(J1-Pin_19)*
X183875000Y-20625000D02*
X184000000Y-20500000D01*
X205526200Y-34526200D02*
X205526200Y-22994660D01*
X190474300Y-45000000D02*
X190474300Y-56025700D01*
X183875000Y-26260331D02*
X183875000Y-20625000D01*
X208250000Y-37250000D02*
X205526200Y-34526200D01*
X205500000Y-22968460D02*
X205500000Y-20500000D01*
X190474300Y-56025700D02*
X190250000Y-56250000D01*
X208250000Y-45000000D02*
X208250000Y-37250000D01*
X205526200Y-22994660D02*
X205500000Y-22968460D01*
X190250000Y-56250000D02*
X190250000Y-71882000D01*
G04 #@! TO.N,Net-(J1-Pin_20)*
X186165000Y-26260331D02*
X186165000Y-24585000D01*
X167674300Y-66767700D02*
X167386000Y-67056000D01*
X172000000Y-24500000D02*
X172000000Y-35500000D01*
X167674300Y-35500000D02*
X167674300Y-66767700D01*
X186165000Y-24585000D02*
X186250000Y-24500000D01*
G04 #@! TO.N,Net-(J1-Pin_21)*
X188500000Y-22500000D02*
X188455000Y-22545000D01*
X168381900Y-65786000D02*
X168381900Y-47988300D01*
X179000000Y-47988300D02*
X179000000Y-22500000D01*
X188455000Y-22545000D02*
X188455000Y-26260331D01*
G04 #@! TO.N,Net-(J1-Pin_22)*
X182724100Y-57514400D02*
X182132900Y-57514400D01*
X189250000Y-44000000D02*
X189000000Y-44250000D01*
X171887100Y-71031600D02*
X170881900Y-71031600D01*
X206025700Y-22750000D02*
X206000000Y-22775700D01*
X180607200Y-62311500D02*
X171887100Y-71031600D01*
X180607200Y-59040100D02*
X180607200Y-62311500D01*
X209500000Y-37750000D02*
X209500000Y-44000000D01*
X182132900Y-57514400D02*
X180607200Y-59040100D01*
X189000000Y-44250000D02*
X189000000Y-51238500D01*
X189000000Y-51238500D02*
X182724100Y-57514400D01*
X206000000Y-34250000D02*
X209500000Y-37750000D01*
X206000000Y-22775700D02*
X206000000Y-34250000D01*
G04 #@! TO.N,Net-(J1-Pin_23)*
X191000000Y-56000000D02*
X190750000Y-56250000D01*
X205000000Y-22525700D02*
X204500000Y-22025700D01*
X190750000Y-56250000D02*
X190750000Y-70082700D01*
X205000000Y-35000000D02*
X205000000Y-22525700D01*
X190750000Y-70082700D02*
X191121300Y-70454000D01*
X191000000Y-35000000D02*
X191000000Y-56000000D01*
G04 #@! TO.N,Net-(J1-Pin_24)*
X187000000Y-50000000D02*
X175750000Y-61250000D01*
X204474300Y-34000000D02*
X204474300Y-23500000D01*
X175750000Y-61250000D02*
X175750000Y-63683200D01*
X175750000Y-63683200D02*
X170833700Y-68599500D01*
X204000000Y-34474300D02*
X204474300Y-34000000D01*
X187000000Y-35500000D02*
X187000000Y-50000000D01*
G04 #@! TO.N,Net-(J1-Pin_25)*
X193500000Y-61800000D02*
X193250000Y-62050000D01*
X203750000Y-31236597D02*
X203750000Y-33500000D01*
X203750000Y-24250000D02*
X203750000Y-31236597D01*
X193327600Y-67269190D02*
X193327600Y-68464814D01*
X193250000Y-62050000D02*
X193250000Y-67191590D01*
X193327600Y-68464814D02*
X192808802Y-68983612D01*
X193250000Y-67191590D02*
X193327600Y-67269190D01*
X193500000Y-33500000D02*
X193500000Y-61800000D01*
G04 #@! TO.N,Net-(J1-Pin_26)*
X180250000Y-58963500D02*
X180250000Y-61918300D01*
X188618400Y-51164500D02*
X182575200Y-57207700D01*
X188618400Y-43250000D02*
X188618400Y-51164500D01*
X180250000Y-61918300D02*
X174663900Y-67504400D01*
X206525700Y-33848042D02*
X211000000Y-38322342D01*
X182005800Y-57207700D02*
X180250000Y-58963500D01*
X182575200Y-57207700D02*
X182005800Y-57207700D01*
X211000000Y-38322342D02*
X211000000Y-43250000D01*
X206525700Y-27380331D02*
X206525700Y-33848042D01*
G04 #@! TO.N,VNMI*
X87290900Y-47670700D02*
X85203800Y-49757800D01*
X57521900Y-50063200D02*
X57668500Y-49916600D01*
X89537300Y-86527400D02*
X89537300Y-81969100D01*
X47000000Y-51445700D02*
X48382500Y-50063200D01*
X96662100Y-90368900D02*
X94155700Y-87862500D01*
X76750000Y-41250000D02*
X76750000Y-49766300D01*
X89537300Y-81969100D02*
X90630800Y-80875600D01*
X47000000Y-53177200D02*
X47000000Y-51445700D01*
X90630800Y-80875600D02*
X90630800Y-49748000D01*
X90630800Y-49748000D02*
X88553500Y-47670700D01*
X94155700Y-87862500D02*
X94155700Y-86527400D01*
X48382500Y-50063200D02*
X57521900Y-50063200D01*
X88553500Y-47670700D02*
X87290900Y-47670700D01*
X47750000Y-53927200D02*
X47000000Y-53177200D01*
X111750000Y-33000000D02*
X76750000Y-33000000D01*
G04 #@! TO.N,/CPU and address decode/sync*
X186165000Y-33085000D02*
X183750000Y-35500000D01*
X210250000Y-124750000D02*
X210250000Y-76020760D01*
X210252800Y-76017960D02*
X210252800Y-75582040D01*
X195224300Y-56750000D02*
X195224300Y-50500000D01*
X210250000Y-76020760D02*
X210252800Y-76017960D01*
X210252800Y-75582040D02*
X210250000Y-75579240D01*
X186165000Y-31340331D02*
X186165000Y-33085000D01*
X210250000Y-75579240D02*
X210250000Y-50500000D01*
X183750000Y-35500000D02*
X183750000Y-48250000D01*
G04 #@! TO.N,/CPU and address decode/RDY*
X153188300Y-100488400D02*
X150750900Y-98051000D01*
X150750900Y-98051000D02*
X150750900Y-73462700D01*
X142240000Y-64951800D02*
X142240000Y-61188600D01*
X153188300Y-114286200D02*
X153188300Y-100488400D01*
X154967800Y-116065700D02*
X153188300Y-114286200D01*
X142240000Y-61188600D02*
X140970000Y-59918600D01*
X150750900Y-73462700D02*
X142240000Y-64951800D01*
G04 #@! TO.N,/CPU and address decode/BusEnable*
X210250000Y-133250000D02*
X211000000Y-132500000D01*
X195325000Y-31340331D02*
X197776200Y-33791531D01*
X211000000Y-132500000D02*
X211000000Y-129250000D01*
X182250000Y-133250000D02*
X210250000Y-133250000D01*
X197776200Y-33791531D02*
X197776200Y-51526200D01*
X211000000Y-51750000D02*
X211000000Y-129250000D01*
X197776200Y-51526200D02*
X198000000Y-51750000D01*
G04 #@! TO.N,/CPU and address decode/MemLock*
X198000000Y-31725331D02*
X198000000Y-32500000D01*
X211500000Y-49500000D02*
X211526200Y-49526200D01*
X194000000Y-128250000D02*
X189500000Y-128250000D01*
X198250000Y-49250000D02*
X198500000Y-49500000D01*
X198250000Y-32750000D02*
X198250000Y-49250000D01*
X197615000Y-31340331D02*
X198000000Y-31725331D01*
X198000000Y-32500000D02*
X198250000Y-32750000D01*
X211526200Y-49526200D02*
X211526200Y-128249500D01*
X211526200Y-128249500D02*
X211525700Y-128250000D01*
G04 #@! TD*
M02*
