G04 #@! TF.GenerationSoftware,KiCad,Pcbnew,7.0.6*
G04 #@! TF.CreationDate,2024-11-20T12:06:44-05:00*
G04 #@! TF.ProjectId,LogicBoard_smt,4c6f6769-6342-46f6-9172-645f736d742e,rev?*
G04 #@! TF.SameCoordinates,Original*
G04 #@! TF.FileFunction,Soldermask,Top*
G04 #@! TF.FilePolarity,Negative*
%FSLAX46Y46*%
G04 Gerber Fmt 4.6, Leading zero omitted, Abs format (unit mm)*
G04 Created by KiCad (PCBNEW 7.0.6) date 2024-11-20 12:06:44*
%MOMM*%
%LPD*%
G01*
G04 APERTURE LIST*
G04 Aperture macros list*
%AMRoundRect*
0 Rectangle with rounded corners*
0 $1 Rounding radius*
0 $2 $3 $4 $5 $6 $7 $8 $9 X,Y pos of 4 corners*
0 Add a 4 corners polygon primitive as box body*
4,1,4,$2,$3,$4,$5,$6,$7,$8,$9,$2,$3,0*
0 Add four circle primitives for the rounded corners*
1,1,$1+$1,$2,$3*
1,1,$1+$1,$4,$5*
1,1,$1+$1,$6,$7*
1,1,$1+$1,$8,$9*
0 Add four rect primitives between the rounded corners*
20,1,$1+$1,$2,$3,$4,$5,0*
20,1,$1+$1,$4,$5,$6,$7,0*
20,1,$1+$1,$6,$7,$8,$9,0*
20,1,$1+$1,$8,$9,$2,$3,0*%
%AMFreePoly0*
4,1,25,0.375350,0.844196,0.387473,0.833842,0.833842,0.387473,0.862349,0.331525,0.863600,0.315631,0.863600,-0.315631,0.844196,-0.375350,0.833842,-0.387473,0.387473,-0.833842,0.331525,-0.862349,0.315631,-0.863600,-0.315631,-0.863600,-0.375350,-0.844196,-0.387473,-0.833842,-0.833842,-0.387473,-0.862349,-0.331525,-0.863600,-0.315631,-0.863600,0.315631,-0.844196,0.375350,-0.833842,0.387473,
-0.387473,0.833842,-0.331525,0.862349,-0.315631,0.863600,0.315631,0.863600,0.375350,0.844196,0.375350,0.844196,$1*%
G04 Aperture macros list end*
%ADD10RoundRect,0.100000X-0.637500X-0.100000X0.637500X-0.100000X0.637500X0.100000X-0.637500X0.100000X0*%
%ADD11R,1.100000X0.300000*%
%ADD12R,3.100000X2.300000*%
%ADD13RoundRect,0.250000X0.475000X-0.250000X0.475000X0.250000X-0.475000X0.250000X-0.475000X-0.250000X0*%
%ADD14RoundRect,0.250000X0.250000X0.475000X-0.250000X0.475000X-0.250000X-0.475000X0.250000X-0.475000X0*%
%ADD15RoundRect,0.250000X-0.262500X-0.450000X0.262500X-0.450000X0.262500X0.450000X-0.262500X0.450000X0*%
%ADD16R,0.520000X1.500000*%
%ADD17R,1.500000X0.520000*%
%ADD18O,1.727200X3.251200*%
%ADD19R,4.600000X2.000000*%
%ADD20O,4.200000X2.000000*%
%ADD21O,2.000000X4.200000*%
%ADD22RoundRect,0.100000X0.100000X-0.637500X0.100000X0.637500X-0.100000X0.637500X-0.100000X-0.637500X0*%
%ADD23C,3.048000*%
%ADD24FreePoly0,0.000000*%
%ADD25RoundRect,0.250000X-0.475000X0.250000X-0.475000X-0.250000X0.475000X-0.250000X0.475000X0.250000X0*%
%ADD26R,1.000000X1.000000*%
%ADD27O,1.000000X1.000000*%
%ADD28C,3.600000*%
%ADD29C,6.400000*%
%ADD30RoundRect,0.100000X0.637500X0.100000X-0.637500X0.100000X-0.637500X-0.100000X0.637500X-0.100000X0*%
%ADD31RoundRect,0.250000X0.262500X0.450000X-0.262500X0.450000X-0.262500X-0.450000X0.262500X-0.450000X0*%
%ADD32R,0.380000X1.870000*%
%ADD33R,0.650000X0.400000*%
%ADD34RoundRect,0.250000X-0.250000X-0.475000X0.250000X-0.475000X0.250000X0.475000X-0.250000X0.475000X0*%
%ADD35RoundRect,0.150000X-0.825000X-0.150000X0.825000X-0.150000X0.825000X0.150000X-0.825000X0.150000X0*%
%ADD36RoundRect,0.250000X-0.850000X0.375000X-0.850000X-0.375000X0.850000X-0.375000X0.850000X0.375000X0*%
%ADD37C,1.727200*%
%ADD38R,2.510000X1.000000*%
%ADD39RoundRect,0.075000X-0.075000X0.712500X-0.075000X-0.712500X0.075000X-0.712500X0.075000X0.712500X0*%
%ADD40RoundRect,0.250000X0.300000X0.300000X-0.300000X0.300000X-0.300000X-0.300000X0.300000X-0.300000X0*%
%ADD41RoundRect,0.150000X-0.512500X-0.150000X0.512500X-0.150000X0.512500X0.150000X-0.512500X0.150000X0*%
%ADD42C,1.700000*%
%ADD43C,1.600000*%
%ADD44R,3.000000X1.980000*%
G04 APERTURE END LIST*
D10*
G04 #@! TO.C,GMUX2*
X86291500Y-23633000D03*
X86291500Y-24283000D03*
X86291500Y-24933000D03*
X86291500Y-25583000D03*
X86291500Y-26233000D03*
X86291500Y-26883000D03*
X86291500Y-27533000D03*
X86291500Y-28183000D03*
X92016500Y-28183000D03*
X92016500Y-27533000D03*
X92016500Y-26883000D03*
X92016500Y-26233000D03*
X92016500Y-25583000D03*
X92016500Y-24933000D03*
X92016500Y-24283000D03*
X92016500Y-23633000D03*
G04 #@! TD*
D11*
G04 #@! TO.C,TO_FRAMEBUFFER1*
X46350000Y-56949300D03*
X46350000Y-57449300D03*
X46350000Y-57949300D03*
X46350000Y-58449300D03*
X46350000Y-58949300D03*
X46350000Y-59449300D03*
X46350000Y-59949300D03*
X46350000Y-60449300D03*
X46350000Y-60949300D03*
X46350000Y-61449300D03*
X46350000Y-61949300D03*
X46350000Y-62449300D03*
X46350000Y-62949300D03*
X46350000Y-63449300D03*
X46350000Y-63949300D03*
X46350000Y-64449300D03*
X46350000Y-64949300D03*
X46350000Y-65449300D03*
X46350000Y-65949300D03*
X46350000Y-66449300D03*
X46350000Y-66949300D03*
X46350000Y-67449300D03*
X46350000Y-67949300D03*
X46350000Y-68449300D03*
X46350000Y-68949300D03*
X46350000Y-69449300D03*
X46350000Y-69949300D03*
X46350000Y-70449300D03*
X46350000Y-70949300D03*
X46350000Y-71449300D03*
X46350000Y-71949300D03*
X46350000Y-72449300D03*
X46350000Y-72949300D03*
X46350000Y-73449300D03*
X46350000Y-73949300D03*
X46350000Y-74449300D03*
X46350000Y-74949300D03*
X46350000Y-75449300D03*
X46350000Y-75949300D03*
X46350000Y-76449300D03*
D12*
X44650000Y-55279300D03*
X44650000Y-78119300D03*
G04 #@! TD*
D13*
G04 #@! TO.C,C36*
X164338000Y-82878000D03*
X164338000Y-80978000D03*
G04 #@! TD*
D14*
G04 #@! TO.C,C34*
X127061000Y-147574000D03*
X125161000Y-147574000D03*
G04 #@! TD*
D13*
G04 #@! TO.C,C1*
X54864000Y-28360000D03*
X54864000Y-26460000D03*
G04 #@! TD*
D10*
G04 #@! TO.C,VMUX2*
X75885100Y-64575300D03*
X75885100Y-65225300D03*
X75885100Y-65875300D03*
X75885100Y-66525300D03*
X75885100Y-67175300D03*
X75885100Y-67825300D03*
X75885100Y-68475300D03*
X75885100Y-69125300D03*
X81610100Y-69125300D03*
X81610100Y-68475300D03*
X81610100Y-67825300D03*
X81610100Y-67175300D03*
X81610100Y-66525300D03*
X81610100Y-65875300D03*
X81610100Y-65225300D03*
X81610100Y-64575300D03*
G04 #@! TD*
D15*
G04 #@! TO.C,R2*
X182880000Y-139000000D03*
X184705000Y-139000000D03*
G04 #@! TD*
D14*
G04 #@! TO.C,C60*
X127315000Y-99060000D03*
X125415000Y-99060000D03*
G04 #@! TD*
D16*
G04 #@! TO.C,U1*
X185204000Y-127716000D03*
X186004000Y-127716000D03*
X186804000Y-127716000D03*
X187604000Y-127716000D03*
X188404000Y-127716000D03*
D17*
X190454000Y-125666000D03*
X190454000Y-124866000D03*
X190454000Y-124066000D03*
X178354000Y-124066000D03*
X190454000Y-123266000D03*
X190454000Y-122466000D03*
X190454000Y-120866000D03*
X190454000Y-120066000D03*
X190454000Y-119266000D03*
X190454000Y-118466000D03*
X190454000Y-117666000D03*
D16*
X188404000Y-115616000D03*
X187604000Y-115616000D03*
X186804000Y-115616000D03*
X186004000Y-115616000D03*
X185204000Y-115616000D03*
X184404000Y-127716000D03*
X184404000Y-115616000D03*
X183604000Y-115616000D03*
X182804000Y-115616000D03*
X182004000Y-115616000D03*
X181204000Y-115616000D03*
X180404000Y-115616000D03*
D17*
X178354000Y-117666000D03*
X178354000Y-118466000D03*
X178354000Y-119266000D03*
X178354000Y-120066000D03*
X178354000Y-120866000D03*
X178354000Y-121666000D03*
X178354000Y-122466000D03*
X178354000Y-123266000D03*
X178354000Y-124866000D03*
X190454000Y-121666000D03*
X178354000Y-125666000D03*
D16*
X180404000Y-127716000D03*
X181204000Y-127716000D03*
X182004000Y-127716000D03*
X182804000Y-127716000D03*
X183604000Y-127716000D03*
G04 #@! TD*
D10*
G04 #@! TO.C,IC53*
X136329500Y-101174000D03*
X136329500Y-101824000D03*
X136329500Y-102474000D03*
X136329500Y-103124000D03*
X136329500Y-103774000D03*
X136329500Y-104424000D03*
X136329500Y-105074000D03*
X142054500Y-105074000D03*
X142054500Y-104424000D03*
X142054500Y-103774000D03*
X142054500Y-103124000D03*
X142054500Y-102474000D03*
X142054500Y-101824000D03*
X142054500Y-101174000D03*
G04 #@! TD*
D18*
G04 #@! TO.C,EXTRA_BUTTON_1*
X85852000Y-140208000D03*
X88392000Y-140208000D03*
G04 #@! TD*
D14*
G04 #@! TO.C,C47*
X184742500Y-144000000D03*
X182842500Y-144000000D03*
G04 #@! TD*
D19*
G04 #@! TO.C,J2*
X158838900Y-14072400D03*
D20*
X158838900Y-7772400D03*
D21*
X154038900Y-11172400D03*
G04 #@! TD*
D10*
G04 #@! TO.C,BLIT_REG_SELECTOR0*
X142425500Y-132345000D03*
X142425500Y-132995000D03*
X142425500Y-133645000D03*
X142425500Y-134295000D03*
X142425500Y-134945000D03*
X142425500Y-135595000D03*
X142425500Y-136245000D03*
X142425500Y-136895000D03*
X148150500Y-136895000D03*
X148150500Y-136245000D03*
X148150500Y-135595000D03*
X148150500Y-134945000D03*
X148150500Y-134295000D03*
X148150500Y-133645000D03*
X148150500Y-132995000D03*
X148150500Y-132345000D03*
G04 #@! TD*
D22*
G04 #@! TO.C,WR_REG_DECODE0*
X146569000Y-98366500D03*
X147219000Y-98366500D03*
X147869000Y-98366500D03*
X148519000Y-98366500D03*
X149169000Y-98366500D03*
X149819000Y-98366500D03*
X150469000Y-98366500D03*
X151119000Y-98366500D03*
X151119000Y-92641500D03*
X150469000Y-92641500D03*
X149819000Y-92641500D03*
X149169000Y-92641500D03*
X148519000Y-92641500D03*
X147869000Y-92641500D03*
X147219000Y-92641500D03*
X146569000Y-92641500D03*
G04 #@! TD*
D23*
G04 #@! TO.C,PORT1*
X82372200Y-161949100D03*
X107264200Y-161949100D03*
D24*
X89281000Y-160526700D03*
X92049600Y-160526700D03*
X94818200Y-160526700D03*
X97586800Y-160526700D03*
X100355400Y-160526700D03*
X90665300Y-163370300D03*
X93433900Y-163370300D03*
X96202500Y-163370300D03*
X98971100Y-163370300D03*
G04 #@! TD*
D14*
G04 #@! TO.C,C5*
X80700700Y-99060000D03*
X78800700Y-99060000D03*
G04 #@! TD*
D25*
G04 #@! TO.C,C43*
X144764000Y-92186500D03*
X144764000Y-94086500D03*
G04 #@! TD*
D10*
G04 #@! TO.C,U5*
X86303600Y-90375000D03*
X86303600Y-91025000D03*
X86303600Y-91675000D03*
X86303600Y-92325000D03*
X86303600Y-92975000D03*
X86303600Y-93625000D03*
X86303600Y-94275000D03*
X92028600Y-94275000D03*
X92028600Y-93625000D03*
X92028600Y-92975000D03*
X92028600Y-92325000D03*
X92028600Y-91675000D03*
X92028600Y-91025000D03*
X92028600Y-90375000D03*
G04 #@! TD*
G04 #@! TO.C,IC9*
X120999600Y-112131700D03*
X120999600Y-112781700D03*
X120999600Y-113431700D03*
X120999600Y-114081700D03*
X120999600Y-114731700D03*
X120999600Y-115381700D03*
X120999600Y-116031700D03*
X126724600Y-116031700D03*
X126724600Y-115381700D03*
X126724600Y-114731700D03*
X126724600Y-114081700D03*
X126724600Y-113431700D03*
X126724600Y-112781700D03*
X126724600Y-112131700D03*
G04 #@! TD*
D22*
G04 #@! TO.C,IC7*
X184232000Y-82618500D03*
X184882000Y-82618500D03*
X185532000Y-82618500D03*
X186182000Y-82618500D03*
X186832000Y-82618500D03*
X187482000Y-82618500D03*
X188132000Y-82618500D03*
X188132000Y-76893500D03*
X187482000Y-76893500D03*
X186832000Y-76893500D03*
X186182000Y-76893500D03*
X185532000Y-76893500D03*
X184882000Y-76893500D03*
X184232000Y-76893500D03*
G04 #@! TD*
D26*
G04 #@! TO.C,J3*
X188500000Y-158225000D03*
D27*
X188500000Y-159495000D03*
X188500000Y-160765000D03*
G04 #@! TD*
D10*
G04 #@! TO.C,IC16*
X40317500Y-142322000D03*
X40317500Y-142972000D03*
X40317500Y-143622000D03*
X40317500Y-144272000D03*
X40317500Y-144922000D03*
X40317500Y-145572000D03*
X40317500Y-146222000D03*
X46042500Y-146222000D03*
X46042500Y-145572000D03*
X46042500Y-144922000D03*
X46042500Y-144272000D03*
X46042500Y-143622000D03*
X46042500Y-142972000D03*
X46042500Y-142322000D03*
G04 #@! TD*
G04 #@! TO.C,REG.VX0*
X64024700Y-122805000D03*
X64024700Y-123455000D03*
X64024700Y-124105000D03*
X64024700Y-124755000D03*
X64024700Y-125405000D03*
X64024700Y-126055000D03*
X64024700Y-126705000D03*
X64024700Y-127355000D03*
X64024700Y-128005000D03*
X64024700Y-128655000D03*
X69749700Y-128655000D03*
X69749700Y-128005000D03*
X69749700Y-127355000D03*
X69749700Y-126705000D03*
X69749700Y-126055000D03*
X69749700Y-125405000D03*
X69749700Y-124755000D03*
X69749700Y-124105000D03*
X69749700Y-123455000D03*
X69749700Y-122805000D03*
G04 #@! TD*
G04 #@! TO.C,IC21*
X39809500Y-45294000D03*
X39809500Y-45944000D03*
X39809500Y-46594000D03*
X39809500Y-47244000D03*
X39809500Y-47894000D03*
X39809500Y-48544000D03*
X39809500Y-49194000D03*
X45534500Y-49194000D03*
X45534500Y-48544000D03*
X45534500Y-47894000D03*
X45534500Y-47244000D03*
X45534500Y-46594000D03*
X45534500Y-45944000D03*
X45534500Y-45294000D03*
G04 #@! TD*
G04 #@! TO.C,REG.GX0*
X87155400Y-122805000D03*
X87155400Y-123455000D03*
X87155400Y-124105000D03*
X87155400Y-124755000D03*
X87155400Y-125405000D03*
X87155400Y-126055000D03*
X87155400Y-126705000D03*
X87155400Y-127355000D03*
X87155400Y-128005000D03*
X87155400Y-128655000D03*
X92880400Y-128655000D03*
X92880400Y-128005000D03*
X92880400Y-127355000D03*
X92880400Y-126705000D03*
X92880400Y-126055000D03*
X92880400Y-125405000D03*
X92880400Y-124755000D03*
X92880400Y-124105000D03*
X92880400Y-123455000D03*
X92880400Y-122805000D03*
G04 #@! TD*
D22*
G04 #@! TO.C,IC20*
X65360000Y-38168500D03*
X66010000Y-38168500D03*
X66660000Y-38168500D03*
X67310000Y-38168500D03*
X67960000Y-38168500D03*
X68610000Y-38168500D03*
X69260000Y-38168500D03*
X69260000Y-32443500D03*
X68610000Y-32443500D03*
X67960000Y-32443500D03*
X67310000Y-32443500D03*
X66660000Y-32443500D03*
X66010000Y-32443500D03*
X65360000Y-32443500D03*
G04 #@! TD*
D14*
G04 #@! TO.C,C15*
X92390000Y-99060000D03*
X90490000Y-99060000D03*
G04 #@! TD*
G04 #@! TO.C,C37*
X92390000Y-39370000D03*
X90490000Y-39370000D03*
G04 #@! TD*
D13*
G04 #@! TO.C,C35*
X44704000Y-139380000D03*
X44704000Y-137480000D03*
G04 #@! TD*
D14*
G04 #@! TO.C,C12*
X189939000Y-63488000D03*
X188039000Y-63488000D03*
G04 #@! TD*
D28*
G04 #@! TO.C,H2*
X45560000Y-161145000D03*
D29*
X45560000Y-161145000D03*
G04 #@! TD*
D14*
G04 #@! TO.C,C45*
X148605500Y-130270000D03*
X146705500Y-130270000D03*
G04 #@! TD*
D10*
G04 #@! TO.C,VXL0*
X51607500Y-111830000D03*
X51607500Y-112480000D03*
X51607500Y-113130000D03*
X51607500Y-113780000D03*
X51607500Y-114430000D03*
X51607500Y-115080000D03*
X51607500Y-115730000D03*
X51607500Y-116380000D03*
X57332500Y-116380000D03*
X57332500Y-115730000D03*
X57332500Y-115080000D03*
X57332500Y-114430000D03*
X57332500Y-113780000D03*
X57332500Y-113130000D03*
X57332500Y-112480000D03*
X57332500Y-111830000D03*
G04 #@! TD*
G04 #@! TO.C,BANKMUX0*
X121597500Y-79005000D03*
X121597500Y-79655000D03*
X121597500Y-80305000D03*
X121597500Y-80955000D03*
X121597500Y-81605000D03*
X121597500Y-82255000D03*
X121597500Y-82905000D03*
X121597500Y-83555000D03*
X127322500Y-83555000D03*
X127322500Y-82905000D03*
X127322500Y-82255000D03*
X127322500Y-81605000D03*
X127322500Y-80955000D03*
X127322500Y-80305000D03*
X127322500Y-79655000D03*
X127322500Y-79005000D03*
G04 #@! TD*
D14*
G04 #@! TO.C,C53*
X116237200Y-120650000D03*
X114337200Y-120650000D03*
G04 #@! TD*
D10*
G04 #@! TO.C,IC12*
X169857500Y-110318000D03*
X169857500Y-110968000D03*
X169857500Y-111618000D03*
X169857500Y-112268000D03*
X169857500Y-112918000D03*
X169857500Y-113568000D03*
X169857500Y-114218000D03*
X175582500Y-114218000D03*
X175582500Y-113568000D03*
X175582500Y-112918000D03*
X175582500Y-112268000D03*
X175582500Y-111618000D03*
X175582500Y-110968000D03*
X175582500Y-110318000D03*
G04 #@! TD*
D30*
G04 #@! TO.C,PAD2REG0*
X149870600Y-145177000D03*
X149870600Y-144527000D03*
X149870600Y-143877000D03*
X149870600Y-143227000D03*
X149870600Y-142577000D03*
X149870600Y-141927000D03*
X149870600Y-141277000D03*
X149870600Y-140627000D03*
X149870600Y-139977000D03*
X149870600Y-139327000D03*
X144145600Y-139327000D03*
X144145600Y-139977000D03*
X144145600Y-140627000D03*
X144145600Y-141277000D03*
X144145600Y-141927000D03*
X144145600Y-142577000D03*
X144145600Y-143227000D03*
X144145600Y-143877000D03*
X144145600Y-144527000D03*
X144145600Y-145177000D03*
G04 #@! TD*
D10*
G04 #@! TO.C,IC1*
X97868900Y-101233300D03*
X97868900Y-101883300D03*
X97868900Y-102533300D03*
X97868900Y-103183300D03*
X97868900Y-103833300D03*
X97868900Y-104483300D03*
X97868900Y-105133300D03*
X103593900Y-105133300D03*
X103593900Y-104483300D03*
X103593900Y-103833300D03*
X103593900Y-103183300D03*
X103593900Y-102533300D03*
X103593900Y-101883300D03*
X103593900Y-101233300D03*
G04 #@! TD*
D14*
G04 #@! TO.C,C57*
X144294900Y-13868400D03*
X142394900Y-13868400D03*
G04 #@! TD*
G04 #@! TO.C,C63*
X70377200Y-120650000D03*
X68477200Y-120650000D03*
G04 #@! TD*
G04 #@! TO.C,C42*
X156411000Y-120703700D03*
X154511000Y-120703700D03*
G04 #@! TD*
D28*
G04 #@! TO.C,H4*
X203360000Y-39050000D03*
D29*
X203360000Y-39050000D03*
G04 #@! TD*
D10*
G04 #@! TO.C,IC3*
X150231000Y-122652000D03*
X150231000Y-123302000D03*
X150231000Y-123952000D03*
X150231000Y-124602000D03*
X150231000Y-125252000D03*
X150231000Y-125902000D03*
X150231000Y-126552000D03*
X150231000Y-127202000D03*
X150231000Y-127852000D03*
X150231000Y-128502000D03*
X155956000Y-128502000D03*
X155956000Y-127852000D03*
X155956000Y-127202000D03*
X155956000Y-126552000D03*
X155956000Y-125902000D03*
X155956000Y-125252000D03*
X155956000Y-124602000D03*
X155956000Y-123952000D03*
X155956000Y-123302000D03*
X155956000Y-122652000D03*
G04 #@! TD*
D17*
G04 #@! TO.C,U2*
X161336000Y-63754000D03*
X161336000Y-64554000D03*
X161336000Y-65354000D03*
X161336000Y-66154000D03*
X161336000Y-66954000D03*
X161336000Y-67754000D03*
D16*
X163386000Y-69804000D03*
X164186000Y-69804000D03*
X164986000Y-69804000D03*
X165786000Y-69804000D03*
X167386000Y-69804000D03*
X168186000Y-69804000D03*
X168986000Y-69804000D03*
X169786000Y-69804000D03*
X170586000Y-69804000D03*
X171386000Y-69804000D03*
D17*
X173436000Y-67754000D03*
X173436000Y-66954000D03*
X173436000Y-66154000D03*
X173436000Y-65354000D03*
X173436000Y-63754000D03*
X173436000Y-62954000D03*
X173436000Y-62154000D03*
X173436000Y-61354000D03*
X173436000Y-60554000D03*
X173436000Y-59754000D03*
D16*
X171386000Y-57704000D03*
X170586000Y-57704000D03*
X169786000Y-57704000D03*
X168986000Y-57704000D03*
X167386000Y-57704000D03*
X166586000Y-57704000D03*
X165786000Y-57704000D03*
X164986000Y-57704000D03*
X163386000Y-57704000D03*
D17*
X161336000Y-59754000D03*
X161336000Y-60554000D03*
X161336000Y-61354000D03*
X161336000Y-62154000D03*
X161336000Y-62954000D03*
D16*
X166586000Y-69804000D03*
D17*
X173436000Y-64554000D03*
D16*
X168186000Y-57704000D03*
X164186000Y-57704000D03*
G04 #@! TD*
D14*
G04 #@! TO.C,C16*
X92390000Y-88265000D03*
X90490000Y-88265000D03*
G04 #@! TD*
D10*
G04 #@! TO.C,IC31*
X120999600Y-101233300D03*
X120999600Y-101883300D03*
X120999600Y-102533300D03*
X120999600Y-103183300D03*
X120999600Y-103833300D03*
X120999600Y-104483300D03*
X120999600Y-105133300D03*
X126724600Y-105133300D03*
X126724600Y-104483300D03*
X126724600Y-103833300D03*
X126724600Y-103183300D03*
X126724600Y-102533300D03*
X126724600Y-101883300D03*
X126724600Y-101233300D03*
G04 #@! TD*
D31*
G04 #@! TO.C,R4*
X192936500Y-134112000D03*
X191111500Y-134112000D03*
G04 #@! TD*
D23*
G04 #@! TO.C,PORT2*
X141655800Y-161949100D03*
X166547800Y-161949100D03*
D24*
X148564600Y-160526700D03*
X151333200Y-160526700D03*
X154101800Y-160526700D03*
X156870400Y-160526700D03*
X159639000Y-160526700D03*
X149948900Y-163370300D03*
X152717500Y-163370300D03*
X155486100Y-163370300D03*
X158254700Y-163370300D03*
G04 #@! TD*
D10*
G04 #@! TO.C,SEQGEN_XOR0*
X64193500Y-154260000D03*
X64193500Y-154910000D03*
X64193500Y-155560000D03*
X64193500Y-156210000D03*
X64193500Y-156860000D03*
X64193500Y-157510000D03*
X64193500Y-158160000D03*
X69918500Y-158160000D03*
X69918500Y-157510000D03*
X69918500Y-156860000D03*
X69918500Y-156210000D03*
X69918500Y-155560000D03*
X69918500Y-154910000D03*
X69918500Y-154260000D03*
G04 #@! TD*
D14*
G04 #@! TO.C,C14*
X92390000Y-109855000D03*
X90490000Y-109855000D03*
G04 #@! TD*
D10*
G04 #@! TO.C,GYL0*
X86303600Y-111826700D03*
X86303600Y-112476700D03*
X86303600Y-113126700D03*
X86303600Y-113776700D03*
X86303600Y-114426700D03*
X86303600Y-115076700D03*
X86303600Y-115726700D03*
X86303600Y-116376700D03*
X92028600Y-116376700D03*
X92028600Y-115726700D03*
X92028600Y-115076700D03*
X92028600Y-114426700D03*
X92028600Y-113776700D03*
X92028600Y-113126700D03*
X92028600Y-112476700D03*
X92028600Y-111826700D03*
G04 #@! TD*
D14*
G04 #@! TO.C,C17*
X69771900Y-88205300D03*
X67871900Y-88205300D03*
G04 #@! TD*
D10*
G04 #@! TO.C,GMUX3*
X76639500Y-23633000D03*
X76639500Y-24283000D03*
X76639500Y-24933000D03*
X76639500Y-25583000D03*
X76639500Y-26233000D03*
X76639500Y-26883000D03*
X76639500Y-27533000D03*
X76639500Y-28183000D03*
X82364500Y-28183000D03*
X82364500Y-27533000D03*
X82364500Y-26883000D03*
X82364500Y-26233000D03*
X82364500Y-25583000D03*
X82364500Y-24933000D03*
X82364500Y-24283000D03*
X82364500Y-23633000D03*
G04 #@! TD*
D14*
G04 #@! TO.C,C54*
X103820000Y-109855000D03*
X101920000Y-109855000D03*
G04 #@! TD*
D10*
G04 #@! TO.C,VYH0*
X63172900Y-100935000D03*
X63172900Y-101585000D03*
X63172900Y-102235000D03*
X63172900Y-102885000D03*
X63172900Y-103535000D03*
X63172900Y-104185000D03*
X63172900Y-104835000D03*
X63172900Y-105485000D03*
X68897900Y-105485000D03*
X68897900Y-104835000D03*
X68897900Y-104185000D03*
X68897900Y-103535000D03*
X68897900Y-102885000D03*
X68897900Y-102235000D03*
X68897900Y-101585000D03*
X68897900Y-100935000D03*
G04 #@! TD*
D32*
G04 #@! TO.C,U$5*
X162793000Y-85678000D03*
X162243000Y-85678000D03*
X161693000Y-85678000D03*
X161143000Y-85678000D03*
X160593000Y-85678000D03*
X160043000Y-85678000D03*
X159493000Y-85678000D03*
X159493000Y-98218000D03*
X160043000Y-98218000D03*
X160593000Y-98218000D03*
X161143000Y-98218000D03*
X161693000Y-98218000D03*
X162243000Y-98218000D03*
X162793000Y-98218000D03*
X163343000Y-98218000D03*
X163893000Y-98218000D03*
X164443000Y-98218000D03*
X164993000Y-98218000D03*
X165543000Y-98218000D03*
X166093000Y-98218000D03*
X166643000Y-98218000D03*
X166643000Y-85678000D03*
X166093000Y-85678000D03*
X165543000Y-85678000D03*
X164993000Y-85678000D03*
X164443000Y-85678000D03*
X163893000Y-85678000D03*
X163343000Y-85678000D03*
G04 #@! TD*
D33*
G04 #@! TO.C,U7*
X151630000Y-112081700D03*
X151630000Y-112731700D03*
X151630000Y-113381700D03*
X153530000Y-113381700D03*
X153530000Y-112731700D03*
X153530000Y-112081700D03*
G04 #@! TD*
D22*
G04 #@! TO.C,IC32*
X147148000Y-87190500D03*
X147798000Y-87190500D03*
X148448000Y-87190500D03*
X149098000Y-87190500D03*
X149748000Y-87190500D03*
X150398000Y-87190500D03*
X151048000Y-87190500D03*
X151048000Y-81465500D03*
X150398000Y-81465500D03*
X149748000Y-81465500D03*
X149098000Y-81465500D03*
X148448000Y-81465500D03*
X147798000Y-81465500D03*
X147148000Y-81465500D03*
G04 #@! TD*
D10*
G04 #@! TO.C,GMUX0*
X106103500Y-23633000D03*
X106103500Y-24283000D03*
X106103500Y-24933000D03*
X106103500Y-25583000D03*
X106103500Y-26233000D03*
X106103500Y-26883000D03*
X106103500Y-27533000D03*
X106103500Y-28183000D03*
X111828500Y-28183000D03*
X111828500Y-27533000D03*
X111828500Y-26883000D03*
X111828500Y-26233000D03*
X111828500Y-25583000D03*
X111828500Y-24933000D03*
X111828500Y-24283000D03*
X111828500Y-23633000D03*
G04 #@! TD*
D34*
G04 #@! TO.C,C33*
X142560000Y-146812000D03*
X144460000Y-146812000D03*
G04 #@! TD*
D25*
G04 #@! TO.C,C2*
X181852000Y-76438500D03*
X181852000Y-78338500D03*
G04 #@! TD*
D15*
G04 #@! TO.C,R6*
X147677500Y-154940000D03*
X149502500Y-154940000D03*
G04 #@! TD*
D13*
G04 #@! TO.C,C11*
X156210000Y-112075000D03*
X156210000Y-110175000D03*
G04 #@! TD*
D18*
G04 #@! TO.C,EXTRA_BUTTON_2*
X168910000Y-142259000D03*
X171450000Y-142259000D03*
G04 #@! TD*
D10*
G04 #@! TO.C,U4*
X52120100Y-93050000D03*
X52120100Y-93700000D03*
X52120100Y-94350000D03*
X52120100Y-95000000D03*
X52120100Y-95650000D03*
X52120100Y-96300000D03*
X52120100Y-96950000D03*
X57845100Y-96950000D03*
X57845100Y-96300000D03*
X57845100Y-95650000D03*
X57845100Y-95000000D03*
X57845100Y-94350000D03*
X57845100Y-93700000D03*
X57845100Y-93050000D03*
G04 #@! TD*
G04 #@! TO.C,CTR.W0*
X97868900Y-111826700D03*
X97868900Y-112476700D03*
X97868900Y-113126700D03*
X97868900Y-113776700D03*
X97868900Y-114426700D03*
X97868900Y-115076700D03*
X97868900Y-115726700D03*
X97868900Y-116376700D03*
X103593900Y-116376700D03*
X103593900Y-115726700D03*
X103593900Y-115076700D03*
X103593900Y-114426700D03*
X103593900Y-113776700D03*
X103593900Y-113126700D03*
X103593900Y-112476700D03*
X103593900Y-111826700D03*
G04 #@! TD*
D35*
G04 #@! TO.C,U$6*
X52389000Y-149479000D03*
X52389000Y-150749000D03*
X52389000Y-152019000D03*
X52389000Y-153289000D03*
X52389000Y-154559000D03*
X52389000Y-155829000D03*
X52389000Y-157099000D03*
X52389000Y-158369000D03*
X57339000Y-158369000D03*
X57339000Y-157099000D03*
X57339000Y-155829000D03*
X57339000Y-154559000D03*
X57339000Y-153289000D03*
X57339000Y-152019000D03*
X57339000Y-150749000D03*
X57339000Y-149479000D03*
G04 #@! TD*
D10*
G04 #@! TO.C,REG.FLAGS0*
X136629000Y-122789000D03*
X136629000Y-123439000D03*
X136629000Y-124089000D03*
X136629000Y-124739000D03*
X136629000Y-125389000D03*
X136629000Y-126039000D03*
X136629000Y-126689000D03*
X136629000Y-127339000D03*
X136629000Y-127989000D03*
X136629000Y-128639000D03*
X142354000Y-128639000D03*
X142354000Y-127989000D03*
X142354000Y-127339000D03*
X142354000Y-126689000D03*
X142354000Y-126039000D03*
X142354000Y-125389000D03*
X142354000Y-124739000D03*
X142354000Y-124089000D03*
X142354000Y-123439000D03*
X142354000Y-122789000D03*
G04 #@! TD*
G04 #@! TO.C,REG.GY0*
X98720800Y-122805000D03*
X98720800Y-123455000D03*
X98720800Y-124105000D03*
X98720800Y-124755000D03*
X98720800Y-125405000D03*
X98720800Y-126055000D03*
X98720800Y-126705000D03*
X98720800Y-127355000D03*
X98720800Y-128005000D03*
X98720800Y-128655000D03*
X104445800Y-128655000D03*
X104445800Y-128005000D03*
X104445800Y-127355000D03*
X104445800Y-126705000D03*
X104445800Y-126055000D03*
X104445800Y-125405000D03*
X104445800Y-124755000D03*
X104445800Y-124105000D03*
X104445800Y-123455000D03*
X104445800Y-122805000D03*
G04 #@! TD*
D36*
G04 #@! TO.C,L1*
X145630900Y-5427400D03*
X145630900Y-7577400D03*
G04 #@! TD*
D14*
G04 #@! TO.C,C21*
X127987200Y-120650000D03*
X126087200Y-120650000D03*
G04 #@! TD*
G04 #@! TO.C,C52*
X127630000Y-77205000D03*
X125730000Y-77205000D03*
G04 #@! TD*
D37*
G04 #@! TO.C,U$3*
X102870000Y-64770000D03*
X105410000Y-64770000D03*
X107950000Y-64770000D03*
X110490000Y-64770000D03*
X113030000Y-64770000D03*
X115570000Y-64770000D03*
X118110000Y-64770000D03*
X120650000Y-64770000D03*
X123190000Y-64770000D03*
X125730000Y-64770000D03*
X128270000Y-64770000D03*
X130810000Y-64770000D03*
X133350000Y-64770000D03*
X135890000Y-64770000D03*
X138430000Y-64770000D03*
X140970000Y-64770000D03*
X143510000Y-64770000D03*
X146050000Y-64770000D03*
X102870000Y-59918600D03*
X105410000Y-59918600D03*
X107950000Y-59918600D03*
X110490000Y-59918600D03*
X113030000Y-59918600D03*
X115570000Y-59918600D03*
X118110000Y-59918600D03*
X120650000Y-59918600D03*
X123190000Y-59918600D03*
X125730000Y-59918600D03*
X128270000Y-59918600D03*
X130810000Y-59918600D03*
X133350000Y-59918600D03*
X135890000Y-59918600D03*
X138430000Y-59918600D03*
X140970000Y-59918600D03*
X143510000Y-59918600D03*
X146050000Y-59918600D03*
G04 #@! TD*
D10*
G04 #@! TO.C,REG.VY0*
X75590100Y-122805000D03*
X75590100Y-123455000D03*
X75590100Y-124105000D03*
X75590100Y-124755000D03*
X75590100Y-125405000D03*
X75590100Y-126055000D03*
X75590100Y-126705000D03*
X75590100Y-127355000D03*
X75590100Y-128005000D03*
X75590100Y-128655000D03*
X81315100Y-128655000D03*
X81315100Y-128005000D03*
X81315100Y-127355000D03*
X81315100Y-126705000D03*
X81315100Y-126055000D03*
X81315100Y-125405000D03*
X81315100Y-124755000D03*
X81315100Y-124105000D03*
X81315100Y-123455000D03*
X81315100Y-122805000D03*
G04 #@! TD*
D14*
G04 #@! TO.C,C22*
X115570000Y-109855000D03*
X113670000Y-109855000D03*
G04 #@! TD*
G04 #@! TO.C,C38*
X175448000Y-124506000D03*
X173548000Y-124506000D03*
G04 #@! TD*
D25*
G04 #@! TO.C,C51*
X63500000Y-32206000D03*
X63500000Y-34106000D03*
G04 #@! TD*
D10*
G04 #@! TO.C,GXH0*
X74738200Y-100928300D03*
X74738200Y-101578300D03*
X74738200Y-102228300D03*
X74738200Y-102878300D03*
X74738200Y-103528300D03*
X74738200Y-104178300D03*
X74738200Y-104828300D03*
X74738200Y-105478300D03*
X80463200Y-105478300D03*
X80463200Y-104828300D03*
X80463200Y-104178300D03*
X80463200Y-103528300D03*
X80463200Y-102878300D03*
X80463200Y-102228300D03*
X80463200Y-101578300D03*
X80463200Y-100928300D03*
G04 #@! TD*
D38*
G04 #@! TO.C,RESET_SW_HDR0*
X177595000Y-160520000D03*
X180905000Y-157980000D03*
G04 #@! TD*
D14*
G04 #@! TO.C,C6*
X80700700Y-88265000D03*
X78800700Y-88265000D03*
G04 #@! TD*
G04 #@! TO.C,C26*
X69135400Y-109855000D03*
X67235400Y-109855000D03*
G04 #@! TD*
D10*
G04 #@! TO.C,IC4*
X184081500Y-65868000D03*
X184081500Y-66518000D03*
X184081500Y-67168000D03*
X184081500Y-67818000D03*
X184081500Y-68468000D03*
X184081500Y-69118000D03*
X184081500Y-69768000D03*
X189806500Y-69768000D03*
X189806500Y-69118000D03*
X189806500Y-68468000D03*
X189806500Y-67818000D03*
X189806500Y-67168000D03*
X189806500Y-66518000D03*
X189806500Y-65868000D03*
G04 #@! TD*
D39*
G04 #@! TO.C,U$4*
X54614000Y-32222500D03*
X54114000Y-32222500D03*
X53614000Y-32222500D03*
X53114000Y-32222500D03*
X52614000Y-32222500D03*
X52114000Y-32222500D03*
X51614000Y-32222500D03*
X51114000Y-32222500D03*
X51114000Y-51597500D03*
X51614000Y-51597500D03*
X52114000Y-51597500D03*
X52614000Y-51597500D03*
X53114000Y-51597500D03*
X53614000Y-51597500D03*
X54114000Y-51597500D03*
X54614000Y-51597500D03*
X55114000Y-51597500D03*
X55614000Y-51597500D03*
X56114000Y-51597500D03*
X56614000Y-51597500D03*
X57114000Y-51597500D03*
X57614000Y-51597500D03*
X58114000Y-51597500D03*
X58614000Y-51597500D03*
X58614000Y-32222500D03*
X58114000Y-32222500D03*
X57614000Y-32222500D03*
X57114000Y-32222500D03*
X56614000Y-32222500D03*
X56114000Y-32222500D03*
X55614000Y-32222500D03*
X55114000Y-32222500D03*
G04 #@! TD*
D10*
G04 #@! TO.C,CTR.H0*
X109434300Y-111826700D03*
X109434300Y-112476700D03*
X109434300Y-113126700D03*
X109434300Y-113776700D03*
X109434300Y-114426700D03*
X109434300Y-115076700D03*
X109434300Y-115726700D03*
X109434300Y-116376700D03*
X115159300Y-116376700D03*
X115159300Y-115726700D03*
X115159300Y-115076700D03*
X115159300Y-114426700D03*
X115159300Y-113776700D03*
X115159300Y-113126700D03*
X115159300Y-112476700D03*
X115159300Y-111826700D03*
G04 #@! TD*
G04 #@! TO.C,VXH0*
X51493500Y-101103000D03*
X51493500Y-101753000D03*
X51493500Y-102403000D03*
X51493500Y-103053000D03*
X51493500Y-103703000D03*
X51493500Y-104353000D03*
X51493500Y-105003000D03*
X51493500Y-105653000D03*
X57218500Y-105653000D03*
X57218500Y-105003000D03*
X57218500Y-104353000D03*
X57218500Y-103703000D03*
X57218500Y-103053000D03*
X57218500Y-102403000D03*
X57218500Y-101753000D03*
X57218500Y-101103000D03*
G04 #@! TD*
G04 #@! TO.C,GYH0*
X86303600Y-100928300D03*
X86303600Y-101578300D03*
X86303600Y-102228300D03*
X86303600Y-102878300D03*
X86303600Y-103528300D03*
X86303600Y-104178300D03*
X86303600Y-104828300D03*
X86303600Y-105478300D03*
X92028600Y-105478300D03*
X92028600Y-104828300D03*
X92028600Y-104178300D03*
X92028600Y-103528300D03*
X92028600Y-102878300D03*
X92028600Y-102228300D03*
X92028600Y-101578300D03*
X92028600Y-100928300D03*
G04 #@! TD*
G04 #@! TO.C,REG.W0*
X110286100Y-122805000D03*
X110286100Y-123455000D03*
X110286100Y-124105000D03*
X110286100Y-124755000D03*
X110286100Y-125405000D03*
X110286100Y-126055000D03*
X110286100Y-126705000D03*
X110286100Y-127355000D03*
X110286100Y-128005000D03*
X110286100Y-128655000D03*
X116011100Y-128655000D03*
X116011100Y-128005000D03*
X116011100Y-127355000D03*
X116011100Y-126705000D03*
X116011100Y-126055000D03*
X116011100Y-125405000D03*
X116011100Y-124755000D03*
X116011100Y-124105000D03*
X116011100Y-123455000D03*
X116011100Y-122805000D03*
G04 #@! TD*
D14*
G04 #@! TO.C,C8*
X112066000Y-21994700D03*
X110166000Y-21994700D03*
G04 #@! TD*
G04 #@! TO.C,C13*
X104807200Y-120650000D03*
X102907200Y-120650000D03*
G04 #@! TD*
G04 #@! TO.C,C29*
X87435600Y-71790300D03*
X85535600Y-71790300D03*
G04 #@! TD*
G04 #@! TO.C,C23*
X115570000Y-99060000D03*
X113670000Y-99060000D03*
G04 #@! TD*
D25*
G04 #@! TO.C,C58*
X148424900Y-5552400D03*
X148424900Y-7452400D03*
G04 #@! TD*
G04 #@! TO.C,C44*
X178609300Y-98859000D03*
X178609300Y-100759000D03*
G04 #@! TD*
D10*
G04 #@! TO.C,GAMEPAD_SELECTOR0*
X121343500Y-149434000D03*
X121343500Y-150084000D03*
X121343500Y-150734000D03*
X121343500Y-151384000D03*
X121343500Y-152034000D03*
X121343500Y-152684000D03*
X121343500Y-153334000D03*
X127068500Y-153334000D03*
X127068500Y-152684000D03*
X127068500Y-152034000D03*
X127068500Y-151384000D03*
X127068500Y-150734000D03*
X127068500Y-150084000D03*
X127068500Y-149434000D03*
G04 #@! TD*
D14*
G04 #@! TO.C,C31*
X175715000Y-108041300D03*
X173815000Y-108041300D03*
G04 #@! TD*
D40*
G04 #@! TO.C,D1*
X145600000Y-17200000D03*
X142800000Y-17200000D03*
G04 #@! TD*
D14*
G04 #@! TO.C,C27*
X69135400Y-99060000D03*
X67235400Y-99060000D03*
G04 #@! TD*
G04 #@! TO.C,C59*
X127315000Y-109855000D03*
X125415000Y-109855000D03*
G04 #@! TD*
D31*
G04 #@! TO.C,R3*
X192936500Y-130810000D03*
X191111500Y-130810000D03*
G04 #@! TD*
D38*
G04 #@! TO.C,LED1*
X122000000Y-162000000D03*
X125310000Y-159460000D03*
G04 #@! TD*
D14*
G04 #@! TO.C,C9*
X102160000Y-22098000D03*
X100260000Y-22098000D03*
G04 #@! TD*
G04 #@! TO.C,C41*
X76395600Y-71790300D03*
X74495600Y-71790300D03*
G04 #@! TD*
G04 #@! TO.C,C28*
X81847600Y-62800300D03*
X79947600Y-62800300D03*
G04 #@! TD*
D10*
G04 #@! TO.C,VYL0*
X63172900Y-111830000D03*
X63172900Y-112480000D03*
X63172900Y-113130000D03*
X63172900Y-113780000D03*
X63172900Y-114430000D03*
X63172900Y-115080000D03*
X63172900Y-115730000D03*
X63172900Y-116380000D03*
X68897900Y-116380000D03*
X68897900Y-115730000D03*
X68897900Y-115080000D03*
X68897900Y-114430000D03*
X68897900Y-113780000D03*
X68897900Y-113130000D03*
X68897900Y-112480000D03*
X68897900Y-111830000D03*
G04 #@! TD*
D34*
G04 #@! TO.C,C39*
X61039000Y-148844000D03*
X62939000Y-148844000D03*
G04 #@! TD*
D10*
G04 #@! TO.C,GMUX1*
X96197500Y-23633000D03*
X96197500Y-24283000D03*
X96197500Y-24933000D03*
X96197500Y-25583000D03*
X96197500Y-26233000D03*
X96197500Y-26883000D03*
X96197500Y-27533000D03*
X96197500Y-28183000D03*
X101922500Y-28183000D03*
X101922500Y-27533000D03*
X101922500Y-26883000D03*
X101922500Y-26233000D03*
X101922500Y-25583000D03*
X101922500Y-24933000D03*
X101922500Y-24283000D03*
X101922500Y-23633000D03*
G04 #@! TD*
D15*
G04 #@! TO.C,R16*
X116035000Y-159460000D03*
X117860000Y-159460000D03*
G04 #@! TD*
D10*
G04 #@! TO.C,GXL0*
X74738200Y-111826700D03*
X74738200Y-112476700D03*
X74738200Y-113126700D03*
X74738200Y-113776700D03*
X74738200Y-114426700D03*
X74738200Y-115076700D03*
X74738200Y-115726700D03*
X74738200Y-116376700D03*
X80463200Y-116376700D03*
X80463200Y-115726700D03*
X80463200Y-115076700D03*
X80463200Y-114426700D03*
X80463200Y-113776700D03*
X80463200Y-113126700D03*
X80463200Y-112476700D03*
X80463200Y-111826700D03*
G04 #@! TD*
D14*
G04 #@! TO.C,C10*
X58280000Y-109855000D03*
X56380000Y-109855000D03*
G04 #@! TD*
D10*
G04 #@! TO.C,REG.H0*
X121851500Y-122805000D03*
X121851500Y-123455000D03*
X121851500Y-124105000D03*
X121851500Y-124755000D03*
X121851500Y-125405000D03*
X121851500Y-126055000D03*
X121851500Y-126705000D03*
X121851500Y-127355000D03*
X121851500Y-128005000D03*
X121851500Y-128655000D03*
X127576500Y-128655000D03*
X127576500Y-128005000D03*
X127576500Y-127355000D03*
X127576500Y-126705000D03*
X127576500Y-126055000D03*
X127576500Y-125405000D03*
X127576500Y-124755000D03*
X127576500Y-124105000D03*
X127576500Y-123455000D03*
X127576500Y-122805000D03*
G04 #@! TD*
D14*
G04 #@! TO.C,C49*
X142809000Y-120904000D03*
X140909000Y-120904000D03*
G04 #@! TD*
D41*
G04 #@! TO.C,IC2*
X145509400Y-9870400D03*
X145509400Y-10820400D03*
X145509400Y-11770400D03*
X147784400Y-11770400D03*
X147784400Y-10820400D03*
X147784400Y-9870400D03*
G04 #@! TD*
D10*
G04 #@! TO.C,VMUX3*
X81473100Y-73465300D03*
X81473100Y-74115300D03*
X81473100Y-74765300D03*
X81473100Y-75415300D03*
X81473100Y-76065300D03*
X81473100Y-76715300D03*
X81473100Y-77365300D03*
X81473100Y-78015300D03*
X87198100Y-78015300D03*
X87198100Y-77365300D03*
X87198100Y-76715300D03*
X87198100Y-76065300D03*
X87198100Y-75415300D03*
X87198100Y-74765300D03*
X87198100Y-74115300D03*
X87198100Y-73465300D03*
G04 #@! TD*
D28*
G04 #@! TO.C,J1*
X175850000Y-28800331D03*
X209150000Y-28800331D03*
D42*
X183875000Y-31340331D03*
X186165000Y-31340331D03*
X188455000Y-31340331D03*
X190745000Y-31340331D03*
X193035000Y-31340331D03*
X195325000Y-31340331D03*
X197615000Y-31340331D03*
X199905000Y-31340331D03*
X202195000Y-31340331D03*
X182730000Y-28800331D03*
X185020000Y-28800331D03*
X187310000Y-28800331D03*
X189600000Y-28800331D03*
X191890000Y-28800331D03*
X194180000Y-28800331D03*
X196470000Y-28800331D03*
X198760000Y-28800331D03*
X201050000Y-28800331D03*
X183875000Y-26260331D03*
X186165000Y-26260331D03*
X188455000Y-26260331D03*
X190745000Y-26260331D03*
X193035000Y-26260331D03*
X195325000Y-26260331D03*
X197615000Y-26260331D03*
X199905000Y-26260331D03*
G04 #@! TD*
D14*
G04 #@! TO.C,C46*
X142555000Y-109855000D03*
X140655000Y-109855000D03*
G04 #@! TD*
D10*
G04 #@! TO.C,VMUX1*
X70043100Y-73465300D03*
X70043100Y-74115300D03*
X70043100Y-74765300D03*
X70043100Y-75415300D03*
X70043100Y-76065300D03*
X70043100Y-76715300D03*
X70043100Y-77365300D03*
X70043100Y-78015300D03*
X75768100Y-78015300D03*
X75768100Y-77365300D03*
X75768100Y-76715300D03*
X75768100Y-76065300D03*
X75768100Y-75415300D03*
X75768100Y-74765300D03*
X75768100Y-74115300D03*
X75768100Y-73465300D03*
G04 #@! TD*
D38*
G04 #@! TO.C,JP1*
X134845000Y-12170000D03*
X138155000Y-9630000D03*
G04 #@! TD*
D22*
G04 #@! TO.C,REG.COLOR0*
X41779000Y-116654500D03*
X42429000Y-116654500D03*
X43079000Y-116654500D03*
X43729000Y-116654500D03*
X44379000Y-116654500D03*
X45029000Y-116654500D03*
X45679000Y-116654500D03*
X46329000Y-116654500D03*
X46979000Y-116654500D03*
X47629000Y-116654500D03*
X47629000Y-110929500D03*
X46979000Y-110929500D03*
X46329000Y-110929500D03*
X45679000Y-110929500D03*
X45029000Y-110929500D03*
X44379000Y-110929500D03*
X43729000Y-110929500D03*
X43079000Y-110929500D03*
X42429000Y-110929500D03*
X41779000Y-110929500D03*
G04 #@! TD*
D31*
G04 #@! TO.C,R5*
X177442500Y-132126000D03*
X175617500Y-132126000D03*
G04 #@! TD*
D10*
G04 #@! TO.C,IC5*
X109434300Y-101233300D03*
X109434300Y-101883300D03*
X109434300Y-102533300D03*
X109434300Y-103183300D03*
X109434300Y-103833300D03*
X109434300Y-104483300D03*
X109434300Y-105133300D03*
X115159300Y-105133300D03*
X115159300Y-104483300D03*
X115159300Y-103833300D03*
X115159300Y-103183300D03*
X115159300Y-102533300D03*
X115159300Y-101883300D03*
X115159300Y-101233300D03*
G04 #@! TD*
D25*
G04 #@! TO.C,C50*
X145101300Y-81010500D03*
X145101300Y-82910500D03*
G04 #@! TD*
D11*
G04 #@! TO.C,TO_AUDIO_PROCESSOR1*
X202650000Y-76449300D03*
X202650000Y-75949300D03*
X202650000Y-75449300D03*
X202650000Y-74949300D03*
X202650000Y-74449300D03*
X202650000Y-73949300D03*
X202650000Y-73449300D03*
X202650000Y-72949300D03*
X202650000Y-72449300D03*
X202650000Y-71949300D03*
X202650000Y-71449300D03*
X202650000Y-70949300D03*
X202650000Y-70449300D03*
X202650000Y-69949300D03*
X202650000Y-69449300D03*
X202650000Y-68949300D03*
X202650000Y-68449300D03*
X202650000Y-67949300D03*
X202650000Y-67449300D03*
X202650000Y-66949300D03*
X202650000Y-66449300D03*
X202650000Y-65949300D03*
X202650000Y-65449300D03*
X202650000Y-64949300D03*
X202650000Y-64449300D03*
X202650000Y-63949300D03*
X202650000Y-63449300D03*
X202650000Y-62949300D03*
X202650000Y-62449300D03*
X202650000Y-61949300D03*
X202650000Y-61449300D03*
X202650000Y-60949300D03*
X202650000Y-60449300D03*
X202650000Y-59949300D03*
X202650000Y-59449300D03*
X202650000Y-58949300D03*
X202650000Y-58449300D03*
X202650000Y-57949300D03*
X202650000Y-57449300D03*
X202650000Y-56949300D03*
D12*
X204350000Y-78119300D03*
X204350000Y-55279300D03*
G04 #@! TD*
D10*
G04 #@! TO.C,IC18*
X97856900Y-90696300D03*
X97856900Y-91346300D03*
X97856900Y-91996300D03*
X97856900Y-92646300D03*
X97856900Y-93296300D03*
X97856900Y-93946300D03*
X97856900Y-94596300D03*
X103581900Y-94596300D03*
X103581900Y-93946300D03*
X103581900Y-93296300D03*
X103581900Y-92646300D03*
X103581900Y-91996300D03*
X103581900Y-91346300D03*
X103581900Y-90696300D03*
G04 #@! TD*
D14*
G04 #@! TO.C,C30*
X70873600Y-62800300D03*
X68973600Y-62800300D03*
G04 #@! TD*
D43*
G04 #@! TO.C,C66*
X133700000Y-23050000D03*
X133700000Y-25550000D03*
G04 #@! TD*
D13*
G04 #@! TO.C,C7*
X59500000Y-91450000D03*
X59500000Y-89550000D03*
G04 #@! TD*
D14*
G04 #@! TO.C,C61*
X70508900Y-140466000D03*
X68608900Y-140466000D03*
G04 #@! TD*
D44*
G04 #@! TO.C,U$2*
X40580000Y-149008000D03*
X40580000Y-154268000D03*
X45780000Y-154268000D03*
X45780000Y-149008000D03*
G04 #@! TD*
D14*
G04 #@! TO.C,C4*
X80700700Y-109855000D03*
X78800700Y-109855000D03*
G04 #@! TD*
G04 #@! TO.C,C62*
X70508900Y-152213300D03*
X68608900Y-152213300D03*
G04 #@! TD*
G04 #@! TO.C,C55*
X103820000Y-99060000D03*
X101920000Y-99060000D03*
G04 #@! TD*
D15*
G04 #@! TO.C,R1*
X191111500Y-137668000D03*
X192936500Y-137668000D03*
G04 #@! TD*
D14*
G04 #@! TO.C,C19*
X82725900Y-22098000D03*
X80825900Y-22098000D03*
G04 #@! TD*
D10*
G04 #@! TO.C,CLK.SEQ0*
X64193500Y-142576000D03*
X64193500Y-143226000D03*
X64193500Y-143876000D03*
X64193500Y-144526000D03*
X64193500Y-145176000D03*
X64193500Y-145826000D03*
X64193500Y-146476000D03*
X69918500Y-146476000D03*
X69918500Y-145826000D03*
X69918500Y-145176000D03*
X69918500Y-144526000D03*
X69918500Y-143876000D03*
X69918500Y-143226000D03*
X69918500Y-142576000D03*
G04 #@! TD*
G04 #@! TO.C,BLIT_BUS_SWITCH0*
X86303600Y-41525000D03*
X86303600Y-42175000D03*
X86303600Y-42825000D03*
X86303600Y-43475000D03*
X86303600Y-44125000D03*
X86303600Y-44775000D03*
X86303600Y-45425000D03*
X86303600Y-46075000D03*
X86303600Y-46725000D03*
X86303600Y-47375000D03*
X92028600Y-47375000D03*
X92028600Y-46725000D03*
X92028600Y-46075000D03*
X92028600Y-45425000D03*
X92028600Y-44775000D03*
X92028600Y-44125000D03*
X92028600Y-43475000D03*
X92028600Y-42825000D03*
X92028600Y-42175000D03*
X92028600Y-41525000D03*
G04 #@! TD*
G04 #@! TO.C,U3*
X74738200Y-90375000D03*
X74738200Y-91025000D03*
X74738200Y-91675000D03*
X74738200Y-92325000D03*
X74738200Y-92975000D03*
X74738200Y-93625000D03*
X74738200Y-94275000D03*
X80463200Y-94275000D03*
X80463200Y-93625000D03*
X80463200Y-92975000D03*
X80463200Y-92325000D03*
X80463200Y-91675000D03*
X80463200Y-91025000D03*
X80463200Y-90375000D03*
G04 #@! TD*
D14*
G04 #@! TO.C,C25*
X81552600Y-120650000D03*
X79652600Y-120650000D03*
G04 #@! TD*
D22*
G04 #@! TO.C,TOPDECODER0*
X180351000Y-104716500D03*
X181001000Y-104716500D03*
X181651000Y-104716500D03*
X182301000Y-104716500D03*
X182951000Y-104716500D03*
X183601000Y-104716500D03*
X184251000Y-104716500D03*
X184901000Y-104716500D03*
X184901000Y-98991500D03*
X184251000Y-98991500D03*
X183601000Y-98991500D03*
X182951000Y-98991500D03*
X182301000Y-98991500D03*
X181651000Y-98991500D03*
X181001000Y-98991500D03*
X180351000Y-98991500D03*
G04 #@! TD*
D28*
G04 #@! TO.C,H3*
X203360000Y-161145000D03*
D29*
X203360000Y-161145000D03*
G04 #@! TD*
D14*
G04 #@! TO.C,C65*
X143278900Y-8026400D03*
X141378900Y-8026400D03*
G04 #@! TD*
D10*
G04 #@! TO.C,VMUX0*
X64201100Y-64575300D03*
X64201100Y-65225300D03*
X64201100Y-65875300D03*
X64201100Y-66525300D03*
X64201100Y-67175300D03*
X64201100Y-67825300D03*
X64201100Y-68475300D03*
X64201100Y-69125300D03*
X69926100Y-69125300D03*
X69926100Y-68475300D03*
X69926100Y-67825300D03*
X69926100Y-67175300D03*
X69926100Y-66525300D03*
X69926100Y-65875300D03*
X69926100Y-65225300D03*
X69926100Y-64575300D03*
G04 #@! TD*
D14*
G04 #@! TO.C,C64*
X143278900Y-10312400D03*
X141378900Y-10312400D03*
G04 #@! TD*
D15*
G04 #@! TO.C,R7*
X90527500Y-154940000D03*
X92352500Y-154940000D03*
G04 #@! TD*
D10*
G04 #@! TO.C,TRIGGER.INIT0*
X136375000Y-112131700D03*
X136375000Y-112781700D03*
X136375000Y-113431700D03*
X136375000Y-114081700D03*
X136375000Y-114731700D03*
X136375000Y-115381700D03*
X136375000Y-116031700D03*
X142100000Y-116031700D03*
X142100000Y-115381700D03*
X142100000Y-114731700D03*
X142100000Y-114081700D03*
X142100000Y-113431700D03*
X142100000Y-112781700D03*
X142100000Y-112131700D03*
G04 #@! TD*
D28*
G04 #@! TO.C,H1*
X45560000Y-29050000D03*
D29*
X45560000Y-29050000D03*
G04 #@! TD*
D14*
G04 #@! TO.C,C48*
X142509500Y-99000700D03*
X140609500Y-99000700D03*
G04 #@! TD*
D10*
G04 #@! TO.C,U6*
X63685500Y-90252000D03*
X63685500Y-90902000D03*
X63685500Y-91552000D03*
X63685500Y-92202000D03*
X63685500Y-92852000D03*
X63685500Y-93502000D03*
X63685500Y-94152000D03*
X69410500Y-94152000D03*
X69410500Y-93502000D03*
X69410500Y-92852000D03*
X69410500Y-92202000D03*
X69410500Y-91552000D03*
X69410500Y-90902000D03*
X69410500Y-90252000D03*
G04 #@! TD*
D14*
G04 #@! TO.C,C3*
X93117900Y-120650000D03*
X91217900Y-120650000D03*
G04 #@! TD*
G04 #@! TO.C,C40*
X45907400Y-43374000D03*
X44007400Y-43374000D03*
G04 #@! TD*
G04 #@! TO.C,C18*
X92377900Y-21994700D03*
X90477900Y-21994700D03*
G04 #@! TD*
D25*
G04 #@! TO.C,C20*
X60500000Y-103550000D03*
X60500000Y-105450000D03*
G04 #@! TD*
D30*
G04 #@! TO.C,PAD1REG0*
X101472400Y-145685000D03*
X101472400Y-145035000D03*
X101472400Y-144385000D03*
X101472400Y-143735000D03*
X101472400Y-143085000D03*
X101472400Y-142435000D03*
X101472400Y-141785000D03*
X101472400Y-141135000D03*
X101472400Y-140485000D03*
X101472400Y-139835000D03*
X95747400Y-139835000D03*
X95747400Y-140485000D03*
X95747400Y-141135000D03*
X95747400Y-141785000D03*
X95747400Y-142435000D03*
X95747400Y-143085000D03*
X95747400Y-143735000D03*
X95747400Y-144385000D03*
X95747400Y-145035000D03*
X95747400Y-145685000D03*
G04 #@! TD*
D25*
G04 #@! TO.C,C56*
X39624000Y-109069100D03*
X39624000Y-110969100D03*
G04 #@! TD*
D34*
G04 #@! TO.C,C32*
X94493000Y-147320000D03*
X96393000Y-147320000D03*
G04 #@! TD*
D14*
G04 #@! TO.C,C24*
X103721900Y-88586300D03*
X101821900Y-88586300D03*
G04 #@! TD*
M02*
