%TF.GenerationSoftware,KiCad,Pcbnew,7.0.5*%
%TF.CreationDate,2023-08-21T23:54:45-04:00*%
%TF.ProjectId,LogicBoard_smt,4c6f6769-6342-46f6-9172-645f736d742e,rev?*%
%TF.SameCoordinates,Original*%
%TF.FileFunction,Soldermask,Bot*%
%TF.FilePolarity,Negative*%
%FSLAX46Y46*%
G04 Gerber Fmt 4.6, Leading zero omitted, Abs format (unit mm)*
G04 Created by KiCad (PCBNEW 7.0.5) date 2023-08-21 23:54:45*
%MOMM*%
%LPD*%
G01*
G04 APERTURE LIST*
G04 Aperture macros list*
%AMFreePoly0*
4,1,25,0.375350,0.844196,0.387473,0.833842,0.833842,0.387473,0.862349,0.331525,0.863600,0.315631,0.863600,-0.315631,0.844196,-0.375350,0.833842,-0.387473,0.387473,-0.833842,0.331525,-0.862349,0.315631,-0.863600,-0.315631,-0.863600,-0.375350,-0.844196,-0.387473,-0.833842,-0.833842,-0.387473,-0.862349,-0.331525,-0.863600,-0.315631,-0.863600,0.315631,-0.844196,0.375350,-0.833842,0.387473,
-0.387473,0.833842,-0.331525,0.862349,-0.315631,0.863600,0.315631,0.863600,0.375350,0.844196,0.375350,0.844196,$1*%
%AMFreePoly1*
4,1,25,0.848796,1.987196,0.860919,1.976842,1.976842,0.860919,2.005349,0.804971,2.006600,0.789077,2.006600,-0.789077,1.987196,-0.848796,1.976842,-0.860919,0.860919,-1.976842,0.804971,-2.005349,0.789077,-2.006600,-0.789077,-2.006600,-0.848796,-1.987196,-0.860919,-1.976842,-1.976842,-0.860919,-2.005349,-0.804971,-2.006600,-0.789077,-2.006600,0.789077,-1.987196,0.848796,-1.976842,0.860919,
-0.860919,1.976842,-0.804971,2.005349,-0.789077,2.006600,0.789077,2.006600,0.848796,1.987196,0.848796,1.987196,$1*%
G04 Aperture macros list end*
%ADD10C,6.400000*%
%ADD11C,3.600000*%
%ADD12O,1.727200X3.251200*%
%ADD13C,3.048000*%
%ADD14FreePoly0,0.000000*%
%ADD15C,1.727200*%
%ADD16FreePoly1,0.000000*%
%ADD17O,1.700000X1.700000*%
%ADD18R,1.700000X1.700000*%
G04 APERTURE END LIST*
D10*
%TO.C,H4*%
X203360000Y-39050000D03*
D11*
X203360000Y-39050000D03*
%TD*%
D10*
%TO.C,H3*%
X203360000Y-161145000D03*
D11*
X203360000Y-161145000D03*
%TD*%
D10*
%TO.C,H2*%
X45560000Y-161145000D03*
D11*
X45560000Y-161145000D03*
%TD*%
%TO.C,HE*%
X45560000Y-29050000D03*
D10*
X45560000Y-29050000D03*
%TD*%
D12*
%TO.C,EXTRA_BUTTON_1*%
X85852000Y-140208000D03*
X88392000Y-140208000D03*
%TD*%
D13*
%TO.C,PORT1*%
X82372200Y-161949100D03*
X107264200Y-161949100D03*
D14*
X89281000Y-160526700D03*
X92049600Y-160526700D03*
X94818200Y-160526700D03*
X97586800Y-160526700D03*
X100355400Y-160526700D03*
X90665300Y-163370300D03*
X93433900Y-163370300D03*
X96202500Y-163370300D03*
X98971100Y-163370300D03*
%TD*%
D13*
%TO.C,PORT2*%
X141655800Y-161949100D03*
X166547800Y-161949100D03*
D14*
X148564600Y-160526700D03*
X151333200Y-160526700D03*
X154101800Y-160526700D03*
X156870400Y-160526700D03*
X159639000Y-160526700D03*
X149948900Y-163370300D03*
X152717500Y-163370300D03*
X155486100Y-163370300D03*
X158254700Y-163370300D03*
%TD*%
D12*
%TO.C,EXTRA_BUTTON_2*%
X168910000Y-142259000D03*
X171450000Y-142259000D03*
%TD*%
D15*
%TO.C,U$3*%
X102870000Y-64770000D03*
X105410000Y-64770000D03*
X107950000Y-64770000D03*
X110490000Y-64770000D03*
X113030000Y-64770000D03*
X115570000Y-64770000D03*
X118110000Y-64770000D03*
X120650000Y-64770000D03*
X123190000Y-64770000D03*
X125730000Y-64770000D03*
X128270000Y-64770000D03*
X130810000Y-64770000D03*
X133350000Y-64770000D03*
X135890000Y-64770000D03*
X138430000Y-64770000D03*
X140970000Y-64770000D03*
X143510000Y-64770000D03*
X146050000Y-64770000D03*
X102870000Y-59918600D03*
X105410000Y-59918600D03*
X107950000Y-59918600D03*
X110490000Y-59918600D03*
X113030000Y-59918600D03*
X115570000Y-59918600D03*
X118110000Y-59918600D03*
X120650000Y-59918600D03*
X123190000Y-59918600D03*
X125730000Y-59918600D03*
X128270000Y-59918600D03*
X130810000Y-59918600D03*
X133350000Y-59918600D03*
X135890000Y-59918600D03*
X138430000Y-59918600D03*
X140970000Y-59918600D03*
X143510000Y-59918600D03*
X146050000Y-59918600D03*
%TD*%
D16*
%TO.C,+5V0*%
X163830000Y-24130000D03*
%TD*%
%TO.C,GROUND0*%
X151130000Y-24130000D03*
%TD*%
D17*
%TO.C,VIAPORT0*%
X177888900Y-28346400D03*
X180428900Y-28346400D03*
X182968900Y-28346400D03*
X185508900Y-28346400D03*
X188048900Y-28346400D03*
X190588900Y-28346400D03*
X193128900Y-28346400D03*
X195668900Y-28346400D03*
X198208900Y-28346400D03*
X200748900Y-28346400D03*
X203288900Y-28346400D03*
X205828900Y-28346400D03*
X208368900Y-28346400D03*
D18*
X210908900Y-28346400D03*
%TD*%
M02*
