%TF.GenerationSoftware,KiCad,Pcbnew,7.0.5*%
%TF.CreationDate,2023-08-21T23:54:45-04:00*%
%TF.ProjectId,LogicBoard_smt,4c6f6769-6342-46f6-9172-645f736d742e,rev?*%
%TF.SameCoordinates,Original*%
%TF.FileFunction,Legend,Bot*%
%TF.FilePolarity,Positive*%
%FSLAX46Y46*%
G04 Gerber Fmt 4.6, Leading zero omitted, Abs format (unit mm)*
G04 Created by KiCad (PCBNEW 7.0.5) date 2023-08-21 23:54:45*
%MOMM*%
%LPD*%
G01*
G04 APERTURE LIST*
%ADD10C,0.101600*%
G04 APERTURE END LIST*
D10*
X165332228Y-27346621D02*
X164442019Y-27346621D01*
X164887123Y-27791726D02*
X164887123Y-26901516D01*
X163329257Y-26623326D02*
X163885638Y-26623326D01*
X163885638Y-26623326D02*
X163941276Y-27179707D01*
X163941276Y-27179707D02*
X163885638Y-27124068D01*
X163885638Y-27124068D02*
X163774362Y-27068430D01*
X163774362Y-27068430D02*
X163496171Y-27068430D01*
X163496171Y-27068430D02*
X163384895Y-27124068D01*
X163384895Y-27124068D02*
X163329257Y-27179707D01*
X163329257Y-27179707D02*
X163273619Y-27290983D01*
X163273619Y-27290983D02*
X163273619Y-27569173D01*
X163273619Y-27569173D02*
X163329257Y-27680449D01*
X163329257Y-27680449D02*
X163384895Y-27736088D01*
X163384895Y-27736088D02*
X163496171Y-27791726D01*
X163496171Y-27791726D02*
X163774362Y-27791726D01*
X163774362Y-27791726D02*
X163885638Y-27736088D01*
X163885638Y-27736088D02*
X163941276Y-27680449D01*
X162939790Y-26623326D02*
X162550324Y-27791726D01*
X162550324Y-27791726D02*
X162160857Y-26623326D01*
X153828447Y-26678964D02*
X153939723Y-26623326D01*
X153939723Y-26623326D02*
X154106637Y-26623326D01*
X154106637Y-26623326D02*
X154273552Y-26678964D01*
X154273552Y-26678964D02*
X154384828Y-26790240D01*
X154384828Y-26790240D02*
X154440466Y-26901516D01*
X154440466Y-26901516D02*
X154496104Y-27124068D01*
X154496104Y-27124068D02*
X154496104Y-27290983D01*
X154496104Y-27290983D02*
X154440466Y-27513535D01*
X154440466Y-27513535D02*
X154384828Y-27624811D01*
X154384828Y-27624811D02*
X154273552Y-27736088D01*
X154273552Y-27736088D02*
X154106637Y-27791726D01*
X154106637Y-27791726D02*
X153995361Y-27791726D01*
X153995361Y-27791726D02*
X153828447Y-27736088D01*
X153828447Y-27736088D02*
X153772809Y-27680449D01*
X153772809Y-27680449D02*
X153772809Y-27290983D01*
X153772809Y-27290983D02*
X153995361Y-27290983D01*
X152604409Y-27791726D02*
X152993876Y-27235345D01*
X153272066Y-27791726D02*
X153272066Y-26623326D01*
X153272066Y-26623326D02*
X152826961Y-26623326D01*
X152826961Y-26623326D02*
X152715685Y-26678964D01*
X152715685Y-26678964D02*
X152660047Y-26734602D01*
X152660047Y-26734602D02*
X152604409Y-26845878D01*
X152604409Y-26845878D02*
X152604409Y-27012792D01*
X152604409Y-27012792D02*
X152660047Y-27124068D01*
X152660047Y-27124068D02*
X152715685Y-27179707D01*
X152715685Y-27179707D02*
X152826961Y-27235345D01*
X152826961Y-27235345D02*
X153272066Y-27235345D01*
X151881114Y-26623326D02*
X151658561Y-26623326D01*
X151658561Y-26623326D02*
X151547285Y-26678964D01*
X151547285Y-26678964D02*
X151436009Y-26790240D01*
X151436009Y-26790240D02*
X151380371Y-27012792D01*
X151380371Y-27012792D02*
X151380371Y-27402259D01*
X151380371Y-27402259D02*
X151436009Y-27624811D01*
X151436009Y-27624811D02*
X151547285Y-27736088D01*
X151547285Y-27736088D02*
X151658561Y-27791726D01*
X151658561Y-27791726D02*
X151881114Y-27791726D01*
X151881114Y-27791726D02*
X151992390Y-27736088D01*
X151992390Y-27736088D02*
X152103666Y-27624811D01*
X152103666Y-27624811D02*
X152159304Y-27402259D01*
X152159304Y-27402259D02*
X152159304Y-27012792D01*
X152159304Y-27012792D02*
X152103666Y-26790240D01*
X152103666Y-26790240D02*
X151992390Y-26678964D01*
X151992390Y-26678964D02*
X151881114Y-26623326D01*
X150879628Y-26623326D02*
X150879628Y-27569173D01*
X150879628Y-27569173D02*
X150823990Y-27680449D01*
X150823990Y-27680449D02*
X150768352Y-27736088D01*
X150768352Y-27736088D02*
X150657076Y-27791726D01*
X150657076Y-27791726D02*
X150434523Y-27791726D01*
X150434523Y-27791726D02*
X150323247Y-27736088D01*
X150323247Y-27736088D02*
X150267609Y-27680449D01*
X150267609Y-27680449D02*
X150211971Y-27569173D01*
X150211971Y-27569173D02*
X150211971Y-26623326D01*
X149655590Y-27791726D02*
X149655590Y-26623326D01*
X149655590Y-26623326D02*
X148987933Y-27791726D01*
X148987933Y-27791726D02*
X148987933Y-26623326D01*
X148431552Y-27791726D02*
X148431552Y-26623326D01*
X148431552Y-26623326D02*
X148153362Y-26623326D01*
X148153362Y-26623326D02*
X147986447Y-26678964D01*
X147986447Y-26678964D02*
X147875171Y-26790240D01*
X147875171Y-26790240D02*
X147819533Y-26901516D01*
X147819533Y-26901516D02*
X147763895Y-27124068D01*
X147763895Y-27124068D02*
X147763895Y-27290983D01*
X147763895Y-27290983D02*
X147819533Y-27513535D01*
X147819533Y-27513535D02*
X147875171Y-27624811D01*
X147875171Y-27624811D02*
X147986447Y-27736088D01*
X147986447Y-27736088D02*
X148153362Y-27791726D01*
X148153362Y-27791726D02*
X148431552Y-27791726D01*
M02*
