G04 #@! TF.GenerationSoftware,KiCad,Pcbnew,7.0.6*
G04 #@! TF.CreationDate,2024-11-20T12:06:44-05:00*
G04 #@! TF.ProjectId,LogicBoard_smt,4c6f6769-6342-46f6-9172-645f736d742e,rev?*
G04 #@! TF.SameCoordinates,Original*
G04 #@! TF.FileFunction,Soldermask,Bot*
G04 #@! TF.FilePolarity,Negative*
%FSLAX46Y46*%
G04 Gerber Fmt 4.6, Leading zero omitted, Abs format (unit mm)*
G04 Created by KiCad (PCBNEW 7.0.6) date 2024-11-20 12:06:44*
%MOMM*%
%LPD*%
G01*
G04 APERTURE LIST*
G04 Aperture macros list*
%AMFreePoly0*
4,1,25,0.375350,0.844196,0.387473,0.833842,0.833842,0.387473,0.862349,0.331525,0.863600,0.315631,0.863600,-0.315631,0.844196,-0.375350,0.833842,-0.387473,0.387473,-0.833842,0.331525,-0.862349,0.315631,-0.863600,-0.315631,-0.863600,-0.375350,-0.844196,-0.387473,-0.833842,-0.833842,-0.387473,-0.862349,-0.331525,-0.863600,-0.315631,-0.863600,0.315631,-0.844196,0.375350,-0.833842,0.387473,
-0.387473,0.833842,-0.331525,0.862349,-0.315631,0.863600,0.315631,0.863600,0.375350,0.844196,0.375350,0.844196,$1*%
G04 Aperture macros list end*
%ADD10O,1.727200X3.251200*%
%ADD11R,4.600000X2.000000*%
%ADD12O,4.200000X2.000000*%
%ADD13O,2.000000X4.200000*%
%ADD14C,3.048000*%
%ADD15FreePoly0,0.000000*%
%ADD16R,1.000000X1.000000*%
%ADD17O,1.000000X1.000000*%
%ADD18C,3.600000*%
%ADD19C,6.400000*%
%ADD20C,1.727200*%
%ADD21C,1.700000*%
%ADD22C,1.600000*%
G04 APERTURE END LIST*
D10*
G04 #@! TO.C,EXTRA_BUTTON_1*
X85852000Y-140208000D03*
X88392000Y-140208000D03*
G04 #@! TD*
D11*
G04 #@! TO.C,J2*
X158838900Y-14072400D03*
D12*
X158838900Y-7772400D03*
D13*
X154038900Y-11172400D03*
G04 #@! TD*
D14*
G04 #@! TO.C,PORT1*
X82372200Y-161949100D03*
X107264200Y-161949100D03*
D15*
X89281000Y-160526700D03*
X92049600Y-160526700D03*
X94818200Y-160526700D03*
X97586800Y-160526700D03*
X100355400Y-160526700D03*
X90665300Y-163370300D03*
X93433900Y-163370300D03*
X96202500Y-163370300D03*
X98971100Y-163370300D03*
G04 #@! TD*
D16*
G04 #@! TO.C,J3*
X188500000Y-158225000D03*
D17*
X188500000Y-159495000D03*
X188500000Y-160765000D03*
G04 #@! TD*
D18*
G04 #@! TO.C,H2*
X45560000Y-161145000D03*
D19*
X45560000Y-161145000D03*
G04 #@! TD*
D18*
G04 #@! TO.C,H4*
X203360000Y-39050000D03*
D19*
X203360000Y-39050000D03*
G04 #@! TD*
D14*
G04 #@! TO.C,PORT2*
X141655800Y-161949100D03*
X166547800Y-161949100D03*
D15*
X148564600Y-160526700D03*
X151333200Y-160526700D03*
X154101800Y-160526700D03*
X156870400Y-160526700D03*
X159639000Y-160526700D03*
X149948900Y-163370300D03*
X152717500Y-163370300D03*
X155486100Y-163370300D03*
X158254700Y-163370300D03*
G04 #@! TD*
D10*
G04 #@! TO.C,EXTRA_BUTTON_2*
X168910000Y-142259000D03*
X171450000Y-142259000D03*
G04 #@! TD*
D20*
G04 #@! TO.C,U$3*
X102870000Y-64770000D03*
X105410000Y-64770000D03*
X107950000Y-64770000D03*
X110490000Y-64770000D03*
X113030000Y-64770000D03*
X115570000Y-64770000D03*
X118110000Y-64770000D03*
X120650000Y-64770000D03*
X123190000Y-64770000D03*
X125730000Y-64770000D03*
X128270000Y-64770000D03*
X130810000Y-64770000D03*
X133350000Y-64770000D03*
X135890000Y-64770000D03*
X138430000Y-64770000D03*
X140970000Y-64770000D03*
X143510000Y-64770000D03*
X146050000Y-64770000D03*
X102870000Y-59918600D03*
X105410000Y-59918600D03*
X107950000Y-59918600D03*
X110490000Y-59918600D03*
X113030000Y-59918600D03*
X115570000Y-59918600D03*
X118110000Y-59918600D03*
X120650000Y-59918600D03*
X123190000Y-59918600D03*
X125730000Y-59918600D03*
X128270000Y-59918600D03*
X130810000Y-59918600D03*
X133350000Y-59918600D03*
X135890000Y-59918600D03*
X138430000Y-59918600D03*
X140970000Y-59918600D03*
X143510000Y-59918600D03*
X146050000Y-59918600D03*
G04 #@! TD*
D18*
G04 #@! TO.C,J1*
X175850000Y-28800331D03*
X209150000Y-28800331D03*
D21*
X183875000Y-31340331D03*
X186165000Y-31340331D03*
X188455000Y-31340331D03*
X190745000Y-31340331D03*
X193035000Y-31340331D03*
X195325000Y-31340331D03*
X197615000Y-31340331D03*
X199905000Y-31340331D03*
X202195000Y-31340331D03*
X182730000Y-28800331D03*
X185020000Y-28800331D03*
X187310000Y-28800331D03*
X189600000Y-28800331D03*
X191890000Y-28800331D03*
X194180000Y-28800331D03*
X196470000Y-28800331D03*
X198760000Y-28800331D03*
X201050000Y-28800331D03*
X183875000Y-26260331D03*
X186165000Y-26260331D03*
X188455000Y-26260331D03*
X190745000Y-26260331D03*
X193035000Y-26260331D03*
X195325000Y-26260331D03*
X197615000Y-26260331D03*
X199905000Y-26260331D03*
G04 #@! TD*
D22*
G04 #@! TO.C,C66*
X133700000Y-23050000D03*
X133700000Y-25550000D03*
G04 #@! TD*
D18*
G04 #@! TO.C,H3*
X203360000Y-161145000D03*
D19*
X203360000Y-161145000D03*
G04 #@! TD*
D18*
G04 #@! TO.C,H1*
X45560000Y-29050000D03*
D19*
X45560000Y-29050000D03*
G04 #@! TD*
M02*
