0
SECTION
2
HEADER
9
$INSUNITS
70
4
9
$ACADVER
1
AC1014
9
$HANDSEED
5
FFFF
0
ENDSEC
0
SECTION
2
TABLES
0
TABLE
2
VPORT
5
8
100
AcDbSymbolTable
0
ENDTAB
0
TABLE
2
LTYPE
5
5
100
AcDbSymbolTable
0
LTYPE
5
14
100
AcDbSymbolTableRecord
100
AcDbLinetypeTableRecord
2
BYBLOCK
70
0
0
LTYPE
5
15
100
AcDbSymbolTableRecord
100
AcDbLinetypeTableRecord
2
BYLAYER
70
0
0
LTYPE
5
16
100
AcDbSymbolTableRecord
100
AcDbLinetypeTableRecord
2
DASHED
70
0
3
Dashed __ __ __ __ __ __ __ __ __ __ __ __ __ _
72
65
73
2
40
0.75
49
0.5
74
0
49
-0.25
74
0
0
ENDTAB
0
TABLE
2
LAYER
5
2
100
AcDbSymbolTable
70
2
0
LAYER
5
50
100
AcDbSymbolTableRecord
100
AcDbLayerTableRecord
2
0
70
0
62
7
6
CONTINUOUS
0
ENDTAB
0
TABLE
2
STYLE
5
3
100
AcDbSymbolTable
70
1
0
STYLE
5
11
100
AcDbSymbolTableRecord
100
AcDbTextStyleTableRecord
2
STANDARD
70
0
0
ENDTAB
0
TABLE
2
VIEW
5
6
100
AcDbSymbolTable
70
0
0
ENDTAB
0
TABLE
2
UCS
5
7
100
AcDbSymbolTable
70
0
0
ENDTAB
0
TABLE
2
APPID
5
9
100
AcDbSymbolTable
70
2
0
APPID
5
12
100
AcDbSymbolTableRecord
100
AcDbRegAppTableRecord
2
ACAD
70
0
0
ENDTAB
0
TABLE
2
DIMSTYLE
5
A
100
AcDbSymbolTable
70
1
0
ENDTAB
0
TABLE
2
BLOCK_RECORD
5
1
100
AcDbSymbolTable
70
1
0
BLOCK_RECORD
5
1F
100
AcDbSymbolTableRecord
100
AcDbBlockTableRecord
2
*MODEL_SPACE
0
BLOCK_RECORD
5
1B
100
AcDbSymbolTableRecord
100
AcDbBlockTableRecord
2
*PAPER_SPACE
0
ENDTAB
0
ENDSEC
0
SECTION
2
BLOCKS
0
BLOCK
5
20
100
AcDbEntity
100
AcDbBlockBegin
2
*MODEL_SPACE
0
ENDBLK
5
21
100
AcDbEntity
100
AcDbBlockEnd
0
BLOCK
5
1C
100
AcDbEntity
100
AcDbBlockBegin
2
*PAPER_SPACE
0
ENDBLK
5
1D
100
AcDbEntity
100
AcDbBlockEnd
0
ENDSEC
0
SECTION
2
ENTITIES
0
LWPOLYLINE
5
100
100
AcDbEntity
8
0
100
AcDbPolyline
90
10
70
1
43
0.0
10
38.896020973133737
20
219.4653856387967
42
0.4142135623730932
10
28.896020973133734
20
209.4653856387967
10
28.896020973133737
20
160.51338563879659
10
44.02102097313373
20
160.51338563879659
42
0.99999999999999989
10
75.771020973133716
20
160.51338563879659
10
90.896020973133716
20
160.51338563879659
10
90.896020973133716
20
209.4653856387967
42
0.41421356237309453
10
80.896020973133716
20
219.4653856387967
10
75.77102097313373
20
219.4653856387967
42
0.99999999999999989
10
44.02102097313373
20
219.4653856387967
0
LWPOLYLINE
5
101
100
AcDbEntity
8
0
100
AcDbPolyline
90
10
70
1
43
0.0
10
129.91193657534947
20
219.70571470519388
42
0.41421356237309503
10
119.91193657534949
20
209.70571470519388
10
119.91193657534949
20
160.75371470519386
10
135.0369365753495
20
160.75371470519386
42
0.99999999999999989
10
166.7869365753495
20
160.75371470519386
10
181.91193657534953
20
160.75371470519386
10
181.91193657534953
20
209.70571470519388
42
0.41421356237309293
10
171.91193657534953
20
219.70571470519388
10
166.7869365753495
20
219.70571470519388
42
0.99999999999999989
10
135.0369365753495
20
219.70571470519388
0
LWPOLYLINE
5
102
100
AcDbEntity
8
0
100
AcDbPolyline
90
10
70
1
43
0.0
10
218.41140899397027
20
41.176738672065596
10
198.81140899397022
20
41.176738672066016
42
-0.99999999999999989
10
198.81140899397178
20
106.67673867206611
10
227.88272164159184
20
106.67673867206544
42
0.86741260942109555
10
232.07680026805389
20
136.0633686297198
42
-7.006695051504507
10
260.61060062473172
20
136.06336862972032
42
0.86741260942107901
10
264.8046792511945
20
106.67673867206459
10
288.81140899397172
20
106.676738672064
42
-0.99999999999999989
10
288.81140899397025
20
41.176738672063955
10
269.21140899397022
20
41.17673867206441
42
-0.99999999999999989
0
LWPOLYLINE
5
103
100
AcDbEntity
8
0
100
AcDbPolyline
90
6
70
1
43
0.0
10
120.91456832117403
20
129.04362175268895
10
120.91456832117403
20
103.94362175268895
42
-0.99999999999999989
10
120.91456832117403
20
53.143621752688937
10
120.91456832117403
20
28.043621752688949
10
23.914568321174055
20
28.043621752688942
10
23.914568321174055
20
129.04362175268895
0
LWPOLYLINE
5
104
100
AcDbEntity
8
0
100
AcDbPolyline
90
4
70
1
43
0.0
10
1.0000000000000142
20
1.0000000000000142
10
349
20
1.0000000000000142
10
349
20
249
10
1.0000000000000142
20
249
0
ENDSEC
0
SECTION
2
OBJECTS
0
DICTIONARY
5
C
100
AcDbDictionary
3
ACAD_GROUP
350
D
3
ACAD_MLINESTYLE
350
17
0
DICTIONARY
5
D
100
AcDbDictionary
0
DICTIONARY
5
1A
330
C
100
AcDbDictionary
0
DICTIONARY
5
17
100
AcDbDictionary
0
ENDSEC
0
EOF
