0
SECTION
2
HEADER
9
$INSUNITS
70
4
9
$ACADVER
1
AC1014
9
$HANDSEED
5
FFFF
0
ENDSEC
0
SECTION
2
TABLES
0
TABLE
2
VPORT
5
8
100
AcDbSymbolTable
0
ENDTAB
0
TABLE
2
LTYPE
5
5
100
AcDbSymbolTable
0
LTYPE
5
14
100
AcDbSymbolTableRecord
100
AcDbLinetypeTableRecord
2
BYBLOCK
70
0
0
LTYPE
5
15
100
AcDbSymbolTableRecord
100
AcDbLinetypeTableRecord
2
BYLAYER
70
0
0
LTYPE
5
16
100
AcDbSymbolTableRecord
100
AcDbLinetypeTableRecord
2
DASHED
70
0
3
Dashed __ __ __ __ __ __ __ __ __ __ __ __ __ _
72
65
73
2
40
0.75
49
0.5
74
0
49
-0.25
74
0
0
ENDTAB
0
TABLE
2
LAYER
5
2
100
AcDbSymbolTable
70
2
0
LAYER
5
50
100
AcDbSymbolTableRecord
100
AcDbLayerTableRecord
2
0
70
0
62
7
6
CONTINUOUS
0
ENDTAB
0
TABLE
2
STYLE
5
3
100
AcDbSymbolTable
70
1
0
STYLE
5
11
100
AcDbSymbolTableRecord
100
AcDbTextStyleTableRecord
2
STANDARD
70
0
0
ENDTAB
0
TABLE
2
VIEW
5
6
100
AcDbSymbolTable
70
0
0
ENDTAB
0
TABLE
2
UCS
5
7
100
AcDbSymbolTable
70
0
0
ENDTAB
0
TABLE
2
APPID
5
9
100
AcDbSymbolTable
70
2
0
APPID
5
12
100
AcDbSymbolTableRecord
100
AcDbRegAppTableRecord
2
ACAD
70
0
0
ENDTAB
0
TABLE
2
DIMSTYLE
5
A
100
AcDbSymbolTable
70
1
0
ENDTAB
0
TABLE
2
BLOCK_RECORD
5
1
100
AcDbSymbolTable
70
1
0
BLOCK_RECORD
5
1F
100
AcDbSymbolTableRecord
100
AcDbBlockTableRecord
2
*MODEL_SPACE
0
BLOCK_RECORD
5
1B
100
AcDbSymbolTableRecord
100
AcDbBlockTableRecord
2
*PAPER_SPACE
0
ENDTAB
0
ENDSEC
0
SECTION
2
BLOCKS
0
BLOCK
5
20
100
AcDbEntity
100
AcDbBlockBegin
2
*MODEL_SPACE
0
ENDBLK
5
21
100
AcDbEntity
100
AcDbBlockEnd
0
BLOCK
5
1C
100
AcDbEntity
100
AcDbBlockBegin
2
*PAPER_SPACE
0
ENDBLK
5
1D
100
AcDbEntity
100
AcDbBlockEnd
0
ENDSEC
0
SECTION
2
ENTITIES
0
LWPOLYLINE
5
100
100
AcDbEntity
8
0
100
AcDbPolyline
90
4
70
1
43
0.0
10
291.46886316469443
20
140.35225232453138
10
241.46886316469462
20
140.35225232453379
10
241.46886316469903
20
230.35225232453615
10
291.4688631646988
20
230.35225232453371
0
LWPOLYLINE
5
101
100
AcDbEntity
8
0
100
AcDbPolyline
90
8
70
1
43
0.0
10
270.5530484597752
20
70.15652630548233
10
270.55304845977503
20
62.156526305482458
10
264.55304845977514
20
62.1565263054826
10
264.55304845977429
20
25.156526305483009
10
249.55304845977452
20
25.156526305483396
10
249.55304845977534
20
62.156526305482984
10
240.55304845977545
20
62.156526305483212
10
240.55304845977562
20
70.156526305483084
0
LWPOLYLINE
5
102
100
AcDbEntity
8
0
100
AcDbPolyline
90
4
70
1
43
0.0
10
335.44828890731765
20
19.462677086780282
10
300.44828890731765
20
19.462677086780324
10
300.44828890731742
20
189.46267708678036
10
335.44828890732674
20
189.46267708677993
0
LWPOLYLINE
5
103
100
AcDbEntity
8
0
100
AcDbPolyline
90
32
70
1
43
0.0
10
103.69067981486907
20
187.97787772701133
42
0.99999999999999989
10
52.890679814869053
20
187.97787772701128
10
27.490679814869058
20
187.97787772701133
10
27.490679814869111
20
151.69253469209559
10
18.490679814869068
20
146.49638226938887
10
18.490679814869051
20
141.45937318463356
10
27.490679814869047
20
136.26322076192704
10
27.490679814869043
20
76.692534692095506
10
18.490679814868997
20
71.496382269388988
10
18.490679814869011
20
66.459373184633677
10
27.490679814869008
20
61.263220761927002
10
27.490679814868951
20
28.153613658299321
10
30.666415746157032
20
24.977877727011247
10
52.490679814868948
20
24.977877727011261
10
52.490679814868955
20
22.977877727011268
10
190.89067981486895
20
22.977877727011268
10
190.89067981486892
20
24.977877727011261
10
212.71494388358087
20
24.977877727011251
10
215.89067981486892
20
28.153613658299346
10
215.89067981486892
20
61.263220761927002
10
224.89067981486886
20
66.459373184633691
10
224.89067981486886
20
71.496382269388988
10
215.89067981486889
20
76.692534692095506
10
215.89067981486895
20
136.26322076192704
10
224.89067981486895
20
141.45937318463359
10
224.89067981486897
20
146.4963822693889
10
215.89067981486895
20
151.69253469209559
10
215.89067981486903
20
187.9778777270113
10
168.74300570916489
20
187.97787772701133
10
168.74300570916489
20
201.99092350953572
10
122.74300570916495
20
201.99092350953572
10
122.74300570916492
20
187.9778777270113
0
LWPOLYLINE
5
104
100
AcDbEntity
8
0
100
AcDbPolyline
90
8
70
1
43
0.0
10
270.55304845977645
20
127.26306226452019
10
270.55304845977628
20
119.26306226452026
10
264.55304845977639
20
119.26306226452043
10
264.5530484597756
20
82.26306226452084
10
249.55304845977579
20
82.263062264521238
10
249.55304845977662
20
119.26306226452078
10
240.5530484597767
20
119.26306226452104
10
240.5530484597769
20
127.26306226452097
0
LWPOLYLINE
5
105
100
AcDbEntity
8
0
100
AcDbPolyline
90
4
70
1
43
0.0
10
349
20
249
10
1.0000000000000142
20
249
10
1
20
0.99999999999999978
10
349
20
0.99999999999999978
0
ENDSEC
0
SECTION
2
OBJECTS
0
DICTIONARY
5
C
100
AcDbDictionary
3
ACAD_GROUP
350
D
3
ACAD_MLINESTYLE
350
17
0
DICTIONARY
5
D
100
AcDbDictionary
0
DICTIONARY
5
1A
330
C
100
AcDbDictionary
0
DICTIONARY
5
17
100
AcDbDictionary
0
ENDSEC
0
EOF
